G04 #@! TF.GenerationSoftware,KiCad,Pcbnew,(2017-03-23 revision 5aa1610)-master*
G04 #@! TF.CreationDate,2017-05-12T08:57:20+02:00*
G04 #@! TF.ProjectId,aPortableInductionHeater,61506F727461626C65496E6475637469,rev?*
G04 #@! TF.FileFunction,Copper,L1,Top,Signal*
G04 #@! TF.FilePolarity,Positive*
%FSLAX46Y46*%
G04 Gerber Fmt 4.6, Leading zero omitted, Abs format (unit mm)*
G04 Created by KiCad (PCBNEW (2017-03-23 revision 5aa1610)-master) date 2017 May 12, Friday 08:57:20*
%MOMM*%
%LPD*%
G01*
G04 APERTURE LIST*
%ADD10C,0.100000*%
%ADD11C,3.000000*%
%ADD12O,2.032000X2.540000*%
%ADD13R,2.235200X1.219200*%
%ADD14R,2.199640X3.599180*%
%ADD15R,1.550000X0.600000*%
%ADD16C,1.600000*%
%ADD17R,1.778000X1.778000*%
%ADD18C,1.778000*%
%ADD19C,1.930400*%
%ADD20R,1.676400X1.676400*%
%ADD21C,2.400000*%
%ADD22O,2.400000X2.400000*%
%ADD23C,2.000000*%
%ADD24R,2.000000X2.000000*%
%ADD25C,1.800000*%
%ADD26R,1.800000X1.800000*%
%ADD27O,1.400000X1.400000*%
%ADD28C,1.400000*%
%ADD29R,3.000000X3.000000*%
%ADD30C,1.016000*%
%ADD31C,0.762000*%
%ADD32C,1.016000*%
%ADD33C,2.286000*%
%ADD34C,0.508000*%
%ADD35C,1.000000*%
%ADD36C,0.254000*%
G04 APERTURE END LIST*
D10*
D11*
X231902000Y-138430000D03*
D12*
X220472000Y-140970000D03*
X225552000Y-140970000D03*
X223012000Y-140970000D03*
D11*
X214122000Y-138430000D03*
X231902000Y-126746000D03*
D12*
X220472000Y-129286000D03*
X225552000Y-129286000D03*
X223012000Y-129286000D03*
D11*
X214122000Y-126746000D03*
X231902000Y-114808000D03*
D12*
X220472000Y-117348000D03*
X225552000Y-117348000D03*
X223012000Y-117348000D03*
D11*
X214122000Y-114808000D03*
X231648000Y-102616000D03*
D12*
X220218000Y-105156000D03*
X225298000Y-105156000D03*
X222758000Y-105156000D03*
D11*
X213868000Y-102616000D03*
D13*
X145084800Y-122961400D03*
X145084800Y-120650000D03*
X145084800Y-118341140D03*
D14*
X138887200Y-120650000D03*
D15*
X168750000Y-129667000D03*
X168750000Y-130937000D03*
X168750000Y-132207000D03*
X168750000Y-133477000D03*
X174150000Y-133477000D03*
X174150000Y-132207000D03*
X174150000Y-130937000D03*
X174150000Y-129667000D03*
X166718000Y-105537000D03*
X166718000Y-104267000D03*
X166718000Y-102997000D03*
X166718000Y-101727000D03*
X172118000Y-101727000D03*
X172118000Y-102997000D03*
X172118000Y-104267000D03*
X172118000Y-105537000D03*
D16*
X139954000Y-113030000D03*
X147454000Y-113030000D03*
X172466000Y-113792000D03*
X162466000Y-113792000D03*
X172466000Y-122936000D03*
X162466000Y-122936000D03*
X137414000Y-130810000D03*
X147414000Y-130810000D03*
X158496000Y-106172000D03*
X158496000Y-98672000D03*
X158750000Y-138938000D03*
X166250000Y-138938000D03*
D17*
X94906000Y-97250000D03*
D18*
X97446000Y-97250000D03*
X99986000Y-97250000D03*
X102526000Y-97250000D03*
X105066000Y-97250000D03*
X107606000Y-97250000D03*
X110146000Y-97250000D03*
X112686000Y-97250000D03*
X115226000Y-97250000D03*
X117766000Y-97250000D03*
D17*
X94856000Y-99800000D03*
D18*
X97396000Y-99800000D03*
X99936000Y-99800000D03*
X102476000Y-99800000D03*
X105016000Y-99800000D03*
X107556000Y-99800000D03*
X110096000Y-99800000D03*
X112636000Y-99800000D03*
X115176000Y-99800000D03*
X117716000Y-99800000D03*
D17*
X94907100Y-140433600D03*
D18*
X97447100Y-140433600D03*
X99987100Y-140433600D03*
X102527100Y-140433600D03*
X105067100Y-140433600D03*
X107607100Y-140433600D03*
X110147100Y-140433600D03*
X112687100Y-140433600D03*
X115227100Y-140433600D03*
X117767100Y-140433600D03*
D17*
X94907100Y-142973600D03*
D18*
X97447100Y-142973600D03*
X99987100Y-142973600D03*
X102527100Y-142973600D03*
X105067100Y-142973600D03*
X107607100Y-142973600D03*
X110147100Y-142973600D03*
X112687100Y-142973600D03*
X115227100Y-142973600D03*
X117767100Y-142973600D03*
D19*
X122852601Y-97259043D03*
X125392601Y-97259043D03*
D20*
X127932601Y-97259043D03*
D21*
X205232000Y-138176000D03*
D22*
X184912000Y-138176000D03*
D21*
X205232000Y-110490000D03*
D22*
X184912000Y-110490000D03*
X184912000Y-128524000D03*
D21*
X205232000Y-128524000D03*
D22*
X184912000Y-119888000D03*
D21*
X205232000Y-119888000D03*
D23*
X146478000Y-102108000D03*
D24*
X141478000Y-102108000D03*
D25*
X134366000Y-102870000D03*
D26*
X134366000Y-100330000D03*
D27*
X134366000Y-113030000D03*
D28*
X134366000Y-107950000D03*
D11*
X240538000Y-116840000D03*
D29*
X240538000Y-121920000D03*
D11*
X240538000Y-134620000D03*
D29*
X240538000Y-139700000D03*
D30*
X148590000Y-122936000D03*
X177038000Y-131064000D03*
X164338000Y-104140000D03*
X154178000Y-135890000D03*
X172212000Y-135890000D03*
X154178000Y-137160000D03*
X174244000Y-137160000D03*
X175514000Y-96774000D03*
X184912000Y-102870000D03*
X176022000Y-109474000D03*
X164338000Y-100584000D03*
X149860000Y-100330000D03*
D31*
X149098000Y-110490000D03*
D30*
X120650000Y-102616000D03*
X151130000Y-108966000D03*
X151130000Y-101600000D03*
X164338000Y-101854000D03*
D32*
X148564600Y-122961400D02*
X145084800Y-122961400D01*
X148590000Y-122936000D02*
X148564600Y-122961400D01*
X176911000Y-130937000D02*
X174150000Y-130937000D01*
X177038000Y-131064000D02*
X176911000Y-130937000D01*
X164465000Y-104267000D02*
X166718000Y-104267000D01*
X164338000Y-104140000D02*
X164465000Y-104267000D01*
D33*
X223012000Y-117348000D02*
X223012000Y-114046000D01*
X223012000Y-114046000D02*
X224536000Y-112522000D01*
X224536000Y-112522000D02*
X217678000Y-112522000D01*
X217678000Y-112522000D02*
X216662000Y-111506000D01*
X216662000Y-111506000D02*
X211582000Y-111506000D01*
X211582000Y-111506000D02*
X206756000Y-116332000D01*
X206756000Y-116332000D02*
X199644000Y-116332000D01*
X194056000Y-133350000D02*
X194056000Y-121920000D01*
X178308000Y-139192000D02*
X184150000Y-133350000D01*
X184150000Y-133350000D02*
X194056000Y-133350000D01*
X178308000Y-139192000D02*
X166504000Y-139192000D01*
X194056000Y-121920000D02*
X199644000Y-116332000D01*
X240538000Y-121920000D02*
X230886000Y-121920000D01*
X225552000Y-127254000D02*
X225552000Y-129286000D01*
X230886000Y-121920000D02*
X225552000Y-127254000D01*
X225552000Y-129286000D02*
X225552000Y-124206000D01*
X225552000Y-124206000D02*
X223012000Y-121666000D01*
X223012000Y-121666000D02*
X223012000Y-117348000D01*
D32*
X168750000Y-133477000D02*
X168750000Y-136438000D01*
D33*
X168750000Y-136438000D02*
X166250000Y-138938000D01*
X166504000Y-139192000D02*
X166250000Y-138938000D01*
D32*
X168750000Y-130937000D02*
X161925000Y-130937000D01*
X158750000Y-134112000D02*
X158750000Y-138938000D01*
X161925000Y-130937000D02*
X158750000Y-134112000D01*
D33*
X223012000Y-129286000D02*
X223012000Y-132334000D01*
X233172000Y-133604000D02*
X239268000Y-139700000D01*
X224282000Y-133604000D02*
X233172000Y-133604000D01*
X223012000Y-132334000D02*
X224282000Y-133604000D01*
X239268000Y-139700000D02*
X240538000Y-139700000D01*
X222885000Y-107061000D02*
X222377000Y-107061000D01*
X207899000Y-106553000D02*
X178816000Y-106553000D01*
X210058000Y-108712000D02*
X207899000Y-106553000D01*
X220726000Y-108712000D02*
X210058000Y-108712000D01*
X222377000Y-107061000D02*
X220726000Y-108712000D01*
X244094000Y-111252000D02*
X238252000Y-111252000D01*
X242316000Y-139700000D02*
X244094000Y-137922000D01*
X244094000Y-137922000D02*
X244094000Y-111252000D01*
X240538000Y-139700000D02*
X242316000Y-139700000D01*
X224536000Y-108712000D02*
X222885000Y-107061000D01*
X222885000Y-107061000D02*
X222758000Y-106934000D01*
X235712000Y-108712000D02*
X224536000Y-108712000D01*
X238252000Y-111252000D02*
X235712000Y-108712000D01*
X222758000Y-105156000D02*
X222758000Y-106934000D01*
X222758000Y-106934000D02*
X222758000Y-107442000D01*
X222758000Y-107442000D02*
X223012000Y-107188000D01*
X223012000Y-107188000D02*
X223012000Y-107442000D01*
X168402000Y-127000000D02*
X141224000Y-127000000D01*
X141224000Y-127000000D02*
X137414000Y-130810000D01*
D32*
X172118000Y-105537000D02*
X178816000Y-106553000D01*
D33*
X178816000Y-106553000D02*
X178816000Y-106426000D01*
X178816000Y-107442000D02*
X178816000Y-114554000D01*
X178816000Y-106426000D02*
X178816000Y-107442000D01*
D32*
X168402000Y-129319000D02*
X168402000Y-127000000D01*
D33*
X168402000Y-127000000D02*
X168402000Y-126746000D01*
X168402000Y-126746000D02*
X168656000Y-126492000D01*
D32*
X168402000Y-129319000D02*
X168750000Y-129667000D01*
X168402000Y-129319000D02*
X168750000Y-129667000D01*
X145084800Y-118341140D02*
X177060860Y-118341140D01*
D33*
X177060860Y-118341140D02*
X177292000Y-118110000D01*
X172466000Y-122936000D02*
X172212000Y-122936000D01*
X172212000Y-122936000D02*
X168656000Y-126492000D01*
X172466000Y-113792000D02*
X178054000Y-113792000D01*
X178054000Y-113792000D02*
X178816000Y-114554000D01*
X178816000Y-114554000D02*
X178816000Y-116586000D01*
X178816000Y-116586000D02*
X177292000Y-118110000D01*
X177292000Y-118110000D02*
X172466000Y-122936000D01*
D32*
X168750000Y-132207000D02*
X167005000Y-132207000D01*
X181356000Y-141732000D02*
X184912000Y-138176000D01*
X163830000Y-141732000D02*
X181356000Y-141732000D01*
X164084000Y-141986000D02*
X163830000Y-141732000D01*
X164084000Y-135128000D02*
X164084000Y-141986000D01*
X167005000Y-132207000D02*
X164084000Y-135128000D01*
X174150000Y-129667000D02*
X174625000Y-129667000D01*
X174625000Y-129667000D02*
X175768000Y-128524000D01*
X175768000Y-128524000D02*
X184912000Y-128524000D01*
D34*
X174150000Y-132207000D02*
X173101000Y-132207000D01*
X107556000Y-105524000D02*
X107556000Y-99800000D01*
X137922000Y-135890000D02*
X107556000Y-105524000D01*
X154178000Y-135890000D02*
X137922000Y-135890000D01*
X172212000Y-133096000D02*
X172212000Y-135890000D01*
X173101000Y-132207000D02*
X172212000Y-133096000D01*
X174150000Y-133477000D02*
X174150000Y-137066000D01*
X105016000Y-104762000D02*
X105016000Y-99800000D01*
X137414000Y-137160000D02*
X105016000Y-104762000D01*
X154178000Y-137160000D02*
X137414000Y-137160000D01*
X174150000Y-137066000D02*
X174244000Y-137160000D01*
D32*
X205232000Y-138176000D02*
X205232000Y-136652000D01*
X212598000Y-129286000D02*
X220472000Y-129286000D01*
X205232000Y-136652000D02*
X212598000Y-129286000D01*
X220472000Y-117094000D02*
X220472000Y-119380000D01*
X212852000Y-120904000D02*
X205232000Y-128524000D01*
X218948000Y-120904000D02*
X212852000Y-120904000D01*
X220472000Y-119380000D02*
X218948000Y-120904000D01*
X205232000Y-128524000D02*
X206248000Y-128524000D01*
X161290000Y-99314000D02*
X161290000Y-103378000D01*
X169799000Y-104267000D02*
X168910000Y-103378000D01*
X168910000Y-103378000D02*
X168910000Y-99822000D01*
X168910000Y-99822000D02*
X168402000Y-99314000D01*
X168402000Y-99314000D02*
X161290000Y-99314000D01*
X172118000Y-104267000D02*
X169799000Y-104267000D01*
X161290000Y-103378000D02*
X158496000Y-106172000D01*
D35*
X172118000Y-101727000D02*
X173101000Y-101727000D01*
X173101000Y-101727000D02*
X175514000Y-99314000D01*
D33*
X175514000Y-100330000D02*
X175514000Y-99314000D01*
X175514000Y-99314000D02*
X175514000Y-96774000D01*
D32*
X172118000Y-102997000D02*
X184785000Y-102997000D01*
X184785000Y-102997000D02*
X184912000Y-102870000D01*
X168656000Y-109474000D02*
X176022000Y-109474000D01*
X166718000Y-107536000D02*
X168656000Y-109474000D01*
X166718000Y-105537000D02*
X166718000Y-107536000D01*
D34*
X166718000Y-101186000D02*
X166116000Y-100584000D01*
X166116000Y-100584000D02*
X164338000Y-100584000D01*
X149860000Y-100330000D02*
X149098000Y-101092000D01*
X149098000Y-101092000D02*
X149098000Y-110490000D01*
X166718000Y-101727000D02*
X166718000Y-101186000D01*
X166718000Y-102997000D02*
X165481000Y-102997000D01*
X116972000Y-95504000D02*
X115226000Y-97250000D01*
X118618000Y-95504000D02*
X116972000Y-95504000D01*
X119888000Y-96774000D02*
X118618000Y-95504000D01*
X119888000Y-101854000D02*
X119888000Y-96774000D01*
X120650000Y-102616000D02*
X119888000Y-101854000D01*
X151130000Y-101600000D02*
X151130000Y-108966000D01*
X165481000Y-102997000D02*
X164338000Y-101854000D01*
D33*
X145084800Y-120650000D02*
X138887200Y-120650000D01*
X141478000Y-102108000D02*
X141478000Y-100584000D01*
X137414000Y-96520000D02*
X128671644Y-96520000D01*
X141478000Y-100584000D02*
X137414000Y-96520000D01*
X128671644Y-96520000D02*
X127932601Y-97259043D01*
X139954000Y-113030000D02*
X134366000Y-113030000D01*
X139954000Y-113030000D02*
X141478000Y-111506000D01*
X141478000Y-111506000D02*
X141478000Y-102108000D01*
X138887200Y-120650000D02*
X138887200Y-114096800D01*
X137820400Y-113030000D02*
X139954000Y-113030000D01*
X138887200Y-114096800D02*
X137820400Y-113030000D01*
D32*
X134366000Y-107950000D02*
X134366000Y-102870000D01*
D36*
G36*
X229917736Y-114019342D02*
X229767372Y-114381459D01*
X229766630Y-115230815D01*
X230090980Y-116015800D01*
X230691041Y-116616909D01*
X231475459Y-116942628D01*
X232324815Y-116943370D01*
X232690617Y-116792223D01*
X236384197Y-120485803D01*
X236425399Y-120513333D01*
X236474000Y-120523000D01*
X238403000Y-120523000D01*
X238403000Y-121634250D01*
X238561750Y-121793000D01*
X240411000Y-121793000D01*
X240411000Y-121773000D01*
X240665000Y-121773000D01*
X240665000Y-121793000D01*
X240685000Y-121793000D01*
X240685000Y-122047000D01*
X240665000Y-122047000D01*
X240665000Y-123896250D01*
X240823750Y-124055000D01*
X242164310Y-124055000D01*
X242189000Y-124044773D01*
X242189000Y-129667000D01*
X227203000Y-129667000D01*
X227203000Y-129413000D01*
X225679000Y-129413000D01*
X225679000Y-129433000D01*
X225425000Y-129433000D01*
X225425000Y-127545164D01*
X225679000Y-127545164D01*
X225679000Y-129159000D01*
X227203000Y-129159000D01*
X227203000Y-128905000D01*
X227028724Y-128282857D01*
X226629630Y-127774764D01*
X226066477Y-127458074D01*
X225934944Y-127426025D01*
X225679000Y-127545164D01*
X225425000Y-127545164D01*
X225425000Y-127168815D01*
X229766630Y-127168815D01*
X230090980Y-127953800D01*
X230691041Y-128554909D01*
X231475459Y-128880628D01*
X232324815Y-128881370D01*
X233109800Y-128557020D01*
X233710909Y-127956959D01*
X234036628Y-127172541D01*
X234037370Y-126323185D01*
X233713020Y-125538200D01*
X233112959Y-124937091D01*
X232328541Y-124611372D01*
X231479185Y-124610630D01*
X230694200Y-124934980D01*
X230093091Y-125535041D01*
X229767372Y-126319459D01*
X229766630Y-127168815D01*
X225425000Y-127168815D01*
X225425000Y-126492000D01*
X225415333Y-126443399D01*
X225387803Y-126402197D01*
X222631000Y-123645394D01*
X222631000Y-122205750D01*
X238403000Y-122205750D01*
X238403000Y-123546309D01*
X238499673Y-123779698D01*
X238678301Y-123958327D01*
X238911690Y-124055000D01*
X240252250Y-124055000D01*
X240411000Y-123896250D01*
X240411000Y-122047000D01*
X238561750Y-122047000D01*
X238403000Y-122205750D01*
X222631000Y-122205750D01*
X222631000Y-119207070D01*
X222885000Y-119088836D01*
X222885000Y-117475000D01*
X222865000Y-117475000D01*
X222865000Y-117221000D01*
X222885000Y-117221000D01*
X222885000Y-115607164D01*
X223139000Y-115607164D01*
X223139000Y-117221000D01*
X223159000Y-117221000D01*
X223159000Y-117475000D01*
X223139000Y-117475000D01*
X223139000Y-119088836D01*
X223394944Y-119207975D01*
X223526477Y-119175926D01*
X224089630Y-118859236D01*
X224267946Y-118632219D01*
X224384567Y-118806754D01*
X224920190Y-119164646D01*
X225552000Y-119290321D01*
X226183810Y-119164646D01*
X226719433Y-118806754D01*
X227077325Y-118271131D01*
X227203000Y-117639321D01*
X227203000Y-117056679D01*
X227077325Y-116424869D01*
X226719433Y-115889246D01*
X226183810Y-115531354D01*
X225552000Y-115405679D01*
X224920190Y-115531354D01*
X224384567Y-115889246D01*
X224267946Y-116063781D01*
X224089630Y-115836764D01*
X223526477Y-115520074D01*
X223394944Y-115488025D01*
X223139000Y-115607164D01*
X222885000Y-115607164D01*
X222631000Y-115488930D01*
X222631000Y-111125000D01*
X227023394Y-111125000D01*
X229917736Y-114019342D01*
X229917736Y-114019342D01*
G37*
X229917736Y-114019342D02*
X229767372Y-114381459D01*
X229766630Y-115230815D01*
X230090980Y-116015800D01*
X230691041Y-116616909D01*
X231475459Y-116942628D01*
X232324815Y-116943370D01*
X232690617Y-116792223D01*
X236384197Y-120485803D01*
X236425399Y-120513333D01*
X236474000Y-120523000D01*
X238403000Y-120523000D01*
X238403000Y-121634250D01*
X238561750Y-121793000D01*
X240411000Y-121793000D01*
X240411000Y-121773000D01*
X240665000Y-121773000D01*
X240665000Y-121793000D01*
X240685000Y-121793000D01*
X240685000Y-122047000D01*
X240665000Y-122047000D01*
X240665000Y-123896250D01*
X240823750Y-124055000D01*
X242164310Y-124055000D01*
X242189000Y-124044773D01*
X242189000Y-129667000D01*
X227203000Y-129667000D01*
X227203000Y-129413000D01*
X225679000Y-129413000D01*
X225679000Y-129433000D01*
X225425000Y-129433000D01*
X225425000Y-127545164D01*
X225679000Y-127545164D01*
X225679000Y-129159000D01*
X227203000Y-129159000D01*
X227203000Y-128905000D01*
X227028724Y-128282857D01*
X226629630Y-127774764D01*
X226066477Y-127458074D01*
X225934944Y-127426025D01*
X225679000Y-127545164D01*
X225425000Y-127545164D01*
X225425000Y-127168815D01*
X229766630Y-127168815D01*
X230090980Y-127953800D01*
X230691041Y-128554909D01*
X231475459Y-128880628D01*
X232324815Y-128881370D01*
X233109800Y-128557020D01*
X233710909Y-127956959D01*
X234036628Y-127172541D01*
X234037370Y-126323185D01*
X233713020Y-125538200D01*
X233112959Y-124937091D01*
X232328541Y-124611372D01*
X231479185Y-124610630D01*
X230694200Y-124934980D01*
X230093091Y-125535041D01*
X229767372Y-126319459D01*
X229766630Y-127168815D01*
X225425000Y-127168815D01*
X225425000Y-126492000D01*
X225415333Y-126443399D01*
X225387803Y-126402197D01*
X222631000Y-123645394D01*
X222631000Y-122205750D01*
X238403000Y-122205750D01*
X238403000Y-123546309D01*
X238499673Y-123779698D01*
X238678301Y-123958327D01*
X238911690Y-124055000D01*
X240252250Y-124055000D01*
X240411000Y-123896250D01*
X240411000Y-122047000D01*
X238561750Y-122047000D01*
X238403000Y-122205750D01*
X222631000Y-122205750D01*
X222631000Y-119207070D01*
X222885000Y-119088836D01*
X222885000Y-117475000D01*
X222865000Y-117475000D01*
X222865000Y-117221000D01*
X222885000Y-117221000D01*
X222885000Y-115607164D01*
X223139000Y-115607164D01*
X223139000Y-117221000D01*
X223159000Y-117221000D01*
X223159000Y-117475000D01*
X223139000Y-117475000D01*
X223139000Y-119088836D01*
X223394944Y-119207975D01*
X223526477Y-119175926D01*
X224089630Y-118859236D01*
X224267946Y-118632219D01*
X224384567Y-118806754D01*
X224920190Y-119164646D01*
X225552000Y-119290321D01*
X226183810Y-119164646D01*
X226719433Y-118806754D01*
X227077325Y-118271131D01*
X227203000Y-117639321D01*
X227203000Y-117056679D01*
X227077325Y-116424869D01*
X226719433Y-115889246D01*
X226183810Y-115531354D01*
X225552000Y-115405679D01*
X224920190Y-115531354D01*
X224384567Y-115889246D01*
X224267946Y-116063781D01*
X224089630Y-115836764D01*
X223526477Y-115520074D01*
X223394944Y-115488025D01*
X223139000Y-115607164D01*
X222885000Y-115607164D01*
X222631000Y-115488930D01*
X222631000Y-111125000D01*
X227023394Y-111125000D01*
X229917736Y-114019342D01*
G36*
X244221000Y-96519332D02*
X243968388Y-119507000D01*
X237288606Y-119507000D01*
X235044421Y-117262815D01*
X238402630Y-117262815D01*
X238726980Y-118047800D01*
X239327041Y-118648909D01*
X240111459Y-118974628D01*
X240960815Y-118975370D01*
X241745800Y-118651020D01*
X242346909Y-118050959D01*
X242672628Y-117266541D01*
X242673370Y-116417185D01*
X242349020Y-115632200D01*
X241748959Y-115031091D01*
X240964541Y-114705372D01*
X240115185Y-114704630D01*
X239330200Y-115028980D01*
X238729091Y-115629041D01*
X238403372Y-116413459D01*
X238402630Y-117262815D01*
X235044421Y-117262815D01*
X233737214Y-115955608D01*
X234036628Y-115234541D01*
X234037370Y-114385185D01*
X233713020Y-113600200D01*
X233112959Y-112999091D01*
X232328541Y-112673372D01*
X231479185Y-112672630D01*
X230753913Y-112972307D01*
X226657803Y-108876197D01*
X226616601Y-108848667D01*
X226568000Y-108839000D01*
X206040957Y-108839000D01*
X205598605Y-108655319D01*
X204868597Y-108654682D01*
X204422513Y-108839000D01*
X185716502Y-108839000D01*
X185650174Y-108794681D01*
X184947950Y-108655000D01*
X184876050Y-108655000D01*
X184173826Y-108794681D01*
X184107498Y-108839000D01*
X182118000Y-108839000D01*
X182069399Y-108848667D01*
X182028197Y-108876197D01*
X182000667Y-108917399D01*
X181991000Y-108966000D01*
X181991000Y-119835394D01*
X172917227Y-128909167D01*
X172917191Y-128909191D01*
X172917167Y-128909227D01*
X171905394Y-129921000D01*
X170128250Y-129921000D01*
X170001250Y-129794000D01*
X168877000Y-129794000D01*
X168877000Y-129814000D01*
X168850546Y-129814000D01*
X168750000Y-129794000D01*
X161925000Y-129794000D01*
X161487593Y-129881006D01*
X161427738Y-129921000D01*
X148554178Y-129921000D01*
X148227923Y-129594176D01*
X147700691Y-129375250D01*
X147129813Y-129374752D01*
X146602200Y-129592757D01*
X146273384Y-129921000D01*
X142494000Y-129921000D01*
X142445399Y-129930667D01*
X142404197Y-129958197D01*
X138430000Y-133932394D01*
X136315351Y-131817745D01*
X136585861Y-131817745D01*
X136659995Y-132063864D01*
X137197223Y-132256965D01*
X137767454Y-132229778D01*
X138168005Y-132063864D01*
X138242139Y-131817745D01*
X137414000Y-130989605D01*
X136585861Y-131817745D01*
X136315351Y-131817745D01*
X135090829Y-130593223D01*
X135967035Y-130593223D01*
X135994222Y-131163454D01*
X136160136Y-131564005D01*
X136406255Y-131638139D01*
X137234395Y-130810000D01*
X137593605Y-130810000D01*
X138421745Y-131638139D01*
X138667864Y-131564005D01*
X138860965Y-131026777D01*
X138833778Y-130456546D01*
X138667864Y-130055995D01*
X138421745Y-129981861D01*
X137593605Y-130810000D01*
X137234395Y-130810000D01*
X136406255Y-129981861D01*
X136160136Y-130055995D01*
X135967035Y-130593223D01*
X135090829Y-130593223D01*
X134299861Y-129802255D01*
X136585861Y-129802255D01*
X137414000Y-130630395D01*
X138242139Y-129802255D01*
X138168005Y-129556136D01*
X137630777Y-129363035D01*
X137060546Y-129390222D01*
X136659995Y-129556136D01*
X136585861Y-129802255D01*
X134299861Y-129802255D01*
X133738296Y-129240690D01*
X167340000Y-129240690D01*
X167340000Y-129381250D01*
X167498750Y-129540000D01*
X168623000Y-129540000D01*
X168623000Y-128890750D01*
X168877000Y-128890750D01*
X168877000Y-129540000D01*
X170001250Y-129540000D01*
X170160000Y-129381250D01*
X170160000Y-129240690D01*
X170063327Y-129007301D01*
X169884698Y-128828673D01*
X169651309Y-128732000D01*
X169035750Y-128732000D01*
X168877000Y-128890750D01*
X168623000Y-128890750D01*
X168464250Y-128732000D01*
X167848691Y-128732000D01*
X167615302Y-128828673D01*
X167436673Y-129007301D01*
X167340000Y-129240690D01*
X133738296Y-129240690D01*
X133275606Y-128778000D01*
X138956576Y-123097030D01*
X139987020Y-123097030D01*
X140234785Y-123047747D01*
X140444829Y-122907399D01*
X140585177Y-122697355D01*
X140634460Y-122449590D01*
X140634460Y-122428000D01*
X143319760Y-122428000D01*
X143319760Y-123571000D01*
X143369043Y-123818765D01*
X143509391Y-124028809D01*
X143719435Y-124169157D01*
X143967200Y-124218440D01*
X146202400Y-124218440D01*
X146450165Y-124169157D01*
X146547080Y-124104400D01*
X148564600Y-124104400D01*
X148691845Y-124079089D01*
X148816359Y-124079198D01*
X148932453Y-124031229D01*
X149002007Y-124017394D01*
X149060456Y-123978340D01*
X149236612Y-123905554D01*
X149372693Y-123769710D01*
X149372823Y-123769623D01*
X149397518Y-123744928D01*
X149558423Y-123584303D01*
X149709617Y-123220187D01*
X161030752Y-123220187D01*
X161248757Y-123747800D01*
X161652077Y-124151824D01*
X162179309Y-124370750D01*
X162750187Y-124371248D01*
X163277800Y-124153243D01*
X163487663Y-123943745D01*
X171637861Y-123943745D01*
X171711995Y-124189864D01*
X172249223Y-124382965D01*
X172819454Y-124355778D01*
X173220005Y-124189864D01*
X173294139Y-123943745D01*
X172466000Y-123115605D01*
X171637861Y-123943745D01*
X163487663Y-123943745D01*
X163681824Y-123749923D01*
X163900750Y-123222691D01*
X163901189Y-122719223D01*
X171019035Y-122719223D01*
X171046222Y-123289454D01*
X171212136Y-123690005D01*
X171458255Y-123764139D01*
X172286395Y-122936000D01*
X172645605Y-122936000D01*
X173473745Y-123764139D01*
X173719864Y-123690005D01*
X173912965Y-123152777D01*
X173885778Y-122582546D01*
X173719864Y-122181995D01*
X173473745Y-122107861D01*
X172645605Y-122936000D01*
X172286395Y-122936000D01*
X171458255Y-122107861D01*
X171212136Y-122181995D01*
X171019035Y-122719223D01*
X163901189Y-122719223D01*
X163901248Y-122651813D01*
X163683243Y-122124200D01*
X163487640Y-121928255D01*
X171637861Y-121928255D01*
X172466000Y-122756395D01*
X173294139Y-121928255D01*
X173220005Y-121682136D01*
X172682777Y-121489035D01*
X172112546Y-121516222D01*
X171711995Y-121682136D01*
X171637861Y-121928255D01*
X163487640Y-121928255D01*
X163279923Y-121720176D01*
X162752691Y-121501250D01*
X162181813Y-121500752D01*
X161654200Y-121718757D01*
X161250176Y-122122077D01*
X161031250Y-122649309D01*
X161030752Y-123220187D01*
X149709617Y-123220187D01*
X149732801Y-123164354D01*
X149733198Y-122709641D01*
X149559554Y-122289388D01*
X149238303Y-121967577D01*
X148818354Y-121793199D01*
X148363641Y-121792802D01*
X148301689Y-121818400D01*
X146547080Y-121818400D01*
X146528073Y-121805700D01*
X146660209Y-121717409D01*
X146800557Y-121507365D01*
X146849840Y-121259600D01*
X146849840Y-120715154D01*
X146862800Y-120650000D01*
X146849840Y-120584846D01*
X146849840Y-120040400D01*
X146800557Y-119792635D01*
X146660209Y-119582591D01*
X146536260Y-119499770D01*
X146562099Y-119489067D01*
X146740727Y-119310438D01*
X146837400Y-119077049D01*
X146837400Y-118626890D01*
X146678650Y-118468140D01*
X145211800Y-118468140D01*
X145211800Y-118488140D01*
X144957800Y-118488140D01*
X144957800Y-118468140D01*
X144937800Y-118468140D01*
X144937800Y-118214140D01*
X144957800Y-118214140D01*
X144957800Y-117255290D01*
X145211800Y-117255290D01*
X145211800Y-118214140D01*
X146678650Y-118214140D01*
X146837400Y-118055390D01*
X146837400Y-117605231D01*
X146740727Y-117371842D01*
X146562099Y-117193213D01*
X146328710Y-117096540D01*
X145370550Y-117096540D01*
X145211800Y-117255290D01*
X144957800Y-117255290D01*
X144878058Y-117175548D01*
X147588489Y-114465117D01*
X147738187Y-114465248D01*
X148265800Y-114247243D01*
X148437154Y-114076187D01*
X161030752Y-114076187D01*
X161248757Y-114603800D01*
X161652077Y-115007824D01*
X162179309Y-115226750D01*
X162750187Y-115227248D01*
X163277800Y-115009243D01*
X163487663Y-114799745D01*
X171637861Y-114799745D01*
X171711995Y-115045864D01*
X172249223Y-115238965D01*
X172819454Y-115211778D01*
X173220005Y-115045864D01*
X173294139Y-114799745D01*
X172466000Y-113971605D01*
X171637861Y-114799745D01*
X163487663Y-114799745D01*
X163681824Y-114605923D01*
X163900750Y-114078691D01*
X163901189Y-113575223D01*
X171019035Y-113575223D01*
X171046222Y-114145454D01*
X171212136Y-114546005D01*
X171458255Y-114620139D01*
X172286395Y-113792000D01*
X172645605Y-113792000D01*
X173473745Y-114620139D01*
X173719864Y-114546005D01*
X173912965Y-114008777D01*
X173885778Y-113438546D01*
X173719864Y-113037995D01*
X173473745Y-112963861D01*
X172645605Y-113792000D01*
X172286395Y-113792000D01*
X171458255Y-112963861D01*
X171212136Y-113037995D01*
X171019035Y-113575223D01*
X163901189Y-113575223D01*
X163901248Y-113507813D01*
X163683243Y-112980200D01*
X163487640Y-112784255D01*
X171637861Y-112784255D01*
X172466000Y-113612395D01*
X173294139Y-112784255D01*
X173220005Y-112538136D01*
X172682777Y-112345035D01*
X172112546Y-112372222D01*
X171711995Y-112538136D01*
X171637861Y-112784255D01*
X163487640Y-112784255D01*
X163279923Y-112576176D01*
X162752691Y-112357250D01*
X162181813Y-112356752D01*
X161654200Y-112574757D01*
X161250176Y-112978077D01*
X161031250Y-113505309D01*
X161030752Y-114076187D01*
X148437154Y-114076187D01*
X148669824Y-113843923D01*
X148888750Y-113316691D01*
X148888883Y-113164723D01*
X149912606Y-112141000D01*
X172212000Y-112141000D01*
X172260601Y-112131333D01*
X172301803Y-112103803D01*
X172329333Y-112062601D01*
X172339000Y-112014000D01*
X172339000Y-110617000D01*
X176021575Y-110617000D01*
X176248359Y-110617198D01*
X176668612Y-110443554D01*
X176990423Y-110122303D01*
X177164801Y-109702354D01*
X177165198Y-109247641D01*
X176991554Y-108827388D01*
X176670303Y-108505577D01*
X176250354Y-108331199D01*
X175795641Y-108330802D01*
X175795162Y-108331000D01*
X172339000Y-108331000D01*
X172339000Y-106407250D01*
X172403750Y-106472000D01*
X173019309Y-106472000D01*
X173252698Y-106375327D01*
X173431327Y-106196699D01*
X173528000Y-105963310D01*
X173528000Y-105822750D01*
X173369250Y-105664000D01*
X172339000Y-105664000D01*
X172339000Y-105537000D01*
X188214000Y-105537000D01*
X188262601Y-105527333D01*
X188303803Y-105499803D01*
X188331333Y-105458601D01*
X188341000Y-105410000D01*
X188341000Y-104864679D01*
X218567000Y-104864679D01*
X218567000Y-105447321D01*
X218692675Y-106079131D01*
X219050567Y-106614754D01*
X219586190Y-106972646D01*
X220218000Y-107098321D01*
X220849810Y-106972646D01*
X221385433Y-106614754D01*
X221502054Y-106440219D01*
X221680370Y-106667236D01*
X222243523Y-106983926D01*
X222375056Y-107015975D01*
X222631000Y-106896836D01*
X222631000Y-105283000D01*
X222611000Y-105283000D01*
X222611000Y-105029000D01*
X222631000Y-105029000D01*
X222631000Y-103415164D01*
X222885000Y-103415164D01*
X222885000Y-105029000D01*
X222905000Y-105029000D01*
X222905000Y-105283000D01*
X222885000Y-105283000D01*
X222885000Y-106896836D01*
X223140944Y-107015975D01*
X223272477Y-106983926D01*
X223835630Y-106667236D01*
X224013946Y-106440219D01*
X224130567Y-106614754D01*
X224666190Y-106972646D01*
X225298000Y-107098321D01*
X225929810Y-106972646D01*
X226465433Y-106614754D01*
X226823325Y-106079131D01*
X226949000Y-105447321D01*
X226949000Y-104864679D01*
X226823325Y-104232869D01*
X226465433Y-103697246D01*
X225929810Y-103339354D01*
X225298000Y-103213679D01*
X224666190Y-103339354D01*
X224130567Y-103697246D01*
X224013946Y-103871781D01*
X223835630Y-103644764D01*
X223272477Y-103328074D01*
X223140944Y-103296025D01*
X222885000Y-103415164D01*
X222631000Y-103415164D01*
X222375056Y-103296025D01*
X222243523Y-103328074D01*
X221680370Y-103644764D01*
X221502054Y-103871781D01*
X221385433Y-103697246D01*
X220849810Y-103339354D01*
X220218000Y-103213679D01*
X219586190Y-103339354D01*
X219050567Y-103697246D01*
X218692675Y-104232869D01*
X218567000Y-104864679D01*
X188341000Y-104864679D01*
X188341000Y-103038815D01*
X211732630Y-103038815D01*
X212056980Y-103823800D01*
X212657041Y-104424909D01*
X213441459Y-104750628D01*
X214290815Y-104751370D01*
X215075800Y-104427020D01*
X215676909Y-103826959D01*
X216002628Y-103042541D01*
X216002631Y-103038815D01*
X229512630Y-103038815D01*
X229836980Y-103823800D01*
X230437041Y-104424909D01*
X231221459Y-104750628D01*
X232070815Y-104751370D01*
X232855800Y-104427020D01*
X233456909Y-103826959D01*
X233782628Y-103042541D01*
X233783370Y-102193185D01*
X233459020Y-101408200D01*
X232858959Y-100807091D01*
X232074541Y-100481372D01*
X231225185Y-100480630D01*
X230440200Y-100804980D01*
X229839091Y-101405041D01*
X229513372Y-102189459D01*
X229512630Y-103038815D01*
X216002631Y-103038815D01*
X216003370Y-102193185D01*
X215679020Y-101408200D01*
X215078959Y-100807091D01*
X214294541Y-100481372D01*
X213445185Y-100480630D01*
X212660200Y-100804980D01*
X212059091Y-101405041D01*
X211733372Y-102189459D01*
X211732630Y-103038815D01*
X188341000Y-103038815D01*
X188341000Y-95885000D01*
X244221000Y-95885000D01*
X244221000Y-96519332D01*
X244221000Y-96519332D01*
G37*
X244221000Y-96519332D02*
X243968388Y-119507000D01*
X237288606Y-119507000D01*
X235044421Y-117262815D01*
X238402630Y-117262815D01*
X238726980Y-118047800D01*
X239327041Y-118648909D01*
X240111459Y-118974628D01*
X240960815Y-118975370D01*
X241745800Y-118651020D01*
X242346909Y-118050959D01*
X242672628Y-117266541D01*
X242673370Y-116417185D01*
X242349020Y-115632200D01*
X241748959Y-115031091D01*
X240964541Y-114705372D01*
X240115185Y-114704630D01*
X239330200Y-115028980D01*
X238729091Y-115629041D01*
X238403372Y-116413459D01*
X238402630Y-117262815D01*
X235044421Y-117262815D01*
X233737214Y-115955608D01*
X234036628Y-115234541D01*
X234037370Y-114385185D01*
X233713020Y-113600200D01*
X233112959Y-112999091D01*
X232328541Y-112673372D01*
X231479185Y-112672630D01*
X230753913Y-112972307D01*
X226657803Y-108876197D01*
X226616601Y-108848667D01*
X226568000Y-108839000D01*
X206040957Y-108839000D01*
X205598605Y-108655319D01*
X204868597Y-108654682D01*
X204422513Y-108839000D01*
X185716502Y-108839000D01*
X185650174Y-108794681D01*
X184947950Y-108655000D01*
X184876050Y-108655000D01*
X184173826Y-108794681D01*
X184107498Y-108839000D01*
X182118000Y-108839000D01*
X182069399Y-108848667D01*
X182028197Y-108876197D01*
X182000667Y-108917399D01*
X181991000Y-108966000D01*
X181991000Y-119835394D01*
X172917227Y-128909167D01*
X172917191Y-128909191D01*
X172917167Y-128909227D01*
X171905394Y-129921000D01*
X170128250Y-129921000D01*
X170001250Y-129794000D01*
X168877000Y-129794000D01*
X168877000Y-129814000D01*
X168850546Y-129814000D01*
X168750000Y-129794000D01*
X161925000Y-129794000D01*
X161487593Y-129881006D01*
X161427738Y-129921000D01*
X148554178Y-129921000D01*
X148227923Y-129594176D01*
X147700691Y-129375250D01*
X147129813Y-129374752D01*
X146602200Y-129592757D01*
X146273384Y-129921000D01*
X142494000Y-129921000D01*
X142445399Y-129930667D01*
X142404197Y-129958197D01*
X138430000Y-133932394D01*
X136315351Y-131817745D01*
X136585861Y-131817745D01*
X136659995Y-132063864D01*
X137197223Y-132256965D01*
X137767454Y-132229778D01*
X138168005Y-132063864D01*
X138242139Y-131817745D01*
X137414000Y-130989605D01*
X136585861Y-131817745D01*
X136315351Y-131817745D01*
X135090829Y-130593223D01*
X135967035Y-130593223D01*
X135994222Y-131163454D01*
X136160136Y-131564005D01*
X136406255Y-131638139D01*
X137234395Y-130810000D01*
X137593605Y-130810000D01*
X138421745Y-131638139D01*
X138667864Y-131564005D01*
X138860965Y-131026777D01*
X138833778Y-130456546D01*
X138667864Y-130055995D01*
X138421745Y-129981861D01*
X137593605Y-130810000D01*
X137234395Y-130810000D01*
X136406255Y-129981861D01*
X136160136Y-130055995D01*
X135967035Y-130593223D01*
X135090829Y-130593223D01*
X134299861Y-129802255D01*
X136585861Y-129802255D01*
X137414000Y-130630395D01*
X138242139Y-129802255D01*
X138168005Y-129556136D01*
X137630777Y-129363035D01*
X137060546Y-129390222D01*
X136659995Y-129556136D01*
X136585861Y-129802255D01*
X134299861Y-129802255D01*
X133738296Y-129240690D01*
X167340000Y-129240690D01*
X167340000Y-129381250D01*
X167498750Y-129540000D01*
X168623000Y-129540000D01*
X168623000Y-128890750D01*
X168877000Y-128890750D01*
X168877000Y-129540000D01*
X170001250Y-129540000D01*
X170160000Y-129381250D01*
X170160000Y-129240690D01*
X170063327Y-129007301D01*
X169884698Y-128828673D01*
X169651309Y-128732000D01*
X169035750Y-128732000D01*
X168877000Y-128890750D01*
X168623000Y-128890750D01*
X168464250Y-128732000D01*
X167848691Y-128732000D01*
X167615302Y-128828673D01*
X167436673Y-129007301D01*
X167340000Y-129240690D01*
X133738296Y-129240690D01*
X133275606Y-128778000D01*
X138956576Y-123097030D01*
X139987020Y-123097030D01*
X140234785Y-123047747D01*
X140444829Y-122907399D01*
X140585177Y-122697355D01*
X140634460Y-122449590D01*
X140634460Y-122428000D01*
X143319760Y-122428000D01*
X143319760Y-123571000D01*
X143369043Y-123818765D01*
X143509391Y-124028809D01*
X143719435Y-124169157D01*
X143967200Y-124218440D01*
X146202400Y-124218440D01*
X146450165Y-124169157D01*
X146547080Y-124104400D01*
X148564600Y-124104400D01*
X148691845Y-124079089D01*
X148816359Y-124079198D01*
X148932453Y-124031229D01*
X149002007Y-124017394D01*
X149060456Y-123978340D01*
X149236612Y-123905554D01*
X149372693Y-123769710D01*
X149372823Y-123769623D01*
X149397518Y-123744928D01*
X149558423Y-123584303D01*
X149709617Y-123220187D01*
X161030752Y-123220187D01*
X161248757Y-123747800D01*
X161652077Y-124151824D01*
X162179309Y-124370750D01*
X162750187Y-124371248D01*
X163277800Y-124153243D01*
X163487663Y-123943745D01*
X171637861Y-123943745D01*
X171711995Y-124189864D01*
X172249223Y-124382965D01*
X172819454Y-124355778D01*
X173220005Y-124189864D01*
X173294139Y-123943745D01*
X172466000Y-123115605D01*
X171637861Y-123943745D01*
X163487663Y-123943745D01*
X163681824Y-123749923D01*
X163900750Y-123222691D01*
X163901189Y-122719223D01*
X171019035Y-122719223D01*
X171046222Y-123289454D01*
X171212136Y-123690005D01*
X171458255Y-123764139D01*
X172286395Y-122936000D01*
X172645605Y-122936000D01*
X173473745Y-123764139D01*
X173719864Y-123690005D01*
X173912965Y-123152777D01*
X173885778Y-122582546D01*
X173719864Y-122181995D01*
X173473745Y-122107861D01*
X172645605Y-122936000D01*
X172286395Y-122936000D01*
X171458255Y-122107861D01*
X171212136Y-122181995D01*
X171019035Y-122719223D01*
X163901189Y-122719223D01*
X163901248Y-122651813D01*
X163683243Y-122124200D01*
X163487640Y-121928255D01*
X171637861Y-121928255D01*
X172466000Y-122756395D01*
X173294139Y-121928255D01*
X173220005Y-121682136D01*
X172682777Y-121489035D01*
X172112546Y-121516222D01*
X171711995Y-121682136D01*
X171637861Y-121928255D01*
X163487640Y-121928255D01*
X163279923Y-121720176D01*
X162752691Y-121501250D01*
X162181813Y-121500752D01*
X161654200Y-121718757D01*
X161250176Y-122122077D01*
X161031250Y-122649309D01*
X161030752Y-123220187D01*
X149709617Y-123220187D01*
X149732801Y-123164354D01*
X149733198Y-122709641D01*
X149559554Y-122289388D01*
X149238303Y-121967577D01*
X148818354Y-121793199D01*
X148363641Y-121792802D01*
X148301689Y-121818400D01*
X146547080Y-121818400D01*
X146528073Y-121805700D01*
X146660209Y-121717409D01*
X146800557Y-121507365D01*
X146849840Y-121259600D01*
X146849840Y-120715154D01*
X146862800Y-120650000D01*
X146849840Y-120584846D01*
X146849840Y-120040400D01*
X146800557Y-119792635D01*
X146660209Y-119582591D01*
X146536260Y-119499770D01*
X146562099Y-119489067D01*
X146740727Y-119310438D01*
X146837400Y-119077049D01*
X146837400Y-118626890D01*
X146678650Y-118468140D01*
X145211800Y-118468140D01*
X145211800Y-118488140D01*
X144957800Y-118488140D01*
X144957800Y-118468140D01*
X144937800Y-118468140D01*
X144937800Y-118214140D01*
X144957800Y-118214140D01*
X144957800Y-117255290D01*
X145211800Y-117255290D01*
X145211800Y-118214140D01*
X146678650Y-118214140D01*
X146837400Y-118055390D01*
X146837400Y-117605231D01*
X146740727Y-117371842D01*
X146562099Y-117193213D01*
X146328710Y-117096540D01*
X145370550Y-117096540D01*
X145211800Y-117255290D01*
X144957800Y-117255290D01*
X144878058Y-117175548D01*
X147588489Y-114465117D01*
X147738187Y-114465248D01*
X148265800Y-114247243D01*
X148437154Y-114076187D01*
X161030752Y-114076187D01*
X161248757Y-114603800D01*
X161652077Y-115007824D01*
X162179309Y-115226750D01*
X162750187Y-115227248D01*
X163277800Y-115009243D01*
X163487663Y-114799745D01*
X171637861Y-114799745D01*
X171711995Y-115045864D01*
X172249223Y-115238965D01*
X172819454Y-115211778D01*
X173220005Y-115045864D01*
X173294139Y-114799745D01*
X172466000Y-113971605D01*
X171637861Y-114799745D01*
X163487663Y-114799745D01*
X163681824Y-114605923D01*
X163900750Y-114078691D01*
X163901189Y-113575223D01*
X171019035Y-113575223D01*
X171046222Y-114145454D01*
X171212136Y-114546005D01*
X171458255Y-114620139D01*
X172286395Y-113792000D01*
X172645605Y-113792000D01*
X173473745Y-114620139D01*
X173719864Y-114546005D01*
X173912965Y-114008777D01*
X173885778Y-113438546D01*
X173719864Y-113037995D01*
X173473745Y-112963861D01*
X172645605Y-113792000D01*
X172286395Y-113792000D01*
X171458255Y-112963861D01*
X171212136Y-113037995D01*
X171019035Y-113575223D01*
X163901189Y-113575223D01*
X163901248Y-113507813D01*
X163683243Y-112980200D01*
X163487640Y-112784255D01*
X171637861Y-112784255D01*
X172466000Y-113612395D01*
X173294139Y-112784255D01*
X173220005Y-112538136D01*
X172682777Y-112345035D01*
X172112546Y-112372222D01*
X171711995Y-112538136D01*
X171637861Y-112784255D01*
X163487640Y-112784255D01*
X163279923Y-112576176D01*
X162752691Y-112357250D01*
X162181813Y-112356752D01*
X161654200Y-112574757D01*
X161250176Y-112978077D01*
X161031250Y-113505309D01*
X161030752Y-114076187D01*
X148437154Y-114076187D01*
X148669824Y-113843923D01*
X148888750Y-113316691D01*
X148888883Y-113164723D01*
X149912606Y-112141000D01*
X172212000Y-112141000D01*
X172260601Y-112131333D01*
X172301803Y-112103803D01*
X172329333Y-112062601D01*
X172339000Y-112014000D01*
X172339000Y-110617000D01*
X176021575Y-110617000D01*
X176248359Y-110617198D01*
X176668612Y-110443554D01*
X176990423Y-110122303D01*
X177164801Y-109702354D01*
X177165198Y-109247641D01*
X176991554Y-108827388D01*
X176670303Y-108505577D01*
X176250354Y-108331199D01*
X175795641Y-108330802D01*
X175795162Y-108331000D01*
X172339000Y-108331000D01*
X172339000Y-106407250D01*
X172403750Y-106472000D01*
X173019309Y-106472000D01*
X173252698Y-106375327D01*
X173431327Y-106196699D01*
X173528000Y-105963310D01*
X173528000Y-105822750D01*
X173369250Y-105664000D01*
X172339000Y-105664000D01*
X172339000Y-105537000D01*
X188214000Y-105537000D01*
X188262601Y-105527333D01*
X188303803Y-105499803D01*
X188331333Y-105458601D01*
X188341000Y-105410000D01*
X188341000Y-104864679D01*
X218567000Y-104864679D01*
X218567000Y-105447321D01*
X218692675Y-106079131D01*
X219050567Y-106614754D01*
X219586190Y-106972646D01*
X220218000Y-107098321D01*
X220849810Y-106972646D01*
X221385433Y-106614754D01*
X221502054Y-106440219D01*
X221680370Y-106667236D01*
X222243523Y-106983926D01*
X222375056Y-107015975D01*
X222631000Y-106896836D01*
X222631000Y-105283000D01*
X222611000Y-105283000D01*
X222611000Y-105029000D01*
X222631000Y-105029000D01*
X222631000Y-103415164D01*
X222885000Y-103415164D01*
X222885000Y-105029000D01*
X222905000Y-105029000D01*
X222905000Y-105283000D01*
X222885000Y-105283000D01*
X222885000Y-106896836D01*
X223140944Y-107015975D01*
X223272477Y-106983926D01*
X223835630Y-106667236D01*
X224013946Y-106440219D01*
X224130567Y-106614754D01*
X224666190Y-106972646D01*
X225298000Y-107098321D01*
X225929810Y-106972646D01*
X226465433Y-106614754D01*
X226823325Y-106079131D01*
X226949000Y-105447321D01*
X226949000Y-104864679D01*
X226823325Y-104232869D01*
X226465433Y-103697246D01*
X225929810Y-103339354D01*
X225298000Y-103213679D01*
X224666190Y-103339354D01*
X224130567Y-103697246D01*
X224013946Y-103871781D01*
X223835630Y-103644764D01*
X223272477Y-103328074D01*
X223140944Y-103296025D01*
X222885000Y-103415164D01*
X222631000Y-103415164D01*
X222375056Y-103296025D01*
X222243523Y-103328074D01*
X221680370Y-103644764D01*
X221502054Y-103871781D01*
X221385433Y-103697246D01*
X220849810Y-103339354D01*
X220218000Y-103213679D01*
X219586190Y-103339354D01*
X219050567Y-103697246D01*
X218692675Y-104232869D01*
X218567000Y-104864679D01*
X188341000Y-104864679D01*
X188341000Y-103038815D01*
X211732630Y-103038815D01*
X212056980Y-103823800D01*
X212657041Y-104424909D01*
X213441459Y-104750628D01*
X214290815Y-104751370D01*
X215075800Y-104427020D01*
X215676909Y-103826959D01*
X216002628Y-103042541D01*
X216002631Y-103038815D01*
X229512630Y-103038815D01*
X229836980Y-103823800D01*
X230437041Y-104424909D01*
X231221459Y-104750628D01*
X232070815Y-104751370D01*
X232855800Y-104427020D01*
X233456909Y-103826959D01*
X233782628Y-103042541D01*
X233783370Y-102193185D01*
X233459020Y-101408200D01*
X232858959Y-100807091D01*
X232074541Y-100481372D01*
X231225185Y-100480630D01*
X230440200Y-100804980D01*
X229839091Y-101405041D01*
X229513372Y-102189459D01*
X229512630Y-103038815D01*
X216002631Y-103038815D01*
X216003370Y-102193185D01*
X215679020Y-101408200D01*
X215078959Y-100807091D01*
X214294541Y-100481372D01*
X213445185Y-100480630D01*
X212660200Y-100804980D01*
X212059091Y-101405041D01*
X211733372Y-102189459D01*
X211732630Y-103038815D01*
X188341000Y-103038815D01*
X188341000Y-95885000D01*
X244221000Y-95885000D01*
X244221000Y-96519332D01*
G36*
X224920190Y-131102646D02*
X225552000Y-131228321D01*
X226183810Y-131102646D01*
X226431717Y-130937000D01*
X243715209Y-130937000D01*
X243938826Y-143683220D01*
X242090606Y-141835000D01*
X242164310Y-141835000D01*
X242397699Y-141738327D01*
X242576327Y-141559698D01*
X242673000Y-141326309D01*
X242673000Y-139985750D01*
X242514250Y-139827000D01*
X240665000Y-139827000D01*
X240665000Y-139847000D01*
X240411000Y-139847000D01*
X240411000Y-139827000D01*
X240391000Y-139827000D01*
X240391000Y-139573000D01*
X240411000Y-139573000D01*
X240411000Y-137723750D01*
X240665000Y-137723750D01*
X240665000Y-139573000D01*
X242514250Y-139573000D01*
X242673000Y-139414250D01*
X242673000Y-138073691D01*
X242576327Y-137840302D01*
X242397699Y-137661673D01*
X242164310Y-137565000D01*
X240823750Y-137565000D01*
X240665000Y-137723750D01*
X240411000Y-137723750D01*
X240252250Y-137565000D01*
X238911690Y-137565000D01*
X238678301Y-137661673D01*
X238499673Y-137840302D01*
X238403000Y-138073691D01*
X238403000Y-138147394D01*
X235547803Y-135292197D01*
X235506601Y-135264667D01*
X235458000Y-135255000D01*
X227382606Y-135255000D01*
X227170421Y-135042815D01*
X238402630Y-135042815D01*
X238726980Y-135827800D01*
X239327041Y-136428909D01*
X240111459Y-136754628D01*
X240960815Y-136755370D01*
X241745800Y-136431020D01*
X242346909Y-135830959D01*
X242672628Y-135046541D01*
X242673370Y-134197185D01*
X242349020Y-133412200D01*
X241748959Y-132811091D01*
X240964541Y-132485372D01*
X240115185Y-132484630D01*
X239330200Y-132808980D01*
X238729091Y-133409041D01*
X238403372Y-134193459D01*
X238402630Y-135042815D01*
X227170421Y-135042815D01*
X223167890Y-131040284D01*
X223394944Y-131145975D01*
X223526477Y-131113926D01*
X223841095Y-130937000D01*
X224672283Y-130937000D01*
X224920190Y-131102646D01*
X224920190Y-131102646D01*
G37*
X224920190Y-131102646D02*
X225552000Y-131228321D01*
X226183810Y-131102646D01*
X226431717Y-130937000D01*
X243715209Y-130937000D01*
X243938826Y-143683220D01*
X242090606Y-141835000D01*
X242164310Y-141835000D01*
X242397699Y-141738327D01*
X242576327Y-141559698D01*
X242673000Y-141326309D01*
X242673000Y-139985750D01*
X242514250Y-139827000D01*
X240665000Y-139827000D01*
X240665000Y-139847000D01*
X240411000Y-139847000D01*
X240411000Y-139827000D01*
X240391000Y-139827000D01*
X240391000Y-139573000D01*
X240411000Y-139573000D01*
X240411000Y-137723750D01*
X240665000Y-137723750D01*
X240665000Y-139573000D01*
X242514250Y-139573000D01*
X242673000Y-139414250D01*
X242673000Y-138073691D01*
X242576327Y-137840302D01*
X242397699Y-137661673D01*
X242164310Y-137565000D01*
X240823750Y-137565000D01*
X240665000Y-137723750D01*
X240411000Y-137723750D01*
X240252250Y-137565000D01*
X238911690Y-137565000D01*
X238678301Y-137661673D01*
X238499673Y-137840302D01*
X238403000Y-138073691D01*
X238403000Y-138147394D01*
X235547803Y-135292197D01*
X235506601Y-135264667D01*
X235458000Y-135255000D01*
X227382606Y-135255000D01*
X227170421Y-135042815D01*
X238402630Y-135042815D01*
X238726980Y-135827800D01*
X239327041Y-136428909D01*
X240111459Y-136754628D01*
X240960815Y-136755370D01*
X241745800Y-136431020D01*
X242346909Y-135830959D01*
X242672628Y-135046541D01*
X242673370Y-134197185D01*
X242349020Y-133412200D01*
X241748959Y-132811091D01*
X240964541Y-132485372D01*
X240115185Y-132484630D01*
X239330200Y-132808980D01*
X238729091Y-133409041D01*
X238403372Y-134193459D01*
X238402630Y-135042815D01*
X227170421Y-135042815D01*
X223167890Y-131040284D01*
X223394944Y-131145975D01*
X223526477Y-131113926D01*
X223841095Y-130937000D01*
X224672283Y-130937000D01*
X224920190Y-131102646D01*
G36*
X142113000Y-100473000D02*
X141763750Y-100473000D01*
X141605000Y-100631750D01*
X141605000Y-101981000D01*
X141625000Y-101981000D01*
X141625000Y-102235000D01*
X141605000Y-102235000D01*
X141605000Y-103584250D01*
X141763750Y-103743000D01*
X142113000Y-103743000D01*
X142113000Y-116533394D01*
X140337945Y-118308449D01*
X140113330Y-118215410D01*
X139172950Y-118215410D01*
X139014200Y-118374160D01*
X139014200Y-119632194D01*
X138885394Y-119761000D01*
X138760200Y-119761000D01*
X138760200Y-118374160D01*
X138601450Y-118215410D01*
X137661070Y-118215410D01*
X137427681Y-118312083D01*
X137249053Y-118490712D01*
X137152380Y-118724101D01*
X137152380Y-119761000D01*
X127635000Y-119761000D01*
X127635000Y-113363331D01*
X133073273Y-113363331D01*
X133299236Y-113832663D01*
X133687604Y-114179797D01*
X134032671Y-114322716D01*
X134239000Y-114199374D01*
X134239000Y-113157000D01*
X134493000Y-113157000D01*
X134493000Y-114199374D01*
X134699329Y-114322716D01*
X135044396Y-114179797D01*
X135203321Y-114037745D01*
X139125861Y-114037745D01*
X139199995Y-114283864D01*
X139737223Y-114476965D01*
X140307454Y-114449778D01*
X140708005Y-114283864D01*
X140782139Y-114037745D01*
X139954000Y-113209605D01*
X139125861Y-114037745D01*
X135203321Y-114037745D01*
X135432764Y-113832663D01*
X135658727Y-113363331D01*
X135536206Y-113157000D01*
X134493000Y-113157000D01*
X134239000Y-113157000D01*
X133195794Y-113157000D01*
X133073273Y-113363331D01*
X127635000Y-113363331D01*
X127635000Y-112696669D01*
X133073273Y-112696669D01*
X133195794Y-112903000D01*
X134239000Y-112903000D01*
X134239000Y-111860626D01*
X134493000Y-111860626D01*
X134493000Y-112903000D01*
X135536206Y-112903000D01*
X135589516Y-112813223D01*
X138507035Y-112813223D01*
X138534222Y-113383454D01*
X138700136Y-113784005D01*
X138946255Y-113858139D01*
X139774395Y-113030000D01*
X140133605Y-113030000D01*
X140961745Y-113858139D01*
X141207864Y-113784005D01*
X141400965Y-113246777D01*
X141373778Y-112676546D01*
X141207864Y-112275995D01*
X140961745Y-112201861D01*
X140133605Y-113030000D01*
X139774395Y-113030000D01*
X138946255Y-112201861D01*
X138700136Y-112275995D01*
X138507035Y-112813223D01*
X135589516Y-112813223D01*
X135658727Y-112696669D01*
X135432764Y-112227337D01*
X135203322Y-112022255D01*
X139125861Y-112022255D01*
X139954000Y-112850395D01*
X140782139Y-112022255D01*
X140708005Y-111776136D01*
X140170777Y-111583035D01*
X139600546Y-111610222D01*
X139199995Y-111776136D01*
X139125861Y-112022255D01*
X135203322Y-112022255D01*
X135044396Y-111880203D01*
X134699329Y-111737284D01*
X134493000Y-111860626D01*
X134239000Y-111860626D01*
X134032671Y-111737284D01*
X133687604Y-111880203D01*
X133299236Y-112227337D01*
X133073273Y-112696669D01*
X127635000Y-112696669D01*
X127635000Y-99430000D01*
X132818560Y-99430000D01*
X132818560Y-101230000D01*
X132867843Y-101477765D01*
X133008191Y-101687809D01*
X133218235Y-101828157D01*
X133233839Y-101831261D01*
X133065449Y-101999357D01*
X132831267Y-102563330D01*
X132830735Y-103173991D01*
X133063932Y-103738371D01*
X133223000Y-103897717D01*
X133223000Y-107221459D01*
X133031232Y-107683287D01*
X133030769Y-108214383D01*
X133233582Y-108705229D01*
X133608796Y-109081098D01*
X134099287Y-109284768D01*
X134630383Y-109285231D01*
X135121229Y-109082418D01*
X135497098Y-108707204D01*
X135700768Y-108216713D01*
X135701231Y-107685617D01*
X135509000Y-107220381D01*
X135509000Y-103897919D01*
X135666551Y-103740643D01*
X135900733Y-103176670D01*
X135901265Y-102566009D01*
X135830090Y-102393750D01*
X139843000Y-102393750D01*
X139843000Y-103234310D01*
X139939673Y-103467699D01*
X140118302Y-103646327D01*
X140351691Y-103743000D01*
X141192250Y-103743000D01*
X141351000Y-103584250D01*
X141351000Y-102235000D01*
X140001750Y-102235000D01*
X139843000Y-102393750D01*
X135830090Y-102393750D01*
X135668068Y-102001629D01*
X135498025Y-101831288D01*
X135513765Y-101828157D01*
X135723809Y-101687809D01*
X135864157Y-101477765D01*
X135913440Y-101230000D01*
X135913440Y-100981690D01*
X139843000Y-100981690D01*
X139843000Y-101822250D01*
X140001750Y-101981000D01*
X141351000Y-101981000D01*
X141351000Y-100631750D01*
X141192250Y-100473000D01*
X140351691Y-100473000D01*
X140118302Y-100569673D01*
X139939673Y-100748301D01*
X139843000Y-100981690D01*
X135913440Y-100981690D01*
X135913440Y-99430000D01*
X135864157Y-99182235D01*
X135723809Y-98972191D01*
X135513765Y-98831843D01*
X135266000Y-98782560D01*
X133466000Y-98782560D01*
X133218235Y-98831843D01*
X133008191Y-98972191D01*
X132867843Y-99182235D01*
X132818560Y-99430000D01*
X127635000Y-99430000D01*
X127635000Y-98732243D01*
X127646851Y-98732243D01*
X127805601Y-98573493D01*
X127805601Y-97386043D01*
X128059601Y-97386043D01*
X128059601Y-98573493D01*
X128218351Y-98732243D01*
X128897111Y-98732243D01*
X129130500Y-98635570D01*
X129309128Y-98456941D01*
X129405801Y-98223552D01*
X129405801Y-97544793D01*
X129247051Y-97386043D01*
X128059601Y-97386043D01*
X127805601Y-97386043D01*
X127785601Y-97386043D01*
X127785601Y-97132043D01*
X127805601Y-97132043D01*
X127805601Y-95944593D01*
X128059601Y-95944593D01*
X128059601Y-97132043D01*
X129247051Y-97132043D01*
X129405801Y-96973293D01*
X129405801Y-96294534D01*
X129309128Y-96061145D01*
X129130500Y-95882516D01*
X128897111Y-95785843D01*
X128218351Y-95785843D01*
X128059601Y-95944593D01*
X127805601Y-95944593D01*
X127646851Y-95785843D01*
X127635000Y-95785843D01*
X127635000Y-95631000D01*
X142113000Y-95631000D01*
X142113000Y-100473000D01*
X142113000Y-100473000D01*
G37*
X142113000Y-100473000D02*
X141763750Y-100473000D01*
X141605000Y-100631750D01*
X141605000Y-101981000D01*
X141625000Y-101981000D01*
X141625000Y-102235000D01*
X141605000Y-102235000D01*
X141605000Y-103584250D01*
X141763750Y-103743000D01*
X142113000Y-103743000D01*
X142113000Y-116533394D01*
X140337945Y-118308449D01*
X140113330Y-118215410D01*
X139172950Y-118215410D01*
X139014200Y-118374160D01*
X139014200Y-119632194D01*
X138885394Y-119761000D01*
X138760200Y-119761000D01*
X138760200Y-118374160D01*
X138601450Y-118215410D01*
X137661070Y-118215410D01*
X137427681Y-118312083D01*
X137249053Y-118490712D01*
X137152380Y-118724101D01*
X137152380Y-119761000D01*
X127635000Y-119761000D01*
X127635000Y-113363331D01*
X133073273Y-113363331D01*
X133299236Y-113832663D01*
X133687604Y-114179797D01*
X134032671Y-114322716D01*
X134239000Y-114199374D01*
X134239000Y-113157000D01*
X134493000Y-113157000D01*
X134493000Y-114199374D01*
X134699329Y-114322716D01*
X135044396Y-114179797D01*
X135203321Y-114037745D01*
X139125861Y-114037745D01*
X139199995Y-114283864D01*
X139737223Y-114476965D01*
X140307454Y-114449778D01*
X140708005Y-114283864D01*
X140782139Y-114037745D01*
X139954000Y-113209605D01*
X139125861Y-114037745D01*
X135203321Y-114037745D01*
X135432764Y-113832663D01*
X135658727Y-113363331D01*
X135536206Y-113157000D01*
X134493000Y-113157000D01*
X134239000Y-113157000D01*
X133195794Y-113157000D01*
X133073273Y-113363331D01*
X127635000Y-113363331D01*
X127635000Y-112696669D01*
X133073273Y-112696669D01*
X133195794Y-112903000D01*
X134239000Y-112903000D01*
X134239000Y-111860626D01*
X134493000Y-111860626D01*
X134493000Y-112903000D01*
X135536206Y-112903000D01*
X135589516Y-112813223D01*
X138507035Y-112813223D01*
X138534222Y-113383454D01*
X138700136Y-113784005D01*
X138946255Y-113858139D01*
X139774395Y-113030000D01*
X140133605Y-113030000D01*
X140961745Y-113858139D01*
X141207864Y-113784005D01*
X141400965Y-113246777D01*
X141373778Y-112676546D01*
X141207864Y-112275995D01*
X140961745Y-112201861D01*
X140133605Y-113030000D01*
X139774395Y-113030000D01*
X138946255Y-112201861D01*
X138700136Y-112275995D01*
X138507035Y-112813223D01*
X135589516Y-112813223D01*
X135658727Y-112696669D01*
X135432764Y-112227337D01*
X135203322Y-112022255D01*
X139125861Y-112022255D01*
X139954000Y-112850395D01*
X140782139Y-112022255D01*
X140708005Y-111776136D01*
X140170777Y-111583035D01*
X139600546Y-111610222D01*
X139199995Y-111776136D01*
X139125861Y-112022255D01*
X135203322Y-112022255D01*
X135044396Y-111880203D01*
X134699329Y-111737284D01*
X134493000Y-111860626D01*
X134239000Y-111860626D01*
X134032671Y-111737284D01*
X133687604Y-111880203D01*
X133299236Y-112227337D01*
X133073273Y-112696669D01*
X127635000Y-112696669D01*
X127635000Y-99430000D01*
X132818560Y-99430000D01*
X132818560Y-101230000D01*
X132867843Y-101477765D01*
X133008191Y-101687809D01*
X133218235Y-101828157D01*
X133233839Y-101831261D01*
X133065449Y-101999357D01*
X132831267Y-102563330D01*
X132830735Y-103173991D01*
X133063932Y-103738371D01*
X133223000Y-103897717D01*
X133223000Y-107221459D01*
X133031232Y-107683287D01*
X133030769Y-108214383D01*
X133233582Y-108705229D01*
X133608796Y-109081098D01*
X134099287Y-109284768D01*
X134630383Y-109285231D01*
X135121229Y-109082418D01*
X135497098Y-108707204D01*
X135700768Y-108216713D01*
X135701231Y-107685617D01*
X135509000Y-107220381D01*
X135509000Y-103897919D01*
X135666551Y-103740643D01*
X135900733Y-103176670D01*
X135901265Y-102566009D01*
X135830090Y-102393750D01*
X139843000Y-102393750D01*
X139843000Y-103234310D01*
X139939673Y-103467699D01*
X140118302Y-103646327D01*
X140351691Y-103743000D01*
X141192250Y-103743000D01*
X141351000Y-103584250D01*
X141351000Y-102235000D01*
X140001750Y-102235000D01*
X139843000Y-102393750D01*
X135830090Y-102393750D01*
X135668068Y-102001629D01*
X135498025Y-101831288D01*
X135513765Y-101828157D01*
X135723809Y-101687809D01*
X135864157Y-101477765D01*
X135913440Y-101230000D01*
X135913440Y-100981690D01*
X139843000Y-100981690D01*
X139843000Y-101822250D01*
X140001750Y-101981000D01*
X141351000Y-101981000D01*
X141351000Y-100631750D01*
X141192250Y-100473000D01*
X140351691Y-100473000D01*
X140118302Y-100569673D01*
X139939673Y-100748301D01*
X139843000Y-100981690D01*
X135913440Y-100981690D01*
X135913440Y-99430000D01*
X135864157Y-99182235D01*
X135723809Y-98972191D01*
X135513765Y-98831843D01*
X135266000Y-98782560D01*
X133466000Y-98782560D01*
X133218235Y-98831843D01*
X133008191Y-98972191D01*
X132867843Y-99182235D01*
X132818560Y-99430000D01*
X127635000Y-99430000D01*
X127635000Y-98732243D01*
X127646851Y-98732243D01*
X127805601Y-98573493D01*
X127805601Y-97386043D01*
X128059601Y-97386043D01*
X128059601Y-98573493D01*
X128218351Y-98732243D01*
X128897111Y-98732243D01*
X129130500Y-98635570D01*
X129309128Y-98456941D01*
X129405801Y-98223552D01*
X129405801Y-97544793D01*
X129247051Y-97386043D01*
X128059601Y-97386043D01*
X127805601Y-97386043D01*
X127785601Y-97386043D01*
X127785601Y-97132043D01*
X127805601Y-97132043D01*
X127805601Y-95944593D01*
X128059601Y-95944593D01*
X128059601Y-97132043D01*
X129247051Y-97132043D01*
X129405801Y-96973293D01*
X129405801Y-96294534D01*
X129309128Y-96061145D01*
X129130500Y-95882516D01*
X128897111Y-95785843D01*
X128218351Y-95785843D01*
X128059601Y-95944593D01*
X127805601Y-95944593D01*
X127646851Y-95785843D01*
X127635000Y-95785843D01*
X127635000Y-95631000D01*
X142113000Y-95631000D01*
X142113000Y-100473000D01*
M02*
