%TF.GenerationSoftware,KiCad,Pcbnew,(2017-03-23 revision 5aa1610)-master*%
%TF.CreationDate,2017-05-13T10:24:10+02:00*%
%TF.ProjectId,aPortableInductionHeater,61506F727461626C65496E6475637469,rev?*%
%TF.FileFunction,Soldermask,Bot*%
%TF.FilePolarity,Negative*%
%FSLAX45Y45*%
G04 Gerber Fmt 4.5, Leading zero omitted, Abs format (unit mm)*
G04 Created by KiCad (PCBNEW (2017-03-23 revision 5aa1610)-master) date 2017 May 13, Saturday 10:24:10*
%MOMM*%
%LPD*%
G01*
G04 APERTURE LIST*
%ADD10C,0.100000*%
%ADD11C,3.380000*%
%ADD12O,2.412000X2.920000*%
%ADD13C,1.980000*%
%ADD14R,2.158000X2.158000*%
%ADD15C,2.158000*%
%ADD16C,2.310400*%
%ADD17R,2.056400X2.056400*%
%ADD18C,2.780000*%
%ADD19O,2.780000X2.780000*%
%ADD20C,2.380000*%
%ADD21R,2.380000X2.380000*%
%ADD22C,2.180000*%
%ADD23R,2.180000X2.180000*%
%ADD24O,1.780000X1.780000*%
%ADD25C,1.780000*%
%ADD26R,3.380000X3.380000*%
G04 APERTURE END LIST*
D10*
D11*
X23190200Y-13843000D03*
D12*
X22047200Y-14097000D03*
X22555200Y-14097000D03*
X22301200Y-14097000D03*
D11*
X21412200Y-13843000D03*
X23190200Y-12674600D03*
D12*
X22047200Y-12928600D03*
X22555200Y-12928600D03*
X22301200Y-12928600D03*
D11*
X21412200Y-12674600D03*
X23190200Y-11480800D03*
D12*
X22047200Y-11734800D03*
X22555200Y-11734800D03*
X22301200Y-11734800D03*
D11*
X21412200Y-11480800D03*
X23164800Y-10261600D03*
D12*
X22021800Y-10515600D03*
X22529800Y-10515600D03*
X22275800Y-10515600D03*
D11*
X21386800Y-10261600D03*
D13*
X13995400Y-11303000D03*
X14745400Y-11303000D03*
X17246600Y-11379200D03*
X16246600Y-11379200D03*
X17246600Y-12293600D03*
X16246600Y-12293600D03*
X13741400Y-13081000D03*
X14741400Y-13081000D03*
X15849600Y-10617200D03*
X15849600Y-9867200D03*
X15875000Y-13893800D03*
X16625000Y-13893800D03*
D14*
X9490600Y-9725000D03*
D15*
X9744600Y-9725000D03*
X9998600Y-9725000D03*
X10252600Y-9725000D03*
X10506600Y-9725000D03*
X10760600Y-9725000D03*
X11014600Y-9725000D03*
X11268600Y-9725000D03*
X11522600Y-9725000D03*
X11776600Y-9725000D03*
D14*
X9485600Y-9980000D03*
D15*
X9739600Y-9980000D03*
X9993600Y-9980000D03*
X10247600Y-9980000D03*
X10501600Y-9980000D03*
X10755600Y-9980000D03*
X11009600Y-9980000D03*
X11263600Y-9980000D03*
X11517600Y-9980000D03*
X11771600Y-9980000D03*
D14*
X9490710Y-14043360D03*
D15*
X9744710Y-14043360D03*
X9998710Y-14043360D03*
X10252710Y-14043360D03*
X10506710Y-14043360D03*
X10760710Y-14043360D03*
X11014710Y-14043360D03*
X11268710Y-14043360D03*
X11522710Y-14043360D03*
X11776710Y-14043360D03*
D14*
X9490710Y-14297360D03*
D15*
X9744710Y-14297360D03*
X9998710Y-14297360D03*
X10252710Y-14297360D03*
X10506710Y-14297360D03*
X10760710Y-14297360D03*
X11014710Y-14297360D03*
X11268710Y-14297360D03*
X11522710Y-14297360D03*
X11776710Y-14297360D03*
D16*
X12285260Y-9725904D03*
X12539260Y-9725904D03*
D17*
X12793260Y-9725904D03*
D18*
X20523200Y-13817600D03*
D19*
X18491200Y-13817600D03*
D18*
X20523200Y-11049000D03*
D19*
X18491200Y-11049000D03*
X18491200Y-12852400D03*
D18*
X20523200Y-12852400D03*
D19*
X18491200Y-11988800D03*
D18*
X20523200Y-11988800D03*
D20*
X14647800Y-10210800D03*
D21*
X14147800Y-10210800D03*
D22*
X13436600Y-10287000D03*
D23*
X13436600Y-10033000D03*
D24*
X13436600Y-11303000D03*
D25*
X13436600Y-10795000D03*
D11*
X24053800Y-11684000D03*
D26*
X24053800Y-12192000D03*
D11*
X24053800Y-13462000D03*
D26*
X24053800Y-13970000D03*
M02*
