M48
;DRILL file {KiCad (2017-03-23 revision 5aa1610)-master} date 2017 May 13, Saturday 11:46:24
;FORMAT={-:-/ absolute / metric / decimal}
FMAT,2
METRIC,TZ
T1C0.381
T2C0.508
T3C0.700
T4C0.800
T5C0.900
T6C1.000
T7C1.016
T8C1.143
T9C1.200
T10C1.520
%
G90
G05
M71
T1
X149.098Y-110.49
T2
X120.65Y-102.616
X148.59Y-122.936
X149.86Y-100.33
X151.13Y-101.6
X151.13Y-108.966
X154.178Y-135.89
X154.178Y-137.16
X164.338Y-100.584
X164.338Y-101.854
X164.338Y-104.14
X172.212Y-135.89
X174.244Y-137.16
X175.514Y-96.774
X176.022Y-109.474
X177.038Y-131.064
X184.912Y-102.87
T3
X134.366Y-107.95
X134.366Y-113.03
T4
X137.414Y-130.81
X139.954Y-113.03
X147.414Y-130.81
X147.454Y-113.03
X158.496Y-98.672
X158.496Y-106.172
X158.75Y-138.938
X162.466Y-113.792
X162.466Y-122.936
X166.25Y-138.938
X172.466Y-113.792
X172.466Y-122.936
T5
X134.366Y-100.33
X134.366Y-102.87
T6
X141.478Y-102.108
X146.478Y-102.108
T7
X94.856Y-99.8
X94.906Y-97.25
X94.907Y-140.434
X94.907Y-142.974
X97.396Y-99.8
X97.446Y-97.25
X97.447Y-140.434
X97.447Y-142.974
X99.936Y-99.8
X99.986Y-97.25
X99.987Y-140.434
X99.987Y-142.974
X102.476Y-99.8
X102.526Y-97.25
X102.527Y-140.434
X102.527Y-142.974
X105.016Y-99.8
X105.066Y-97.25
X105.067Y-140.434
X105.067Y-142.974
X107.556Y-99.8
X107.606Y-97.25
X107.607Y-140.434
X107.607Y-142.974
X110.096Y-99.8
X110.146Y-97.25
X110.147Y-140.434
X110.147Y-142.974
X112.636Y-99.8
X112.686Y-97.25
X112.687Y-140.434
X112.687Y-142.974
X115.176Y-99.8
X115.226Y-97.25
X115.227Y-140.434
X115.227Y-142.974
X117.716Y-99.8
X117.766Y-97.25
X117.767Y-140.434
X117.767Y-142.974
X122.853Y-97.259
X125.393Y-97.259
X127.933Y-97.259
T8
X220.218Y-105.156
X220.472Y-117.348
X220.472Y-129.286
X220.472Y-140.97
X222.758Y-105.156
X223.012Y-117.348
X223.012Y-129.286
X223.012Y-140.97
X225.298Y-105.156
X225.552Y-117.348
X225.552Y-129.286
X225.552Y-140.97
T9
X184.912Y-110.49
X184.912Y-119.888
X184.912Y-128.524
X184.912Y-138.176
X205.232Y-110.49
X205.232Y-119.888
X205.232Y-128.524
X205.232Y-138.176
T10
X240.538Y-116.84
X240.538Y-121.92
X240.538Y-134.62
X240.538Y-139.7
T0
M30
