G04 #@! TF.GenerationSoftware,KiCad,Pcbnew,(2017-03-23 revision 5aa1610)-master*
G04 #@! TF.CreationDate,2017-05-08T22:11:11+02:00*
G04 #@! TF.ProjectId,aPortableInductionHeater,61506F727461626C65496E6475637469,rev?*
G04 #@! TF.FileFunction,Copper,L1,Top,Signal*
G04 #@! TF.FilePolarity,Positive*
%FSLAX46Y46*%
G04 Gerber Fmt 4.6, Leading zero omitted, Abs format (unit mm)*
G04 Created by KiCad (PCBNEW (2017-03-23 revision 5aa1610)-master) date 2017 May 08, Monday 22:11:11*
%MOMM*%
%LPD*%
G01*
G04 APERTURE LIST*
%ADD10C,0.100000*%
%ADD11C,3.000000*%
%ADD12O,2.032000X2.540000*%
%ADD13R,2.235200X1.219200*%
%ADD14R,2.199640X3.599180*%
%ADD15R,1.550000X0.600000*%
%ADD16C,1.600000*%
%ADD17R,1.778000X1.778000*%
%ADD18C,1.778000*%
%ADD19C,1.930400*%
%ADD20R,1.676400X1.676400*%
%ADD21C,2.400000*%
%ADD22O,2.400000X2.400000*%
%ADD23C,2.000000*%
%ADD24R,2.000000X2.000000*%
%ADD25C,1.800000*%
%ADD26R,1.800000X1.800000*%
%ADD27O,1.400000X1.400000*%
%ADD28C,1.400000*%
%ADD29R,3.000000X3.000000*%
%ADD30C,1.016000*%
%ADD31C,0.762000*%
%ADD32C,1.016000*%
%ADD33C,2.286000*%
%ADD34C,0.508000*%
%ADD35C,1.000000*%
%ADD36C,0.254000*%
G04 APERTURE END LIST*
D10*
D11*
X201676000Y-110490000D03*
D12*
X210566000Y-115570000D03*
X213106000Y-115570000D03*
X208026000Y-115570000D03*
D11*
X219456000Y-110490000D03*
X219456000Y-98806000D03*
D12*
X208026000Y-103886000D03*
X213106000Y-103886000D03*
X210566000Y-103886000D03*
D11*
X201676000Y-98806000D03*
X219456000Y-86868000D03*
D12*
X208026000Y-91948000D03*
X213106000Y-91948000D03*
X210566000Y-91948000D03*
D11*
X201676000Y-86868000D03*
X201422000Y-74676000D03*
D12*
X210312000Y-79756000D03*
X212852000Y-79756000D03*
X207772000Y-79756000D03*
D11*
X219202000Y-74676000D03*
D13*
X132638800Y-97561400D03*
X132638800Y-95250000D03*
X132638800Y-92941140D03*
D14*
X126441200Y-95250000D03*
D15*
X156304000Y-104267000D03*
X156304000Y-105537000D03*
X156304000Y-106807000D03*
X156304000Y-108077000D03*
X161704000Y-108077000D03*
X161704000Y-106807000D03*
X161704000Y-105537000D03*
X161704000Y-104267000D03*
X154272000Y-80137000D03*
X154272000Y-78867000D03*
X154272000Y-77597000D03*
X154272000Y-76327000D03*
X159672000Y-76327000D03*
X159672000Y-77597000D03*
X159672000Y-78867000D03*
X159672000Y-80137000D03*
D16*
X127508000Y-87630000D03*
X135008000Y-87630000D03*
X160020000Y-88392000D03*
X150020000Y-88392000D03*
X160020000Y-97536000D03*
X150020000Y-97536000D03*
X124968000Y-105410000D03*
X134968000Y-105410000D03*
X146050000Y-80772000D03*
X146050000Y-73272000D03*
X146304000Y-113538000D03*
X153804000Y-113538000D03*
D17*
X82460000Y-71850000D03*
D18*
X85000000Y-71850000D03*
X87540000Y-71850000D03*
X90080000Y-71850000D03*
X92620000Y-71850000D03*
X95160000Y-71850000D03*
X97700000Y-71850000D03*
X100240000Y-71850000D03*
X102780000Y-71850000D03*
X105320000Y-71850000D03*
D17*
X82410000Y-74400000D03*
D18*
X84950000Y-74400000D03*
X87490000Y-74400000D03*
X90030000Y-74400000D03*
X92570000Y-74400000D03*
X95110000Y-74400000D03*
X97650000Y-74400000D03*
X100190000Y-74400000D03*
X102730000Y-74400000D03*
X105270000Y-74400000D03*
D17*
X82461100Y-115033600D03*
D18*
X85001100Y-115033600D03*
X87541100Y-115033600D03*
X90081100Y-115033600D03*
X92621100Y-115033600D03*
X95161100Y-115033600D03*
X97701100Y-115033600D03*
X100241100Y-115033600D03*
X102781100Y-115033600D03*
X105321100Y-115033600D03*
D17*
X82461100Y-117573600D03*
D18*
X85001100Y-117573600D03*
X87541100Y-117573600D03*
X90081100Y-117573600D03*
X92621100Y-117573600D03*
X95161100Y-117573600D03*
X97701100Y-117573600D03*
X100241100Y-117573600D03*
X102781100Y-117573600D03*
X105321100Y-117573600D03*
D19*
X110406601Y-71859043D03*
X112946601Y-71859043D03*
D20*
X115486601Y-71859043D03*
D21*
X192786000Y-112776000D03*
D22*
X172466000Y-112776000D03*
D21*
X192786000Y-85090000D03*
D22*
X172466000Y-85090000D03*
X172466000Y-103124000D03*
D21*
X192786000Y-103124000D03*
D22*
X172466000Y-94488000D03*
D21*
X192786000Y-94488000D03*
D23*
X134032000Y-76708000D03*
D24*
X129032000Y-76708000D03*
D25*
X121920000Y-77470000D03*
D26*
X121920000Y-74930000D03*
D27*
X121920000Y-87630000D03*
D28*
X121920000Y-82550000D03*
D11*
X228092000Y-91440000D03*
D29*
X228092000Y-96520000D03*
D11*
X228092000Y-109220000D03*
D29*
X228092000Y-114300000D03*
D30*
X136144000Y-97536000D03*
X164592000Y-105664000D03*
X151892000Y-78740000D03*
X141732000Y-110490000D03*
X159766000Y-110490000D03*
X141732000Y-111760000D03*
X161798000Y-111760000D03*
X163068000Y-71374000D03*
X172466000Y-77470000D03*
X163576000Y-84074000D03*
X151892000Y-75184000D03*
X137414000Y-74930000D03*
D31*
X136652000Y-85090000D03*
D30*
X108204000Y-77216000D03*
X138684000Y-83566000D03*
X138684000Y-76200000D03*
X151892000Y-76454000D03*
D32*
X136118600Y-97561400D02*
X132638800Y-97561400D01*
X136144000Y-97536000D02*
X136118600Y-97561400D01*
X164465000Y-105537000D02*
X161704000Y-105537000D01*
X164592000Y-105664000D02*
X164465000Y-105537000D01*
X152019000Y-78867000D02*
X154272000Y-78867000D01*
X151892000Y-78740000D02*
X152019000Y-78867000D01*
D33*
X213106000Y-103886000D02*
X213106000Y-98806000D01*
X210566000Y-96266000D02*
X210566000Y-91948000D01*
X213106000Y-98806000D02*
X210566000Y-96266000D01*
X213106000Y-103886000D02*
X220726000Y-103886000D01*
X220726000Y-103886000D02*
X228092000Y-96520000D01*
X181610000Y-107950000D02*
X181610000Y-96520000D01*
X165862000Y-113792000D02*
X171704000Y-107950000D01*
X171704000Y-107950000D02*
X181610000Y-107950000D01*
X154058000Y-113792000D02*
X165862000Y-113792000D01*
X223520000Y-96520000D02*
X228092000Y-96520000D01*
X214122000Y-87122000D02*
X223520000Y-96520000D01*
X207264000Y-87122000D02*
X214122000Y-87122000D01*
X203454000Y-90932000D02*
X207264000Y-87122000D01*
X187198000Y-90932000D02*
X203454000Y-90932000D01*
X181610000Y-96520000D02*
X187198000Y-90932000D01*
D32*
X156304000Y-108077000D02*
X156304000Y-111038000D01*
D33*
X156304000Y-111038000D02*
X153804000Y-113538000D01*
X154058000Y-113792000D02*
X153804000Y-113538000D01*
D32*
X156304000Y-105537000D02*
X149479000Y-105537000D01*
X146304000Y-108712000D02*
X146304000Y-113538000D01*
X149479000Y-105537000D02*
X146304000Y-108712000D01*
D33*
X210439000Y-81661000D02*
X209931000Y-81661000D01*
X195453000Y-81153000D02*
X166370000Y-81153000D01*
X197612000Y-83312000D02*
X195453000Y-81153000D01*
X208280000Y-83312000D02*
X197612000Y-83312000D01*
X209931000Y-81661000D02*
X208280000Y-83312000D01*
X231648000Y-85852000D02*
X225806000Y-85852000D01*
X229870000Y-114300000D02*
X231648000Y-112522000D01*
X231648000Y-112522000D02*
X231648000Y-85852000D01*
X228092000Y-114300000D02*
X229870000Y-114300000D01*
X212090000Y-83312000D02*
X210439000Y-81661000D01*
X210439000Y-81661000D02*
X210312000Y-81534000D01*
X223266000Y-83312000D02*
X212090000Y-83312000D01*
X225806000Y-85852000D02*
X223266000Y-83312000D01*
X218948000Y-114300000D02*
X217170000Y-114300000D01*
X228092000Y-114300000D02*
X218948000Y-114300000D01*
X210566000Y-105918000D02*
X210566000Y-103886000D01*
X214122000Y-109474000D02*
X210566000Y-105918000D01*
X214122000Y-111252000D02*
X214122000Y-109474000D01*
X217170000Y-114300000D02*
X214122000Y-111252000D01*
X210312000Y-79756000D02*
X210312000Y-81534000D01*
X210312000Y-81534000D02*
X210312000Y-82042000D01*
X210312000Y-82042000D02*
X210566000Y-81788000D01*
X210566000Y-81788000D02*
X210566000Y-82042000D01*
X155956000Y-101600000D02*
X128778000Y-101600000D01*
X128778000Y-101600000D02*
X124968000Y-105410000D01*
D32*
X159672000Y-80137000D02*
X166370000Y-81153000D01*
D33*
X166370000Y-81153000D02*
X166370000Y-81026000D01*
X166370000Y-82042000D02*
X166370000Y-89154000D01*
X166370000Y-81026000D02*
X166370000Y-82042000D01*
D32*
X155956000Y-103919000D02*
X155956000Y-101600000D01*
D33*
X155956000Y-101600000D02*
X155956000Y-101346000D01*
X155956000Y-101346000D02*
X156210000Y-101092000D01*
D32*
X155956000Y-103919000D02*
X156304000Y-104267000D01*
X155956000Y-103919000D02*
X156304000Y-104267000D01*
X132638800Y-92941140D02*
X164614860Y-92941140D01*
D33*
X164614860Y-92941140D02*
X164846000Y-92710000D01*
X160020000Y-97536000D02*
X159766000Y-97536000D01*
X159766000Y-97536000D02*
X156210000Y-101092000D01*
X160020000Y-88392000D02*
X165608000Y-88392000D01*
X165608000Y-88392000D02*
X166370000Y-89154000D01*
X166370000Y-89154000D02*
X166370000Y-91186000D01*
X166370000Y-91186000D02*
X164846000Y-92710000D01*
X164846000Y-92710000D02*
X160020000Y-97536000D01*
D32*
X156304000Y-106807000D02*
X154559000Y-106807000D01*
X168910000Y-116332000D02*
X172466000Y-112776000D01*
X151384000Y-116332000D02*
X168910000Y-116332000D01*
X151638000Y-116586000D02*
X151384000Y-116332000D01*
X151638000Y-109728000D02*
X151638000Y-116586000D01*
X154559000Y-106807000D02*
X151638000Y-109728000D01*
X161704000Y-104267000D02*
X162179000Y-104267000D01*
X162179000Y-104267000D02*
X163322000Y-103124000D01*
X163322000Y-103124000D02*
X172466000Y-103124000D01*
D34*
X161704000Y-106807000D02*
X160655000Y-106807000D01*
X95110000Y-80124000D02*
X95110000Y-74400000D01*
X125476000Y-110490000D02*
X95110000Y-80124000D01*
X141732000Y-110490000D02*
X125476000Y-110490000D01*
X159766000Y-107696000D02*
X159766000Y-110490000D01*
X160655000Y-106807000D02*
X159766000Y-107696000D01*
X161704000Y-108077000D02*
X161704000Y-111666000D01*
X92570000Y-79362000D02*
X92570000Y-74400000D01*
X124968000Y-111760000D02*
X92570000Y-79362000D01*
X141732000Y-111760000D02*
X124968000Y-111760000D01*
X161704000Y-111666000D02*
X161798000Y-111760000D01*
D32*
X192786000Y-112776000D02*
X192786000Y-111252000D01*
X200152000Y-103886000D02*
X208026000Y-103886000D01*
X192786000Y-111252000D02*
X200152000Y-103886000D01*
X208026000Y-91694000D02*
X208026000Y-93980000D01*
X200406000Y-95504000D02*
X192786000Y-103124000D01*
X206502000Y-95504000D02*
X200406000Y-95504000D01*
X208026000Y-93980000D02*
X206502000Y-95504000D01*
X192786000Y-103124000D02*
X193802000Y-103124000D01*
X148844000Y-73914000D02*
X148844000Y-77978000D01*
X157353000Y-78867000D02*
X156464000Y-77978000D01*
X156464000Y-77978000D02*
X156464000Y-74422000D01*
X156464000Y-74422000D02*
X155956000Y-73914000D01*
X155956000Y-73914000D02*
X148844000Y-73914000D01*
X159672000Y-78867000D02*
X157353000Y-78867000D01*
X148844000Y-77978000D02*
X146050000Y-80772000D01*
D35*
X159672000Y-76327000D02*
X160655000Y-76327000D01*
X160655000Y-76327000D02*
X163068000Y-73914000D01*
D33*
X163068000Y-74930000D02*
X163068000Y-73914000D01*
X163068000Y-73914000D02*
X163068000Y-71374000D01*
D32*
X159672000Y-77597000D02*
X172339000Y-77597000D01*
X172339000Y-77597000D02*
X172466000Y-77470000D01*
X156210000Y-84074000D02*
X163576000Y-84074000D01*
X154272000Y-82136000D02*
X156210000Y-84074000D01*
X154272000Y-80137000D02*
X154272000Y-82136000D01*
D34*
X154272000Y-75786000D02*
X153670000Y-75184000D01*
X153670000Y-75184000D02*
X151892000Y-75184000D01*
X137414000Y-74930000D02*
X136652000Y-75692000D01*
X136652000Y-75692000D02*
X136652000Y-85090000D01*
X154272000Y-76327000D02*
X154272000Y-75786000D01*
X154272000Y-77597000D02*
X153035000Y-77597000D01*
X104526000Y-70104000D02*
X102780000Y-71850000D01*
X106172000Y-70104000D02*
X104526000Y-70104000D01*
X107442000Y-71374000D02*
X106172000Y-70104000D01*
X107442000Y-76454000D02*
X107442000Y-71374000D01*
X108204000Y-77216000D02*
X107442000Y-76454000D01*
X138684000Y-76200000D02*
X138684000Y-83566000D01*
X153035000Y-77597000D02*
X151892000Y-76454000D01*
D33*
X132638800Y-95250000D02*
X126441200Y-95250000D01*
X129032000Y-76708000D02*
X129032000Y-75184000D01*
X124968000Y-71120000D02*
X116225644Y-71120000D01*
X129032000Y-75184000D02*
X124968000Y-71120000D01*
X116225644Y-71120000D02*
X115486601Y-71859043D01*
X127508000Y-87630000D02*
X121920000Y-87630000D01*
X127508000Y-87630000D02*
X129032000Y-86106000D01*
X129032000Y-86106000D02*
X129032000Y-76708000D01*
X126441200Y-95250000D02*
X126441200Y-88696800D01*
X125374400Y-87630000D02*
X127508000Y-87630000D01*
X126441200Y-88696800D02*
X125374400Y-87630000D01*
D32*
X121920000Y-82550000D02*
X121920000Y-77470000D01*
D36*
G36*
X217647091Y-85657041D02*
X217321372Y-86441459D01*
X217320630Y-87290815D01*
X217644980Y-88075800D01*
X218245041Y-88676909D01*
X219029459Y-89002628D01*
X219878815Y-89003370D01*
X220663800Y-88679020D01*
X221264909Y-88078959D01*
X221590628Y-87294541D01*
X221591370Y-86445185D01*
X221372940Y-85916546D01*
X223938197Y-88481803D01*
X223979399Y-88509333D01*
X224028000Y-88519000D01*
X228219000Y-88519000D01*
X228219000Y-89305110D01*
X227669185Y-89304630D01*
X226884200Y-89628980D01*
X226283091Y-90229041D01*
X225957372Y-91013459D01*
X225956630Y-91862815D01*
X226280980Y-92647800D01*
X226881041Y-93248909D01*
X227665459Y-93574628D01*
X228219000Y-93575112D01*
X228219000Y-104013000D01*
X213233000Y-104013000D01*
X213233000Y-103759000D01*
X214757000Y-103759000D01*
X214757000Y-103505000D01*
X214582724Y-102882857D01*
X214183630Y-102374764D01*
X213620477Y-102058074D01*
X213488944Y-102026025D01*
X213233002Y-102145163D01*
X213233002Y-101981000D01*
X213233000Y-101981000D01*
X213233000Y-99228815D01*
X217320630Y-99228815D01*
X217644980Y-100013800D01*
X218245041Y-100614909D01*
X219029459Y-100940628D01*
X219878815Y-100941370D01*
X220663800Y-100617020D01*
X221264909Y-100016959D01*
X221590628Y-99232541D01*
X221591370Y-98383185D01*
X221267020Y-97598200D01*
X220666959Y-96997091D01*
X220206159Y-96805750D01*
X225957000Y-96805750D01*
X225957000Y-98146309D01*
X226053673Y-98379698D01*
X226232301Y-98558327D01*
X226465690Y-98655000D01*
X227806250Y-98655000D01*
X227965000Y-98496250D01*
X227965000Y-96647000D01*
X226115750Y-96647000D01*
X225957000Y-96805750D01*
X220206159Y-96805750D01*
X219882541Y-96671372D01*
X219033185Y-96670630D01*
X218248200Y-96994980D01*
X217647091Y-97595041D01*
X217321372Y-98379459D01*
X217320630Y-99228815D01*
X213233000Y-99228815D01*
X213233000Y-98806000D01*
X213223333Y-98757399D01*
X213195803Y-98716197D01*
X210439000Y-95959394D01*
X210439000Y-94893691D01*
X225957000Y-94893691D01*
X225957000Y-96234250D01*
X226115750Y-96393000D01*
X227965000Y-96393000D01*
X227965000Y-94543750D01*
X227806250Y-94385000D01*
X226465690Y-94385000D01*
X226232301Y-94481673D01*
X226053673Y-94660302D01*
X225957000Y-94893691D01*
X210439000Y-94893691D01*
X210439000Y-90207164D01*
X210693000Y-90207164D01*
X210693000Y-91821000D01*
X210713000Y-91821000D01*
X210713000Y-92075000D01*
X210693000Y-92075000D01*
X210693000Y-93688836D01*
X210948944Y-93807975D01*
X211080477Y-93775926D01*
X211643630Y-93459236D01*
X211821946Y-93232219D01*
X211938567Y-93406754D01*
X212474190Y-93764646D01*
X213106000Y-93890321D01*
X213737810Y-93764646D01*
X214273433Y-93406754D01*
X214631325Y-92871131D01*
X214757000Y-92239321D01*
X214757000Y-91656679D01*
X214631325Y-91024869D01*
X214273433Y-90489246D01*
X213737810Y-90131354D01*
X213106000Y-90005679D01*
X212474190Y-90131354D01*
X211938567Y-90489246D01*
X211821946Y-90663781D01*
X211643630Y-90436764D01*
X211080477Y-90120074D01*
X210948944Y-90088025D01*
X210693000Y-90207164D01*
X210439000Y-90207164D01*
X210439000Y-85467864D01*
X218026620Y-85278174D01*
X217647091Y-85657041D01*
X217647091Y-85657041D01*
G37*
X217647091Y-85657041D02*
X217321372Y-86441459D01*
X217320630Y-87290815D01*
X217644980Y-88075800D01*
X218245041Y-88676909D01*
X219029459Y-89002628D01*
X219878815Y-89003370D01*
X220663800Y-88679020D01*
X221264909Y-88078959D01*
X221590628Y-87294541D01*
X221591370Y-86445185D01*
X221372940Y-85916546D01*
X223938197Y-88481803D01*
X223979399Y-88509333D01*
X224028000Y-88519000D01*
X228219000Y-88519000D01*
X228219000Y-89305110D01*
X227669185Y-89304630D01*
X226884200Y-89628980D01*
X226283091Y-90229041D01*
X225957372Y-91013459D01*
X225956630Y-91862815D01*
X226280980Y-92647800D01*
X226881041Y-93248909D01*
X227665459Y-93574628D01*
X228219000Y-93575112D01*
X228219000Y-104013000D01*
X213233000Y-104013000D01*
X213233000Y-103759000D01*
X214757000Y-103759000D01*
X214757000Y-103505000D01*
X214582724Y-102882857D01*
X214183630Y-102374764D01*
X213620477Y-102058074D01*
X213488944Y-102026025D01*
X213233002Y-102145163D01*
X213233002Y-101981000D01*
X213233000Y-101981000D01*
X213233000Y-99228815D01*
X217320630Y-99228815D01*
X217644980Y-100013800D01*
X218245041Y-100614909D01*
X219029459Y-100940628D01*
X219878815Y-100941370D01*
X220663800Y-100617020D01*
X221264909Y-100016959D01*
X221590628Y-99232541D01*
X221591370Y-98383185D01*
X221267020Y-97598200D01*
X220666959Y-96997091D01*
X220206159Y-96805750D01*
X225957000Y-96805750D01*
X225957000Y-98146309D01*
X226053673Y-98379698D01*
X226232301Y-98558327D01*
X226465690Y-98655000D01*
X227806250Y-98655000D01*
X227965000Y-98496250D01*
X227965000Y-96647000D01*
X226115750Y-96647000D01*
X225957000Y-96805750D01*
X220206159Y-96805750D01*
X219882541Y-96671372D01*
X219033185Y-96670630D01*
X218248200Y-96994980D01*
X217647091Y-97595041D01*
X217321372Y-98379459D01*
X217320630Y-99228815D01*
X213233000Y-99228815D01*
X213233000Y-98806000D01*
X213223333Y-98757399D01*
X213195803Y-98716197D01*
X210439000Y-95959394D01*
X210439000Y-94893691D01*
X225957000Y-94893691D01*
X225957000Y-96234250D01*
X226115750Y-96393000D01*
X227965000Y-96393000D01*
X227965000Y-94543750D01*
X227806250Y-94385000D01*
X226465690Y-94385000D01*
X226232301Y-94481673D01*
X226053673Y-94660302D01*
X225957000Y-94893691D01*
X210439000Y-94893691D01*
X210439000Y-90207164D01*
X210693000Y-90207164D01*
X210693000Y-91821000D01*
X210713000Y-91821000D01*
X210713000Y-92075000D01*
X210693000Y-92075000D01*
X210693000Y-93688836D01*
X210948944Y-93807975D01*
X211080477Y-93775926D01*
X211643630Y-93459236D01*
X211821946Y-93232219D01*
X211938567Y-93406754D01*
X212474190Y-93764646D01*
X213106000Y-93890321D01*
X213737810Y-93764646D01*
X214273433Y-93406754D01*
X214631325Y-92871131D01*
X214757000Y-92239321D01*
X214757000Y-91656679D01*
X214631325Y-91024869D01*
X214273433Y-90489246D01*
X213737810Y-90131354D01*
X213106000Y-90005679D01*
X212474190Y-90131354D01*
X211938567Y-90489246D01*
X211821946Y-90663781D01*
X211643630Y-90436764D01*
X211080477Y-90120074D01*
X210948944Y-90088025D01*
X210693000Y-90207164D01*
X210439000Y-90207164D01*
X210439000Y-85467864D01*
X218026620Y-85278174D01*
X217647091Y-85657041D01*
G36*
X161290000Y-71374000D02*
X161290000Y-74086868D01*
X160184868Y-75192000D01*
X159672000Y-75192000D01*
X159237654Y-75278397D01*
X159086253Y-75379560D01*
X158897000Y-75379560D01*
X158649235Y-75428843D01*
X158439191Y-75569191D01*
X158298843Y-75779235D01*
X158249560Y-76027000D01*
X158249560Y-76627000D01*
X158298843Y-76874765D01*
X158357132Y-76962000D01*
X158298843Y-77049235D01*
X158249560Y-77297000D01*
X158249560Y-77724000D01*
X157826446Y-77724000D01*
X157607000Y-77504554D01*
X157607000Y-74422000D01*
X157519994Y-73984593D01*
X157272223Y-73613777D01*
X156764223Y-73105777D01*
X156393407Y-72858006D01*
X155956000Y-72771000D01*
X148844000Y-72771000D01*
X148406593Y-72858006D01*
X148035777Y-73105777D01*
X147788006Y-73476593D01*
X147701000Y-73914000D01*
X147701000Y-77504554D01*
X145868712Y-79336842D01*
X145765813Y-79336752D01*
X145238200Y-79554757D01*
X144834176Y-79958077D01*
X144615250Y-80485309D01*
X144614752Y-81056187D01*
X144832757Y-81583800D01*
X145236077Y-81987824D01*
X145763309Y-82206750D01*
X146334187Y-82207248D01*
X146861800Y-81989243D01*
X147265824Y-81585923D01*
X147484750Y-81058691D01*
X147484842Y-80953604D01*
X149652223Y-78786223D01*
X149899994Y-78415407D01*
X149987000Y-77978000D01*
X149987000Y-75057000D01*
X150749111Y-75057000D01*
X150748802Y-75410359D01*
X150917850Y-75819489D01*
X150749199Y-76225646D01*
X150748802Y-76680359D01*
X150922446Y-77100612D01*
X151243697Y-77422423D01*
X151663646Y-77596801D01*
X151665639Y-77596803D01*
X151245388Y-77770446D01*
X150923577Y-78091697D01*
X150749199Y-78511646D01*
X150748802Y-78966359D01*
X150922446Y-79386612D01*
X151243697Y-79708423D01*
X151287990Y-79726815D01*
X151581593Y-79922994D01*
X152019000Y-80010000D01*
X152849560Y-80010000D01*
X152849560Y-80437000D01*
X152898843Y-80684765D01*
X153039191Y-80894809D01*
X153129000Y-80954818D01*
X153129000Y-82136000D01*
X153216006Y-82573407D01*
X153463777Y-82944223D01*
X155401777Y-84882223D01*
X155772593Y-85129994D01*
X156210000Y-85217000D01*
X163575575Y-85217000D01*
X163802359Y-85217198D01*
X164110203Y-85090000D01*
X170595050Y-85090000D01*
X170734731Y-85792224D01*
X171132509Y-86387541D01*
X171727826Y-86785319D01*
X172430050Y-86925000D01*
X172501950Y-86925000D01*
X173204174Y-86785319D01*
X173799491Y-86387541D01*
X174197269Y-85792224D01*
X174264664Y-85453403D01*
X190950682Y-85453403D01*
X191229455Y-86128086D01*
X191745199Y-86644730D01*
X192419395Y-86924681D01*
X193149403Y-86925318D01*
X193824086Y-86646545D01*
X194340730Y-86130801D01*
X194620681Y-85456605D01*
X194621318Y-84726597D01*
X194342545Y-84051914D01*
X193826801Y-83535270D01*
X193152605Y-83255319D01*
X192422597Y-83254682D01*
X191747914Y-83533455D01*
X191231270Y-84049199D01*
X190951319Y-84723395D01*
X190950682Y-85453403D01*
X174264664Y-85453403D01*
X174336950Y-85090000D01*
X174197269Y-84387776D01*
X173799491Y-83792459D01*
X173204174Y-83394681D01*
X172501950Y-83255000D01*
X172430050Y-83255000D01*
X171727826Y-83394681D01*
X171132509Y-83792459D01*
X170734731Y-84387776D01*
X170595050Y-85090000D01*
X164110203Y-85090000D01*
X164222612Y-85043554D01*
X164544423Y-84722303D01*
X164718801Y-84302354D01*
X164719198Y-83847641D01*
X164545554Y-83427388D01*
X164224303Y-83105577D01*
X163804354Y-82931199D01*
X163349641Y-82930802D01*
X163349162Y-82931000D01*
X156683446Y-82931000D01*
X155415000Y-81662554D01*
X155415000Y-80954818D01*
X155504809Y-80894809D01*
X155645157Y-80684765D01*
X155694440Y-80437000D01*
X155694440Y-80422750D01*
X158262000Y-80422750D01*
X158262000Y-80563310D01*
X158358673Y-80796699D01*
X158537302Y-80975327D01*
X158770691Y-81072000D01*
X159386250Y-81072000D01*
X159545000Y-80913250D01*
X159545000Y-80264000D01*
X159799000Y-80264000D01*
X159799000Y-80913250D01*
X159957750Y-81072000D01*
X160573309Y-81072000D01*
X160806698Y-80975327D01*
X160985327Y-80796699D01*
X161082000Y-80563310D01*
X161082000Y-80422750D01*
X160923250Y-80264000D01*
X159799000Y-80264000D01*
X159545000Y-80264000D01*
X158420750Y-80264000D01*
X158262000Y-80422750D01*
X155694440Y-80422750D01*
X155694440Y-79837000D01*
X155645157Y-79589235D01*
X155586868Y-79502000D01*
X155645157Y-79414765D01*
X155694440Y-79167000D01*
X155694440Y-78824886D01*
X156544777Y-79675223D01*
X156915593Y-79922994D01*
X157353000Y-80010000D01*
X159672000Y-80010000D01*
X159772546Y-79990000D01*
X159799000Y-79990000D01*
X159799000Y-80010000D01*
X160923250Y-80010000D01*
X161082000Y-79851250D01*
X161082000Y-79710690D01*
X160992232Y-79493972D01*
X161011805Y-79464679D01*
X206121000Y-79464679D01*
X206121000Y-80047321D01*
X206246675Y-80679131D01*
X206604567Y-81214754D01*
X207140190Y-81572646D01*
X207772000Y-81698321D01*
X208403810Y-81572646D01*
X208939433Y-81214754D01*
X209056054Y-81040219D01*
X209234370Y-81267236D01*
X209797523Y-81583926D01*
X209929056Y-81615975D01*
X210185000Y-81496836D01*
X210185000Y-79883000D01*
X210165000Y-79883000D01*
X210165000Y-79629000D01*
X210185000Y-79629000D01*
X210185000Y-78015164D01*
X210439000Y-78015164D01*
X210439000Y-79629000D01*
X210459000Y-79629000D01*
X210459000Y-79883000D01*
X210439000Y-79883000D01*
X210439000Y-81496836D01*
X210694944Y-81615975D01*
X210826477Y-81583926D01*
X211389630Y-81267236D01*
X211567946Y-81040219D01*
X211684567Y-81214754D01*
X212220190Y-81572646D01*
X212852000Y-81698321D01*
X213483810Y-81572646D01*
X214019433Y-81214754D01*
X214377325Y-80679131D01*
X214503000Y-80047321D01*
X214503000Y-79464679D01*
X214377325Y-78832869D01*
X214019433Y-78297246D01*
X213483810Y-77939354D01*
X212852000Y-77813679D01*
X212220190Y-77939354D01*
X211684567Y-78297246D01*
X211567946Y-78471781D01*
X211389630Y-78244764D01*
X210826477Y-77928074D01*
X210694944Y-77896025D01*
X210439000Y-78015164D01*
X210185000Y-78015164D01*
X209929056Y-77896025D01*
X209797523Y-77928074D01*
X209234370Y-78244764D01*
X209056054Y-78471781D01*
X208939433Y-78297246D01*
X208403810Y-77939354D01*
X207772000Y-77813679D01*
X207140190Y-77939354D01*
X206604567Y-78297246D01*
X206246675Y-78832869D01*
X206121000Y-79464679D01*
X161011805Y-79464679D01*
X161045157Y-79414765D01*
X161094440Y-79167000D01*
X161094440Y-78740000D01*
X172339000Y-78740000D01*
X172776407Y-78652994D01*
X173068670Y-78457710D01*
X173112612Y-78439554D01*
X173146557Y-78405668D01*
X173147223Y-78405223D01*
X173273518Y-78278928D01*
X173434423Y-78118303D01*
X173608801Y-77698354D01*
X173609198Y-77243641D01*
X173435554Y-76823388D01*
X173114303Y-76501577D01*
X172694354Y-76327199D01*
X172239641Y-76326802D01*
X171931797Y-76454000D01*
X163925995Y-76454000D01*
X164325236Y-76187236D01*
X164710658Y-75610411D01*
X164812420Y-75098815D01*
X199286630Y-75098815D01*
X199610980Y-75883800D01*
X200211041Y-76484909D01*
X200995459Y-76810628D01*
X201844815Y-76811370D01*
X202629800Y-76487020D01*
X203230909Y-75886959D01*
X203556628Y-75102541D01*
X203556631Y-75098815D01*
X217066630Y-75098815D01*
X217390980Y-75883800D01*
X217991041Y-76484909D01*
X218775459Y-76810628D01*
X219624815Y-76811370D01*
X220409800Y-76487020D01*
X221010909Y-75886959D01*
X221336628Y-75102541D01*
X221337370Y-74253185D01*
X221013020Y-73468200D01*
X220412959Y-72867091D01*
X219628541Y-72541372D01*
X218779185Y-72540630D01*
X217994200Y-72864980D01*
X217393091Y-73465041D01*
X217067372Y-74249459D01*
X217066630Y-75098815D01*
X203556631Y-75098815D01*
X203557370Y-74253185D01*
X203233020Y-73468200D01*
X202632959Y-72867091D01*
X201848541Y-72541372D01*
X200999185Y-72540630D01*
X200214200Y-72864980D01*
X199613091Y-73465041D01*
X199287372Y-74249459D01*
X199286630Y-75098815D01*
X164812420Y-75098815D01*
X164846000Y-74930000D01*
X164846000Y-71374000D01*
X164719691Y-70739000D01*
X233045000Y-70739000D01*
X233045000Y-119302000D01*
X210439000Y-119302000D01*
X210439000Y-117487059D01*
X210566000Y-117512321D01*
X211197810Y-117386646D01*
X211733433Y-117028754D01*
X211836000Y-116875252D01*
X211938567Y-117028754D01*
X212474190Y-117386646D01*
X213106000Y-117512321D01*
X213737810Y-117386646D01*
X214273433Y-117028754D01*
X214631325Y-116493131D01*
X214757000Y-115861321D01*
X214757000Y-115278679D01*
X214631325Y-114646869D01*
X214590487Y-114585750D01*
X225957000Y-114585750D01*
X225957000Y-115926309D01*
X226053673Y-116159698D01*
X226232301Y-116338327D01*
X226465690Y-116435000D01*
X227806250Y-116435000D01*
X227965000Y-116276250D01*
X227965000Y-114427000D01*
X228219000Y-114427000D01*
X228219000Y-116276250D01*
X228377750Y-116435000D01*
X229718310Y-116435000D01*
X229951699Y-116338327D01*
X230130327Y-116159698D01*
X230227000Y-115926309D01*
X230227000Y-114585750D01*
X230068250Y-114427000D01*
X228219000Y-114427000D01*
X227965000Y-114427000D01*
X226115750Y-114427000D01*
X225957000Y-114585750D01*
X214590487Y-114585750D01*
X214273433Y-114111246D01*
X213737810Y-113753354D01*
X213106000Y-113627679D01*
X212474190Y-113753354D01*
X211938567Y-114111246D01*
X211836000Y-114264748D01*
X211733433Y-114111246D01*
X211197810Y-113753354D01*
X210566000Y-113627679D01*
X210439000Y-113652941D01*
X210439000Y-112673691D01*
X225957000Y-112673691D01*
X225957000Y-114014250D01*
X226115750Y-114173000D01*
X227965000Y-114173000D01*
X227965000Y-112323750D01*
X228219000Y-112323750D01*
X228219000Y-114173000D01*
X230068250Y-114173000D01*
X230227000Y-114014250D01*
X230227000Y-112673691D01*
X230130327Y-112440302D01*
X229951699Y-112261673D01*
X229718310Y-112165000D01*
X228377750Y-112165000D01*
X228219000Y-112323750D01*
X227965000Y-112323750D01*
X227806250Y-112165000D01*
X226465690Y-112165000D01*
X226232301Y-112261673D01*
X226053673Y-112440302D01*
X225957000Y-112673691D01*
X210439000Y-112673691D01*
X210439000Y-110912815D01*
X217320630Y-110912815D01*
X217644980Y-111697800D01*
X218245041Y-112298909D01*
X219029459Y-112624628D01*
X219878815Y-112625370D01*
X220663800Y-112301020D01*
X221264909Y-111700959D01*
X221590628Y-110916541D01*
X221591370Y-110067185D01*
X221416024Y-109642815D01*
X225956630Y-109642815D01*
X226280980Y-110427800D01*
X226881041Y-111028909D01*
X227665459Y-111354628D01*
X228514815Y-111355370D01*
X229299800Y-111031020D01*
X229900909Y-110430959D01*
X230226628Y-109646541D01*
X230227370Y-108797185D01*
X229903020Y-108012200D01*
X229302959Y-107411091D01*
X228518541Y-107085372D01*
X227669185Y-107084630D01*
X226884200Y-107408980D01*
X226283091Y-108009041D01*
X225957372Y-108793459D01*
X225956630Y-109642815D01*
X221416024Y-109642815D01*
X221267020Y-109282200D01*
X220666959Y-108681091D01*
X219882541Y-108355372D01*
X219033185Y-108354630D01*
X218248200Y-108678980D01*
X217647091Y-109279041D01*
X217321372Y-110063459D01*
X217320630Y-110912815D01*
X210439000Y-110912815D01*
X210439000Y-106299000D01*
X229362000Y-106299000D01*
X229410601Y-106289333D01*
X229451803Y-106261803D01*
X229479333Y-106220601D01*
X229488988Y-106170260D01*
X229386210Y-98667440D01*
X229592000Y-98667440D01*
X229839765Y-98618157D01*
X230049809Y-98477809D01*
X230190157Y-98267765D01*
X230239440Y-98020000D01*
X230239440Y-95020000D01*
X230190157Y-94772235D01*
X230049809Y-94562191D01*
X229839765Y-94421843D01*
X229592000Y-94372560D01*
X229327376Y-94372560D01*
X229311847Y-93238994D01*
X229900909Y-92650959D01*
X230226628Y-91866541D01*
X230227370Y-91017185D01*
X229903020Y-90232200D01*
X229302959Y-89631091D01*
X229262192Y-89614163D01*
X229234988Y-87628260D01*
X229224656Y-87579797D01*
X229196564Y-87538976D01*
X229154989Y-87512013D01*
X229108000Y-87503000D01*
X224842606Y-87503000D01*
X221577803Y-84238197D01*
X221536601Y-84210667D01*
X221488000Y-84201000D01*
X205740000Y-84201000D01*
X205691399Y-84210667D01*
X205650197Y-84238197D01*
X203703726Y-86184668D01*
X203487020Y-85660200D01*
X202886959Y-85059091D01*
X202102541Y-84733372D01*
X201253185Y-84732630D01*
X200468200Y-85056980D01*
X199867091Y-85657041D01*
X199541372Y-86441459D01*
X199540630Y-87290815D01*
X199864980Y-88075800D01*
X200465041Y-88676909D01*
X200696454Y-88773000D01*
X170180000Y-88773000D01*
X170131399Y-88782667D01*
X170090197Y-88810197D01*
X170062667Y-88851399D01*
X170053000Y-88900000D01*
X170053000Y-93927394D01*
X160471227Y-103509167D01*
X160471191Y-103509191D01*
X160471167Y-103509227D01*
X157684457Y-106295937D01*
X157677157Y-106259235D01*
X157618868Y-106172000D01*
X157677157Y-106084765D01*
X157726440Y-105837000D01*
X157726440Y-105237000D01*
X157677157Y-104989235D01*
X157624232Y-104910028D01*
X157714000Y-104693310D01*
X157714000Y-104552750D01*
X157555250Y-104394000D01*
X156431000Y-104394000D01*
X156431000Y-104414000D01*
X156404546Y-104414000D01*
X156304000Y-104394000D01*
X149479000Y-104394000D01*
X149041593Y-104481006D01*
X148670777Y-104728777D01*
X145495777Y-107903777D01*
X145248006Y-108274593D01*
X145161000Y-108712000D01*
X145161000Y-112651380D01*
X145088176Y-112724077D01*
X144869250Y-113251309D01*
X144868752Y-113822187D01*
X145086757Y-114349800D01*
X145490077Y-114753824D01*
X146017309Y-114972750D01*
X146588187Y-114973248D01*
X147115800Y-114755243D01*
X147519824Y-114351923D01*
X147738750Y-113824691D01*
X147739248Y-113253813D01*
X147521243Y-112726200D01*
X147447000Y-112651827D01*
X147447000Y-109185446D01*
X149952446Y-106680000D01*
X153069554Y-106680000D01*
X150829777Y-108919777D01*
X150582006Y-109290593D01*
X150495000Y-109728000D01*
X150495000Y-113485394D01*
X145743394Y-118237000D01*
X118745000Y-118237000D01*
X118745000Y-106794236D01*
X124339382Y-112388618D01*
X124627794Y-112581329D01*
X124968000Y-112649000D01*
X141004412Y-112649000D01*
X141083697Y-112728423D01*
X141503646Y-112902801D01*
X141958359Y-112903198D01*
X142378612Y-112729554D01*
X142700423Y-112408303D01*
X142874801Y-111988354D01*
X142875198Y-111533641D01*
X142706150Y-111124511D01*
X142874801Y-110718354D01*
X142875198Y-110263641D01*
X142701554Y-109843388D01*
X142380303Y-109521577D01*
X141960354Y-109347199D01*
X141505641Y-109346802D01*
X141085388Y-109520446D01*
X141004694Y-109601000D01*
X125844236Y-109601000D01*
X122660981Y-106417745D01*
X124139861Y-106417745D01*
X124213995Y-106663864D01*
X124751223Y-106856965D01*
X125321454Y-106829778D01*
X125722005Y-106663864D01*
X125796139Y-106417745D01*
X124968000Y-105589605D01*
X124139861Y-106417745D01*
X122660981Y-106417745D01*
X121436459Y-105193223D01*
X123521035Y-105193223D01*
X123548222Y-105763454D01*
X123714136Y-106164005D01*
X123960255Y-106238139D01*
X124788395Y-105410000D01*
X125147605Y-105410000D01*
X125975745Y-106238139D01*
X126221864Y-106164005D01*
X126390735Y-105694187D01*
X133532752Y-105694187D01*
X133750757Y-106221800D01*
X134154077Y-106625824D01*
X134681309Y-106844750D01*
X135252187Y-106845248D01*
X135779800Y-106627243D01*
X136183824Y-106223923D01*
X136402750Y-105696691D01*
X136403248Y-105125813D01*
X136185243Y-104598200D01*
X135781923Y-104194176D01*
X135254691Y-103975250D01*
X134683813Y-103974752D01*
X134156200Y-104192757D01*
X133752176Y-104596077D01*
X133533250Y-105123309D01*
X133532752Y-105694187D01*
X126390735Y-105694187D01*
X126414965Y-105626777D01*
X126387778Y-105056546D01*
X126221864Y-104655995D01*
X125975745Y-104581861D01*
X125147605Y-105410000D01*
X124788395Y-105410000D01*
X123960255Y-104581861D01*
X123714136Y-104655995D01*
X123521035Y-105193223D01*
X121436459Y-105193223D01*
X120645491Y-104402255D01*
X124139861Y-104402255D01*
X124968000Y-105230395D01*
X125796139Y-104402255D01*
X125722005Y-104156136D01*
X125184777Y-103963035D01*
X124614546Y-103990222D01*
X124213995Y-104156136D01*
X124139861Y-104402255D01*
X120645491Y-104402255D01*
X120083926Y-103840690D01*
X154894000Y-103840690D01*
X154894000Y-103981250D01*
X155052750Y-104140000D01*
X156177000Y-104140000D01*
X156177000Y-103490750D01*
X156431000Y-103490750D01*
X156431000Y-104140000D01*
X157555250Y-104140000D01*
X157714000Y-103981250D01*
X157714000Y-103840690D01*
X157617327Y-103607301D01*
X157438698Y-103428673D01*
X157205309Y-103332000D01*
X156589750Y-103332000D01*
X156431000Y-103490750D01*
X156177000Y-103490750D01*
X156018250Y-103332000D01*
X155402691Y-103332000D01*
X155169302Y-103428673D01*
X154990673Y-103607301D01*
X154894000Y-103840690D01*
X120083926Y-103840690D01*
X118745000Y-102501764D01*
X118745000Y-74030000D01*
X120372560Y-74030000D01*
X120372560Y-75830000D01*
X120421843Y-76077765D01*
X120562191Y-76287809D01*
X120772235Y-76428157D01*
X120787839Y-76431261D01*
X120619449Y-76599357D01*
X120385267Y-77163330D01*
X120384735Y-77773991D01*
X120617932Y-78338371D01*
X120777000Y-78497717D01*
X120777000Y-81821459D01*
X120585232Y-82283287D01*
X120584769Y-82814383D01*
X120787582Y-83305229D01*
X121162796Y-83681098D01*
X121653287Y-83884768D01*
X122184383Y-83885231D01*
X122675229Y-83682418D01*
X123051098Y-83307204D01*
X123254768Y-82816713D01*
X123255231Y-82285617D01*
X123063000Y-81820381D01*
X123063000Y-78497919D01*
X123220551Y-78340643D01*
X123454733Y-77776670D01*
X123455265Y-77166009D01*
X123222068Y-76601629D01*
X123052025Y-76431288D01*
X123067765Y-76428157D01*
X123277809Y-76287809D01*
X123418157Y-76077765D01*
X123467440Y-75830000D01*
X123467440Y-74030000D01*
X123418157Y-73782235D01*
X123277809Y-73572191D01*
X123067765Y-73431843D01*
X122820000Y-73382560D01*
X121020000Y-73382560D01*
X120772235Y-73431843D01*
X120562191Y-73572191D01*
X120421843Y-73782235D01*
X120372560Y-74030000D01*
X118745000Y-74030000D01*
X118745000Y-72898000D01*
X124231528Y-72898000D01*
X127254000Y-75920472D01*
X127254000Y-85369528D01*
X126771528Y-85852000D01*
X121920000Y-85852000D01*
X121239589Y-85987342D01*
X120662764Y-86372764D01*
X120277342Y-86949589D01*
X120142000Y-87630000D01*
X120277342Y-88310411D01*
X120662764Y-88887236D01*
X121239589Y-89272658D01*
X121920000Y-89408000D01*
X124637928Y-89408000D01*
X124663200Y-89433272D01*
X124663200Y-95250000D01*
X124693940Y-95404541D01*
X124693940Y-97049590D01*
X124743223Y-97297355D01*
X124883571Y-97507399D01*
X125093615Y-97647747D01*
X125341380Y-97697030D01*
X127541020Y-97697030D01*
X127788785Y-97647747D01*
X127998829Y-97507399D01*
X128139177Y-97297355D01*
X128188460Y-97049590D01*
X128188460Y-97028000D01*
X130873760Y-97028000D01*
X130873760Y-98171000D01*
X130923043Y-98418765D01*
X131063391Y-98628809D01*
X131273435Y-98769157D01*
X131521200Y-98818440D01*
X133756400Y-98818440D01*
X134004165Y-98769157D01*
X134101080Y-98704400D01*
X136118600Y-98704400D01*
X136245845Y-98679089D01*
X136370359Y-98679198D01*
X136486453Y-98631229D01*
X136556007Y-98617394D01*
X136614456Y-98578340D01*
X136790612Y-98505554D01*
X136926693Y-98369710D01*
X136926823Y-98369623D01*
X136951518Y-98344928D01*
X137112423Y-98184303D01*
X137263617Y-97820187D01*
X148584752Y-97820187D01*
X148802757Y-98347800D01*
X149206077Y-98751824D01*
X149733309Y-98970750D01*
X150304187Y-98971248D01*
X150831800Y-98753243D01*
X151041663Y-98543745D01*
X159191861Y-98543745D01*
X159265995Y-98789864D01*
X159803223Y-98982965D01*
X160373454Y-98955778D01*
X160774005Y-98789864D01*
X160848139Y-98543745D01*
X160020000Y-97715605D01*
X159191861Y-98543745D01*
X151041663Y-98543745D01*
X151235824Y-98349923D01*
X151454750Y-97822691D01*
X151455189Y-97319223D01*
X158573035Y-97319223D01*
X158600222Y-97889454D01*
X158766136Y-98290005D01*
X159012255Y-98364139D01*
X159840395Y-97536000D01*
X160199605Y-97536000D01*
X161027745Y-98364139D01*
X161273864Y-98290005D01*
X161466965Y-97752777D01*
X161439778Y-97182546D01*
X161273864Y-96781995D01*
X161027745Y-96707861D01*
X160199605Y-97536000D01*
X159840395Y-97536000D01*
X159012255Y-96707861D01*
X158766136Y-96781995D01*
X158573035Y-97319223D01*
X151455189Y-97319223D01*
X151455248Y-97251813D01*
X151237243Y-96724200D01*
X151041640Y-96528255D01*
X159191861Y-96528255D01*
X160020000Y-97356395D01*
X160848139Y-96528255D01*
X160774005Y-96282136D01*
X160236777Y-96089035D01*
X159666546Y-96116222D01*
X159265995Y-96282136D01*
X159191861Y-96528255D01*
X151041640Y-96528255D01*
X150833923Y-96320176D01*
X150306691Y-96101250D01*
X149735813Y-96100752D01*
X149208200Y-96318757D01*
X148804176Y-96722077D01*
X148585250Y-97249309D01*
X148584752Y-97820187D01*
X137263617Y-97820187D01*
X137286801Y-97764354D01*
X137287198Y-97309641D01*
X137113554Y-96889388D01*
X136792303Y-96567577D01*
X136372354Y-96393199D01*
X135917641Y-96392802D01*
X135855689Y-96418400D01*
X134101080Y-96418400D01*
X134082073Y-96405700D01*
X134214209Y-96317409D01*
X134354557Y-96107365D01*
X134403840Y-95859600D01*
X134403840Y-95315154D01*
X134416800Y-95250000D01*
X134403840Y-95184846D01*
X134403840Y-94640400D01*
X134354557Y-94392635D01*
X134214209Y-94182591D01*
X134090260Y-94099770D01*
X134116099Y-94089067D01*
X134294727Y-93910438D01*
X134391400Y-93677049D01*
X134391400Y-93226890D01*
X134232650Y-93068140D01*
X132765800Y-93068140D01*
X132765800Y-93088140D01*
X132511800Y-93088140D01*
X132511800Y-93068140D01*
X131044950Y-93068140D01*
X130886200Y-93226890D01*
X130886200Y-93472000D01*
X128219200Y-93472000D01*
X128219200Y-92205231D01*
X130886200Y-92205231D01*
X130886200Y-92655390D01*
X131044950Y-92814140D01*
X132511800Y-92814140D01*
X132511800Y-91855290D01*
X132765800Y-91855290D01*
X132765800Y-92814140D01*
X134232650Y-92814140D01*
X134391400Y-92655390D01*
X134391400Y-92205231D01*
X134294727Y-91971842D01*
X134116099Y-91793213D01*
X133882710Y-91696540D01*
X132924550Y-91696540D01*
X132765800Y-91855290D01*
X132511800Y-91855290D01*
X132353050Y-91696540D01*
X131394890Y-91696540D01*
X131161501Y-91793213D01*
X130982873Y-91971842D01*
X130886200Y-92205231D01*
X128219200Y-92205231D01*
X128219200Y-89252085D01*
X128765236Y-88887236D01*
X129738285Y-87914187D01*
X133572752Y-87914187D01*
X133790757Y-88441800D01*
X134194077Y-88845824D01*
X134721309Y-89064750D01*
X135292187Y-89065248D01*
X135819800Y-88847243D01*
X135991154Y-88676187D01*
X148584752Y-88676187D01*
X148802757Y-89203800D01*
X149206077Y-89607824D01*
X149733309Y-89826750D01*
X150304187Y-89827248D01*
X150831800Y-89609243D01*
X151041663Y-89399745D01*
X159191861Y-89399745D01*
X159265995Y-89645864D01*
X159803223Y-89838965D01*
X160373454Y-89811778D01*
X160774005Y-89645864D01*
X160848139Y-89399745D01*
X160020000Y-88571605D01*
X159191861Y-89399745D01*
X151041663Y-89399745D01*
X151235824Y-89205923D01*
X151454750Y-88678691D01*
X151455189Y-88175223D01*
X158573035Y-88175223D01*
X158600222Y-88745454D01*
X158766136Y-89146005D01*
X159012255Y-89220139D01*
X159840395Y-88392000D01*
X160199605Y-88392000D01*
X161027745Y-89220139D01*
X161273864Y-89146005D01*
X161466965Y-88608777D01*
X161439778Y-88038546D01*
X161273864Y-87637995D01*
X161027745Y-87563861D01*
X160199605Y-88392000D01*
X159840395Y-88392000D01*
X159012255Y-87563861D01*
X158766136Y-87637995D01*
X158573035Y-88175223D01*
X151455189Y-88175223D01*
X151455248Y-88107813D01*
X151237243Y-87580200D01*
X151041640Y-87384255D01*
X159191861Y-87384255D01*
X160020000Y-88212395D01*
X160848139Y-87384255D01*
X160774005Y-87138136D01*
X160236777Y-86945035D01*
X159666546Y-86972222D01*
X159265995Y-87138136D01*
X159191861Y-87384255D01*
X151041640Y-87384255D01*
X150833923Y-87176176D01*
X150306691Y-86957250D01*
X149735813Y-86956752D01*
X149208200Y-87174757D01*
X148804176Y-87578077D01*
X148585250Y-88105309D01*
X148584752Y-88676187D01*
X135991154Y-88676187D01*
X136223824Y-88443923D01*
X136442750Y-87916691D01*
X136443248Y-87345813D01*
X136225243Y-86818200D01*
X135821923Y-86414176D01*
X135294691Y-86195250D01*
X134723813Y-86194752D01*
X134196200Y-86412757D01*
X133792176Y-86816077D01*
X133573250Y-87343309D01*
X133572752Y-87914187D01*
X129738285Y-87914187D01*
X130289236Y-87363236D01*
X130674658Y-86786412D01*
X130810000Y-86106000D01*
X130810000Y-85291208D01*
X135635824Y-85291208D01*
X135790175Y-85664766D01*
X136075731Y-85950821D01*
X136449018Y-86105824D01*
X136853208Y-86106176D01*
X137226766Y-85951825D01*
X137512821Y-85666269D01*
X137667824Y-85292982D01*
X137668176Y-84888792D01*
X137541000Y-84581003D01*
X137541000Y-83792838D01*
X137714446Y-84212612D01*
X138035697Y-84534423D01*
X138455646Y-84708801D01*
X138910359Y-84709198D01*
X139330612Y-84535554D01*
X139652423Y-84214303D01*
X139826801Y-83794354D01*
X139827198Y-83339641D01*
X139653554Y-82919388D01*
X139573000Y-82838694D01*
X139573000Y-76927588D01*
X139652423Y-76848303D01*
X139826801Y-76428354D01*
X139827198Y-75973641D01*
X139653554Y-75553388D01*
X139332303Y-75231577D01*
X138912354Y-75057199D01*
X138556890Y-75056889D01*
X138557198Y-74703641D01*
X138383554Y-74283388D01*
X138062303Y-73961577D01*
X137642354Y-73787199D01*
X137187641Y-73786802D01*
X136767388Y-73960446D01*
X136445577Y-74281697D01*
X136271199Y-74701646D01*
X136271099Y-74815665D01*
X136023382Y-75063382D01*
X135830671Y-75351794D01*
X135763000Y-75692000D01*
X135763000Y-84581593D01*
X135636176Y-84887018D01*
X135635824Y-85291208D01*
X130810000Y-85291208D01*
X130810000Y-77031795D01*
X132396716Y-77031795D01*
X132645106Y-77632943D01*
X133104637Y-78093278D01*
X133705352Y-78342716D01*
X134355795Y-78343284D01*
X134956943Y-78094894D01*
X135417278Y-77635363D01*
X135666716Y-77034648D01*
X135667284Y-76384205D01*
X135418894Y-75783057D01*
X134959363Y-75322722D01*
X134358648Y-75073284D01*
X133708205Y-75072716D01*
X133107057Y-75321106D01*
X132646722Y-75780637D01*
X132397284Y-76381352D01*
X132396716Y-77031795D01*
X130810000Y-77031795D01*
X130810000Y-75184000D01*
X130674658Y-74503589D01*
X130289236Y-73926764D01*
X129918659Y-73556187D01*
X144614752Y-73556187D01*
X144832757Y-74083800D01*
X145236077Y-74487824D01*
X145763309Y-74706750D01*
X146334187Y-74707248D01*
X146861800Y-74489243D01*
X147265824Y-74085923D01*
X147484750Y-73558691D01*
X147485248Y-72987813D01*
X147267243Y-72460200D01*
X146863923Y-72056176D01*
X146336691Y-71837250D01*
X145765813Y-71836752D01*
X145238200Y-72054757D01*
X144834176Y-72458077D01*
X144615250Y-72985309D01*
X144614752Y-73556187D01*
X129918659Y-73556187D01*
X127101472Y-70739000D01*
X161416309Y-70739000D01*
X161290000Y-71374000D01*
X161290000Y-71374000D01*
G37*
X161290000Y-71374000D02*
X161290000Y-74086868D01*
X160184868Y-75192000D01*
X159672000Y-75192000D01*
X159237654Y-75278397D01*
X159086253Y-75379560D01*
X158897000Y-75379560D01*
X158649235Y-75428843D01*
X158439191Y-75569191D01*
X158298843Y-75779235D01*
X158249560Y-76027000D01*
X158249560Y-76627000D01*
X158298843Y-76874765D01*
X158357132Y-76962000D01*
X158298843Y-77049235D01*
X158249560Y-77297000D01*
X158249560Y-77724000D01*
X157826446Y-77724000D01*
X157607000Y-77504554D01*
X157607000Y-74422000D01*
X157519994Y-73984593D01*
X157272223Y-73613777D01*
X156764223Y-73105777D01*
X156393407Y-72858006D01*
X155956000Y-72771000D01*
X148844000Y-72771000D01*
X148406593Y-72858006D01*
X148035777Y-73105777D01*
X147788006Y-73476593D01*
X147701000Y-73914000D01*
X147701000Y-77504554D01*
X145868712Y-79336842D01*
X145765813Y-79336752D01*
X145238200Y-79554757D01*
X144834176Y-79958077D01*
X144615250Y-80485309D01*
X144614752Y-81056187D01*
X144832757Y-81583800D01*
X145236077Y-81987824D01*
X145763309Y-82206750D01*
X146334187Y-82207248D01*
X146861800Y-81989243D01*
X147265824Y-81585923D01*
X147484750Y-81058691D01*
X147484842Y-80953604D01*
X149652223Y-78786223D01*
X149899994Y-78415407D01*
X149987000Y-77978000D01*
X149987000Y-75057000D01*
X150749111Y-75057000D01*
X150748802Y-75410359D01*
X150917850Y-75819489D01*
X150749199Y-76225646D01*
X150748802Y-76680359D01*
X150922446Y-77100612D01*
X151243697Y-77422423D01*
X151663646Y-77596801D01*
X151665639Y-77596803D01*
X151245388Y-77770446D01*
X150923577Y-78091697D01*
X150749199Y-78511646D01*
X150748802Y-78966359D01*
X150922446Y-79386612D01*
X151243697Y-79708423D01*
X151287990Y-79726815D01*
X151581593Y-79922994D01*
X152019000Y-80010000D01*
X152849560Y-80010000D01*
X152849560Y-80437000D01*
X152898843Y-80684765D01*
X153039191Y-80894809D01*
X153129000Y-80954818D01*
X153129000Y-82136000D01*
X153216006Y-82573407D01*
X153463777Y-82944223D01*
X155401777Y-84882223D01*
X155772593Y-85129994D01*
X156210000Y-85217000D01*
X163575575Y-85217000D01*
X163802359Y-85217198D01*
X164110203Y-85090000D01*
X170595050Y-85090000D01*
X170734731Y-85792224D01*
X171132509Y-86387541D01*
X171727826Y-86785319D01*
X172430050Y-86925000D01*
X172501950Y-86925000D01*
X173204174Y-86785319D01*
X173799491Y-86387541D01*
X174197269Y-85792224D01*
X174264664Y-85453403D01*
X190950682Y-85453403D01*
X191229455Y-86128086D01*
X191745199Y-86644730D01*
X192419395Y-86924681D01*
X193149403Y-86925318D01*
X193824086Y-86646545D01*
X194340730Y-86130801D01*
X194620681Y-85456605D01*
X194621318Y-84726597D01*
X194342545Y-84051914D01*
X193826801Y-83535270D01*
X193152605Y-83255319D01*
X192422597Y-83254682D01*
X191747914Y-83533455D01*
X191231270Y-84049199D01*
X190951319Y-84723395D01*
X190950682Y-85453403D01*
X174264664Y-85453403D01*
X174336950Y-85090000D01*
X174197269Y-84387776D01*
X173799491Y-83792459D01*
X173204174Y-83394681D01*
X172501950Y-83255000D01*
X172430050Y-83255000D01*
X171727826Y-83394681D01*
X171132509Y-83792459D01*
X170734731Y-84387776D01*
X170595050Y-85090000D01*
X164110203Y-85090000D01*
X164222612Y-85043554D01*
X164544423Y-84722303D01*
X164718801Y-84302354D01*
X164719198Y-83847641D01*
X164545554Y-83427388D01*
X164224303Y-83105577D01*
X163804354Y-82931199D01*
X163349641Y-82930802D01*
X163349162Y-82931000D01*
X156683446Y-82931000D01*
X155415000Y-81662554D01*
X155415000Y-80954818D01*
X155504809Y-80894809D01*
X155645157Y-80684765D01*
X155694440Y-80437000D01*
X155694440Y-80422750D01*
X158262000Y-80422750D01*
X158262000Y-80563310D01*
X158358673Y-80796699D01*
X158537302Y-80975327D01*
X158770691Y-81072000D01*
X159386250Y-81072000D01*
X159545000Y-80913250D01*
X159545000Y-80264000D01*
X159799000Y-80264000D01*
X159799000Y-80913250D01*
X159957750Y-81072000D01*
X160573309Y-81072000D01*
X160806698Y-80975327D01*
X160985327Y-80796699D01*
X161082000Y-80563310D01*
X161082000Y-80422750D01*
X160923250Y-80264000D01*
X159799000Y-80264000D01*
X159545000Y-80264000D01*
X158420750Y-80264000D01*
X158262000Y-80422750D01*
X155694440Y-80422750D01*
X155694440Y-79837000D01*
X155645157Y-79589235D01*
X155586868Y-79502000D01*
X155645157Y-79414765D01*
X155694440Y-79167000D01*
X155694440Y-78824886D01*
X156544777Y-79675223D01*
X156915593Y-79922994D01*
X157353000Y-80010000D01*
X159672000Y-80010000D01*
X159772546Y-79990000D01*
X159799000Y-79990000D01*
X159799000Y-80010000D01*
X160923250Y-80010000D01*
X161082000Y-79851250D01*
X161082000Y-79710690D01*
X160992232Y-79493972D01*
X161011805Y-79464679D01*
X206121000Y-79464679D01*
X206121000Y-80047321D01*
X206246675Y-80679131D01*
X206604567Y-81214754D01*
X207140190Y-81572646D01*
X207772000Y-81698321D01*
X208403810Y-81572646D01*
X208939433Y-81214754D01*
X209056054Y-81040219D01*
X209234370Y-81267236D01*
X209797523Y-81583926D01*
X209929056Y-81615975D01*
X210185000Y-81496836D01*
X210185000Y-79883000D01*
X210165000Y-79883000D01*
X210165000Y-79629000D01*
X210185000Y-79629000D01*
X210185000Y-78015164D01*
X210439000Y-78015164D01*
X210439000Y-79629000D01*
X210459000Y-79629000D01*
X210459000Y-79883000D01*
X210439000Y-79883000D01*
X210439000Y-81496836D01*
X210694944Y-81615975D01*
X210826477Y-81583926D01*
X211389630Y-81267236D01*
X211567946Y-81040219D01*
X211684567Y-81214754D01*
X212220190Y-81572646D01*
X212852000Y-81698321D01*
X213483810Y-81572646D01*
X214019433Y-81214754D01*
X214377325Y-80679131D01*
X214503000Y-80047321D01*
X214503000Y-79464679D01*
X214377325Y-78832869D01*
X214019433Y-78297246D01*
X213483810Y-77939354D01*
X212852000Y-77813679D01*
X212220190Y-77939354D01*
X211684567Y-78297246D01*
X211567946Y-78471781D01*
X211389630Y-78244764D01*
X210826477Y-77928074D01*
X210694944Y-77896025D01*
X210439000Y-78015164D01*
X210185000Y-78015164D01*
X209929056Y-77896025D01*
X209797523Y-77928074D01*
X209234370Y-78244764D01*
X209056054Y-78471781D01*
X208939433Y-78297246D01*
X208403810Y-77939354D01*
X207772000Y-77813679D01*
X207140190Y-77939354D01*
X206604567Y-78297246D01*
X206246675Y-78832869D01*
X206121000Y-79464679D01*
X161011805Y-79464679D01*
X161045157Y-79414765D01*
X161094440Y-79167000D01*
X161094440Y-78740000D01*
X172339000Y-78740000D01*
X172776407Y-78652994D01*
X173068670Y-78457710D01*
X173112612Y-78439554D01*
X173146557Y-78405668D01*
X173147223Y-78405223D01*
X173273518Y-78278928D01*
X173434423Y-78118303D01*
X173608801Y-77698354D01*
X173609198Y-77243641D01*
X173435554Y-76823388D01*
X173114303Y-76501577D01*
X172694354Y-76327199D01*
X172239641Y-76326802D01*
X171931797Y-76454000D01*
X163925995Y-76454000D01*
X164325236Y-76187236D01*
X164710658Y-75610411D01*
X164812420Y-75098815D01*
X199286630Y-75098815D01*
X199610980Y-75883800D01*
X200211041Y-76484909D01*
X200995459Y-76810628D01*
X201844815Y-76811370D01*
X202629800Y-76487020D01*
X203230909Y-75886959D01*
X203556628Y-75102541D01*
X203556631Y-75098815D01*
X217066630Y-75098815D01*
X217390980Y-75883800D01*
X217991041Y-76484909D01*
X218775459Y-76810628D01*
X219624815Y-76811370D01*
X220409800Y-76487020D01*
X221010909Y-75886959D01*
X221336628Y-75102541D01*
X221337370Y-74253185D01*
X221013020Y-73468200D01*
X220412959Y-72867091D01*
X219628541Y-72541372D01*
X218779185Y-72540630D01*
X217994200Y-72864980D01*
X217393091Y-73465041D01*
X217067372Y-74249459D01*
X217066630Y-75098815D01*
X203556631Y-75098815D01*
X203557370Y-74253185D01*
X203233020Y-73468200D01*
X202632959Y-72867091D01*
X201848541Y-72541372D01*
X200999185Y-72540630D01*
X200214200Y-72864980D01*
X199613091Y-73465041D01*
X199287372Y-74249459D01*
X199286630Y-75098815D01*
X164812420Y-75098815D01*
X164846000Y-74930000D01*
X164846000Y-71374000D01*
X164719691Y-70739000D01*
X233045000Y-70739000D01*
X233045000Y-119302000D01*
X210439000Y-119302000D01*
X210439000Y-117487059D01*
X210566000Y-117512321D01*
X211197810Y-117386646D01*
X211733433Y-117028754D01*
X211836000Y-116875252D01*
X211938567Y-117028754D01*
X212474190Y-117386646D01*
X213106000Y-117512321D01*
X213737810Y-117386646D01*
X214273433Y-117028754D01*
X214631325Y-116493131D01*
X214757000Y-115861321D01*
X214757000Y-115278679D01*
X214631325Y-114646869D01*
X214590487Y-114585750D01*
X225957000Y-114585750D01*
X225957000Y-115926309D01*
X226053673Y-116159698D01*
X226232301Y-116338327D01*
X226465690Y-116435000D01*
X227806250Y-116435000D01*
X227965000Y-116276250D01*
X227965000Y-114427000D01*
X228219000Y-114427000D01*
X228219000Y-116276250D01*
X228377750Y-116435000D01*
X229718310Y-116435000D01*
X229951699Y-116338327D01*
X230130327Y-116159698D01*
X230227000Y-115926309D01*
X230227000Y-114585750D01*
X230068250Y-114427000D01*
X228219000Y-114427000D01*
X227965000Y-114427000D01*
X226115750Y-114427000D01*
X225957000Y-114585750D01*
X214590487Y-114585750D01*
X214273433Y-114111246D01*
X213737810Y-113753354D01*
X213106000Y-113627679D01*
X212474190Y-113753354D01*
X211938567Y-114111246D01*
X211836000Y-114264748D01*
X211733433Y-114111246D01*
X211197810Y-113753354D01*
X210566000Y-113627679D01*
X210439000Y-113652941D01*
X210439000Y-112673691D01*
X225957000Y-112673691D01*
X225957000Y-114014250D01*
X226115750Y-114173000D01*
X227965000Y-114173000D01*
X227965000Y-112323750D01*
X228219000Y-112323750D01*
X228219000Y-114173000D01*
X230068250Y-114173000D01*
X230227000Y-114014250D01*
X230227000Y-112673691D01*
X230130327Y-112440302D01*
X229951699Y-112261673D01*
X229718310Y-112165000D01*
X228377750Y-112165000D01*
X228219000Y-112323750D01*
X227965000Y-112323750D01*
X227806250Y-112165000D01*
X226465690Y-112165000D01*
X226232301Y-112261673D01*
X226053673Y-112440302D01*
X225957000Y-112673691D01*
X210439000Y-112673691D01*
X210439000Y-110912815D01*
X217320630Y-110912815D01*
X217644980Y-111697800D01*
X218245041Y-112298909D01*
X219029459Y-112624628D01*
X219878815Y-112625370D01*
X220663800Y-112301020D01*
X221264909Y-111700959D01*
X221590628Y-110916541D01*
X221591370Y-110067185D01*
X221416024Y-109642815D01*
X225956630Y-109642815D01*
X226280980Y-110427800D01*
X226881041Y-111028909D01*
X227665459Y-111354628D01*
X228514815Y-111355370D01*
X229299800Y-111031020D01*
X229900909Y-110430959D01*
X230226628Y-109646541D01*
X230227370Y-108797185D01*
X229903020Y-108012200D01*
X229302959Y-107411091D01*
X228518541Y-107085372D01*
X227669185Y-107084630D01*
X226884200Y-107408980D01*
X226283091Y-108009041D01*
X225957372Y-108793459D01*
X225956630Y-109642815D01*
X221416024Y-109642815D01*
X221267020Y-109282200D01*
X220666959Y-108681091D01*
X219882541Y-108355372D01*
X219033185Y-108354630D01*
X218248200Y-108678980D01*
X217647091Y-109279041D01*
X217321372Y-110063459D01*
X217320630Y-110912815D01*
X210439000Y-110912815D01*
X210439000Y-106299000D01*
X229362000Y-106299000D01*
X229410601Y-106289333D01*
X229451803Y-106261803D01*
X229479333Y-106220601D01*
X229488988Y-106170260D01*
X229386210Y-98667440D01*
X229592000Y-98667440D01*
X229839765Y-98618157D01*
X230049809Y-98477809D01*
X230190157Y-98267765D01*
X230239440Y-98020000D01*
X230239440Y-95020000D01*
X230190157Y-94772235D01*
X230049809Y-94562191D01*
X229839765Y-94421843D01*
X229592000Y-94372560D01*
X229327376Y-94372560D01*
X229311847Y-93238994D01*
X229900909Y-92650959D01*
X230226628Y-91866541D01*
X230227370Y-91017185D01*
X229903020Y-90232200D01*
X229302959Y-89631091D01*
X229262192Y-89614163D01*
X229234988Y-87628260D01*
X229224656Y-87579797D01*
X229196564Y-87538976D01*
X229154989Y-87512013D01*
X229108000Y-87503000D01*
X224842606Y-87503000D01*
X221577803Y-84238197D01*
X221536601Y-84210667D01*
X221488000Y-84201000D01*
X205740000Y-84201000D01*
X205691399Y-84210667D01*
X205650197Y-84238197D01*
X203703726Y-86184668D01*
X203487020Y-85660200D01*
X202886959Y-85059091D01*
X202102541Y-84733372D01*
X201253185Y-84732630D01*
X200468200Y-85056980D01*
X199867091Y-85657041D01*
X199541372Y-86441459D01*
X199540630Y-87290815D01*
X199864980Y-88075800D01*
X200465041Y-88676909D01*
X200696454Y-88773000D01*
X170180000Y-88773000D01*
X170131399Y-88782667D01*
X170090197Y-88810197D01*
X170062667Y-88851399D01*
X170053000Y-88900000D01*
X170053000Y-93927394D01*
X160471227Y-103509167D01*
X160471191Y-103509191D01*
X160471167Y-103509227D01*
X157684457Y-106295937D01*
X157677157Y-106259235D01*
X157618868Y-106172000D01*
X157677157Y-106084765D01*
X157726440Y-105837000D01*
X157726440Y-105237000D01*
X157677157Y-104989235D01*
X157624232Y-104910028D01*
X157714000Y-104693310D01*
X157714000Y-104552750D01*
X157555250Y-104394000D01*
X156431000Y-104394000D01*
X156431000Y-104414000D01*
X156404546Y-104414000D01*
X156304000Y-104394000D01*
X149479000Y-104394000D01*
X149041593Y-104481006D01*
X148670777Y-104728777D01*
X145495777Y-107903777D01*
X145248006Y-108274593D01*
X145161000Y-108712000D01*
X145161000Y-112651380D01*
X145088176Y-112724077D01*
X144869250Y-113251309D01*
X144868752Y-113822187D01*
X145086757Y-114349800D01*
X145490077Y-114753824D01*
X146017309Y-114972750D01*
X146588187Y-114973248D01*
X147115800Y-114755243D01*
X147519824Y-114351923D01*
X147738750Y-113824691D01*
X147739248Y-113253813D01*
X147521243Y-112726200D01*
X147447000Y-112651827D01*
X147447000Y-109185446D01*
X149952446Y-106680000D01*
X153069554Y-106680000D01*
X150829777Y-108919777D01*
X150582006Y-109290593D01*
X150495000Y-109728000D01*
X150495000Y-113485394D01*
X145743394Y-118237000D01*
X118745000Y-118237000D01*
X118745000Y-106794236D01*
X124339382Y-112388618D01*
X124627794Y-112581329D01*
X124968000Y-112649000D01*
X141004412Y-112649000D01*
X141083697Y-112728423D01*
X141503646Y-112902801D01*
X141958359Y-112903198D01*
X142378612Y-112729554D01*
X142700423Y-112408303D01*
X142874801Y-111988354D01*
X142875198Y-111533641D01*
X142706150Y-111124511D01*
X142874801Y-110718354D01*
X142875198Y-110263641D01*
X142701554Y-109843388D01*
X142380303Y-109521577D01*
X141960354Y-109347199D01*
X141505641Y-109346802D01*
X141085388Y-109520446D01*
X141004694Y-109601000D01*
X125844236Y-109601000D01*
X122660981Y-106417745D01*
X124139861Y-106417745D01*
X124213995Y-106663864D01*
X124751223Y-106856965D01*
X125321454Y-106829778D01*
X125722005Y-106663864D01*
X125796139Y-106417745D01*
X124968000Y-105589605D01*
X124139861Y-106417745D01*
X122660981Y-106417745D01*
X121436459Y-105193223D01*
X123521035Y-105193223D01*
X123548222Y-105763454D01*
X123714136Y-106164005D01*
X123960255Y-106238139D01*
X124788395Y-105410000D01*
X125147605Y-105410000D01*
X125975745Y-106238139D01*
X126221864Y-106164005D01*
X126390735Y-105694187D01*
X133532752Y-105694187D01*
X133750757Y-106221800D01*
X134154077Y-106625824D01*
X134681309Y-106844750D01*
X135252187Y-106845248D01*
X135779800Y-106627243D01*
X136183824Y-106223923D01*
X136402750Y-105696691D01*
X136403248Y-105125813D01*
X136185243Y-104598200D01*
X135781923Y-104194176D01*
X135254691Y-103975250D01*
X134683813Y-103974752D01*
X134156200Y-104192757D01*
X133752176Y-104596077D01*
X133533250Y-105123309D01*
X133532752Y-105694187D01*
X126390735Y-105694187D01*
X126414965Y-105626777D01*
X126387778Y-105056546D01*
X126221864Y-104655995D01*
X125975745Y-104581861D01*
X125147605Y-105410000D01*
X124788395Y-105410000D01*
X123960255Y-104581861D01*
X123714136Y-104655995D01*
X123521035Y-105193223D01*
X121436459Y-105193223D01*
X120645491Y-104402255D01*
X124139861Y-104402255D01*
X124968000Y-105230395D01*
X125796139Y-104402255D01*
X125722005Y-104156136D01*
X125184777Y-103963035D01*
X124614546Y-103990222D01*
X124213995Y-104156136D01*
X124139861Y-104402255D01*
X120645491Y-104402255D01*
X120083926Y-103840690D01*
X154894000Y-103840690D01*
X154894000Y-103981250D01*
X155052750Y-104140000D01*
X156177000Y-104140000D01*
X156177000Y-103490750D01*
X156431000Y-103490750D01*
X156431000Y-104140000D01*
X157555250Y-104140000D01*
X157714000Y-103981250D01*
X157714000Y-103840690D01*
X157617327Y-103607301D01*
X157438698Y-103428673D01*
X157205309Y-103332000D01*
X156589750Y-103332000D01*
X156431000Y-103490750D01*
X156177000Y-103490750D01*
X156018250Y-103332000D01*
X155402691Y-103332000D01*
X155169302Y-103428673D01*
X154990673Y-103607301D01*
X154894000Y-103840690D01*
X120083926Y-103840690D01*
X118745000Y-102501764D01*
X118745000Y-74030000D01*
X120372560Y-74030000D01*
X120372560Y-75830000D01*
X120421843Y-76077765D01*
X120562191Y-76287809D01*
X120772235Y-76428157D01*
X120787839Y-76431261D01*
X120619449Y-76599357D01*
X120385267Y-77163330D01*
X120384735Y-77773991D01*
X120617932Y-78338371D01*
X120777000Y-78497717D01*
X120777000Y-81821459D01*
X120585232Y-82283287D01*
X120584769Y-82814383D01*
X120787582Y-83305229D01*
X121162796Y-83681098D01*
X121653287Y-83884768D01*
X122184383Y-83885231D01*
X122675229Y-83682418D01*
X123051098Y-83307204D01*
X123254768Y-82816713D01*
X123255231Y-82285617D01*
X123063000Y-81820381D01*
X123063000Y-78497919D01*
X123220551Y-78340643D01*
X123454733Y-77776670D01*
X123455265Y-77166009D01*
X123222068Y-76601629D01*
X123052025Y-76431288D01*
X123067765Y-76428157D01*
X123277809Y-76287809D01*
X123418157Y-76077765D01*
X123467440Y-75830000D01*
X123467440Y-74030000D01*
X123418157Y-73782235D01*
X123277809Y-73572191D01*
X123067765Y-73431843D01*
X122820000Y-73382560D01*
X121020000Y-73382560D01*
X120772235Y-73431843D01*
X120562191Y-73572191D01*
X120421843Y-73782235D01*
X120372560Y-74030000D01*
X118745000Y-74030000D01*
X118745000Y-72898000D01*
X124231528Y-72898000D01*
X127254000Y-75920472D01*
X127254000Y-85369528D01*
X126771528Y-85852000D01*
X121920000Y-85852000D01*
X121239589Y-85987342D01*
X120662764Y-86372764D01*
X120277342Y-86949589D01*
X120142000Y-87630000D01*
X120277342Y-88310411D01*
X120662764Y-88887236D01*
X121239589Y-89272658D01*
X121920000Y-89408000D01*
X124637928Y-89408000D01*
X124663200Y-89433272D01*
X124663200Y-95250000D01*
X124693940Y-95404541D01*
X124693940Y-97049590D01*
X124743223Y-97297355D01*
X124883571Y-97507399D01*
X125093615Y-97647747D01*
X125341380Y-97697030D01*
X127541020Y-97697030D01*
X127788785Y-97647747D01*
X127998829Y-97507399D01*
X128139177Y-97297355D01*
X128188460Y-97049590D01*
X128188460Y-97028000D01*
X130873760Y-97028000D01*
X130873760Y-98171000D01*
X130923043Y-98418765D01*
X131063391Y-98628809D01*
X131273435Y-98769157D01*
X131521200Y-98818440D01*
X133756400Y-98818440D01*
X134004165Y-98769157D01*
X134101080Y-98704400D01*
X136118600Y-98704400D01*
X136245845Y-98679089D01*
X136370359Y-98679198D01*
X136486453Y-98631229D01*
X136556007Y-98617394D01*
X136614456Y-98578340D01*
X136790612Y-98505554D01*
X136926693Y-98369710D01*
X136926823Y-98369623D01*
X136951518Y-98344928D01*
X137112423Y-98184303D01*
X137263617Y-97820187D01*
X148584752Y-97820187D01*
X148802757Y-98347800D01*
X149206077Y-98751824D01*
X149733309Y-98970750D01*
X150304187Y-98971248D01*
X150831800Y-98753243D01*
X151041663Y-98543745D01*
X159191861Y-98543745D01*
X159265995Y-98789864D01*
X159803223Y-98982965D01*
X160373454Y-98955778D01*
X160774005Y-98789864D01*
X160848139Y-98543745D01*
X160020000Y-97715605D01*
X159191861Y-98543745D01*
X151041663Y-98543745D01*
X151235824Y-98349923D01*
X151454750Y-97822691D01*
X151455189Y-97319223D01*
X158573035Y-97319223D01*
X158600222Y-97889454D01*
X158766136Y-98290005D01*
X159012255Y-98364139D01*
X159840395Y-97536000D01*
X160199605Y-97536000D01*
X161027745Y-98364139D01*
X161273864Y-98290005D01*
X161466965Y-97752777D01*
X161439778Y-97182546D01*
X161273864Y-96781995D01*
X161027745Y-96707861D01*
X160199605Y-97536000D01*
X159840395Y-97536000D01*
X159012255Y-96707861D01*
X158766136Y-96781995D01*
X158573035Y-97319223D01*
X151455189Y-97319223D01*
X151455248Y-97251813D01*
X151237243Y-96724200D01*
X151041640Y-96528255D01*
X159191861Y-96528255D01*
X160020000Y-97356395D01*
X160848139Y-96528255D01*
X160774005Y-96282136D01*
X160236777Y-96089035D01*
X159666546Y-96116222D01*
X159265995Y-96282136D01*
X159191861Y-96528255D01*
X151041640Y-96528255D01*
X150833923Y-96320176D01*
X150306691Y-96101250D01*
X149735813Y-96100752D01*
X149208200Y-96318757D01*
X148804176Y-96722077D01*
X148585250Y-97249309D01*
X148584752Y-97820187D01*
X137263617Y-97820187D01*
X137286801Y-97764354D01*
X137287198Y-97309641D01*
X137113554Y-96889388D01*
X136792303Y-96567577D01*
X136372354Y-96393199D01*
X135917641Y-96392802D01*
X135855689Y-96418400D01*
X134101080Y-96418400D01*
X134082073Y-96405700D01*
X134214209Y-96317409D01*
X134354557Y-96107365D01*
X134403840Y-95859600D01*
X134403840Y-95315154D01*
X134416800Y-95250000D01*
X134403840Y-95184846D01*
X134403840Y-94640400D01*
X134354557Y-94392635D01*
X134214209Y-94182591D01*
X134090260Y-94099770D01*
X134116099Y-94089067D01*
X134294727Y-93910438D01*
X134391400Y-93677049D01*
X134391400Y-93226890D01*
X134232650Y-93068140D01*
X132765800Y-93068140D01*
X132765800Y-93088140D01*
X132511800Y-93088140D01*
X132511800Y-93068140D01*
X131044950Y-93068140D01*
X130886200Y-93226890D01*
X130886200Y-93472000D01*
X128219200Y-93472000D01*
X128219200Y-92205231D01*
X130886200Y-92205231D01*
X130886200Y-92655390D01*
X131044950Y-92814140D01*
X132511800Y-92814140D01*
X132511800Y-91855290D01*
X132765800Y-91855290D01*
X132765800Y-92814140D01*
X134232650Y-92814140D01*
X134391400Y-92655390D01*
X134391400Y-92205231D01*
X134294727Y-91971842D01*
X134116099Y-91793213D01*
X133882710Y-91696540D01*
X132924550Y-91696540D01*
X132765800Y-91855290D01*
X132511800Y-91855290D01*
X132353050Y-91696540D01*
X131394890Y-91696540D01*
X131161501Y-91793213D01*
X130982873Y-91971842D01*
X130886200Y-92205231D01*
X128219200Y-92205231D01*
X128219200Y-89252085D01*
X128765236Y-88887236D01*
X129738285Y-87914187D01*
X133572752Y-87914187D01*
X133790757Y-88441800D01*
X134194077Y-88845824D01*
X134721309Y-89064750D01*
X135292187Y-89065248D01*
X135819800Y-88847243D01*
X135991154Y-88676187D01*
X148584752Y-88676187D01*
X148802757Y-89203800D01*
X149206077Y-89607824D01*
X149733309Y-89826750D01*
X150304187Y-89827248D01*
X150831800Y-89609243D01*
X151041663Y-89399745D01*
X159191861Y-89399745D01*
X159265995Y-89645864D01*
X159803223Y-89838965D01*
X160373454Y-89811778D01*
X160774005Y-89645864D01*
X160848139Y-89399745D01*
X160020000Y-88571605D01*
X159191861Y-89399745D01*
X151041663Y-89399745D01*
X151235824Y-89205923D01*
X151454750Y-88678691D01*
X151455189Y-88175223D01*
X158573035Y-88175223D01*
X158600222Y-88745454D01*
X158766136Y-89146005D01*
X159012255Y-89220139D01*
X159840395Y-88392000D01*
X160199605Y-88392000D01*
X161027745Y-89220139D01*
X161273864Y-89146005D01*
X161466965Y-88608777D01*
X161439778Y-88038546D01*
X161273864Y-87637995D01*
X161027745Y-87563861D01*
X160199605Y-88392000D01*
X159840395Y-88392000D01*
X159012255Y-87563861D01*
X158766136Y-87637995D01*
X158573035Y-88175223D01*
X151455189Y-88175223D01*
X151455248Y-88107813D01*
X151237243Y-87580200D01*
X151041640Y-87384255D01*
X159191861Y-87384255D01*
X160020000Y-88212395D01*
X160848139Y-87384255D01*
X160774005Y-87138136D01*
X160236777Y-86945035D01*
X159666546Y-86972222D01*
X159265995Y-87138136D01*
X159191861Y-87384255D01*
X151041640Y-87384255D01*
X150833923Y-87176176D01*
X150306691Y-86957250D01*
X149735813Y-86956752D01*
X149208200Y-87174757D01*
X148804176Y-87578077D01*
X148585250Y-88105309D01*
X148584752Y-88676187D01*
X135991154Y-88676187D01*
X136223824Y-88443923D01*
X136442750Y-87916691D01*
X136443248Y-87345813D01*
X136225243Y-86818200D01*
X135821923Y-86414176D01*
X135294691Y-86195250D01*
X134723813Y-86194752D01*
X134196200Y-86412757D01*
X133792176Y-86816077D01*
X133573250Y-87343309D01*
X133572752Y-87914187D01*
X129738285Y-87914187D01*
X130289236Y-87363236D01*
X130674658Y-86786412D01*
X130810000Y-86106000D01*
X130810000Y-85291208D01*
X135635824Y-85291208D01*
X135790175Y-85664766D01*
X136075731Y-85950821D01*
X136449018Y-86105824D01*
X136853208Y-86106176D01*
X137226766Y-85951825D01*
X137512821Y-85666269D01*
X137667824Y-85292982D01*
X137668176Y-84888792D01*
X137541000Y-84581003D01*
X137541000Y-83792838D01*
X137714446Y-84212612D01*
X138035697Y-84534423D01*
X138455646Y-84708801D01*
X138910359Y-84709198D01*
X139330612Y-84535554D01*
X139652423Y-84214303D01*
X139826801Y-83794354D01*
X139827198Y-83339641D01*
X139653554Y-82919388D01*
X139573000Y-82838694D01*
X139573000Y-76927588D01*
X139652423Y-76848303D01*
X139826801Y-76428354D01*
X139827198Y-75973641D01*
X139653554Y-75553388D01*
X139332303Y-75231577D01*
X138912354Y-75057199D01*
X138556890Y-75056889D01*
X138557198Y-74703641D01*
X138383554Y-74283388D01*
X138062303Y-73961577D01*
X137642354Y-73787199D01*
X137187641Y-73786802D01*
X136767388Y-73960446D01*
X136445577Y-74281697D01*
X136271199Y-74701646D01*
X136271099Y-74815665D01*
X136023382Y-75063382D01*
X135830671Y-75351794D01*
X135763000Y-75692000D01*
X135763000Y-84581593D01*
X135636176Y-84887018D01*
X135635824Y-85291208D01*
X130810000Y-85291208D01*
X130810000Y-77031795D01*
X132396716Y-77031795D01*
X132645106Y-77632943D01*
X133104637Y-78093278D01*
X133705352Y-78342716D01*
X134355795Y-78343284D01*
X134956943Y-78094894D01*
X135417278Y-77635363D01*
X135666716Y-77034648D01*
X135667284Y-76384205D01*
X135418894Y-75783057D01*
X134959363Y-75322722D01*
X134358648Y-75073284D01*
X133708205Y-75072716D01*
X133107057Y-75321106D01*
X132646722Y-75780637D01*
X132397284Y-76381352D01*
X132396716Y-77031795D01*
X130810000Y-77031795D01*
X130810000Y-75184000D01*
X130674658Y-74503589D01*
X130289236Y-73926764D01*
X129918659Y-73556187D01*
X144614752Y-73556187D01*
X144832757Y-74083800D01*
X145236077Y-74487824D01*
X145763309Y-74706750D01*
X146334187Y-74707248D01*
X146861800Y-74489243D01*
X147265824Y-74085923D01*
X147484750Y-73558691D01*
X147485248Y-72987813D01*
X147267243Y-72460200D01*
X146863923Y-72056176D01*
X146336691Y-71837250D01*
X145765813Y-71836752D01*
X145238200Y-72054757D01*
X144834176Y-72458077D01*
X144615250Y-72985309D01*
X144614752Y-73556187D01*
X129918659Y-73556187D01*
X127101472Y-70739000D01*
X161416309Y-70739000D01*
X161290000Y-71374000D01*
M02*
