G04 #@! TF.GenerationSoftware,KiCad,Pcbnew,(2017-03-23 revision 5aa1610)-master*
G04 #@! TF.CreationDate,2017-05-08T22:11:12+02:00*
G04 #@! TF.ProjectId,aPortableInductionHeater,61506F727461626C65496E6475637469,rev?*
G04 #@! TF.FileFunction,Soldermask,Top*
G04 #@! TF.FilePolarity,Negative*
%FSLAX46Y46*%
G04 Gerber Fmt 4.6, Leading zero omitted, Abs format (unit mm)*
G04 Created by KiCad (PCBNEW (2017-03-23 revision 5aa1610)-master) date 2017 May 08, Monday 22:11:12*
%MOMM*%
%LPD*%
G01*
G04 APERTURE LIST*
%ADD10C,0.100000*%
%ADD11C,3.380000*%
%ADD12O,2.412000X2.920000*%
%ADD13R,2.615200X1.599200*%
%ADD14R,2.579640X3.979180*%
%ADD15R,1.930000X0.980000*%
%ADD16C,1.980000*%
%ADD17R,2.158000X2.158000*%
%ADD18C,2.158000*%
%ADD19C,2.310400*%
%ADD20R,2.056400X2.056400*%
%ADD21C,2.780000*%
%ADD22O,2.780000X2.780000*%
%ADD23C,2.380000*%
%ADD24R,2.380000X2.380000*%
%ADD25C,2.180000*%
%ADD26R,2.180000X2.180000*%
%ADD27O,1.780000X1.780000*%
%ADD28C,1.780000*%
%ADD29R,3.380000X3.380000*%
G04 APERTURE END LIST*
D10*
D11*
X201676000Y-110490000D03*
D12*
X210566000Y-115570000D03*
X213106000Y-115570000D03*
X208026000Y-115570000D03*
D11*
X219456000Y-110490000D03*
X219456000Y-98806000D03*
D12*
X208026000Y-103886000D03*
X213106000Y-103886000D03*
X210566000Y-103886000D03*
D11*
X201676000Y-98806000D03*
X219456000Y-86868000D03*
D12*
X208026000Y-91948000D03*
X213106000Y-91948000D03*
X210566000Y-91948000D03*
D11*
X201676000Y-86868000D03*
X201422000Y-74676000D03*
D12*
X210312000Y-79756000D03*
X212852000Y-79756000D03*
X207772000Y-79756000D03*
D11*
X219202000Y-74676000D03*
D13*
X132638800Y-97561400D03*
X132638800Y-95250000D03*
X132638800Y-92941140D03*
D14*
X126441200Y-95250000D03*
D15*
X156304000Y-104267000D03*
X156304000Y-105537000D03*
X156304000Y-106807000D03*
X156304000Y-108077000D03*
X161704000Y-108077000D03*
X161704000Y-106807000D03*
X161704000Y-105537000D03*
X161704000Y-104267000D03*
X154272000Y-80137000D03*
X154272000Y-78867000D03*
X154272000Y-77597000D03*
X154272000Y-76327000D03*
X159672000Y-76327000D03*
X159672000Y-77597000D03*
X159672000Y-78867000D03*
X159672000Y-80137000D03*
D16*
X127508000Y-87630000D03*
X135008000Y-87630000D03*
X160020000Y-88392000D03*
X150020000Y-88392000D03*
X160020000Y-97536000D03*
X150020000Y-97536000D03*
X124968000Y-105410000D03*
X134968000Y-105410000D03*
X146050000Y-80772000D03*
X146050000Y-73272000D03*
X146304000Y-113538000D03*
X153804000Y-113538000D03*
D17*
X82460000Y-71850000D03*
D18*
X85000000Y-71850000D03*
X87540000Y-71850000D03*
X90080000Y-71850000D03*
X92620000Y-71850000D03*
X95160000Y-71850000D03*
X97700000Y-71850000D03*
X100240000Y-71850000D03*
X102780000Y-71850000D03*
X105320000Y-71850000D03*
D17*
X82410000Y-74400000D03*
D18*
X84950000Y-74400000D03*
X87490000Y-74400000D03*
X90030000Y-74400000D03*
X92570000Y-74400000D03*
X95110000Y-74400000D03*
X97650000Y-74400000D03*
X100190000Y-74400000D03*
X102730000Y-74400000D03*
X105270000Y-74400000D03*
D17*
X82461100Y-115033600D03*
D18*
X85001100Y-115033600D03*
X87541100Y-115033600D03*
X90081100Y-115033600D03*
X92621100Y-115033600D03*
X95161100Y-115033600D03*
X97701100Y-115033600D03*
X100241100Y-115033600D03*
X102781100Y-115033600D03*
X105321100Y-115033600D03*
D17*
X82461100Y-117573600D03*
D18*
X85001100Y-117573600D03*
X87541100Y-117573600D03*
X90081100Y-117573600D03*
X92621100Y-117573600D03*
X95161100Y-117573600D03*
X97701100Y-117573600D03*
X100241100Y-117573600D03*
X102781100Y-117573600D03*
X105321100Y-117573600D03*
D19*
X110406601Y-71859043D03*
X112946601Y-71859043D03*
D20*
X115486601Y-71859043D03*
D21*
X192786000Y-112776000D03*
D22*
X172466000Y-112776000D03*
D21*
X192786000Y-85090000D03*
D22*
X172466000Y-85090000D03*
X172466000Y-103124000D03*
D21*
X192786000Y-103124000D03*
D22*
X172466000Y-94488000D03*
D21*
X192786000Y-94488000D03*
D23*
X134032000Y-76708000D03*
D24*
X129032000Y-76708000D03*
D25*
X121920000Y-77470000D03*
D26*
X121920000Y-74930000D03*
D27*
X121920000Y-87630000D03*
D28*
X121920000Y-82550000D03*
D11*
X228092000Y-91440000D03*
D29*
X228092000Y-96520000D03*
D11*
X228092000Y-109220000D03*
D29*
X228092000Y-114300000D03*
M02*
