M48
;DRILL file {KiCad (2017-03-23 revision 5aa1610)-master} date 2017 May 08, Monday 22:11:25
;FORMAT={-:-/ absolute / inch / decimal}
FMAT,2
INCH,TZ
T1C0.015
T2C0.020
T3C0.028
T4C0.031
T5C0.035
T6C0.039
T7C0.040
T8C0.045
T9C0.047
T10C0.060
%
G90
G05
M72
T1
X5.38Y-3.35
T2
X4.26Y-3.04
X5.36Y-3.84
X5.41Y-2.95
X5.46Y-3.
X5.46Y-3.29
X5.58Y-4.35
X5.58Y-4.4
X5.98Y-2.96
X5.98Y-3.01
X5.98Y-3.1
X6.29Y-4.35
X6.37Y-4.4
X6.42Y-2.81
X6.44Y-3.31
X6.48Y-4.16
X6.79Y-3.05
T3
X4.8Y-3.25
X4.8Y-3.45
T4
X4.92Y-4.15
X5.02Y-3.45
X5.3137Y-4.15
X5.3153Y-3.45
X5.75Y-2.8847
X5.75Y-3.18
X5.76Y-4.47
X5.9063Y-3.48
X5.9063Y-3.84
X6.0553Y-4.47
X6.3Y-3.48
X6.3Y-3.84
T5
X4.8Y-2.95
X4.8Y-3.05
T6
X5.08Y-3.02
X5.2769Y-3.02
T7
X3.2445Y-2.9291
X3.2465Y-2.8287
X3.2465Y-4.5289
X3.2465Y-4.6289
X3.3445Y-2.9291
X3.3465Y-2.8287
X3.3465Y-4.5289
X3.3465Y-4.6289
X3.4445Y-2.9291
X3.4465Y-2.8287
X3.4465Y-4.5289
X3.4465Y-4.6289
X3.5445Y-2.9291
X3.5465Y-2.8287
X3.5465Y-4.5289
X3.5465Y-4.6289
X3.6445Y-2.9291
X3.6465Y-2.8287
X3.6465Y-4.5289
X3.6465Y-4.6289
X3.7445Y-2.9291
X3.7465Y-2.8287
X3.7465Y-4.5289
X3.7465Y-4.6289
X3.8445Y-2.9291
X3.8465Y-2.8287
X3.8465Y-4.5289
X3.8465Y-4.6289
X3.9445Y-2.9291
X3.9465Y-2.8287
X3.9465Y-4.5289
X3.9465Y-4.6289
X4.0445Y-2.9291
X4.0465Y-2.8287
X4.0465Y-4.5289
X4.0465Y-4.6289
X4.1445Y-2.9291
X4.1465Y-2.8287
X4.1465Y-4.5289
X4.1465Y-4.6289
X4.3467Y-2.8291
X4.4467Y-2.8291
X4.5467Y-2.8291
T8
X8.18Y-3.14
X8.19Y-3.62
X8.19Y-4.09
X8.19Y-4.55
X8.28Y-3.14
X8.29Y-3.62
X8.29Y-4.09
X8.29Y-4.55
X8.38Y-3.14
X8.39Y-3.62
X8.39Y-4.09
X8.39Y-4.55
T9
X6.79Y-3.35
X6.79Y-3.72
X6.79Y-4.06
X6.79Y-4.44
X7.59Y-3.35
X7.59Y-3.72
X7.59Y-4.06
X7.59Y-4.44
T10
X8.98Y-3.6
X8.98Y-3.8
X8.98Y-4.3
X8.98Y-4.5
T0
M30
