M48
;DRILL file {KiCad (2017-03-23 revision 5aa1610)-master} date 2017 May 12, Friday 08:57:29
;FORMAT={-:-/ absolute / inch / decimal}
FMAT,2
INCH,TZ
T1C0.015
T2C0.020
T3C0.028
T4C0.031
T5C0.035
T6C0.039
T7C0.040
T8C0.045
T9C0.047
T10C0.060
%
G90
G05
M72
T1
X5.87Y-4.35
T2
X4.75Y-4.04
X5.85Y-4.84
X5.9Y-3.95
X5.95Y-4.
X5.95Y-4.29
X6.07Y-5.35
X6.07Y-5.4
X6.47Y-3.96
X6.47Y-4.01
X6.47Y-4.1
X6.78Y-5.35
X6.86Y-5.4
X6.91Y-3.81
X6.93Y-4.31
X6.97Y-5.16
X7.28Y-4.05
T3
X5.29Y-4.25
X5.29Y-4.45
T4
X5.41Y-5.15
X5.51Y-4.45
X5.8037Y-5.15
X5.8053Y-4.45
X6.24Y-3.8847
X6.24Y-4.18
X6.25Y-5.47
X6.3963Y-4.48
X6.3963Y-4.84
X6.5453Y-5.47
X6.79Y-4.48
X6.79Y-4.84
T5
X5.29Y-3.95
X5.29Y-4.05
T6
X5.57Y-4.02
X5.7669Y-4.02
T7
X3.7345Y-3.9291
X3.7365Y-3.8287
X3.7365Y-5.5289
X3.7365Y-5.6289
X3.8345Y-3.9291
X3.8365Y-3.8287
X3.8365Y-5.5289
X3.8365Y-5.6289
X3.9345Y-3.9291
X3.9365Y-3.8287
X3.9365Y-5.5289
X3.9365Y-5.6289
X4.0345Y-3.9291
X4.0365Y-3.8287
X4.0365Y-5.5289
X4.0365Y-5.6289
X4.1345Y-3.9291
X4.1365Y-3.8287
X4.1365Y-5.5289
X4.1365Y-5.6289
X4.2345Y-3.9291
X4.2365Y-3.8287
X4.2365Y-5.5289
X4.2365Y-5.6289
X4.3345Y-3.9291
X4.3365Y-3.8287
X4.3365Y-5.5289
X4.3365Y-5.6289
X4.4345Y-3.9291
X4.4365Y-3.8287
X4.4365Y-5.5289
X4.4365Y-5.6289
X4.5345Y-3.9291
X4.5365Y-3.8287
X4.5365Y-5.5289
X4.5365Y-5.6289
X4.6345Y-3.9291
X4.6365Y-3.8287
X4.6365Y-5.5289
X4.6365Y-5.6289
X4.8367Y-3.8291
X4.9367Y-3.8291
X5.0367Y-3.8291
T8
X8.67Y-4.14
X8.68Y-4.62
X8.68Y-5.09
X8.68Y-5.55
X8.77Y-4.14
X8.78Y-4.62
X8.78Y-5.09
X8.78Y-5.55
X8.87Y-4.14
X8.88Y-4.62
X8.88Y-5.09
X8.88Y-5.55
T9
X7.28Y-4.35
X7.28Y-4.72
X7.28Y-5.06
X7.28Y-5.44
X8.08Y-4.35
X8.08Y-4.72
X8.08Y-5.06
X8.08Y-5.44
T10
X9.47Y-4.6
X9.47Y-4.8
X9.47Y-5.3
X9.47Y-5.5
T0
M30
