G04 #@! TF.GenerationSoftware,KiCad,Pcbnew,(2017-03-23 revision 5aa1610)-master*
G04 #@! TF.CreationDate,2017-05-12T08:57:20+02:00*
G04 #@! TF.ProjectId,aPortableInductionHeater,61506F727461626C65496E6475637469,rev?*
G04 #@! TF.FileFunction,Legend,Bot*
G04 #@! TF.FilePolarity,Positive*
%FSLAX46Y46*%
G04 Gerber Fmt 4.6, Leading zero omitted, Abs format (unit mm)*
G04 Created by KiCad (PCBNEW (2017-03-23 revision 5aa1610)-master) date 2017 May 12, Friday 08:57:20*
%MOMM*%
%LPD*%
G01*
G04 APERTURE LIST*
%ADD10C,0.100000*%
%ADD11C,0.125000*%
G04 APERTURE END LIST*
D10*
D11*
X242288190Y-96457238D02*
X242026285Y-96457238D01*
X241978666Y-96433428D01*
X241954857Y-96385809D01*
X241954857Y-96290571D01*
X241978666Y-96242952D01*
X242264380Y-96457238D02*
X242288190Y-96409619D01*
X242288190Y-96290571D01*
X242264380Y-96242952D01*
X242216761Y-96219142D01*
X242169142Y-96219142D01*
X242121523Y-96242952D01*
X242097714Y-96290571D01*
X242097714Y-96409619D01*
X242073904Y-96457238D01*
X242288190Y-96695333D02*
X241788190Y-96695333D01*
X241788190Y-96885809D01*
X241812000Y-96933428D01*
X241835809Y-96957238D01*
X241883428Y-96981047D01*
X241954857Y-96981047D01*
X242002476Y-96957238D01*
X242026285Y-96933428D01*
X242050095Y-96885809D01*
X242050095Y-96695333D01*
X242288190Y-97266761D02*
X242264380Y-97219142D01*
X242240571Y-97195333D01*
X242192952Y-97171523D01*
X242050095Y-97171523D01*
X242002476Y-97195333D01*
X241978666Y-97219142D01*
X241954857Y-97266761D01*
X241954857Y-97338190D01*
X241978666Y-97385809D01*
X242002476Y-97409619D01*
X242050095Y-97433428D01*
X242192952Y-97433428D01*
X242240571Y-97409619D01*
X242264380Y-97385809D01*
X242288190Y-97338190D01*
X242288190Y-97266761D01*
X242288190Y-97647714D02*
X241954857Y-97647714D01*
X242050095Y-97647714D02*
X242002476Y-97671523D01*
X241978666Y-97695333D01*
X241954857Y-97742952D01*
X241954857Y-97790571D01*
X241954857Y-97885809D02*
X241954857Y-98076285D01*
X241788190Y-97957238D02*
X242216761Y-97957238D01*
X242264380Y-97981047D01*
X242288190Y-98028666D01*
X242288190Y-98076285D01*
X242288190Y-98457238D02*
X242026285Y-98457238D01*
X241978666Y-98433428D01*
X241954857Y-98385809D01*
X241954857Y-98290571D01*
X241978666Y-98242952D01*
X242264380Y-98457238D02*
X242288190Y-98409619D01*
X242288190Y-98290571D01*
X242264380Y-98242952D01*
X242216761Y-98219142D01*
X242169142Y-98219142D01*
X242121523Y-98242952D01*
X242097714Y-98290571D01*
X242097714Y-98409619D01*
X242073904Y-98457238D01*
X242288190Y-98695333D02*
X241788190Y-98695333D01*
X241978666Y-98695333D02*
X241954857Y-98742952D01*
X241954857Y-98838190D01*
X241978666Y-98885809D01*
X242002476Y-98909619D01*
X242050095Y-98933428D01*
X242192952Y-98933428D01*
X242240571Y-98909619D01*
X242264380Y-98885809D01*
X242288190Y-98838190D01*
X242288190Y-98742952D01*
X242264380Y-98695333D01*
X242288190Y-99219142D02*
X242264380Y-99171523D01*
X242216761Y-99147714D01*
X241788190Y-99147714D01*
X242264380Y-99600095D02*
X242288190Y-99552476D01*
X242288190Y-99457238D01*
X242264380Y-99409619D01*
X242216761Y-99385809D01*
X242026285Y-99385809D01*
X241978666Y-99409619D01*
X241954857Y-99457238D01*
X241954857Y-99552476D01*
X241978666Y-99600095D01*
X242026285Y-99623904D01*
X242073904Y-99623904D01*
X242121523Y-99385809D01*
X242288190Y-99838190D02*
X241788190Y-99838190D01*
X241954857Y-100076285D02*
X242288190Y-100076285D01*
X242002476Y-100076285D02*
X241978666Y-100100095D01*
X241954857Y-100147714D01*
X241954857Y-100219142D01*
X241978666Y-100266761D01*
X242026285Y-100290571D01*
X242288190Y-100290571D01*
X242288190Y-100742952D02*
X241788190Y-100742952D01*
X242264380Y-100742952D02*
X242288190Y-100695333D01*
X242288190Y-100600095D01*
X242264380Y-100552476D01*
X242240571Y-100528666D01*
X242192952Y-100504857D01*
X242050095Y-100504857D01*
X242002476Y-100528666D01*
X241978666Y-100552476D01*
X241954857Y-100600095D01*
X241954857Y-100695333D01*
X241978666Y-100742952D01*
X241954857Y-101195333D02*
X242288190Y-101195333D01*
X241954857Y-100981047D02*
X242216761Y-100981047D01*
X242264380Y-101004857D01*
X242288190Y-101052476D01*
X242288190Y-101123904D01*
X242264380Y-101171523D01*
X242240571Y-101195333D01*
X242264380Y-101647714D02*
X242288190Y-101600095D01*
X242288190Y-101504857D01*
X242264380Y-101457238D01*
X242240571Y-101433428D01*
X242192952Y-101409619D01*
X242050095Y-101409619D01*
X242002476Y-101433428D01*
X241978666Y-101457238D01*
X241954857Y-101504857D01*
X241954857Y-101600095D01*
X241978666Y-101647714D01*
X241954857Y-101790571D02*
X241954857Y-101981047D01*
X241788190Y-101861999D02*
X242216761Y-101861999D01*
X242264380Y-101885809D01*
X242288190Y-101933428D01*
X242288190Y-101981047D01*
X242288190Y-102147714D02*
X241954857Y-102147714D01*
X241788190Y-102147714D02*
X241812000Y-102123904D01*
X241835809Y-102147714D01*
X241812000Y-102171523D01*
X241788190Y-102147714D01*
X241835809Y-102147714D01*
X242288190Y-102457238D02*
X242264380Y-102409619D01*
X242240571Y-102385809D01*
X242192952Y-102361999D01*
X242050095Y-102361999D01*
X242002476Y-102385809D01*
X241978666Y-102409619D01*
X241954857Y-102457238D01*
X241954857Y-102528666D01*
X241978666Y-102576285D01*
X242002476Y-102600095D01*
X242050095Y-102623904D01*
X242192952Y-102623904D01*
X242240571Y-102600095D01*
X242264380Y-102576285D01*
X242288190Y-102528666D01*
X242288190Y-102457238D01*
X241954857Y-102838190D02*
X242288190Y-102838190D01*
X242002476Y-102838190D02*
X241978666Y-102861999D01*
X241954857Y-102909619D01*
X241954857Y-102981047D01*
X241978666Y-103028666D01*
X242026285Y-103052476D01*
X242288190Y-103052476D01*
X242288190Y-103290571D02*
X241788190Y-103290571D01*
X242026285Y-103290571D02*
X242026285Y-103576285D01*
X242288190Y-103576285D02*
X241788190Y-103576285D01*
X242264380Y-104004857D02*
X242288190Y-103957238D01*
X242288190Y-103861999D01*
X242264380Y-103814380D01*
X242216761Y-103790571D01*
X242026285Y-103790571D01*
X241978666Y-103814380D01*
X241954857Y-103861999D01*
X241954857Y-103957238D01*
X241978666Y-104004857D01*
X242026285Y-104028666D01*
X242073904Y-104028666D01*
X242121523Y-103790571D01*
X242288190Y-104457238D02*
X242026285Y-104457238D01*
X241978666Y-104433428D01*
X241954857Y-104385809D01*
X241954857Y-104290571D01*
X241978666Y-104242952D01*
X242264380Y-104457238D02*
X242288190Y-104409619D01*
X242288190Y-104290571D01*
X242264380Y-104242952D01*
X242216761Y-104219142D01*
X242169142Y-104219142D01*
X242121523Y-104242952D01*
X242097714Y-104290571D01*
X242097714Y-104409619D01*
X242073904Y-104457238D01*
X241954857Y-104623904D02*
X241954857Y-104814380D01*
X241788190Y-104695333D02*
X242216761Y-104695333D01*
X242264380Y-104719142D01*
X242288190Y-104766761D01*
X242288190Y-104814380D01*
X242264380Y-105171523D02*
X242288190Y-105123904D01*
X242288190Y-105028666D01*
X242264380Y-104981047D01*
X242216761Y-104957238D01*
X242026285Y-104957238D01*
X241978666Y-104981047D01*
X241954857Y-105028666D01*
X241954857Y-105123904D01*
X241978666Y-105171523D01*
X242026285Y-105195333D01*
X242073904Y-105195333D01*
X242121523Y-104957238D01*
X242288190Y-105409619D02*
X241954857Y-105409619D01*
X242050095Y-105409619D02*
X242002476Y-105433428D01*
X241978666Y-105457238D01*
X241954857Y-105504857D01*
X241954857Y-105552476D01*
X242097714Y-106100095D02*
X242097714Y-106481047D01*
X241788190Y-107028666D02*
X242288190Y-107195333D01*
X241788190Y-107361999D01*
X242288190Y-107790571D02*
X242288190Y-107504857D01*
X242288190Y-107647714D02*
X241788190Y-107647714D01*
X241859619Y-107600095D01*
X241907238Y-107552476D01*
X241931047Y-107504857D01*
X242240571Y-108004857D02*
X242264380Y-108028666D01*
X242288190Y-108004857D01*
X242264380Y-107981047D01*
X242240571Y-108004857D01*
X242288190Y-108004857D01*
X241788190Y-108338190D02*
X241788190Y-108385809D01*
X241812000Y-108433428D01*
X241835809Y-108457238D01*
X241883428Y-108481047D01*
X241978666Y-108504857D01*
X242097714Y-108504857D01*
X242192952Y-108481047D01*
X242240571Y-108457238D01*
X242264380Y-108433428D01*
X242288190Y-108385809D01*
X242288190Y-108338190D01*
X242264380Y-108290571D01*
X242240571Y-108266761D01*
X242192952Y-108242952D01*
X242097714Y-108219142D01*
X241978666Y-108219142D01*
X241883428Y-108242952D01*
X241835809Y-108266761D01*
X241812000Y-108290571D01*
X241788190Y-108338190D01*
X254226190Y-108266761D02*
X253964285Y-108266761D01*
X253916666Y-108290571D01*
X253892857Y-108338190D01*
X253892857Y-108433428D01*
X253916666Y-108481047D01*
X254202380Y-108266761D02*
X254226190Y-108314380D01*
X254226190Y-108433428D01*
X254202380Y-108481047D01*
X254154761Y-108504857D01*
X254107142Y-108504857D01*
X254059523Y-108481047D01*
X254035714Y-108433428D01*
X254035714Y-108314380D01*
X254011904Y-108266761D01*
X254226190Y-108028666D02*
X253726190Y-108028666D01*
X253726190Y-107838190D01*
X253750000Y-107790571D01*
X253773809Y-107766761D01*
X253821428Y-107742952D01*
X253892857Y-107742952D01*
X253940476Y-107766761D01*
X253964285Y-107790571D01*
X253988095Y-107838190D01*
X253988095Y-108028666D01*
X254226190Y-107457238D02*
X254202380Y-107504857D01*
X254178571Y-107528666D01*
X254130952Y-107552476D01*
X253988095Y-107552476D01*
X253940476Y-107528666D01*
X253916666Y-107504857D01*
X253892857Y-107457238D01*
X253892857Y-107385809D01*
X253916666Y-107338190D01*
X253940476Y-107314380D01*
X253988095Y-107290571D01*
X254130952Y-107290571D01*
X254178571Y-107314380D01*
X254202380Y-107338190D01*
X254226190Y-107385809D01*
X254226190Y-107457238D01*
X254226190Y-107076285D02*
X253892857Y-107076285D01*
X253988095Y-107076285D02*
X253940476Y-107052476D01*
X253916666Y-107028666D01*
X253892857Y-106981047D01*
X253892857Y-106933428D01*
X253892857Y-106838190D02*
X253892857Y-106647714D01*
X253726190Y-106766761D02*
X254154761Y-106766761D01*
X254202380Y-106742952D01*
X254226190Y-106695333D01*
X254226190Y-106647714D01*
X254226190Y-106266761D02*
X253964285Y-106266761D01*
X253916666Y-106290571D01*
X253892857Y-106338190D01*
X253892857Y-106433428D01*
X253916666Y-106481047D01*
X254202380Y-106266761D02*
X254226190Y-106314380D01*
X254226190Y-106433428D01*
X254202380Y-106481047D01*
X254154761Y-106504857D01*
X254107142Y-106504857D01*
X254059523Y-106481047D01*
X254035714Y-106433428D01*
X254035714Y-106314380D01*
X254011904Y-106266761D01*
X254226190Y-106028666D02*
X253726190Y-106028666D01*
X253916666Y-106028666D02*
X253892857Y-105981047D01*
X253892857Y-105885809D01*
X253916666Y-105838190D01*
X253940476Y-105814380D01*
X253988095Y-105790571D01*
X254130952Y-105790571D01*
X254178571Y-105814380D01*
X254202380Y-105838190D01*
X254226190Y-105885809D01*
X254226190Y-105981047D01*
X254202380Y-106028666D01*
X254226190Y-105504857D02*
X254202380Y-105552476D01*
X254154761Y-105576285D01*
X253726190Y-105576285D01*
X254202380Y-105123904D02*
X254226190Y-105171523D01*
X254226190Y-105266761D01*
X254202380Y-105314380D01*
X254154761Y-105338190D01*
X253964285Y-105338190D01*
X253916666Y-105314380D01*
X253892857Y-105266761D01*
X253892857Y-105171523D01*
X253916666Y-105123904D01*
X253964285Y-105100095D01*
X254011904Y-105100095D01*
X254059523Y-105338190D01*
X254226190Y-104885809D02*
X253726190Y-104885809D01*
X253892857Y-104647714D02*
X254226190Y-104647714D01*
X253940476Y-104647714D02*
X253916666Y-104623904D01*
X253892857Y-104576285D01*
X253892857Y-104504857D01*
X253916666Y-104457238D01*
X253964285Y-104433428D01*
X254226190Y-104433428D01*
X254226190Y-103981047D02*
X253726190Y-103981047D01*
X254202380Y-103981047D02*
X254226190Y-104028666D01*
X254226190Y-104123904D01*
X254202380Y-104171523D01*
X254178571Y-104195333D01*
X254130952Y-104219142D01*
X253988095Y-104219142D01*
X253940476Y-104195333D01*
X253916666Y-104171523D01*
X253892857Y-104123904D01*
X253892857Y-104028666D01*
X253916666Y-103981047D01*
X253892857Y-103528666D02*
X254226190Y-103528666D01*
X253892857Y-103742952D02*
X254154761Y-103742952D01*
X254202380Y-103719142D01*
X254226190Y-103671523D01*
X254226190Y-103600095D01*
X254202380Y-103552476D01*
X254178571Y-103528666D01*
X254202380Y-103076285D02*
X254226190Y-103123904D01*
X254226190Y-103219142D01*
X254202380Y-103266761D01*
X254178571Y-103290571D01*
X254130952Y-103314380D01*
X253988095Y-103314380D01*
X253940476Y-103290571D01*
X253916666Y-103266761D01*
X253892857Y-103219142D01*
X253892857Y-103123904D01*
X253916666Y-103076285D01*
X253892857Y-102933428D02*
X253892857Y-102742952D01*
X253726190Y-102862000D02*
X254154761Y-102862000D01*
X254202380Y-102838190D01*
X254226190Y-102790571D01*
X254226190Y-102742952D01*
X254226190Y-102576285D02*
X253892857Y-102576285D01*
X253726190Y-102576285D02*
X253750000Y-102600095D01*
X253773809Y-102576285D01*
X253750000Y-102552476D01*
X253726190Y-102576285D01*
X253773809Y-102576285D01*
X254226190Y-102266761D02*
X254202380Y-102314380D01*
X254178571Y-102338190D01*
X254130952Y-102362000D01*
X253988095Y-102362000D01*
X253940476Y-102338190D01*
X253916666Y-102314380D01*
X253892857Y-102266761D01*
X253892857Y-102195333D01*
X253916666Y-102147714D01*
X253940476Y-102123904D01*
X253988095Y-102100095D01*
X254130952Y-102100095D01*
X254178571Y-102123904D01*
X254202380Y-102147714D01*
X254226190Y-102195333D01*
X254226190Y-102266761D01*
X253892857Y-101885809D02*
X254226190Y-101885809D01*
X253940476Y-101885809D02*
X253916666Y-101862000D01*
X253892857Y-101814380D01*
X253892857Y-101742952D01*
X253916666Y-101695333D01*
X253964285Y-101671523D01*
X254226190Y-101671523D01*
X254226190Y-101433428D02*
X253726190Y-101433428D01*
X253964285Y-101433428D02*
X253964285Y-101147714D01*
X254226190Y-101147714D02*
X253726190Y-101147714D01*
X254202380Y-100719142D02*
X254226190Y-100766761D01*
X254226190Y-100862000D01*
X254202380Y-100909619D01*
X254154761Y-100933428D01*
X253964285Y-100933428D01*
X253916666Y-100909619D01*
X253892857Y-100862000D01*
X253892857Y-100766761D01*
X253916666Y-100719142D01*
X253964285Y-100695333D01*
X254011904Y-100695333D01*
X254059523Y-100933428D01*
X254226190Y-100266761D02*
X253964285Y-100266761D01*
X253916666Y-100290571D01*
X253892857Y-100338190D01*
X253892857Y-100433428D01*
X253916666Y-100481047D01*
X254202380Y-100266761D02*
X254226190Y-100314380D01*
X254226190Y-100433428D01*
X254202380Y-100481047D01*
X254154761Y-100504857D01*
X254107142Y-100504857D01*
X254059523Y-100481047D01*
X254035714Y-100433428D01*
X254035714Y-100314380D01*
X254011904Y-100266761D01*
X253892857Y-100100095D02*
X253892857Y-99909619D01*
X253726190Y-100028666D02*
X254154761Y-100028666D01*
X254202380Y-100004857D01*
X254226190Y-99957238D01*
X254226190Y-99909619D01*
X254202380Y-99552476D02*
X254226190Y-99600095D01*
X254226190Y-99695333D01*
X254202380Y-99742952D01*
X254154761Y-99766761D01*
X253964285Y-99766761D01*
X253916666Y-99742952D01*
X253892857Y-99695333D01*
X253892857Y-99600095D01*
X253916666Y-99552476D01*
X253964285Y-99528666D01*
X254011904Y-99528666D01*
X254059523Y-99766761D01*
X254226190Y-99314380D02*
X253892857Y-99314380D01*
X253988095Y-99314380D02*
X253940476Y-99290571D01*
X253916666Y-99266761D01*
X253892857Y-99219142D01*
X253892857Y-99171523D01*
X254035714Y-98623904D02*
X254035714Y-98242952D01*
X253726190Y-97695333D02*
X254226190Y-97528666D01*
X253726190Y-97362000D01*
X254226190Y-96933428D02*
X254226190Y-97219142D01*
X254226190Y-97076285D02*
X253726190Y-97076285D01*
X253797619Y-97123904D01*
X253845238Y-97171523D01*
X253869047Y-97219142D01*
X254178571Y-96719142D02*
X254202380Y-96695333D01*
X254226190Y-96719142D01*
X254202380Y-96742952D01*
X254178571Y-96719142D01*
X254226190Y-96719142D01*
X253726190Y-96385809D02*
X253726190Y-96338190D01*
X253750000Y-96290571D01*
X253773809Y-96266761D01*
X253821428Y-96242952D01*
X253916666Y-96219142D01*
X254035714Y-96219142D01*
X254130952Y-96242952D01*
X254178571Y-96266761D01*
X254202380Y-96290571D01*
X254226190Y-96338190D01*
X254226190Y-96385809D01*
X254202380Y-96433428D01*
X254178571Y-96457238D01*
X254130952Y-96481047D01*
X254035714Y-96504857D01*
X253916666Y-96504857D01*
X253821428Y-96481047D01*
X253773809Y-96457238D01*
X253750000Y-96433428D01*
X253726190Y-96385809D01*
X244272571Y-96242952D02*
X244296380Y-96219142D01*
X244320190Y-96147714D01*
X244320190Y-96100095D01*
X244296380Y-96028666D01*
X244248761Y-95981047D01*
X244201142Y-95957238D01*
X244105904Y-95933428D01*
X244034476Y-95933428D01*
X243939238Y-95957238D01*
X243891619Y-95981047D01*
X243844000Y-96028666D01*
X243820190Y-96100095D01*
X243820190Y-96147714D01*
X243844000Y-96219142D01*
X243867809Y-96242952D01*
X244320190Y-96528666D02*
X244296380Y-96481047D01*
X244272571Y-96457238D01*
X244224952Y-96433428D01*
X244082095Y-96433428D01*
X244034476Y-96457238D01*
X244010666Y-96481047D01*
X243986857Y-96528666D01*
X243986857Y-96600095D01*
X244010666Y-96647714D01*
X244034476Y-96671523D01*
X244082095Y-96695333D01*
X244224952Y-96695333D01*
X244272571Y-96671523D01*
X244296380Y-96647714D01*
X244320190Y-96600095D01*
X244320190Y-96528666D01*
X243986857Y-96909619D02*
X244486857Y-96909619D01*
X244010666Y-96909619D02*
X243986857Y-96957238D01*
X243986857Y-97052476D01*
X244010666Y-97100095D01*
X244034476Y-97123904D01*
X244082095Y-97147714D01*
X244224952Y-97147714D01*
X244272571Y-97123904D01*
X244296380Y-97100095D01*
X244320190Y-97052476D01*
X244320190Y-96957238D01*
X244296380Y-96909619D01*
X243986857Y-97314380D02*
X244320190Y-97433428D01*
X243986857Y-97552476D02*
X244320190Y-97433428D01*
X244439238Y-97385809D01*
X244463047Y-97362000D01*
X244486857Y-97314380D01*
X244320190Y-97742952D02*
X243986857Y-97742952D01*
X244082095Y-97742952D02*
X244034476Y-97766761D01*
X244010666Y-97790571D01*
X243986857Y-97838190D01*
X243986857Y-97885809D01*
X244320190Y-98052476D02*
X243986857Y-98052476D01*
X243820190Y-98052476D02*
X243844000Y-98028666D01*
X243867809Y-98052476D01*
X243844000Y-98076285D01*
X243820190Y-98052476D01*
X243867809Y-98052476D01*
X243986857Y-98504857D02*
X244391619Y-98504857D01*
X244439238Y-98481047D01*
X244463047Y-98457238D01*
X244486857Y-98409619D01*
X244486857Y-98338190D01*
X244463047Y-98290571D01*
X244296380Y-98504857D02*
X244320190Y-98457238D01*
X244320190Y-98362000D01*
X244296380Y-98314380D01*
X244272571Y-98290571D01*
X244224952Y-98266761D01*
X244082095Y-98266761D01*
X244034476Y-98290571D01*
X244010666Y-98314380D01*
X243986857Y-98362000D01*
X243986857Y-98457238D01*
X244010666Y-98504857D01*
X244320190Y-98742952D02*
X243820190Y-98742952D01*
X244320190Y-98957238D02*
X244058285Y-98957238D01*
X244010666Y-98933428D01*
X243986857Y-98885809D01*
X243986857Y-98814380D01*
X244010666Y-98766761D01*
X244034476Y-98742952D01*
X243986857Y-99123904D02*
X243986857Y-99314380D01*
X243820190Y-99195333D02*
X244248761Y-99195333D01*
X244296380Y-99219142D01*
X244320190Y-99266761D01*
X244320190Y-99314380D01*
X244510666Y-100004857D02*
X244486857Y-99981047D01*
X244415428Y-99933428D01*
X244367809Y-99909619D01*
X244296380Y-99885809D01*
X244177333Y-99862000D01*
X244082095Y-99862000D01*
X243963047Y-99885809D01*
X243891619Y-99909619D01*
X243844000Y-99933428D01*
X243772571Y-99981047D01*
X243748761Y-100004857D01*
X244272571Y-100481047D02*
X244296380Y-100457238D01*
X244320190Y-100385809D01*
X244320190Y-100338190D01*
X244296380Y-100266761D01*
X244248761Y-100219142D01*
X244201142Y-100195333D01*
X244105904Y-100171523D01*
X244034476Y-100171523D01*
X243939238Y-100195333D01*
X243891619Y-100219142D01*
X243844000Y-100266761D01*
X243820190Y-100338190D01*
X243820190Y-100385809D01*
X243844000Y-100457238D01*
X243867809Y-100481047D01*
X244510666Y-100647714D02*
X244486857Y-100671523D01*
X244415428Y-100719142D01*
X244367809Y-100742952D01*
X244296380Y-100766761D01*
X244177333Y-100790571D01*
X244082095Y-100790571D01*
X243963047Y-100766761D01*
X243891619Y-100742952D01*
X243844000Y-100719142D01*
X243772571Y-100671523D01*
X243748761Y-100647714D01*
X244320190Y-101409619D02*
X243820190Y-101409619D01*
X243820190Y-101528666D01*
X243844000Y-101600095D01*
X243891619Y-101647714D01*
X243939238Y-101671523D01*
X244034476Y-101695333D01*
X244105904Y-101695333D01*
X244201142Y-101671523D01*
X244248761Y-101647714D01*
X244296380Y-101600095D01*
X244320190Y-101528666D01*
X244320190Y-101409619D01*
X244058285Y-101909619D02*
X244058285Y-102076285D01*
X244320190Y-102147714D02*
X244320190Y-101909619D01*
X243820190Y-101909619D01*
X243820190Y-102147714D01*
X244320190Y-102600095D02*
X244320190Y-102362000D01*
X243820190Y-102362000D01*
X243820190Y-102862000D02*
X243820190Y-102957238D01*
X243844000Y-103004857D01*
X243891619Y-103052476D01*
X243986857Y-103076285D01*
X244153523Y-103076285D01*
X244248761Y-103052476D01*
X244296380Y-103004857D01*
X244320190Y-102957238D01*
X244320190Y-102862000D01*
X244296380Y-102814380D01*
X244248761Y-102766761D01*
X244153523Y-102742952D01*
X243986857Y-102742952D01*
X243891619Y-102766761D01*
X243844000Y-102814380D01*
X243820190Y-102862000D01*
X243820190Y-103290571D02*
X244224952Y-103290571D01*
X244272571Y-103314380D01*
X244296380Y-103338190D01*
X244320190Y-103385809D01*
X244320190Y-103481047D01*
X244296380Y-103528666D01*
X244272571Y-103552476D01*
X244224952Y-103576285D01*
X243820190Y-103576285D01*
X244272571Y-104100095D02*
X244296380Y-104076285D01*
X244320190Y-104004857D01*
X244320190Y-103957238D01*
X244296380Y-103885809D01*
X244248761Y-103838190D01*
X244201142Y-103814380D01*
X244105904Y-103790571D01*
X244034476Y-103790571D01*
X243939238Y-103814380D01*
X243891619Y-103838190D01*
X243844000Y-103885809D01*
X243820190Y-103957238D01*
X243820190Y-104004857D01*
X243844000Y-104076285D01*
X243867809Y-104100095D01*
X244320190Y-104314380D02*
X243820190Y-104314380D01*
X244058285Y-104314380D02*
X244058285Y-104600095D01*
X244320190Y-104600095D02*
X243820190Y-104600095D01*
X244058285Y-104838190D02*
X244058285Y-105004857D01*
X244320190Y-105076285D02*
X244320190Y-104838190D01*
X243820190Y-104838190D01*
X243820190Y-105076285D01*
X244129714Y-105290571D02*
X244129714Y-105671523D01*
X243820190Y-105838190D02*
X244320190Y-106004857D01*
X243820190Y-106171523D01*
X244320190Y-106338190D02*
X243820190Y-106338190D01*
X244320190Y-106814380D02*
X244320190Y-106576285D01*
X243820190Y-106576285D01*
X244320190Y-106981047D02*
X243820190Y-106981047D01*
X243820190Y-107171523D01*
X243844000Y-107219142D01*
X243867809Y-107242952D01*
X243915428Y-107266761D01*
X243986857Y-107266761D01*
X244034476Y-107242952D01*
X244058285Y-107219142D01*
X244082095Y-107171523D01*
X244082095Y-106981047D01*
X243820190Y-107576285D02*
X243820190Y-107671523D01*
X243844000Y-107719142D01*
X243891619Y-107766761D01*
X243986857Y-107790571D01*
X244153523Y-107790571D01*
X244248761Y-107766761D01*
X244296380Y-107719142D01*
X244320190Y-107671523D01*
X244320190Y-107576285D01*
X244296380Y-107528666D01*
X244248761Y-107481047D01*
X244153523Y-107457238D01*
X243986857Y-107457238D01*
X243891619Y-107481047D01*
X243844000Y-107528666D01*
X243820190Y-107576285D01*
X243820190Y-108004857D02*
X244224952Y-108004857D01*
X244272571Y-108028666D01*
X244296380Y-108052476D01*
X244320190Y-108100095D01*
X244320190Y-108195333D01*
X244296380Y-108242952D01*
X244272571Y-108266761D01*
X244224952Y-108290571D01*
X243820190Y-108290571D01*
X243820190Y-108481047D02*
X244320190Y-108814380D01*
X243820190Y-108814380D02*
X244320190Y-108481047D01*
M02*
