%TF.GenerationSoftware,KiCad,Pcbnew,(2017-03-23 revision 5aa1610)-master*%
%TF.CreationDate,2017-05-13T10:24:10+02:00*%
%TF.ProjectId,aPortableInductionHeater,61506F727461626C65496E6475637469,rev?*%
%TF.FileFunction,Legend,Bot*%
%TF.FilePolarity,Positive*%
%FSLAX45Y45*%
G04 Gerber Fmt 4.5, Leading zero omitted, Abs format (unit mm)*
G04 Created by KiCad (PCBNEW (2017-03-23 revision 5aa1610)-master) date 2017 May 13, Saturday 10:24:10*
%MOMM*%
%LPD*%
G01*
G04 APERTURE LIST*
%ADD10C,0.100000*%
%ADD11C,0.250000*%
G04 APERTURE END LIST*
D10*
D11*
X12171209Y-13294514D02*
X12175971Y-13299276D01*
X12190257Y-13304038D01*
X12199781Y-13304038D01*
X12214067Y-13299276D01*
X12223590Y-13289752D01*
X12228352Y-13280228D01*
X12233114Y-13261181D01*
X12233114Y-13246895D01*
X12228352Y-13227848D01*
X12223590Y-13218324D01*
X12214067Y-13208800D01*
X12199781Y-13204038D01*
X12190257Y-13204038D01*
X12175971Y-13208800D01*
X12171209Y-13213562D01*
X12114067Y-13304038D02*
X12123590Y-13299276D01*
X12128352Y-13294514D01*
X12133114Y-13284990D01*
X12133114Y-13256419D01*
X12128352Y-13246895D01*
X12123590Y-13242133D01*
X12114067Y-13237371D01*
X12099781Y-13237371D01*
X12090257Y-13242133D01*
X12085495Y-13246895D01*
X12080733Y-13256419D01*
X12080733Y-13284990D01*
X12085495Y-13294514D01*
X12090257Y-13299276D01*
X12099781Y-13304038D01*
X12114067Y-13304038D01*
X12037876Y-13237371D02*
X12037876Y-13337371D01*
X12037876Y-13242133D02*
X12028352Y-13237371D01*
X12009305Y-13237371D01*
X11999781Y-13242133D01*
X11995019Y-13246895D01*
X11990257Y-13256419D01*
X11990257Y-13284990D01*
X11995019Y-13294514D01*
X11999781Y-13299276D01*
X12009305Y-13304038D01*
X12028352Y-13304038D01*
X12037876Y-13299276D01*
X11956924Y-13237371D02*
X11933114Y-13304038D01*
X11909305Y-13237371D02*
X11933114Y-13304038D01*
X11942638Y-13327848D01*
X11947400Y-13332609D01*
X11956924Y-13337371D01*
X11871209Y-13304038D02*
X11871209Y-13237371D01*
X11871209Y-13256419D02*
X11866448Y-13246895D01*
X11861686Y-13242133D01*
X11852162Y-13237371D01*
X11842638Y-13237371D01*
X11809305Y-13304038D02*
X11809305Y-13237371D01*
X11809305Y-13204038D02*
X11814067Y-13208800D01*
X11809305Y-13213562D01*
X11804543Y-13208800D01*
X11809305Y-13204038D01*
X11809305Y-13213562D01*
X11718828Y-13237371D02*
X11718828Y-13318324D01*
X11723590Y-13327848D01*
X11728352Y-13332609D01*
X11737876Y-13337371D01*
X11752162Y-13337371D01*
X11761686Y-13332609D01*
X11718828Y-13299276D02*
X11728352Y-13304038D01*
X11747400Y-13304038D01*
X11756924Y-13299276D01*
X11761686Y-13294514D01*
X11766448Y-13284990D01*
X11766448Y-13256419D01*
X11761686Y-13246895D01*
X11756924Y-13242133D01*
X11747400Y-13237371D01*
X11728352Y-13237371D01*
X11718828Y-13242133D01*
X11671209Y-13304038D02*
X11671209Y-13204038D01*
X11628352Y-13304038D02*
X11628352Y-13251657D01*
X11633114Y-13242133D01*
X11642638Y-13237371D01*
X11656924Y-13237371D01*
X11666448Y-13242133D01*
X11671209Y-13246895D01*
X11595019Y-13237371D02*
X11556924Y-13237371D01*
X11580733Y-13204038D02*
X11580733Y-13289752D01*
X11575971Y-13299276D01*
X11566448Y-13304038D01*
X11556924Y-13304038D01*
X11418828Y-13342133D02*
X11423590Y-13337371D01*
X11433114Y-13323086D01*
X11437876Y-13313562D01*
X11442638Y-13299276D01*
X11447400Y-13275467D01*
X11447400Y-13256419D01*
X11442638Y-13232609D01*
X11437876Y-13218324D01*
X11433114Y-13208800D01*
X11423590Y-13194514D01*
X11418828Y-13189752D01*
X11323590Y-13294514D02*
X11328352Y-13299276D01*
X11342638Y-13304038D01*
X11352162Y-13304038D01*
X11366448Y-13299276D01*
X11375971Y-13289752D01*
X11380733Y-13280228D01*
X11385495Y-13261181D01*
X11385495Y-13246895D01*
X11380733Y-13227848D01*
X11375971Y-13218324D01*
X11366448Y-13208800D01*
X11352162Y-13204038D01*
X11342638Y-13204038D01*
X11328352Y-13208800D01*
X11323590Y-13213562D01*
X11290257Y-13342133D02*
X11285495Y-13337371D01*
X11275971Y-13323086D01*
X11271209Y-13313562D01*
X11266448Y-13299276D01*
X11261686Y-13275467D01*
X11261686Y-13256419D01*
X11266448Y-13232609D01*
X11271209Y-13218324D01*
X11275971Y-13208800D01*
X11285495Y-13194514D01*
X11290257Y-13189752D01*
X11137876Y-13304038D02*
X11137876Y-13204038D01*
X11114067Y-13204038D01*
X11099781Y-13208800D01*
X11090257Y-13218324D01*
X11085495Y-13227848D01*
X11080733Y-13246895D01*
X11080733Y-13261181D01*
X11085495Y-13280228D01*
X11090257Y-13289752D01*
X11099781Y-13299276D01*
X11114067Y-13304038D01*
X11137876Y-13304038D01*
X11037876Y-13251657D02*
X11004543Y-13251657D01*
X10990257Y-13304038D02*
X11037876Y-13304038D01*
X11037876Y-13204038D01*
X10990257Y-13204038D01*
X10899781Y-13304038D02*
X10947400Y-13304038D01*
X10947400Y-13204038D01*
X10847400Y-13204038D02*
X10828352Y-13204038D01*
X10818829Y-13208800D01*
X10809305Y-13218324D01*
X10804543Y-13237371D01*
X10804543Y-13270705D01*
X10809305Y-13289752D01*
X10818829Y-13299276D01*
X10828352Y-13304038D01*
X10847400Y-13304038D01*
X10856924Y-13299276D01*
X10866448Y-13289752D01*
X10871210Y-13270705D01*
X10871210Y-13237371D01*
X10866448Y-13218324D01*
X10856924Y-13208800D01*
X10847400Y-13204038D01*
X10761686Y-13204038D02*
X10761686Y-13284990D01*
X10756924Y-13294514D01*
X10752162Y-13299276D01*
X10742638Y-13304038D01*
X10723590Y-13304038D01*
X10714067Y-13299276D01*
X10709305Y-13294514D01*
X10704543Y-13284990D01*
X10704543Y-13204038D01*
X10599781Y-13294514D02*
X10604543Y-13299276D01*
X10618829Y-13304038D01*
X10628352Y-13304038D01*
X10642638Y-13299276D01*
X10652162Y-13289752D01*
X10656924Y-13280228D01*
X10661686Y-13261181D01*
X10661686Y-13246895D01*
X10656924Y-13227848D01*
X10652162Y-13218324D01*
X10642638Y-13208800D01*
X10628352Y-13204038D01*
X10618829Y-13204038D01*
X10604543Y-13208800D01*
X10599781Y-13213562D01*
X10556924Y-13304038D02*
X10556924Y-13204038D01*
X10556924Y-13251657D02*
X10499781Y-13251657D01*
X10499781Y-13304038D02*
X10499781Y-13204038D01*
X10452162Y-13251657D02*
X10418829Y-13251657D01*
X10404543Y-13304038D02*
X10452162Y-13304038D01*
X10452162Y-13204038D01*
X10404543Y-13204038D01*
X10361686Y-13265943D02*
X10285495Y-13265943D01*
X10252162Y-13204038D02*
X10218829Y-13304038D01*
X10185495Y-13204038D01*
X10152162Y-13304038D02*
X10152162Y-13204038D01*
X10056924Y-13304038D02*
X10104543Y-13304038D01*
X10104543Y-13204038D01*
X10023590Y-13304038D02*
X10023590Y-13204038D01*
X9985495Y-13204038D01*
X9975971Y-13208800D01*
X9971210Y-13213562D01*
X9966448Y-13223086D01*
X9966448Y-13237371D01*
X9971210Y-13246895D01*
X9975971Y-13251657D01*
X9985495Y-13256419D01*
X10023590Y-13256419D01*
X9904543Y-13204038D02*
X9885495Y-13204038D01*
X9875971Y-13208800D01*
X9866448Y-13218324D01*
X9861686Y-13237371D01*
X9861686Y-13270705D01*
X9866448Y-13289752D01*
X9875971Y-13299276D01*
X9885495Y-13304038D01*
X9904543Y-13304038D01*
X9914067Y-13299276D01*
X9923590Y-13289752D01*
X9928352Y-13270705D01*
X9928352Y-13237371D01*
X9923590Y-13218324D01*
X9914067Y-13208800D01*
X9904543Y-13204038D01*
X9818829Y-13204038D02*
X9818829Y-13284990D01*
X9814067Y-13294514D01*
X9809305Y-13299276D01*
X9799781Y-13304038D01*
X9780733Y-13304038D01*
X9771210Y-13299276D01*
X9766448Y-13294514D01*
X9761686Y-13284990D01*
X9761686Y-13204038D01*
X9723590Y-13204038D02*
X9656924Y-13304038D01*
X9656924Y-13204038D02*
X9723590Y-13304038D01*
X12102952Y-13126238D02*
X12102952Y-13073857D01*
X12107714Y-13064333D01*
X12117238Y-13059571D01*
X12136286Y-13059571D01*
X12145809Y-13064333D01*
X12102952Y-13121476D02*
X12112476Y-13126238D01*
X12136286Y-13126238D01*
X12145809Y-13121476D01*
X12150571Y-13111952D01*
X12150571Y-13102428D01*
X12145809Y-13092905D01*
X12136286Y-13088143D01*
X12112476Y-13088143D01*
X12102952Y-13083381D01*
X12055333Y-13126238D02*
X12055333Y-13026238D01*
X12017238Y-13026238D01*
X12007714Y-13031000D01*
X12002952Y-13035762D01*
X11998190Y-13045286D01*
X11998190Y-13059571D01*
X12002952Y-13069095D01*
X12007714Y-13073857D01*
X12017238Y-13078619D01*
X12055333Y-13078619D01*
X11941048Y-13126238D02*
X11950571Y-13121476D01*
X11955333Y-13116714D01*
X11960095Y-13107190D01*
X11960095Y-13078619D01*
X11955333Y-13069095D01*
X11950571Y-13064333D01*
X11941048Y-13059571D01*
X11926762Y-13059571D01*
X11917238Y-13064333D01*
X11912476Y-13069095D01*
X11907714Y-13078619D01*
X11907714Y-13107190D01*
X11912476Y-13116714D01*
X11917238Y-13121476D01*
X11926762Y-13126238D01*
X11941048Y-13126238D01*
X11864857Y-13126238D02*
X11864857Y-13059571D01*
X11864857Y-13078619D02*
X11860095Y-13069095D01*
X11855333Y-13064333D01*
X11845809Y-13059571D01*
X11836286Y-13059571D01*
X11817238Y-13059571D02*
X11779143Y-13059571D01*
X11802952Y-13026238D02*
X11802952Y-13111952D01*
X11798190Y-13121476D01*
X11788667Y-13126238D01*
X11779143Y-13126238D01*
X11702952Y-13126238D02*
X11702952Y-13073857D01*
X11707714Y-13064333D01*
X11717238Y-13059571D01*
X11736286Y-13059571D01*
X11745809Y-13064333D01*
X11702952Y-13121476D02*
X11712476Y-13126238D01*
X11736286Y-13126238D01*
X11745809Y-13121476D01*
X11750571Y-13111952D01*
X11750571Y-13102428D01*
X11745809Y-13092905D01*
X11736286Y-13088143D01*
X11712476Y-13088143D01*
X11702952Y-13083381D01*
X11655333Y-13126238D02*
X11655333Y-13026238D01*
X11655333Y-13064333D02*
X11645809Y-13059571D01*
X11626762Y-13059571D01*
X11617238Y-13064333D01*
X11612476Y-13069095D01*
X11607714Y-13078619D01*
X11607714Y-13107190D01*
X11612476Y-13116714D01*
X11617238Y-13121476D01*
X11626762Y-13126238D01*
X11645809Y-13126238D01*
X11655333Y-13121476D01*
X11550571Y-13126238D02*
X11560095Y-13121476D01*
X11564857Y-13111952D01*
X11564857Y-13026238D01*
X11474381Y-13121476D02*
X11483905Y-13126238D01*
X11502952Y-13126238D01*
X11512476Y-13121476D01*
X11517238Y-13111952D01*
X11517238Y-13073857D01*
X11512476Y-13064333D01*
X11502952Y-13059571D01*
X11483905Y-13059571D01*
X11474381Y-13064333D01*
X11469619Y-13073857D01*
X11469619Y-13083381D01*
X11517238Y-13092905D01*
X11426762Y-13126238D02*
X11426762Y-13026238D01*
X11379143Y-13059571D02*
X11379143Y-13126238D01*
X11379143Y-13069095D02*
X11374381Y-13064333D01*
X11364857Y-13059571D01*
X11350571Y-13059571D01*
X11341048Y-13064333D01*
X11336286Y-13073857D01*
X11336286Y-13126238D01*
X11245809Y-13126238D02*
X11245809Y-13026238D01*
X11245809Y-13121476D02*
X11255333Y-13126238D01*
X11274381Y-13126238D01*
X11283905Y-13121476D01*
X11288667Y-13116714D01*
X11293428Y-13107190D01*
X11293428Y-13078619D01*
X11288667Y-13069095D01*
X11283905Y-13064333D01*
X11274381Y-13059571D01*
X11255333Y-13059571D01*
X11245809Y-13064333D01*
X11155333Y-13059571D02*
X11155333Y-13126238D01*
X11198190Y-13059571D02*
X11198190Y-13111952D01*
X11193428Y-13121476D01*
X11183905Y-13126238D01*
X11169619Y-13126238D01*
X11160095Y-13121476D01*
X11155333Y-13116714D01*
X11064857Y-13121476D02*
X11074381Y-13126238D01*
X11093429Y-13126238D01*
X11102952Y-13121476D01*
X11107714Y-13116714D01*
X11112476Y-13107190D01*
X11112476Y-13078619D01*
X11107714Y-13069095D01*
X11102952Y-13064333D01*
X11093429Y-13059571D01*
X11074381Y-13059571D01*
X11064857Y-13064333D01*
X11036286Y-13059571D02*
X10998190Y-13059571D01*
X11022000Y-13026238D02*
X11022000Y-13111952D01*
X11017238Y-13121476D01*
X11007714Y-13126238D01*
X10998190Y-13126238D01*
X10964857Y-13126238D02*
X10964857Y-13059571D01*
X10964857Y-13026238D02*
X10969619Y-13031000D01*
X10964857Y-13035762D01*
X10960095Y-13031000D01*
X10964857Y-13026238D01*
X10964857Y-13035762D01*
X10902952Y-13126238D02*
X10912476Y-13121476D01*
X10917238Y-13116714D01*
X10922000Y-13107190D01*
X10922000Y-13078619D01*
X10917238Y-13069095D01*
X10912476Y-13064333D01*
X10902952Y-13059571D01*
X10888667Y-13059571D01*
X10879143Y-13064333D01*
X10874381Y-13069095D01*
X10869619Y-13078619D01*
X10869619Y-13107190D01*
X10874381Y-13116714D01*
X10879143Y-13121476D01*
X10888667Y-13126238D01*
X10902952Y-13126238D01*
X10826762Y-13059571D02*
X10826762Y-13126238D01*
X10826762Y-13069095D02*
X10822000Y-13064333D01*
X10812476Y-13059571D01*
X10798190Y-13059571D01*
X10788667Y-13064333D01*
X10783905Y-13073857D01*
X10783905Y-13126238D01*
X10736286Y-13126238D02*
X10736286Y-13026238D01*
X10736286Y-13073857D02*
X10679143Y-13073857D01*
X10679143Y-13126238D02*
X10679143Y-13026238D01*
X10593429Y-13121476D02*
X10602952Y-13126238D01*
X10622000Y-13126238D01*
X10631524Y-13121476D01*
X10636286Y-13111952D01*
X10636286Y-13073857D01*
X10631524Y-13064333D01*
X10622000Y-13059571D01*
X10602952Y-13059571D01*
X10593429Y-13064333D01*
X10588667Y-13073857D01*
X10588667Y-13083381D01*
X10636286Y-13092905D01*
X10502952Y-13126238D02*
X10502952Y-13073857D01*
X10507714Y-13064333D01*
X10517238Y-13059571D01*
X10536286Y-13059571D01*
X10545810Y-13064333D01*
X10502952Y-13121476D02*
X10512476Y-13126238D01*
X10536286Y-13126238D01*
X10545810Y-13121476D01*
X10550571Y-13111952D01*
X10550571Y-13102428D01*
X10545810Y-13092905D01*
X10536286Y-13088143D01*
X10512476Y-13088143D01*
X10502952Y-13083381D01*
X10469619Y-13059571D02*
X10431524Y-13059571D01*
X10455333Y-13026238D02*
X10455333Y-13111952D01*
X10450571Y-13121476D01*
X10441048Y-13126238D01*
X10431524Y-13126238D01*
X10360095Y-13121476D02*
X10369619Y-13126238D01*
X10388667Y-13126238D01*
X10398190Y-13121476D01*
X10402952Y-13111952D01*
X10402952Y-13073857D01*
X10398190Y-13064333D01*
X10388667Y-13059571D01*
X10369619Y-13059571D01*
X10360095Y-13064333D01*
X10355333Y-13073857D01*
X10355333Y-13083381D01*
X10402952Y-13092905D01*
X10312476Y-13126238D02*
X10312476Y-13059571D01*
X10312476Y-13078619D02*
X10307714Y-13069095D01*
X10302952Y-13064333D01*
X10293429Y-13059571D01*
X10283905Y-13059571D01*
X10174381Y-13088143D02*
X10098190Y-13088143D01*
X9988667Y-13026238D02*
X9955333Y-13126238D01*
X9922000Y-13026238D01*
X9836286Y-13126238D02*
X9893429Y-13126238D01*
X9864857Y-13126238D02*
X9864857Y-13026238D01*
X9874381Y-13040524D01*
X9883905Y-13050048D01*
X9893429Y-13054809D01*
X9793429Y-13116714D02*
X9788667Y-13121476D01*
X9793429Y-13126238D01*
X9798190Y-13121476D01*
X9793429Y-13116714D01*
X9793429Y-13126238D01*
X9726762Y-13026238D02*
X9717238Y-13026238D01*
X9707714Y-13031000D01*
X9702952Y-13035762D01*
X9698190Y-13045286D01*
X9693429Y-13064333D01*
X9693429Y-13088143D01*
X9698190Y-13107190D01*
X9702952Y-13116714D01*
X9707714Y-13121476D01*
X9717238Y-13126238D01*
X9726762Y-13126238D01*
X9736286Y-13121476D01*
X9741048Y-13116714D01*
X9745810Y-13107190D01*
X9750571Y-13088143D01*
X9750571Y-13064333D01*
X9745810Y-13045286D01*
X9741048Y-13035762D01*
X9736286Y-13031000D01*
X9726762Y-13026238D01*
M02*
