G04 #@! TF.GenerationSoftware,KiCad,Pcbnew,(2017-03-23 revision 5aa1610)-master*
G04 #@! TF.CreationDate,2017-05-12T08:57:20+02:00*
G04 #@! TF.ProjectId,aPortableInductionHeater,61506F727461626C65496E6475637469,rev?*
G04 #@! TF.FileFunction,Legend,Top*
G04 #@! TF.FilePolarity,Positive*
%FSLAX46Y46*%
G04 Gerber Fmt 4.6, Leading zero omitted, Abs format (unit mm)*
G04 Created by KiCad (PCBNEW (2017-03-23 revision 5aa1610)-master) date 2017 May 12, Friday 08:57:20*
%MOMM*%
%LPD*%
G01*
G04 APERTURE LIST*
%ADD10C,0.100000*%
%ADD11C,0.125000*%
%ADD12C,0.121920*%
%ADD13C,0.150000*%
%ADD14C,0.203200*%
%ADD15C,0.120000*%
%ADD16C,0.152400*%
%ADD17C,0.101600*%
%ADD18C,0.115824*%
%ADD19C,0.120650*%
%ADD20C,0.092659*%
G04 APERTURE END LIST*
D10*
D11*
X243304190Y-108012761D02*
X243042285Y-108012761D01*
X242994666Y-108036571D01*
X242970857Y-108084190D01*
X242970857Y-108179428D01*
X242994666Y-108227047D01*
X243280380Y-108012761D02*
X243304190Y-108060380D01*
X243304190Y-108179428D01*
X243280380Y-108227047D01*
X243232761Y-108250857D01*
X243185142Y-108250857D01*
X243137523Y-108227047D01*
X243113714Y-108179428D01*
X243113714Y-108060380D01*
X243089904Y-108012761D01*
X243304190Y-107774666D02*
X242804190Y-107774666D01*
X242804190Y-107584190D01*
X242828000Y-107536571D01*
X242851809Y-107512761D01*
X242899428Y-107488952D01*
X242970857Y-107488952D01*
X243018476Y-107512761D01*
X243042285Y-107536571D01*
X243066095Y-107584190D01*
X243066095Y-107774666D01*
X243304190Y-107203238D02*
X243280380Y-107250857D01*
X243256571Y-107274666D01*
X243208952Y-107298476D01*
X243066095Y-107298476D01*
X243018476Y-107274666D01*
X242994666Y-107250857D01*
X242970857Y-107203238D01*
X242970857Y-107131809D01*
X242994666Y-107084190D01*
X243018476Y-107060380D01*
X243066095Y-107036571D01*
X243208952Y-107036571D01*
X243256571Y-107060380D01*
X243280380Y-107084190D01*
X243304190Y-107131809D01*
X243304190Y-107203238D01*
X243304190Y-106822285D02*
X242970857Y-106822285D01*
X243066095Y-106822285D02*
X243018476Y-106798476D01*
X242994666Y-106774666D01*
X242970857Y-106727047D01*
X242970857Y-106679428D01*
X242970857Y-106584190D02*
X242970857Y-106393714D01*
X242804190Y-106512761D02*
X243232761Y-106512761D01*
X243280380Y-106488952D01*
X243304190Y-106441333D01*
X243304190Y-106393714D01*
X243304190Y-106012761D02*
X243042285Y-106012761D01*
X242994666Y-106036571D01*
X242970857Y-106084190D01*
X242970857Y-106179428D01*
X242994666Y-106227047D01*
X243280380Y-106012761D02*
X243304190Y-106060380D01*
X243304190Y-106179428D01*
X243280380Y-106227047D01*
X243232761Y-106250857D01*
X243185142Y-106250857D01*
X243137523Y-106227047D01*
X243113714Y-106179428D01*
X243113714Y-106060380D01*
X243089904Y-106012761D01*
X243304190Y-105774666D02*
X242804190Y-105774666D01*
X242994666Y-105774666D02*
X242970857Y-105727047D01*
X242970857Y-105631809D01*
X242994666Y-105584190D01*
X243018476Y-105560380D01*
X243066095Y-105536571D01*
X243208952Y-105536571D01*
X243256571Y-105560380D01*
X243280380Y-105584190D01*
X243304190Y-105631809D01*
X243304190Y-105727047D01*
X243280380Y-105774666D01*
X243304190Y-105250857D02*
X243280380Y-105298476D01*
X243232761Y-105322285D01*
X242804190Y-105322285D01*
X243280380Y-104869904D02*
X243304190Y-104917523D01*
X243304190Y-105012761D01*
X243280380Y-105060380D01*
X243232761Y-105084190D01*
X243042285Y-105084190D01*
X242994666Y-105060380D01*
X242970857Y-105012761D01*
X242970857Y-104917523D01*
X242994666Y-104869904D01*
X243042285Y-104846095D01*
X243089904Y-104846095D01*
X243137523Y-105084190D01*
X243304190Y-104631809D02*
X242804190Y-104631809D01*
X242970857Y-104393714D02*
X243304190Y-104393714D01*
X243018476Y-104393714D02*
X242994666Y-104369904D01*
X242970857Y-104322285D01*
X242970857Y-104250857D01*
X242994666Y-104203238D01*
X243042285Y-104179428D01*
X243304190Y-104179428D01*
X243304190Y-103727047D02*
X242804190Y-103727047D01*
X243280380Y-103727047D02*
X243304190Y-103774666D01*
X243304190Y-103869904D01*
X243280380Y-103917523D01*
X243256571Y-103941333D01*
X243208952Y-103965142D01*
X243066095Y-103965142D01*
X243018476Y-103941333D01*
X242994666Y-103917523D01*
X242970857Y-103869904D01*
X242970857Y-103774666D01*
X242994666Y-103727047D01*
X242970857Y-103274666D02*
X243304190Y-103274666D01*
X242970857Y-103488952D02*
X243232761Y-103488952D01*
X243280380Y-103465142D01*
X243304190Y-103417523D01*
X243304190Y-103346095D01*
X243280380Y-103298476D01*
X243256571Y-103274666D01*
X243280380Y-102822285D02*
X243304190Y-102869904D01*
X243304190Y-102965142D01*
X243280380Y-103012761D01*
X243256571Y-103036571D01*
X243208952Y-103060380D01*
X243066095Y-103060380D01*
X243018476Y-103036571D01*
X242994666Y-103012761D01*
X242970857Y-102965142D01*
X242970857Y-102869904D01*
X242994666Y-102822285D01*
X242970857Y-102679428D02*
X242970857Y-102488952D01*
X242804190Y-102608000D02*
X243232761Y-102608000D01*
X243280380Y-102584190D01*
X243304190Y-102536571D01*
X243304190Y-102488952D01*
X243304190Y-102322285D02*
X242970857Y-102322285D01*
X242804190Y-102322285D02*
X242828000Y-102346095D01*
X242851809Y-102322285D01*
X242828000Y-102298476D01*
X242804190Y-102322285D01*
X242851809Y-102322285D01*
X243304190Y-102012761D02*
X243280380Y-102060380D01*
X243256571Y-102084190D01*
X243208952Y-102108000D01*
X243066095Y-102108000D01*
X243018476Y-102084190D01*
X242994666Y-102060380D01*
X242970857Y-102012761D01*
X242970857Y-101941333D01*
X242994666Y-101893714D01*
X243018476Y-101869904D01*
X243066095Y-101846095D01*
X243208952Y-101846095D01*
X243256571Y-101869904D01*
X243280380Y-101893714D01*
X243304190Y-101941333D01*
X243304190Y-102012761D01*
X242970857Y-101631809D02*
X243304190Y-101631809D01*
X243018476Y-101631809D02*
X242994666Y-101608000D01*
X242970857Y-101560380D01*
X242970857Y-101488952D01*
X242994666Y-101441333D01*
X243042285Y-101417523D01*
X243304190Y-101417523D01*
X243304190Y-101179428D02*
X242804190Y-101179428D01*
X243042285Y-101179428D02*
X243042285Y-100893714D01*
X243304190Y-100893714D02*
X242804190Y-100893714D01*
X243280380Y-100465142D02*
X243304190Y-100512761D01*
X243304190Y-100608000D01*
X243280380Y-100655619D01*
X243232761Y-100679428D01*
X243042285Y-100679428D01*
X242994666Y-100655619D01*
X242970857Y-100608000D01*
X242970857Y-100512761D01*
X242994666Y-100465142D01*
X243042285Y-100441333D01*
X243089904Y-100441333D01*
X243137523Y-100679428D01*
X243304190Y-100012761D02*
X243042285Y-100012761D01*
X242994666Y-100036571D01*
X242970857Y-100084190D01*
X242970857Y-100179428D01*
X242994666Y-100227047D01*
X243280380Y-100012761D02*
X243304190Y-100060380D01*
X243304190Y-100179428D01*
X243280380Y-100227047D01*
X243232761Y-100250857D01*
X243185142Y-100250857D01*
X243137523Y-100227047D01*
X243113714Y-100179428D01*
X243113714Y-100060380D01*
X243089904Y-100012761D01*
X242970857Y-99846095D02*
X242970857Y-99655619D01*
X242804190Y-99774666D02*
X243232761Y-99774666D01*
X243280380Y-99750857D01*
X243304190Y-99703238D01*
X243304190Y-99655619D01*
X243280380Y-99298476D02*
X243304190Y-99346095D01*
X243304190Y-99441333D01*
X243280380Y-99488952D01*
X243232761Y-99512761D01*
X243042285Y-99512761D01*
X242994666Y-99488952D01*
X242970857Y-99441333D01*
X242970857Y-99346095D01*
X242994666Y-99298476D01*
X243042285Y-99274666D01*
X243089904Y-99274666D01*
X243137523Y-99512761D01*
X243304190Y-99060380D02*
X242970857Y-99060380D01*
X243066095Y-99060380D02*
X243018476Y-99036571D01*
X242994666Y-99012761D01*
X242970857Y-98965142D01*
X242970857Y-98917523D01*
X243113714Y-98369904D02*
X243113714Y-97988952D01*
X242804190Y-97441333D02*
X243304190Y-97274666D01*
X242804190Y-97108000D01*
X243304190Y-96679428D02*
X243304190Y-96965142D01*
X243304190Y-96822285D02*
X242804190Y-96822285D01*
X242875619Y-96869904D01*
X242923238Y-96917523D01*
X242947047Y-96965142D01*
X243256571Y-96465142D02*
X243280380Y-96441333D01*
X243304190Y-96465142D01*
X243280380Y-96488952D01*
X243256571Y-96465142D01*
X243304190Y-96465142D01*
X242804190Y-96131809D02*
X242804190Y-96084190D01*
X242828000Y-96036571D01*
X242851809Y-96012761D01*
X242899428Y-95988952D01*
X242994666Y-95965142D01*
X243113714Y-95965142D01*
X243208952Y-95988952D01*
X243256571Y-96012761D01*
X243280380Y-96036571D01*
X243304190Y-96084190D01*
X243304190Y-96131809D01*
X243280380Y-96179428D01*
X243256571Y-96203238D01*
X243208952Y-96227047D01*
X243113714Y-96250857D01*
X242994666Y-96250857D01*
X242899428Y-96227047D01*
X242851809Y-96203238D01*
X242828000Y-96179428D01*
X242804190Y-96131809D01*
D12*
X176328638Y-130606800D02*
X176236714Y-130560838D01*
X176098828Y-130560838D01*
X175960943Y-130606800D01*
X175869019Y-130698723D01*
X175823057Y-130790647D01*
X175777095Y-130974495D01*
X175777095Y-131112380D01*
X175823057Y-131296228D01*
X175869019Y-131388152D01*
X175960943Y-131480076D01*
X176098828Y-131526038D01*
X176190752Y-131526038D01*
X176328638Y-131480076D01*
X176374600Y-131434114D01*
X176374600Y-131112380D01*
X176190752Y-131112380D01*
X176788257Y-131526038D02*
X176788257Y-130560838D01*
X177339800Y-131526038D01*
X177339800Y-130560838D01*
X177799419Y-131526038D02*
X177799419Y-130560838D01*
X178029228Y-130560838D01*
X178167114Y-130606800D01*
X178259038Y-130698723D01*
X178305000Y-130790647D01*
X178350962Y-130974495D01*
X178350962Y-131112380D01*
X178305000Y-131296228D01*
X178259038Y-131388152D01*
X178167114Y-131480076D01*
X178029228Y-131526038D01*
X177799419Y-131526038D01*
D11*
X245288571Y-108481047D02*
X245312380Y-108504857D01*
X245336190Y-108576285D01*
X245336190Y-108623904D01*
X245312380Y-108695333D01*
X245264761Y-108742952D01*
X245217142Y-108766761D01*
X245121904Y-108790571D01*
X245050476Y-108790571D01*
X244955238Y-108766761D01*
X244907619Y-108742952D01*
X244860000Y-108695333D01*
X244836190Y-108623904D01*
X244836190Y-108576285D01*
X244860000Y-108504857D01*
X244883809Y-108481047D01*
X245336190Y-108195333D02*
X245312380Y-108242952D01*
X245288571Y-108266761D01*
X245240952Y-108290571D01*
X245098095Y-108290571D01*
X245050476Y-108266761D01*
X245026666Y-108242952D01*
X245002857Y-108195333D01*
X245002857Y-108123904D01*
X245026666Y-108076285D01*
X245050476Y-108052476D01*
X245098095Y-108028666D01*
X245240952Y-108028666D01*
X245288571Y-108052476D01*
X245312380Y-108076285D01*
X245336190Y-108123904D01*
X245336190Y-108195333D01*
X245002857Y-107814380D02*
X245502857Y-107814380D01*
X245026666Y-107814380D02*
X245002857Y-107766761D01*
X245002857Y-107671523D01*
X245026666Y-107623904D01*
X245050476Y-107600095D01*
X245098095Y-107576285D01*
X245240952Y-107576285D01*
X245288571Y-107600095D01*
X245312380Y-107623904D01*
X245336190Y-107671523D01*
X245336190Y-107766761D01*
X245312380Y-107814380D01*
X245002857Y-107409619D02*
X245336190Y-107290571D01*
X245002857Y-107171523D02*
X245336190Y-107290571D01*
X245455238Y-107338190D01*
X245479047Y-107362000D01*
X245502857Y-107409619D01*
X245336190Y-106981047D02*
X245002857Y-106981047D01*
X245098095Y-106981047D02*
X245050476Y-106957238D01*
X245026666Y-106933428D01*
X245002857Y-106885809D01*
X245002857Y-106838190D01*
X245336190Y-106671523D02*
X245002857Y-106671523D01*
X244836190Y-106671523D02*
X244860000Y-106695333D01*
X244883809Y-106671523D01*
X244860000Y-106647714D01*
X244836190Y-106671523D01*
X244883809Y-106671523D01*
X245002857Y-106219142D02*
X245407619Y-106219142D01*
X245455238Y-106242952D01*
X245479047Y-106266761D01*
X245502857Y-106314380D01*
X245502857Y-106385809D01*
X245479047Y-106433428D01*
X245312380Y-106219142D02*
X245336190Y-106266761D01*
X245336190Y-106362000D01*
X245312380Y-106409619D01*
X245288571Y-106433428D01*
X245240952Y-106457238D01*
X245098095Y-106457238D01*
X245050476Y-106433428D01*
X245026666Y-106409619D01*
X245002857Y-106362000D01*
X245002857Y-106266761D01*
X245026666Y-106219142D01*
X245336190Y-105981047D02*
X244836190Y-105981047D01*
X245336190Y-105766761D02*
X245074285Y-105766761D01*
X245026666Y-105790571D01*
X245002857Y-105838190D01*
X245002857Y-105909619D01*
X245026666Y-105957238D01*
X245050476Y-105981047D01*
X245002857Y-105600095D02*
X245002857Y-105409619D01*
X244836190Y-105528666D02*
X245264761Y-105528666D01*
X245312380Y-105504857D01*
X245336190Y-105457238D01*
X245336190Y-105409619D01*
X245526666Y-104719142D02*
X245502857Y-104742952D01*
X245431428Y-104790571D01*
X245383809Y-104814380D01*
X245312380Y-104838190D01*
X245193333Y-104862000D01*
X245098095Y-104862000D01*
X244979047Y-104838190D01*
X244907619Y-104814380D01*
X244860000Y-104790571D01*
X244788571Y-104742952D01*
X244764761Y-104719142D01*
X245288571Y-104242952D02*
X245312380Y-104266761D01*
X245336190Y-104338190D01*
X245336190Y-104385809D01*
X245312380Y-104457238D01*
X245264761Y-104504857D01*
X245217142Y-104528666D01*
X245121904Y-104552476D01*
X245050476Y-104552476D01*
X244955238Y-104528666D01*
X244907619Y-104504857D01*
X244860000Y-104457238D01*
X244836190Y-104385809D01*
X244836190Y-104338190D01*
X244860000Y-104266761D01*
X244883809Y-104242952D01*
X245526666Y-104076285D02*
X245502857Y-104052476D01*
X245431428Y-104004857D01*
X245383809Y-103981047D01*
X245312380Y-103957238D01*
X245193333Y-103933428D01*
X245098095Y-103933428D01*
X244979047Y-103957238D01*
X244907619Y-103981047D01*
X244860000Y-104004857D01*
X244788571Y-104052476D01*
X244764761Y-104076285D01*
X245336190Y-103314380D02*
X244836190Y-103314380D01*
X244836190Y-103195333D01*
X244860000Y-103123904D01*
X244907619Y-103076285D01*
X244955238Y-103052476D01*
X245050476Y-103028666D01*
X245121904Y-103028666D01*
X245217142Y-103052476D01*
X245264761Y-103076285D01*
X245312380Y-103123904D01*
X245336190Y-103195333D01*
X245336190Y-103314380D01*
X245074285Y-102814380D02*
X245074285Y-102647714D01*
X245336190Y-102576285D02*
X245336190Y-102814380D01*
X244836190Y-102814380D01*
X244836190Y-102576285D01*
X245336190Y-102123904D02*
X245336190Y-102362000D01*
X244836190Y-102362000D01*
X244836190Y-101862000D02*
X244836190Y-101766761D01*
X244860000Y-101719142D01*
X244907619Y-101671523D01*
X245002857Y-101647714D01*
X245169523Y-101647714D01*
X245264761Y-101671523D01*
X245312380Y-101719142D01*
X245336190Y-101766761D01*
X245336190Y-101862000D01*
X245312380Y-101909619D01*
X245264761Y-101957238D01*
X245169523Y-101981047D01*
X245002857Y-101981047D01*
X244907619Y-101957238D01*
X244860000Y-101909619D01*
X244836190Y-101862000D01*
X244836190Y-101433428D02*
X245240952Y-101433428D01*
X245288571Y-101409619D01*
X245312380Y-101385809D01*
X245336190Y-101338190D01*
X245336190Y-101242952D01*
X245312380Y-101195333D01*
X245288571Y-101171523D01*
X245240952Y-101147714D01*
X244836190Y-101147714D01*
X245288571Y-100623904D02*
X245312380Y-100647714D01*
X245336190Y-100719142D01*
X245336190Y-100766761D01*
X245312380Y-100838190D01*
X245264761Y-100885809D01*
X245217142Y-100909619D01*
X245121904Y-100933428D01*
X245050476Y-100933428D01*
X244955238Y-100909619D01*
X244907619Y-100885809D01*
X244860000Y-100838190D01*
X244836190Y-100766761D01*
X244836190Y-100719142D01*
X244860000Y-100647714D01*
X244883809Y-100623904D01*
X245336190Y-100409619D02*
X244836190Y-100409619D01*
X245074285Y-100409619D02*
X245074285Y-100123904D01*
X245336190Y-100123904D02*
X244836190Y-100123904D01*
X245074285Y-99885809D02*
X245074285Y-99719142D01*
X245336190Y-99647714D02*
X245336190Y-99885809D01*
X244836190Y-99885809D01*
X244836190Y-99647714D01*
X245145714Y-99433428D02*
X245145714Y-99052476D01*
X244836190Y-98885809D02*
X245336190Y-98719142D01*
X244836190Y-98552476D01*
X245336190Y-98385809D02*
X244836190Y-98385809D01*
X245336190Y-97909619D02*
X245336190Y-98147714D01*
X244836190Y-98147714D01*
X245336190Y-97742952D02*
X244836190Y-97742952D01*
X244836190Y-97552476D01*
X244860000Y-97504857D01*
X244883809Y-97481047D01*
X244931428Y-97457238D01*
X245002857Y-97457238D01*
X245050476Y-97481047D01*
X245074285Y-97504857D01*
X245098095Y-97552476D01*
X245098095Y-97742952D01*
X244836190Y-97147714D02*
X244836190Y-97052476D01*
X244860000Y-97004857D01*
X244907619Y-96957238D01*
X245002857Y-96933428D01*
X245169523Y-96933428D01*
X245264761Y-96957238D01*
X245312380Y-97004857D01*
X245336190Y-97052476D01*
X245336190Y-97147714D01*
X245312380Y-97195333D01*
X245264761Y-97242952D01*
X245169523Y-97266761D01*
X245002857Y-97266761D01*
X244907619Y-97242952D01*
X244860000Y-97195333D01*
X244836190Y-97147714D01*
X244836190Y-96719142D02*
X245240952Y-96719142D01*
X245288571Y-96695333D01*
X245312380Y-96671523D01*
X245336190Y-96623904D01*
X245336190Y-96528666D01*
X245312380Y-96481047D01*
X245288571Y-96457238D01*
X245240952Y-96433428D01*
X244836190Y-96433428D01*
X244836190Y-96242952D02*
X245336190Y-95909619D01*
X244836190Y-95909619D02*
X245336190Y-96242952D01*
D12*
X239323057Y-113238038D02*
X239323057Y-112272838D01*
X239323057Y-112732457D02*
X239874600Y-112732457D01*
X239874600Y-113238038D02*
X239874600Y-112272838D01*
X240288257Y-113192076D02*
X240426143Y-113238038D01*
X240655952Y-113238038D01*
X240747876Y-113192076D01*
X240793838Y-113146114D01*
X240839800Y-113054190D01*
X240839800Y-112962266D01*
X240793838Y-112870342D01*
X240747876Y-112824380D01*
X240655952Y-112778419D01*
X240472105Y-112732457D01*
X240380181Y-112686495D01*
X240334219Y-112640533D01*
X240288257Y-112548609D01*
X240288257Y-112456685D01*
X240334219Y-112364761D01*
X240380181Y-112318800D01*
X240472105Y-112272838D01*
X240701914Y-112272838D01*
X240839800Y-112318800D01*
X241207495Y-112364761D02*
X241253457Y-112318800D01*
X241345381Y-112272838D01*
X241575190Y-112272838D01*
X241667114Y-112318800D01*
X241713076Y-112364761D01*
X241759038Y-112456685D01*
X241759038Y-112548609D01*
X241713076Y-112686495D01*
X241161533Y-113238038D01*
X241759038Y-113238038D01*
X239323057Y-126192038D02*
X239323057Y-125226838D01*
X239323057Y-125686457D02*
X239874600Y-125686457D01*
X239874600Y-126192038D02*
X239874600Y-125226838D01*
X240288257Y-126146076D02*
X240426143Y-126192038D01*
X240655952Y-126192038D01*
X240747876Y-126146076D01*
X240793838Y-126100114D01*
X240839800Y-126008190D01*
X240839800Y-125916266D01*
X240793838Y-125824342D01*
X240747876Y-125778380D01*
X240655952Y-125732419D01*
X240472105Y-125686457D01*
X240380181Y-125640495D01*
X240334219Y-125594533D01*
X240288257Y-125502609D01*
X240288257Y-125410685D01*
X240334219Y-125318761D01*
X240380181Y-125272800D01*
X240472105Y-125226838D01*
X240701914Y-125226838D01*
X240839800Y-125272800D01*
X241759038Y-126192038D02*
X241207495Y-126192038D01*
X241483267Y-126192038D02*
X241483267Y-125226838D01*
X241391343Y-125364723D01*
X241299419Y-125456647D01*
X241207495Y-125502609D01*
X163120638Y-103682800D02*
X163028714Y-103636838D01*
X162890828Y-103636838D01*
X162752943Y-103682800D01*
X162661019Y-103774723D01*
X162615057Y-103866647D01*
X162569095Y-104050495D01*
X162569095Y-104188380D01*
X162615057Y-104372228D01*
X162661019Y-104464152D01*
X162752943Y-104556076D01*
X162890828Y-104602038D01*
X162982752Y-104602038D01*
X163120638Y-104556076D01*
X163166600Y-104510114D01*
X163166600Y-104188380D01*
X162982752Y-104188380D01*
X163580257Y-104602038D02*
X163580257Y-103636838D01*
X164131800Y-104602038D01*
X164131800Y-103636838D01*
X164591419Y-104602038D02*
X164591419Y-103636838D01*
X164821228Y-103636838D01*
X164959114Y-103682800D01*
X165051038Y-103774723D01*
X165097000Y-103866647D01*
X165142962Y-104050495D01*
X165142962Y-104188380D01*
X165097000Y-104372228D01*
X165051038Y-104464152D01*
X164959114Y-104556076D01*
X164821228Y-104602038D01*
X164591419Y-104602038D01*
X173653171Y-105160838D02*
X173974905Y-106126038D01*
X174296638Y-105160838D01*
X175169914Y-106034114D02*
X175123952Y-106080076D01*
X174986067Y-106126038D01*
X174894143Y-106126038D01*
X174756257Y-106080076D01*
X174664333Y-105988152D01*
X174618371Y-105896228D01*
X174572409Y-105712380D01*
X174572409Y-105574495D01*
X174618371Y-105390647D01*
X174664333Y-105298723D01*
X174756257Y-105206800D01*
X174894143Y-105160838D01*
X174986067Y-105160838D01*
X175123952Y-105206800D01*
X175169914Y-105252761D01*
X176135114Y-106034114D02*
X176089152Y-106080076D01*
X175951267Y-106126038D01*
X175859343Y-106126038D01*
X175721457Y-106080076D01*
X175629533Y-105988152D01*
X175583571Y-105896228D01*
X175537609Y-105712380D01*
X175537609Y-105574495D01*
X175583571Y-105390647D01*
X175629533Y-105298723D01*
X175721457Y-105206800D01*
X175859343Y-105160838D01*
X175951267Y-105160838D01*
X176089152Y-105206800D01*
X176135114Y-105252761D01*
X165017171Y-129036838D02*
X165338905Y-130002038D01*
X165660638Y-129036838D01*
X166533914Y-129910114D02*
X166487952Y-129956076D01*
X166350067Y-130002038D01*
X166258143Y-130002038D01*
X166120257Y-129956076D01*
X166028333Y-129864152D01*
X165982371Y-129772228D01*
X165936409Y-129588380D01*
X165936409Y-129450495D01*
X165982371Y-129266647D01*
X166028333Y-129174723D01*
X166120257Y-129082800D01*
X166258143Y-129036838D01*
X166350067Y-129036838D01*
X166487952Y-129082800D01*
X166533914Y-129128761D01*
X167499114Y-129910114D02*
X167453152Y-129956076D01*
X167315267Y-130002038D01*
X167223343Y-130002038D01*
X167085457Y-129956076D01*
X166993533Y-129864152D01*
X166947571Y-129772228D01*
X166901609Y-129588380D01*
X166901609Y-129450495D01*
X166947571Y-129266647D01*
X166993533Y-129174723D01*
X167085457Y-129082800D01*
X167223343Y-129036838D01*
X167315267Y-129036838D01*
X167453152Y-129082800D01*
X167499114Y-129128761D01*
X149434828Y-119883161D02*
X149113094Y-118917961D01*
X148791361Y-119883161D01*
X147918085Y-119009885D02*
X147964047Y-118963923D01*
X148101932Y-118917961D01*
X148193856Y-118917961D01*
X148331742Y-118963923D01*
X148423666Y-119055847D01*
X148469628Y-119147771D01*
X148515590Y-119331619D01*
X148515590Y-119469504D01*
X148469628Y-119653352D01*
X148423666Y-119745276D01*
X148331742Y-119837200D01*
X148193856Y-119883161D01*
X148101932Y-119883161D01*
X147964047Y-119837200D01*
X147918085Y-119791238D01*
X146952885Y-119009885D02*
X146998847Y-118963923D01*
X147136732Y-118917961D01*
X147228656Y-118917961D01*
X147366542Y-118963923D01*
X147458466Y-119055847D01*
X147504428Y-119147771D01*
X147550390Y-119331619D01*
X147550390Y-119469504D01*
X147504428Y-119653352D01*
X147458466Y-119745276D01*
X147366542Y-119837200D01*
X147228656Y-119883161D01*
X147136732Y-119883161D01*
X146998847Y-119837200D01*
X146952885Y-119791238D01*
X239828638Y-130352800D02*
X239736714Y-130306838D01*
X239598828Y-130306838D01*
X239460943Y-130352800D01*
X239369019Y-130444723D01*
X239323057Y-130536647D01*
X239277095Y-130720495D01*
X239277095Y-130858380D01*
X239323057Y-131042228D01*
X239369019Y-131134152D01*
X239460943Y-131226076D01*
X239598828Y-131272038D01*
X239690752Y-131272038D01*
X239828638Y-131226076D01*
X239874600Y-131180114D01*
X239874600Y-130858380D01*
X239690752Y-130858380D01*
X240288257Y-131272038D02*
X240288257Y-130306838D01*
X240839800Y-131272038D01*
X240839800Y-130306838D01*
X241299419Y-131272038D02*
X241299419Y-130306838D01*
X241529228Y-130306838D01*
X241667114Y-130352800D01*
X241759038Y-130444723D01*
X241805000Y-130536647D01*
X241850962Y-130720495D01*
X241850962Y-130858380D01*
X241805000Y-131042228D01*
X241759038Y-131134152D01*
X241667114Y-131226076D01*
X241529228Y-131272038D01*
X241299419Y-131272038D01*
X239439171Y-143260838D02*
X239760905Y-144226038D01*
X240082638Y-143260838D01*
X240955914Y-144134114D02*
X240909952Y-144180076D01*
X240772067Y-144226038D01*
X240680143Y-144226038D01*
X240542257Y-144180076D01*
X240450333Y-144088152D01*
X240404371Y-143996228D01*
X240358409Y-143812380D01*
X240358409Y-143674495D01*
X240404371Y-143490647D01*
X240450333Y-143398723D01*
X240542257Y-143306800D01*
X240680143Y-143260838D01*
X240772067Y-143260838D01*
X240909952Y-143306800D01*
X240955914Y-143352761D01*
X241921114Y-144134114D02*
X241875152Y-144180076D01*
X241737267Y-144226038D01*
X241645343Y-144226038D01*
X241507457Y-144180076D01*
X241415533Y-144088152D01*
X241369571Y-143996228D01*
X241323609Y-143812380D01*
X241323609Y-143674495D01*
X241369571Y-143490647D01*
X241415533Y-143398723D01*
X241507457Y-143306800D01*
X241645343Y-143260838D01*
X241737267Y-143260838D01*
X241875152Y-143306800D01*
X241921114Y-143352761D01*
X136434866Y-125217161D02*
X135837361Y-125217161D01*
X136159094Y-124849466D01*
X136021209Y-124849466D01*
X135929285Y-124803504D01*
X135883323Y-124757542D01*
X135837361Y-124665619D01*
X135837361Y-124435809D01*
X135883323Y-124343885D01*
X135929285Y-124297923D01*
X136021209Y-124251961D01*
X136296980Y-124251961D01*
X136388904Y-124297923D01*
X136434866Y-124343885D01*
X135561590Y-125217161D02*
X135239856Y-124251961D01*
X134918123Y-125217161D01*
X134688313Y-125217161D02*
X134090809Y-125217161D01*
X134412542Y-124849466D01*
X134274656Y-124849466D01*
X134182732Y-124803504D01*
X134136771Y-124757542D01*
X134090809Y-124665619D01*
X134090809Y-124435809D01*
X134136771Y-124343885D01*
X134182732Y-124297923D01*
X134274656Y-124251961D01*
X134550428Y-124251961D01*
X134642352Y-124297923D01*
X134688313Y-124343885D01*
X149045361Y-124409200D02*
X149137285Y-124455161D01*
X149275171Y-124455161D01*
X149413056Y-124409200D01*
X149504980Y-124317276D01*
X149550942Y-124225352D01*
X149596904Y-124041504D01*
X149596904Y-123903619D01*
X149550942Y-123719771D01*
X149504980Y-123627847D01*
X149413056Y-123535923D01*
X149275171Y-123489961D01*
X149183247Y-123489961D01*
X149045361Y-123535923D01*
X148999399Y-123581885D01*
X148999399Y-123903619D01*
X149183247Y-123903619D01*
X148585742Y-123489961D02*
X148585742Y-124455161D01*
X148034199Y-123489961D01*
X148034199Y-124455161D01*
X147574580Y-123489961D02*
X147574580Y-124455161D01*
X147344771Y-124455161D01*
X147206885Y-124409200D01*
X147114961Y-124317276D01*
X147068999Y-124225352D01*
X147023037Y-124041504D01*
X147023037Y-123903619D01*
X147068999Y-123719771D01*
X147114961Y-123627847D01*
X147206885Y-123535923D01*
X147344771Y-123489961D01*
X147574580Y-123489961D01*
X96826638Y-137972800D02*
X96734714Y-137926838D01*
X96596828Y-137926838D01*
X96458943Y-137972800D01*
X96367019Y-138064723D01*
X96321057Y-138156647D01*
X96275095Y-138340495D01*
X96275095Y-138478380D01*
X96321057Y-138662228D01*
X96367019Y-138754152D01*
X96458943Y-138846076D01*
X96596828Y-138892038D01*
X96688752Y-138892038D01*
X96826638Y-138846076D01*
X96872600Y-138800114D01*
X96872600Y-138478380D01*
X96688752Y-138478380D01*
X97286257Y-138892038D02*
X97286257Y-137926838D01*
X97837800Y-138892038D01*
X97837800Y-137926838D01*
X98297419Y-138892038D02*
X98297419Y-137926838D01*
X98527228Y-137926838D01*
X98665114Y-137972800D01*
X98757038Y-138064723D01*
X98803000Y-138156647D01*
X98848962Y-138340495D01*
X98848962Y-138478380D01*
X98803000Y-138662228D01*
X98757038Y-138754152D01*
X98665114Y-138846076D01*
X98527228Y-138892038D01*
X98297419Y-138892038D01*
X118064038Y-102309361D02*
X118064038Y-102860904D01*
X118064038Y-102585132D02*
X117098838Y-102585132D01*
X117236723Y-102677056D01*
X117328647Y-102768980D01*
X117374609Y-102860904D01*
X117098838Y-101711856D02*
X117098838Y-101619932D01*
X117144800Y-101528009D01*
X117190761Y-101482047D01*
X117282685Y-101436085D01*
X117466533Y-101390123D01*
X117696342Y-101390123D01*
X117880190Y-101436085D01*
X117972114Y-101482047D01*
X118018076Y-101528009D01*
X118064038Y-101619932D01*
X118064038Y-101711856D01*
X118018076Y-101803780D01*
X117972114Y-101849742D01*
X117880190Y-101895704D01*
X117696342Y-101941666D01*
X117466533Y-101941666D01*
X117282685Y-101895704D01*
X117190761Y-101849742D01*
X117144800Y-101803780D01*
X117098838Y-101711856D01*
X88817776Y-139930438D02*
X88358157Y-139930438D01*
X88312195Y-140390057D01*
X88358157Y-140344095D01*
X88450081Y-140298133D01*
X88679890Y-140298133D01*
X88771814Y-140344095D01*
X88817776Y-140390057D01*
X88863738Y-140481980D01*
X88863738Y-140711790D01*
X88817776Y-140803714D01*
X88771814Y-140849676D01*
X88679890Y-140895638D01*
X88450081Y-140895638D01*
X88358157Y-140849676D01*
X88312195Y-140803714D01*
X89139509Y-139930438D02*
X89461243Y-140895638D01*
X89782976Y-139930438D01*
X88266233Y-142470438D02*
X88863738Y-142470438D01*
X88542005Y-142838133D01*
X88679890Y-142838133D01*
X88771814Y-142884095D01*
X88817776Y-142930057D01*
X88863738Y-143021980D01*
X88863738Y-143251790D01*
X88817776Y-143343714D01*
X88771814Y-143389676D01*
X88679890Y-143435638D01*
X88404119Y-143435638D01*
X88312195Y-143389676D01*
X88266233Y-143343714D01*
X89139509Y-142470438D02*
X89461243Y-143435638D01*
X89782976Y-142470438D01*
X90012786Y-142470438D02*
X90610290Y-142470438D01*
X90288557Y-142838133D01*
X90426443Y-142838133D01*
X90518367Y-142884095D01*
X90564328Y-142930057D01*
X90610290Y-143021980D01*
X90610290Y-143251790D01*
X90564328Y-143343714D01*
X90518367Y-143389676D01*
X90426443Y-143435638D01*
X90150671Y-143435638D01*
X90058748Y-143389676D01*
X90012786Y-143343714D01*
X91492638Y-95554800D02*
X91400714Y-95508838D01*
X91262828Y-95508838D01*
X91124943Y-95554800D01*
X91033019Y-95646723D01*
X90987057Y-95738647D01*
X90941095Y-95922495D01*
X90941095Y-96060380D01*
X90987057Y-96244228D01*
X91033019Y-96336152D01*
X91124943Y-96428076D01*
X91262828Y-96474038D01*
X91354752Y-96474038D01*
X91492638Y-96428076D01*
X91538600Y-96382114D01*
X91538600Y-96060380D01*
X91354752Y-96060380D01*
X91952257Y-96474038D02*
X91952257Y-95508838D01*
X92503800Y-96474038D01*
X92503800Y-95508838D01*
X92963419Y-96474038D02*
X92963419Y-95508838D01*
X93193228Y-95508838D01*
X93331114Y-95554800D01*
X93423038Y-95646723D01*
X93469000Y-95738647D01*
X93514962Y-95922495D01*
X93514962Y-96060380D01*
X93469000Y-96244228D01*
X93423038Y-96336152D01*
X93331114Y-96428076D01*
X93193228Y-96474038D01*
X92963419Y-96474038D01*
X122339100Y-101063019D02*
X122293138Y-101154943D01*
X122293138Y-101292828D01*
X122339100Y-101430714D01*
X122431023Y-101522638D01*
X122522947Y-101568600D01*
X122706795Y-101614562D01*
X122844680Y-101614562D01*
X123028528Y-101568600D01*
X123120452Y-101522638D01*
X123212376Y-101430714D01*
X123258338Y-101292828D01*
X123258338Y-101200905D01*
X123212376Y-101063019D01*
X123166414Y-101017057D01*
X122844680Y-101017057D01*
X122844680Y-101200905D01*
X123258338Y-100603400D02*
X122293138Y-100603400D01*
X123258338Y-100051857D01*
X122293138Y-100051857D01*
X123258338Y-99592238D02*
X122293138Y-99592238D01*
X122293138Y-99362428D01*
X122339100Y-99224543D01*
X122431023Y-99132619D01*
X122522947Y-99086657D01*
X122706795Y-99040695D01*
X122844680Y-99040695D01*
X123028528Y-99086657D01*
X123120452Y-99132619D01*
X123212376Y-99224543D01*
X123258338Y-99362428D01*
X123258338Y-99592238D01*
X124879100Y-101063019D02*
X124833138Y-101154943D01*
X124833138Y-101292828D01*
X124879100Y-101430714D01*
X124971023Y-101522638D01*
X125062947Y-101568600D01*
X125246795Y-101614562D01*
X125384680Y-101614562D01*
X125568528Y-101568600D01*
X125660452Y-101522638D01*
X125752376Y-101430714D01*
X125798338Y-101292828D01*
X125798338Y-101200905D01*
X125752376Y-101063019D01*
X125706414Y-101017057D01*
X125384680Y-101017057D01*
X125384680Y-101200905D01*
X125798338Y-100603400D02*
X124833138Y-100603400D01*
X125798338Y-100051857D01*
X124833138Y-100051857D01*
X125798338Y-99592238D02*
X124833138Y-99592238D01*
X124833138Y-99362428D01*
X124879100Y-99224543D01*
X124971023Y-99132619D01*
X125062947Y-99086657D01*
X125246795Y-99040695D01*
X125384680Y-99040695D01*
X125568528Y-99086657D01*
X125660452Y-99132619D01*
X125752376Y-99224543D01*
X125798338Y-99362428D01*
X125798338Y-99592238D01*
X127373138Y-101384752D02*
X127373138Y-100787248D01*
X127740833Y-101108981D01*
X127740833Y-100971095D01*
X127786795Y-100879171D01*
X127832757Y-100833209D01*
X127924680Y-100787248D01*
X128154490Y-100787248D01*
X128246414Y-100833209D01*
X128292376Y-100879171D01*
X128338338Y-100971095D01*
X128338338Y-101246867D01*
X128292376Y-101338790D01*
X128246414Y-101384752D01*
X127373138Y-100511476D02*
X128338338Y-100189743D01*
X127373138Y-99868009D01*
X127373138Y-99638200D02*
X127373138Y-99040695D01*
X127740833Y-99362428D01*
X127740833Y-99224543D01*
X127786795Y-99132619D01*
X127832757Y-99086657D01*
X127924680Y-99040695D01*
X128154490Y-99040695D01*
X128246414Y-99086657D01*
X128292376Y-99132619D01*
X128338338Y-99224543D01*
X128338338Y-99500314D01*
X128292376Y-99592238D01*
X128246414Y-99638200D01*
X95369138Y-137840961D02*
X95369138Y-138392504D01*
X95369138Y-138116732D02*
X94403938Y-138116732D01*
X94541823Y-138208656D01*
X94633747Y-138300580D01*
X94679709Y-138392504D01*
X118229138Y-137840961D02*
X118229138Y-138392504D01*
X118229138Y-138116732D02*
X117263938Y-138116732D01*
X117401823Y-138208656D01*
X117493747Y-138300580D01*
X117539709Y-138392504D01*
X117263938Y-137243456D02*
X117263938Y-137151532D01*
X117309900Y-137059609D01*
X117355861Y-137013647D01*
X117447785Y-136967685D01*
X117631633Y-136921723D01*
X117861442Y-136921723D01*
X118045290Y-136967685D01*
X118137214Y-137013647D01*
X118183176Y-137059609D01*
X118229138Y-137151532D01*
X118229138Y-137243456D01*
X118183176Y-137335380D01*
X118137214Y-137381342D01*
X118045290Y-137427304D01*
X117861442Y-137473266D01*
X117631633Y-137473266D01*
X117447785Y-137427304D01*
X117355861Y-137381342D01*
X117309900Y-137335380D01*
X117263938Y-137243456D01*
X95318338Y-101580695D02*
X95318338Y-102132238D01*
X95318338Y-101856467D02*
X94353138Y-101856467D01*
X94491023Y-101948390D01*
X94582947Y-102040314D01*
X94628909Y-102132238D01*
D13*
X228346000Y-137922000D02*
X217678000Y-137922000D01*
X228346000Y-137922000D02*
X228346000Y-142748000D01*
X217678000Y-137922000D02*
X217678000Y-142748000D01*
X228346000Y-142748000D02*
X217678000Y-142748000D01*
X217678000Y-139319000D02*
X228346000Y-139319000D01*
X221234000Y-139192000D02*
X221234000Y-137922000D01*
X224790000Y-139192000D02*
X224790000Y-137922000D01*
X228346000Y-138176000D02*
X217678000Y-138176000D01*
X218186000Y-139319000D02*
X218186000Y-142748000D01*
X227838000Y-139319000D02*
X227838000Y-142748000D01*
X234442000Y-140970000D02*
X228092000Y-140970000D01*
X217932000Y-140970000D02*
X211582000Y-140970000D01*
X211582000Y-140970000D02*
X211582000Y-135890000D01*
X234442000Y-135890000D02*
X211582000Y-135890000D01*
X234442000Y-135890000D02*
X234442000Y-140970000D01*
X228346000Y-126238000D02*
X217678000Y-126238000D01*
X228346000Y-126238000D02*
X228346000Y-131064000D01*
X217678000Y-126238000D02*
X217678000Y-131064000D01*
X228346000Y-131064000D02*
X217678000Y-131064000D01*
X217678000Y-127635000D02*
X228346000Y-127635000D01*
X221234000Y-127508000D02*
X221234000Y-126238000D01*
X224790000Y-127508000D02*
X224790000Y-126238000D01*
X228346000Y-126492000D02*
X217678000Y-126492000D01*
X218186000Y-127635000D02*
X218186000Y-131064000D01*
X227838000Y-127635000D02*
X227838000Y-131064000D01*
X234442000Y-129286000D02*
X228092000Y-129286000D01*
X217932000Y-129286000D02*
X211582000Y-129286000D01*
X211582000Y-129286000D02*
X211582000Y-124206000D01*
X234442000Y-124206000D02*
X211582000Y-124206000D01*
X234442000Y-124206000D02*
X234442000Y-129286000D01*
X228346000Y-114300000D02*
X217678000Y-114300000D01*
X228346000Y-114300000D02*
X228346000Y-119126000D01*
X217678000Y-114300000D02*
X217678000Y-119126000D01*
X228346000Y-119126000D02*
X217678000Y-119126000D01*
X217678000Y-115697000D02*
X228346000Y-115697000D01*
X221234000Y-115570000D02*
X221234000Y-114300000D01*
X224790000Y-115570000D02*
X224790000Y-114300000D01*
X228346000Y-114554000D02*
X217678000Y-114554000D01*
X218186000Y-115697000D02*
X218186000Y-119126000D01*
X227838000Y-115697000D02*
X227838000Y-119126000D01*
X234442000Y-117348000D02*
X228092000Y-117348000D01*
X217932000Y-117348000D02*
X211582000Y-117348000D01*
X211582000Y-117348000D02*
X211582000Y-112268000D01*
X234442000Y-112268000D02*
X211582000Y-112268000D01*
X234442000Y-112268000D02*
X234442000Y-117348000D01*
X228092000Y-102108000D02*
X217424000Y-102108000D01*
X228092000Y-102108000D02*
X228092000Y-106934000D01*
X217424000Y-102108000D02*
X217424000Y-106934000D01*
X228092000Y-106934000D02*
X217424000Y-106934000D01*
X217424000Y-103505000D02*
X228092000Y-103505000D01*
X220980000Y-103378000D02*
X220980000Y-102108000D01*
X224536000Y-103378000D02*
X224536000Y-102108000D01*
X228092000Y-102362000D02*
X217424000Y-102362000D01*
X217932000Y-103505000D02*
X217932000Y-106934000D01*
X227584000Y-103505000D02*
X227584000Y-106934000D01*
X234188000Y-105156000D02*
X227838000Y-105156000D01*
X217678000Y-105156000D02*
X211328000Y-105156000D01*
X211328000Y-105156000D02*
X211328000Y-100076000D01*
X234188000Y-100076000D02*
X211328000Y-100076000D01*
X234188000Y-100076000D02*
X234188000Y-105156000D01*
D14*
X140208000Y-117373400D02*
X143764000Y-117373400D01*
X143764000Y-117373400D02*
X143764000Y-123926600D01*
X143764000Y-123926600D02*
X140208000Y-123926600D01*
X140208000Y-123926600D02*
X140208000Y-117373400D01*
D13*
X169375000Y-128997000D02*
X169375000Y-129047000D01*
X173525000Y-128997000D02*
X173525000Y-129142000D01*
X173525000Y-134147000D02*
X173525000Y-134002000D01*
X169375000Y-134147000D02*
X169375000Y-134002000D01*
X169375000Y-128997000D02*
X173525000Y-128997000D01*
X169375000Y-134147000D02*
X173525000Y-134147000D01*
X169375000Y-129047000D02*
X167975000Y-129047000D01*
X171493000Y-106157000D02*
X172893000Y-106157000D01*
X171493000Y-101057000D02*
X167343000Y-101057000D01*
X171493000Y-106207000D02*
X167343000Y-106207000D01*
X171493000Y-101057000D02*
X171493000Y-101202000D01*
X167343000Y-101057000D02*
X167343000Y-101202000D01*
X167343000Y-106207000D02*
X167343000Y-106062000D01*
X171493000Y-106207000D02*
X171493000Y-106157000D01*
D15*
X139144000Y-110520000D02*
X148264000Y-110520000D01*
X139144000Y-115540000D02*
X148264000Y-115540000D01*
X139144000Y-110520000D02*
X139144000Y-112280000D01*
X139144000Y-113780000D02*
X139144000Y-115540000D01*
X148264000Y-110520000D02*
X148264000Y-112280000D01*
X148264000Y-113780000D02*
X148264000Y-115540000D01*
X173276000Y-117302000D02*
X161656000Y-117302000D01*
X173276000Y-110282000D02*
X161656000Y-110282000D01*
X173276000Y-117302000D02*
X173276000Y-114542000D01*
X173276000Y-113042000D02*
X173276000Y-110282000D01*
X161656000Y-117302000D02*
X161656000Y-114542000D01*
X161656000Y-113042000D02*
X161656000Y-110282000D01*
X173276000Y-126446000D02*
X161656000Y-126446000D01*
X173276000Y-119426000D02*
X161656000Y-119426000D01*
X173276000Y-126446000D02*
X173276000Y-123686000D01*
X173276000Y-122186000D02*
X173276000Y-119426000D01*
X161656000Y-126446000D02*
X161656000Y-123686000D01*
X161656000Y-122186000D02*
X161656000Y-119426000D01*
X136604000Y-127300000D02*
X148224000Y-127300000D01*
X136604000Y-134320000D02*
X148224000Y-134320000D01*
X136604000Y-127300000D02*
X136604000Y-130060000D01*
X136604000Y-131560000D02*
X136604000Y-134320000D01*
X148224000Y-127300000D02*
X148224000Y-130060000D01*
X148224000Y-131560000D02*
X148224000Y-134320000D01*
X155986000Y-106982000D02*
X155986000Y-97862000D01*
X161006000Y-106982000D02*
X161006000Y-97862000D01*
X155986000Y-106982000D02*
X157746000Y-106982000D01*
X159246000Y-106982000D02*
X161006000Y-106982000D01*
X155986000Y-97862000D02*
X157746000Y-97862000D01*
X159246000Y-97862000D02*
X161006000Y-97862000D01*
X157940000Y-136428000D02*
X167060000Y-136428000D01*
X157940000Y-141448000D02*
X167060000Y-141448000D01*
X157940000Y-136428000D02*
X157940000Y-138188000D01*
X157940000Y-139688000D02*
X157940000Y-141448000D01*
X167060000Y-136428000D02*
X167060000Y-138188000D01*
X167060000Y-139688000D02*
X167060000Y-141448000D01*
D16*
X106336000Y-97250000D02*
X106336000Y-97250000D01*
X106336000Y-97250000D02*
X106336000Y-97250000D01*
X106336000Y-97250000D02*
X106336000Y-97250000D01*
X106336000Y-97250000D02*
X106336000Y-97250000D01*
X106336000Y-97250000D02*
X106336000Y-97250000D01*
X106336000Y-97250000D02*
X106336000Y-97250000D01*
X106336000Y-97250000D02*
X106336000Y-97250000D01*
X106336000Y-97250000D02*
X106336000Y-97250000D01*
X106336000Y-97250000D02*
X106336000Y-97250000D01*
X106336000Y-97250000D02*
X106336000Y-97250000D01*
X106336000Y-97250000D02*
X106336000Y-97250000D01*
X106336000Y-97250000D02*
X106336000Y-97250000D01*
X106336000Y-97250000D02*
X106336000Y-97250000D01*
X106336000Y-97250000D02*
X106336000Y-97250000D01*
X106336000Y-97250000D02*
X106336000Y-97250000D01*
X106336000Y-97250000D02*
X106336000Y-97250000D01*
X106336000Y-97250000D02*
X106336000Y-97250000D01*
X106336000Y-97250000D02*
X106336000Y-97250000D01*
X106336000Y-97250000D02*
X106336000Y-97250000D01*
X106336000Y-97250000D02*
X106336000Y-97250000D01*
X106336000Y-97250000D02*
X106336000Y-97250000D01*
X106336000Y-97250000D02*
X106336000Y-97250000D01*
X106336000Y-97250000D02*
X106336000Y-97250000D01*
X106336000Y-97250000D02*
X106336000Y-97250000D01*
X106336000Y-97250000D02*
X106336000Y-97250000D01*
X106336000Y-97250000D02*
X106336000Y-97250000D01*
X106336000Y-97250000D02*
X106336000Y-97250000D01*
X106336000Y-97250000D02*
X106336000Y-97250000D01*
X106336000Y-97250000D02*
X106336000Y-97250000D01*
X106336000Y-97250000D02*
X106336000Y-97250000D01*
X106336000Y-97250000D02*
X106336000Y-97250000D01*
X106336000Y-97250000D02*
X106336000Y-97250000D01*
X106336000Y-97250000D02*
X106336000Y-97250000D01*
X106336000Y-97250000D02*
X106336000Y-97250000D01*
X106336000Y-97250000D02*
X106336000Y-97250000D01*
X106336000Y-97250000D02*
X106336000Y-97250000D01*
X106336000Y-97250000D02*
X106336000Y-97250000D01*
X106336000Y-97250000D02*
X106336000Y-97250000D01*
X106336000Y-97250000D02*
X106336000Y-97250000D01*
X106336000Y-97250000D02*
X106336000Y-97250000D01*
X106336000Y-97250000D02*
X106336000Y-97250000D01*
X106336000Y-97250000D02*
X106336000Y-97250000D01*
X106336000Y-97250000D02*
X106336000Y-97250000D01*
X106336000Y-97250000D02*
X106336000Y-97250000D01*
X106336000Y-97250000D02*
X106336000Y-97250000D01*
X106336000Y-97250000D02*
X106336000Y-97250000D01*
X106336000Y-97250000D02*
X106336000Y-97250000D01*
X106336000Y-97250000D02*
X106336000Y-97250000D01*
X106336000Y-97250000D02*
X106336000Y-97250000D01*
X106336000Y-97250000D02*
X106336000Y-97250000D01*
X106336000Y-97250000D02*
X106336000Y-97250000D01*
X106336000Y-97250000D02*
X106336000Y-97250000D01*
X106336000Y-97250000D02*
X106336000Y-97250000D01*
X106336000Y-97250000D02*
X106336000Y-97250000D01*
X106336000Y-97250000D02*
X106336000Y-97250000D01*
X106336000Y-97250000D02*
X106336000Y-97250000D01*
X106336000Y-97250000D02*
X106336000Y-97250000D01*
X106336000Y-97250000D02*
X106336000Y-97250000D01*
X106336000Y-97250000D02*
X106336000Y-97250000D01*
X106336000Y-97250000D02*
X106336000Y-97250000D01*
X106336000Y-97250000D02*
X106336000Y-97250000D01*
X106336000Y-97250000D02*
X106336000Y-97250000D01*
X106286000Y-99800000D02*
X106286000Y-99800000D01*
X106286000Y-99800000D02*
X106286000Y-99800000D01*
X106286000Y-99800000D02*
X106286000Y-99800000D01*
X106286000Y-99800000D02*
X106286000Y-99800000D01*
X106286000Y-99800000D02*
X106286000Y-99800000D01*
X106286000Y-99800000D02*
X106286000Y-99800000D01*
X106286000Y-99800000D02*
X106286000Y-99800000D01*
X106286000Y-99800000D02*
X106286000Y-99800000D01*
X106286000Y-99800000D02*
X106286000Y-99800000D01*
X106286000Y-99800000D02*
X106286000Y-99800000D01*
X106286000Y-99800000D02*
X106286000Y-99800000D01*
X106286000Y-99800000D02*
X106286000Y-99800000D01*
X106286000Y-99800000D02*
X106286000Y-99800000D01*
X106286000Y-99800000D02*
X106286000Y-99800000D01*
X106286000Y-99800000D02*
X106286000Y-99800000D01*
X106286000Y-99800000D02*
X106286000Y-99800000D01*
X106286000Y-99800000D02*
X106286000Y-99800000D01*
X106286000Y-99800000D02*
X106286000Y-99800000D01*
X106286000Y-99800000D02*
X106286000Y-99800000D01*
X106286000Y-99800000D02*
X106286000Y-99800000D01*
X106286000Y-99800000D02*
X106286000Y-99800000D01*
X106286000Y-99800000D02*
X106286000Y-99800000D01*
X106286000Y-99800000D02*
X106286000Y-99800000D01*
X106286000Y-99800000D02*
X106286000Y-99800000D01*
X106286000Y-99800000D02*
X106286000Y-99800000D01*
X106286000Y-99800000D02*
X106286000Y-99800000D01*
X106286000Y-99800000D02*
X106286000Y-99800000D01*
X106286000Y-99800000D02*
X106286000Y-99800000D01*
X106286000Y-99800000D02*
X106286000Y-99800000D01*
X106286000Y-99800000D02*
X106286000Y-99800000D01*
X106286000Y-99800000D02*
X106286000Y-99800000D01*
X106286000Y-99800000D02*
X106286000Y-99800000D01*
X106286000Y-99800000D02*
X106286000Y-99800000D01*
X106286000Y-99800000D02*
X106286000Y-99800000D01*
X106286000Y-99800000D02*
X106286000Y-99800000D01*
X106286000Y-99800000D02*
X106286000Y-99800000D01*
X106286000Y-99800000D02*
X106286000Y-99800000D01*
X106286000Y-99800000D02*
X106286000Y-99800000D01*
X106286000Y-99800000D02*
X106286000Y-99800000D01*
X106286000Y-99800000D02*
X106286000Y-99800000D01*
X106286000Y-99800000D02*
X106286000Y-99800000D01*
X106286000Y-99800000D02*
X106286000Y-99800000D01*
X106286000Y-99800000D02*
X106286000Y-99800000D01*
X106286000Y-99800000D02*
X106286000Y-99800000D01*
X106286000Y-99800000D02*
X106286000Y-99800000D01*
X106286000Y-99800000D02*
X106286000Y-99800000D01*
X106286000Y-99800000D02*
X106286000Y-99800000D01*
X106286000Y-99800000D02*
X106286000Y-99800000D01*
X106286000Y-99800000D02*
X106286000Y-99800000D01*
X106286000Y-99800000D02*
X106286000Y-99800000D01*
X106286000Y-99800000D02*
X106286000Y-99800000D01*
X106286000Y-99800000D02*
X106286000Y-99800000D01*
X106286000Y-99800000D02*
X106286000Y-99800000D01*
X106286000Y-99800000D02*
X106286000Y-99800000D01*
X106286000Y-99800000D02*
X106286000Y-99800000D01*
X106286000Y-99800000D02*
X106286000Y-99800000D01*
X106286000Y-99800000D02*
X106286000Y-99800000D01*
X106286000Y-99800000D02*
X106286000Y-99800000D01*
X106286000Y-99800000D02*
X106286000Y-99800000D01*
X106286000Y-99800000D02*
X106286000Y-99800000D01*
X106286000Y-99800000D02*
X106286000Y-99800000D01*
X106286000Y-99800000D02*
X106286000Y-99800000D01*
X106337100Y-140433600D02*
X106337100Y-140433600D01*
X106337100Y-140433600D02*
X106337100Y-140433600D01*
X106337100Y-140433600D02*
X106337100Y-140433600D01*
X106337100Y-140433600D02*
X106337100Y-140433600D01*
X106337100Y-140433600D02*
X106337100Y-140433600D01*
X106337100Y-140433600D02*
X106337100Y-140433600D01*
X106337100Y-140433600D02*
X106337100Y-140433600D01*
X106337100Y-140433600D02*
X106337100Y-140433600D01*
X106337100Y-140433600D02*
X106337100Y-140433600D01*
X106337100Y-140433600D02*
X106337100Y-140433600D01*
X106337100Y-140433600D02*
X106337100Y-140433600D01*
X106337100Y-140433600D02*
X106337100Y-140433600D01*
X106337100Y-140433600D02*
X106337100Y-140433600D01*
X106337100Y-140433600D02*
X106337100Y-140433600D01*
X106337100Y-140433600D02*
X106337100Y-140433600D01*
X106337100Y-140433600D02*
X106337100Y-140433600D01*
X106337100Y-140433600D02*
X106337100Y-140433600D01*
X106337100Y-140433600D02*
X106337100Y-140433600D01*
X106337100Y-140433600D02*
X106337100Y-140433600D01*
X106337100Y-140433600D02*
X106337100Y-140433600D01*
X106337100Y-140433600D02*
X106337100Y-140433600D01*
X106337100Y-140433600D02*
X106337100Y-140433600D01*
X106337100Y-140433600D02*
X106337100Y-140433600D01*
X106337100Y-140433600D02*
X106337100Y-140433600D01*
X106337100Y-140433600D02*
X106337100Y-140433600D01*
X106337100Y-140433600D02*
X106337100Y-140433600D01*
X106337100Y-140433600D02*
X106337100Y-140433600D01*
X106337100Y-140433600D02*
X106337100Y-140433600D01*
X106337100Y-140433600D02*
X106337100Y-140433600D01*
X106337100Y-140433600D02*
X106337100Y-140433600D01*
X106337100Y-140433600D02*
X106337100Y-140433600D01*
X106337100Y-140433600D02*
X106337100Y-140433600D01*
X106337100Y-140433600D02*
X106337100Y-140433600D01*
X106337100Y-140433600D02*
X106337100Y-140433600D01*
X106337100Y-140433600D02*
X106337100Y-140433600D01*
X106337100Y-140433600D02*
X106337100Y-140433600D01*
X106337100Y-140433600D02*
X106337100Y-140433600D01*
X106337100Y-140433600D02*
X106337100Y-140433600D01*
X106337100Y-140433600D02*
X106337100Y-140433600D01*
X106337100Y-140433600D02*
X106337100Y-140433600D01*
X106337100Y-140433600D02*
X106337100Y-140433600D01*
X106337100Y-140433600D02*
X106337100Y-140433600D01*
X106337100Y-140433600D02*
X106337100Y-140433600D01*
X106337100Y-140433600D02*
X106337100Y-140433600D01*
X106337100Y-140433600D02*
X106337100Y-140433600D01*
X106337100Y-140433600D02*
X106337100Y-140433600D01*
X106337100Y-140433600D02*
X106337100Y-140433600D01*
X106337100Y-140433600D02*
X106337100Y-140433600D01*
X106337100Y-140433600D02*
X106337100Y-140433600D01*
X106337100Y-140433600D02*
X106337100Y-140433600D01*
X106337100Y-140433600D02*
X106337100Y-140433600D01*
X106337100Y-140433600D02*
X106337100Y-140433600D01*
X106337100Y-140433600D02*
X106337100Y-140433600D01*
X106337100Y-140433600D02*
X106337100Y-140433600D01*
X106337100Y-140433600D02*
X106337100Y-140433600D01*
X106337100Y-140433600D02*
X106337100Y-140433600D01*
X106337100Y-140433600D02*
X106337100Y-140433600D01*
X106337100Y-140433600D02*
X106337100Y-140433600D01*
X106337100Y-140433600D02*
X106337100Y-140433600D01*
X106337100Y-140433600D02*
X106337100Y-140433600D01*
X106337100Y-140433600D02*
X106337100Y-140433600D01*
X106337100Y-140433600D02*
X106337100Y-140433600D01*
X106337100Y-142973600D02*
X106337100Y-142973600D01*
X106337100Y-142973600D02*
X106337100Y-142973600D01*
X106337100Y-142973600D02*
X106337100Y-142973600D01*
X106337100Y-142973600D02*
X106337100Y-142973600D01*
X106337100Y-142973600D02*
X106337100Y-142973600D01*
X106337100Y-142973600D02*
X106337100Y-142973600D01*
X106337100Y-142973600D02*
X106337100Y-142973600D01*
X106337100Y-142973600D02*
X106337100Y-142973600D01*
X106337100Y-142973600D02*
X106337100Y-142973600D01*
X106337100Y-142973600D02*
X106337100Y-142973600D01*
X106337100Y-142973600D02*
X106337100Y-142973600D01*
X106337100Y-142973600D02*
X106337100Y-142973600D01*
X106337100Y-142973600D02*
X106337100Y-142973600D01*
X106337100Y-142973600D02*
X106337100Y-142973600D01*
X106337100Y-142973600D02*
X106337100Y-142973600D01*
X106337100Y-142973600D02*
X106337100Y-142973600D01*
X106337100Y-142973600D02*
X106337100Y-142973600D01*
X106337100Y-142973600D02*
X106337100Y-142973600D01*
X106337100Y-142973600D02*
X106337100Y-142973600D01*
X106337100Y-142973600D02*
X106337100Y-142973600D01*
X106337100Y-142973600D02*
X106337100Y-142973600D01*
X106337100Y-142973600D02*
X106337100Y-142973600D01*
X106337100Y-142973600D02*
X106337100Y-142973600D01*
X106337100Y-142973600D02*
X106337100Y-142973600D01*
X106337100Y-142973600D02*
X106337100Y-142973600D01*
X106337100Y-142973600D02*
X106337100Y-142973600D01*
X106337100Y-142973600D02*
X106337100Y-142973600D01*
X106337100Y-142973600D02*
X106337100Y-142973600D01*
X106337100Y-142973600D02*
X106337100Y-142973600D01*
X106337100Y-142973600D02*
X106337100Y-142973600D01*
X106337100Y-142973600D02*
X106337100Y-142973600D01*
X106337100Y-142973600D02*
X106337100Y-142973600D01*
X106337100Y-142973600D02*
X106337100Y-142973600D01*
X106337100Y-142973600D02*
X106337100Y-142973600D01*
X106337100Y-142973600D02*
X106337100Y-142973600D01*
X106337100Y-142973600D02*
X106337100Y-142973600D01*
X106337100Y-142973600D02*
X106337100Y-142973600D01*
X106337100Y-142973600D02*
X106337100Y-142973600D01*
X106337100Y-142973600D02*
X106337100Y-142973600D01*
X106337100Y-142973600D02*
X106337100Y-142973600D01*
X106337100Y-142973600D02*
X106337100Y-142973600D01*
X106337100Y-142973600D02*
X106337100Y-142973600D01*
X106337100Y-142973600D02*
X106337100Y-142973600D01*
X106337100Y-142973600D02*
X106337100Y-142973600D01*
X106337100Y-142973600D02*
X106337100Y-142973600D01*
X106337100Y-142973600D02*
X106337100Y-142973600D01*
X106337100Y-142973600D02*
X106337100Y-142973600D01*
X106337100Y-142973600D02*
X106337100Y-142973600D01*
X106337100Y-142973600D02*
X106337100Y-142973600D01*
X106337100Y-142973600D02*
X106337100Y-142973600D01*
X106337100Y-142973600D02*
X106337100Y-142973600D01*
X106337100Y-142973600D02*
X106337100Y-142973600D01*
X106337100Y-142973600D02*
X106337100Y-142973600D01*
X106337100Y-142973600D02*
X106337100Y-142973600D01*
X106337100Y-142973600D02*
X106337100Y-142973600D01*
X106337100Y-142973600D02*
X106337100Y-142973600D01*
X106337100Y-142973600D02*
X106337100Y-142973600D01*
X106337100Y-142973600D02*
X106337100Y-142973600D01*
X106337100Y-142973600D02*
X106337100Y-142973600D01*
X106337100Y-142973600D02*
X106337100Y-142973600D01*
X106337100Y-142973600D02*
X106337100Y-142973600D01*
X106337100Y-142973600D02*
X106337100Y-142973600D01*
X125392601Y-97259043D02*
X125392601Y-97259043D01*
X125392601Y-97259043D02*
X125392601Y-97259043D01*
X125392601Y-97259043D02*
X125392601Y-97259043D01*
X125392601Y-97259043D02*
X125392601Y-97259043D01*
X125392601Y-97259043D02*
X125392601Y-97259043D01*
X125392601Y-97259043D02*
X125392601Y-97259043D01*
X125392601Y-97259043D02*
X125392601Y-97259043D01*
X125392601Y-97259043D02*
X125392601Y-97259043D01*
X125392601Y-97259043D02*
X125392601Y-97259043D01*
X125392601Y-97259043D02*
X125392601Y-97259043D01*
X125392601Y-97259043D02*
X125392601Y-97259043D01*
X125392601Y-97259043D02*
X125392601Y-97259043D01*
X125392601Y-97259043D02*
X125392601Y-97259043D01*
X125392601Y-97259043D02*
X125392601Y-97259043D01*
X125392601Y-97259043D02*
X125392601Y-97259043D01*
X125392601Y-97259043D02*
X125392601Y-97259043D01*
X125392601Y-97259043D02*
X125392601Y-97259043D01*
X125392601Y-97259043D02*
X125392601Y-97259043D01*
X125392601Y-97259043D02*
X125392601Y-97259043D01*
X125392601Y-97259043D02*
X125392601Y-97259043D01*
D15*
X203632000Y-141236000D02*
X203632000Y-135116000D01*
X203632000Y-135116000D02*
X186512000Y-135116000D01*
X186512000Y-135116000D02*
X186512000Y-141236000D01*
X186512000Y-141236000D02*
X203632000Y-141236000D01*
X203852000Y-138176000D02*
X203632000Y-138176000D01*
X186292000Y-138176000D02*
X186512000Y-138176000D01*
X203632000Y-113550000D02*
X203632000Y-107430000D01*
X203632000Y-107430000D02*
X186512000Y-107430000D01*
X186512000Y-107430000D02*
X186512000Y-113550000D01*
X186512000Y-113550000D02*
X203632000Y-113550000D01*
X203852000Y-110490000D02*
X203632000Y-110490000D01*
X186292000Y-110490000D02*
X186512000Y-110490000D01*
X186292000Y-128524000D02*
X186512000Y-128524000D01*
X203852000Y-128524000D02*
X203632000Y-128524000D01*
X186512000Y-131584000D02*
X203632000Y-131584000D01*
X186512000Y-125464000D02*
X186512000Y-131584000D01*
X203632000Y-125464000D02*
X186512000Y-125464000D01*
X203632000Y-131584000D02*
X203632000Y-125464000D01*
X186292000Y-119888000D02*
X186512000Y-119888000D01*
X203852000Y-119888000D02*
X203632000Y-119888000D01*
X186512000Y-122948000D02*
X203632000Y-122948000D01*
X186512000Y-116828000D02*
X186512000Y-122948000D01*
X203632000Y-116828000D02*
X186512000Y-116828000D01*
X203632000Y-122948000D02*
X203632000Y-116828000D01*
X139528000Y-101358000D02*
X139528000Y-102858000D01*
X138778000Y-102108000D02*
X140278000Y-102108000D01*
X149059000Y-101829000D02*
X149059000Y-102387000D01*
X149019000Y-101436000D02*
X149019000Y-102780000D01*
X148979000Y-101195000D02*
X148979000Y-103021000D01*
X148939000Y-101004000D02*
X148939000Y-103212000D01*
X148899000Y-100843000D02*
X148899000Y-103373000D01*
X148859000Y-100701000D02*
X148859000Y-103515000D01*
X148819000Y-100572000D02*
X148819000Y-103644000D01*
X148779000Y-100454000D02*
X148779000Y-103762000D01*
X148739000Y-100345000D02*
X148739000Y-103871000D01*
X148699000Y-100242000D02*
X148699000Y-103974000D01*
X148659000Y-100146000D02*
X148659000Y-104070000D01*
X148619000Y-100055000D02*
X148619000Y-104161000D01*
X148579000Y-99968000D02*
X148579000Y-104248000D01*
X148539000Y-99886000D02*
X148539000Y-104330000D01*
X148499000Y-99807000D02*
X148499000Y-104409000D01*
X148459000Y-99731000D02*
X148459000Y-104485000D01*
X148419000Y-99659000D02*
X148419000Y-104557000D01*
X148379000Y-99589000D02*
X148379000Y-104627000D01*
X148339000Y-99521000D02*
X148339000Y-104695000D01*
X148299000Y-99456000D02*
X148299000Y-104760000D01*
X148259000Y-99393000D02*
X148259000Y-104823000D01*
X148219000Y-99331000D02*
X148219000Y-104885000D01*
X148179000Y-99272000D02*
X148179000Y-104944000D01*
X148139000Y-99214000D02*
X148139000Y-105002000D01*
X148099000Y-99159000D02*
X148099000Y-105057000D01*
X148059000Y-99104000D02*
X148059000Y-105112000D01*
X148019000Y-99051000D02*
X148019000Y-105165000D01*
X147979000Y-99000000D02*
X147979000Y-105216000D01*
X147939000Y-98950000D02*
X147939000Y-105266000D01*
X147899000Y-98901000D02*
X147899000Y-105315000D01*
X147859000Y-98853000D02*
X147859000Y-105363000D01*
X147819000Y-98806000D02*
X147819000Y-105410000D01*
X147779000Y-98761000D02*
X147779000Y-105455000D01*
X147739000Y-98717000D02*
X147739000Y-105499000D01*
X147699000Y-98673000D02*
X147699000Y-105543000D01*
X147659000Y-98631000D02*
X147659000Y-105585000D01*
X147619000Y-103289000D02*
X147619000Y-105626000D01*
X147619000Y-98590000D02*
X147619000Y-100927000D01*
X147579000Y-103289000D02*
X147579000Y-105667000D01*
X147579000Y-98549000D02*
X147579000Y-100927000D01*
X147539000Y-103289000D02*
X147539000Y-105706000D01*
X147539000Y-98510000D02*
X147539000Y-100927000D01*
X147499000Y-103289000D02*
X147499000Y-105745000D01*
X147499000Y-98471000D02*
X147499000Y-100927000D01*
X147459000Y-103289000D02*
X147459000Y-105783000D01*
X147459000Y-98433000D02*
X147459000Y-100927000D01*
X147419000Y-103289000D02*
X147419000Y-105820000D01*
X147419000Y-98396000D02*
X147419000Y-100927000D01*
X147379000Y-103289000D02*
X147379000Y-105856000D01*
X147379000Y-98360000D02*
X147379000Y-100927000D01*
X147339000Y-103289000D02*
X147339000Y-105892000D01*
X147339000Y-98324000D02*
X147339000Y-100927000D01*
X147299000Y-103289000D02*
X147299000Y-105927000D01*
X147299000Y-98289000D02*
X147299000Y-100927000D01*
X147259000Y-103289000D02*
X147259000Y-105961000D01*
X147259000Y-98255000D02*
X147259000Y-100927000D01*
X147219000Y-103289000D02*
X147219000Y-105994000D01*
X147219000Y-98222000D02*
X147219000Y-100927000D01*
X147179000Y-103289000D02*
X147179000Y-106027000D01*
X147179000Y-98189000D02*
X147179000Y-100927000D01*
X147139000Y-103289000D02*
X147139000Y-106059000D01*
X147139000Y-98157000D02*
X147139000Y-100927000D01*
X147099000Y-103289000D02*
X147099000Y-106090000D01*
X147099000Y-98126000D02*
X147099000Y-100927000D01*
X147059000Y-103289000D02*
X147059000Y-106121000D01*
X147059000Y-98095000D02*
X147059000Y-100927000D01*
X147019000Y-103289000D02*
X147019000Y-106151000D01*
X147019000Y-98065000D02*
X147019000Y-100927000D01*
X146979000Y-103289000D02*
X146979000Y-106180000D01*
X146979000Y-98036000D02*
X146979000Y-100927000D01*
X146939000Y-103289000D02*
X146939000Y-106209000D01*
X146939000Y-98007000D02*
X146939000Y-100927000D01*
X146899000Y-103289000D02*
X146899000Y-106238000D01*
X146899000Y-97978000D02*
X146899000Y-100927000D01*
X146859000Y-103289000D02*
X146859000Y-106265000D01*
X146859000Y-97951000D02*
X146859000Y-100927000D01*
X146819000Y-103289000D02*
X146819000Y-106293000D01*
X146819000Y-97923000D02*
X146819000Y-100927000D01*
X146779000Y-103289000D02*
X146779000Y-106319000D01*
X146779000Y-97897000D02*
X146779000Y-100927000D01*
X146739000Y-103289000D02*
X146739000Y-106345000D01*
X146739000Y-97871000D02*
X146739000Y-100927000D01*
X146699000Y-103289000D02*
X146699000Y-106371000D01*
X146699000Y-97845000D02*
X146699000Y-100927000D01*
X146659000Y-103289000D02*
X146659000Y-106396000D01*
X146659000Y-97820000D02*
X146659000Y-100927000D01*
X146619000Y-103289000D02*
X146619000Y-106420000D01*
X146619000Y-97796000D02*
X146619000Y-100927000D01*
X146579000Y-103289000D02*
X146579000Y-106444000D01*
X146579000Y-97772000D02*
X146579000Y-100927000D01*
X146539000Y-103289000D02*
X146539000Y-106468000D01*
X146539000Y-97748000D02*
X146539000Y-100927000D01*
X146499000Y-103289000D02*
X146499000Y-106491000D01*
X146499000Y-97725000D02*
X146499000Y-100927000D01*
X146459000Y-103289000D02*
X146459000Y-106513000D01*
X146459000Y-97703000D02*
X146459000Y-100927000D01*
X146419000Y-103289000D02*
X146419000Y-106536000D01*
X146419000Y-97680000D02*
X146419000Y-100927000D01*
X146379000Y-103289000D02*
X146379000Y-106557000D01*
X146379000Y-97659000D02*
X146379000Y-100927000D01*
X146339000Y-103289000D02*
X146339000Y-106578000D01*
X146339000Y-97638000D02*
X146339000Y-100927000D01*
X146299000Y-103289000D02*
X146299000Y-106599000D01*
X146299000Y-97617000D02*
X146299000Y-100927000D01*
X146259000Y-103289000D02*
X146259000Y-106619000D01*
X146259000Y-97597000D02*
X146259000Y-100927000D01*
X146219000Y-103289000D02*
X146219000Y-106639000D01*
X146219000Y-97577000D02*
X146219000Y-100927000D01*
X146179000Y-103289000D02*
X146179000Y-106658000D01*
X146179000Y-97558000D02*
X146179000Y-100927000D01*
X146139000Y-103289000D02*
X146139000Y-106677000D01*
X146139000Y-97539000D02*
X146139000Y-100927000D01*
X146099000Y-103289000D02*
X146099000Y-106696000D01*
X146099000Y-97520000D02*
X146099000Y-100927000D01*
X146059000Y-103289000D02*
X146059000Y-106714000D01*
X146059000Y-97502000D02*
X146059000Y-100927000D01*
X146019000Y-103289000D02*
X146019000Y-106732000D01*
X146019000Y-97484000D02*
X146019000Y-100927000D01*
X145979000Y-103289000D02*
X145979000Y-106749000D01*
X145979000Y-97467000D02*
X145979000Y-100927000D01*
X145939000Y-103289000D02*
X145939000Y-106766000D01*
X145939000Y-97450000D02*
X145939000Y-100927000D01*
X145899000Y-103289000D02*
X145899000Y-106782000D01*
X145899000Y-97434000D02*
X145899000Y-100927000D01*
X145859000Y-103289000D02*
X145859000Y-106799000D01*
X145859000Y-97417000D02*
X145859000Y-100927000D01*
X145819000Y-103289000D02*
X145819000Y-106814000D01*
X145819000Y-97402000D02*
X145819000Y-100927000D01*
X145779000Y-103289000D02*
X145779000Y-106830000D01*
X145779000Y-97386000D02*
X145779000Y-100927000D01*
X145739000Y-103289000D02*
X145739000Y-106845000D01*
X145739000Y-97371000D02*
X145739000Y-100927000D01*
X145699000Y-103289000D02*
X145699000Y-106859000D01*
X145699000Y-97357000D02*
X145699000Y-100927000D01*
X145659000Y-103289000D02*
X145659000Y-106873000D01*
X145659000Y-97343000D02*
X145659000Y-100927000D01*
X145619000Y-103289000D02*
X145619000Y-106887000D01*
X145619000Y-97329000D02*
X145619000Y-100927000D01*
X145579000Y-103289000D02*
X145579000Y-106900000D01*
X145579000Y-97316000D02*
X145579000Y-100927000D01*
X145539000Y-103289000D02*
X145539000Y-106914000D01*
X145539000Y-97302000D02*
X145539000Y-100927000D01*
X145499000Y-103289000D02*
X145499000Y-106926000D01*
X145499000Y-97290000D02*
X145499000Y-100927000D01*
X145459000Y-103289000D02*
X145459000Y-106939000D01*
X145459000Y-97277000D02*
X145459000Y-100927000D01*
X145419000Y-103289000D02*
X145419000Y-106951000D01*
X145419000Y-97265000D02*
X145419000Y-100927000D01*
X145379000Y-103289000D02*
X145379000Y-106962000D01*
X145379000Y-97254000D02*
X145379000Y-100927000D01*
X145339000Y-103289000D02*
X145339000Y-106973000D01*
X145339000Y-97243000D02*
X145339000Y-100927000D01*
X145299000Y-103289000D02*
X145299000Y-106984000D01*
X145299000Y-97232000D02*
X145299000Y-100927000D01*
X145259000Y-97221000D02*
X145259000Y-106995000D01*
X145219000Y-97211000D02*
X145219000Y-107005000D01*
X145179000Y-97201000D02*
X145179000Y-107015000D01*
X145139000Y-97191000D02*
X145139000Y-107025000D01*
X145099000Y-97182000D02*
X145099000Y-107034000D01*
X145059000Y-97173000D02*
X145059000Y-107043000D01*
X145019000Y-97165000D02*
X145019000Y-107051000D01*
X144979000Y-97157000D02*
X144979000Y-107059000D01*
X144939000Y-97149000D02*
X144939000Y-107067000D01*
X144899000Y-97141000D02*
X144899000Y-107075000D01*
X144859000Y-97134000D02*
X144859000Y-107082000D01*
X144819000Y-97127000D02*
X144819000Y-107089000D01*
X144779000Y-97121000D02*
X144779000Y-107095000D01*
X144739000Y-97115000D02*
X144739000Y-107101000D01*
X144699000Y-97109000D02*
X144699000Y-107107000D01*
X144658000Y-97103000D02*
X144658000Y-107113000D01*
X144618000Y-97098000D02*
X144618000Y-107118000D01*
X144578000Y-97093000D02*
X144578000Y-107123000D01*
X144538000Y-97088000D02*
X144538000Y-107128000D01*
X144498000Y-97084000D02*
X144498000Y-107132000D01*
X144458000Y-97080000D02*
X144458000Y-107136000D01*
X144418000Y-97077000D02*
X144418000Y-107139000D01*
X144378000Y-97073000D02*
X144378000Y-107143000D01*
X144338000Y-97070000D02*
X144338000Y-107146000D01*
X144298000Y-97068000D02*
X144298000Y-107148000D01*
X144258000Y-97065000D02*
X144258000Y-107151000D01*
X144218000Y-97063000D02*
X144218000Y-107153000D01*
X144178000Y-97061000D02*
X144178000Y-107155000D01*
X144138000Y-97060000D02*
X144138000Y-107156000D01*
X144098000Y-97059000D02*
X144098000Y-107157000D01*
X144058000Y-97058000D02*
X144058000Y-107158000D01*
X144018000Y-97058000D02*
X144018000Y-107158000D01*
X143978000Y-97058000D02*
X143978000Y-107158000D01*
X148929525Y-103287194D02*
G75*
G03X148929333Y-100928000I-4951525J1179194D01*
G01*
X148929525Y-103287194D02*
G75*
G02X139026667Y-103288000I-4951525J1179194D01*
G01*
X148929525Y-100928806D02*
G75*
G03X139026667Y-100928000I-4951525J-1179194D01*
G01*
X135911000Y-99040000D02*
X132821000Y-99040000D01*
X136866000Y-101600000D02*
G75*
G03X136866000Y-101600000I-2500000J0D01*
G01*
X134366462Y-104590000D02*
G75*
G02X132821170Y-99040000I-462J2990000D01*
G01*
X134365538Y-104590000D02*
G75*
G03X135910830Y-99040000I462J2990000D01*
G01*
X133506000Y-108630000D02*
X133506000Y-112350000D01*
X135226000Y-108630000D02*
X135226000Y-112350000D01*
X244348000Y-124460000D02*
X244348000Y-114300000D01*
X236728000Y-124460000D02*
X244348000Y-124460000D01*
X236728000Y-114300000D02*
X236728000Y-124460000D01*
X244348000Y-114300000D02*
X236728000Y-114300000D01*
X243078000Y-114300000D02*
X243078000Y-124460000D01*
X244348000Y-142240000D02*
X244348000Y-132080000D01*
X236728000Y-142240000D02*
X244348000Y-142240000D01*
X236728000Y-132080000D02*
X236728000Y-142240000D01*
X244348000Y-132080000D02*
X236728000Y-132080000D01*
X243078000Y-132080000D02*
X243078000Y-142240000D01*
D13*
X222512000Y-137199619D02*
X222416761Y-137152000D01*
X222321523Y-137056761D01*
X222178666Y-136913904D01*
X222083428Y-136866285D01*
X221988190Y-136866285D01*
X222035809Y-137104380D02*
X221940571Y-137056761D01*
X221845333Y-136961523D01*
X221797714Y-136771047D01*
X221797714Y-136437714D01*
X221845333Y-136247238D01*
X221940571Y-136152000D01*
X222035809Y-136104380D01*
X222226285Y-136104380D01*
X222321523Y-136152000D01*
X222416761Y-136247238D01*
X222464380Y-136437714D01*
X222464380Y-136771047D01*
X222416761Y-136961523D01*
X222321523Y-137056761D01*
X222226285Y-137104380D01*
X222035809Y-137104380D01*
X223369142Y-137104380D02*
X222892952Y-137104380D01*
X222892952Y-136104380D01*
X223654857Y-136199619D02*
X223702476Y-136152000D01*
X223797714Y-136104380D01*
X224035809Y-136104380D01*
X224131047Y-136152000D01*
X224178666Y-136199619D01*
X224226285Y-136294857D01*
X224226285Y-136390095D01*
X224178666Y-136532952D01*
X223607238Y-137104380D01*
X224226285Y-137104380D01*
X222392952Y-125515619D02*
X222297714Y-125468000D01*
X222202476Y-125372761D01*
X222059619Y-125229904D01*
X221964380Y-125182285D01*
X221869142Y-125182285D01*
X221916761Y-125420380D02*
X221821523Y-125372761D01*
X221726285Y-125277523D01*
X221678666Y-125087047D01*
X221678666Y-124753714D01*
X221726285Y-124563238D01*
X221821523Y-124468000D01*
X221916761Y-124420380D01*
X222107238Y-124420380D01*
X222202476Y-124468000D01*
X222297714Y-124563238D01*
X222345333Y-124753714D01*
X222345333Y-125087047D01*
X222297714Y-125277523D01*
X222202476Y-125372761D01*
X222107238Y-125420380D01*
X221916761Y-125420380D01*
X222773904Y-125420380D02*
X222773904Y-124420380D01*
X222773904Y-124896571D02*
X223345333Y-124896571D01*
X223345333Y-125420380D02*
X223345333Y-124420380D01*
X224345333Y-125420380D02*
X223773904Y-125420380D01*
X224059619Y-125420380D02*
X224059619Y-124420380D01*
X223964380Y-124563238D01*
X223869142Y-124658476D01*
X223773904Y-124706095D01*
X222512000Y-113577619D02*
X222416761Y-113530000D01*
X222321523Y-113434761D01*
X222178666Y-113291904D01*
X222083428Y-113244285D01*
X221988190Y-113244285D01*
X222035809Y-113482380D02*
X221940571Y-113434761D01*
X221845333Y-113339523D01*
X221797714Y-113149047D01*
X221797714Y-112815714D01*
X221845333Y-112625238D01*
X221940571Y-112530000D01*
X222035809Y-112482380D01*
X222226285Y-112482380D01*
X222321523Y-112530000D01*
X222416761Y-112625238D01*
X222464380Y-112815714D01*
X222464380Y-113149047D01*
X222416761Y-113339523D01*
X222321523Y-113434761D01*
X222226285Y-113482380D01*
X222035809Y-113482380D01*
X223369142Y-113482380D02*
X222892952Y-113482380D01*
X222892952Y-112482380D01*
X224226285Y-113482380D02*
X223654857Y-113482380D01*
X223940571Y-113482380D02*
X223940571Y-112482380D01*
X223845333Y-112625238D01*
X223750095Y-112720476D01*
X223654857Y-112768095D01*
X222138952Y-101385619D02*
X222043714Y-101338000D01*
X221948476Y-101242761D01*
X221805619Y-101099904D01*
X221710380Y-101052285D01*
X221615142Y-101052285D01*
X221662761Y-101290380D02*
X221567523Y-101242761D01*
X221472285Y-101147523D01*
X221424666Y-100957047D01*
X221424666Y-100623714D01*
X221472285Y-100433238D01*
X221567523Y-100338000D01*
X221662761Y-100290380D01*
X221853238Y-100290380D01*
X221948476Y-100338000D01*
X222043714Y-100433238D01*
X222091333Y-100623714D01*
X222091333Y-100957047D01*
X222043714Y-101147523D01*
X221948476Y-101242761D01*
X221853238Y-101290380D01*
X221662761Y-101290380D01*
X222519904Y-101290380D02*
X222519904Y-100290380D01*
X222519904Y-100766571D02*
X223091333Y-100766571D01*
X223091333Y-101290380D02*
X223091333Y-100290380D01*
X223519904Y-100385619D02*
X223567523Y-100338000D01*
X223662761Y-100290380D01*
X223900857Y-100290380D01*
X223996095Y-100338000D01*
X224043714Y-100385619D01*
X224091333Y-100480857D01*
X224091333Y-100576095D01*
X224043714Y-100718952D01*
X223472285Y-101290380D01*
X224091333Y-101290380D01*
D17*
X135194523Y-121363619D02*
X136222619Y-121363619D01*
X136343571Y-121303142D01*
X136404047Y-121242666D01*
X136464523Y-121121714D01*
X136464523Y-120879809D01*
X136404047Y-120758857D01*
X136343571Y-120698380D01*
X136222619Y-120637904D01*
X135194523Y-120637904D01*
X135194523Y-120154095D02*
X135194523Y-119367904D01*
X135678333Y-119791238D01*
X135678333Y-119609809D01*
X135738809Y-119488857D01*
X135799285Y-119428380D01*
X135920238Y-119367904D01*
X136222619Y-119367904D01*
X136343571Y-119428380D01*
X136404047Y-119488857D01*
X136464523Y-119609809D01*
X136464523Y-119972666D01*
X136404047Y-120093619D01*
X136343571Y-120154095D01*
X148342047Y-127743857D02*
X148402523Y-127622904D01*
X148402523Y-127381000D01*
X148342047Y-127260047D01*
X148221095Y-127199571D01*
X148160619Y-127199571D01*
X148039666Y-127260047D01*
X147979190Y-127381000D01*
X147979190Y-127562428D01*
X147918714Y-127683380D01*
X147797761Y-127743857D01*
X147737285Y-127743857D01*
X147616333Y-127683380D01*
X147555857Y-127562428D01*
X147555857Y-127381000D01*
X147616333Y-127260047D01*
X148342047Y-126111000D02*
X148402523Y-126231952D01*
X148402523Y-126473857D01*
X148342047Y-126594809D01*
X148281571Y-126655285D01*
X148160619Y-126715761D01*
X147797761Y-126715761D01*
X147676809Y-126655285D01*
X147616333Y-126594809D01*
X147555857Y-126473857D01*
X147555857Y-126231952D01*
X147616333Y-126111000D01*
X148402523Y-125566714D02*
X147132523Y-125566714D01*
X148402523Y-125022428D02*
X147737285Y-125022428D01*
X147616333Y-125082904D01*
X147555857Y-125203857D01*
X147555857Y-125385285D01*
X147616333Y-125506238D01*
X147676809Y-125566714D01*
X147132523Y-124599095D02*
X147132523Y-123873380D01*
X148402523Y-124236238D02*
X147132523Y-124236238D01*
X148402523Y-122845285D02*
X148402523Y-123450047D01*
X147132523Y-123450047D01*
X147132523Y-122603380D02*
X148402523Y-122180047D01*
X147132523Y-121756714D01*
X148402523Y-120668142D02*
X148402523Y-121393857D01*
X148402523Y-121031000D02*
X147132523Y-121031000D01*
X147313952Y-121151952D01*
X147434904Y-121272904D01*
X147495380Y-121393857D01*
X148402523Y-119458619D02*
X148402523Y-120184333D01*
X148402523Y-119821476D02*
X147132523Y-119821476D01*
X147313952Y-119942428D01*
X147434904Y-120063380D01*
X147495380Y-120184333D01*
X148402523Y-118249095D02*
X148402523Y-118974809D01*
X148402523Y-118611952D02*
X147132523Y-118611952D01*
X147313952Y-118732904D01*
X147434904Y-118853857D01*
X147495380Y-118974809D01*
X147132523Y-117825761D02*
X147132523Y-116979095D01*
X148402523Y-117523380D01*
X147918714Y-116495285D02*
X147918714Y-115527666D01*
X147132523Y-115043857D02*
X147132523Y-114257666D01*
X147616333Y-114681000D01*
X147616333Y-114499571D01*
X147676809Y-114378619D01*
X147737285Y-114318142D01*
X147858238Y-114257666D01*
X148160619Y-114257666D01*
X148281571Y-114318142D01*
X148342047Y-114378619D01*
X148402523Y-114499571D01*
X148402523Y-114862428D01*
X148342047Y-114983380D01*
X148281571Y-115043857D01*
X147132523Y-113834333D02*
X147132523Y-113048142D01*
X147616333Y-113471476D01*
X147616333Y-113290047D01*
X147676809Y-113169095D01*
X147737285Y-113108619D01*
X147858238Y-113048142D01*
X148160619Y-113048142D01*
X148281571Y-113108619D01*
X148342047Y-113169095D01*
X148402523Y-113290047D01*
X148402523Y-113652904D01*
X148342047Y-113773857D01*
X148281571Y-113834333D01*
D13*
X146248380Y-124174285D02*
X146248380Y-124745714D01*
X146248380Y-124460000D02*
X145248380Y-124460000D01*
X145391238Y-124555238D01*
X145486476Y-124650476D01*
X145534095Y-124745714D01*
X170688095Y-127524380D02*
X170688095Y-128333904D01*
X170735714Y-128429142D01*
X170783333Y-128476761D01*
X170878571Y-128524380D01*
X171069047Y-128524380D01*
X171164285Y-128476761D01*
X171211904Y-128429142D01*
X171259523Y-128333904D01*
X171259523Y-127524380D01*
X172259523Y-128524380D02*
X171688095Y-128524380D01*
X171973809Y-128524380D02*
X171973809Y-127524380D01*
X171878571Y-127667238D01*
X171783333Y-127762476D01*
X171688095Y-127810095D01*
X167925714Y-128214380D02*
X167354285Y-128214380D01*
X167640000Y-128214380D02*
X167640000Y-127214380D01*
X167544761Y-127357238D01*
X167449523Y-127452476D01*
X167354285Y-127500095D01*
X168656095Y-106584380D02*
X168656095Y-107393904D01*
X168703714Y-107489142D01*
X168751333Y-107536761D01*
X168846571Y-107584380D01*
X169037047Y-107584380D01*
X169132285Y-107536761D01*
X169179904Y-107489142D01*
X169227523Y-107393904D01*
X169227523Y-106584380D01*
X169656095Y-106679619D02*
X169703714Y-106632000D01*
X169798952Y-106584380D01*
X170037047Y-106584380D01*
X170132285Y-106632000D01*
X170179904Y-106679619D01*
X170227523Y-106774857D01*
X170227523Y-106870095D01*
X170179904Y-107012952D01*
X169608476Y-107584380D01*
X170227523Y-107584380D01*
X173513714Y-107894380D02*
X172942285Y-107894380D01*
X173228000Y-107894380D02*
X173228000Y-106894380D01*
X173132761Y-107037238D01*
X173037523Y-107132476D01*
X172942285Y-107180095D01*
X141775428Y-109877142D02*
X141727809Y-109924761D01*
X141584952Y-109972380D01*
X141489714Y-109972380D01*
X141346857Y-109924761D01*
X141251619Y-109829523D01*
X141204000Y-109734285D01*
X141156380Y-109543809D01*
X141156380Y-109400952D01*
X141204000Y-109210476D01*
X141251619Y-109115238D01*
X141346857Y-109020000D01*
X141489714Y-108972380D01*
X141584952Y-108972380D01*
X141727809Y-109020000D01*
X141775428Y-109067619D01*
X141965904Y-110067619D02*
X142727809Y-110067619D01*
X142965904Y-108972380D02*
X142965904Y-109781904D01*
X143013523Y-109877142D01*
X143061142Y-109924761D01*
X143156380Y-109972380D01*
X143346857Y-109972380D01*
X143442095Y-109924761D01*
X143489714Y-109877142D01*
X143537333Y-109781904D01*
X143537333Y-108972380D01*
X143918285Y-108972380D02*
X144537333Y-108972380D01*
X144204000Y-109353333D01*
X144346857Y-109353333D01*
X144442095Y-109400952D01*
X144489714Y-109448571D01*
X144537333Y-109543809D01*
X144537333Y-109781904D01*
X144489714Y-109877142D01*
X144442095Y-109924761D01*
X144346857Y-109972380D01*
X144061142Y-109972380D01*
X143965904Y-109924761D01*
X143918285Y-109877142D01*
X144727809Y-110067619D02*
X145489714Y-110067619D01*
X145632571Y-108972380D02*
X146251619Y-108972380D01*
X145918285Y-109353333D01*
X146061142Y-109353333D01*
X146156380Y-109400952D01*
X146204000Y-109448571D01*
X146251619Y-109543809D01*
X146251619Y-109781904D01*
X146204000Y-109877142D01*
X146156380Y-109924761D01*
X146061142Y-109972380D01*
X145775428Y-109972380D01*
X145680190Y-109924761D01*
X145632571Y-109877142D01*
X161028190Y-118721142D02*
X160980571Y-118768761D01*
X160837714Y-118816380D01*
X160742476Y-118816380D01*
X160599619Y-118768761D01*
X160504380Y-118673523D01*
X160456761Y-118578285D01*
X160409142Y-118387809D01*
X160409142Y-118244952D01*
X160456761Y-118054476D01*
X160504380Y-117959238D01*
X160599619Y-117864000D01*
X160742476Y-117816380D01*
X160837714Y-117816380D01*
X160980571Y-117864000D01*
X161028190Y-117911619D01*
X161409142Y-117911619D02*
X161456761Y-117864000D01*
X161552000Y-117816380D01*
X161790095Y-117816380D01*
X161885333Y-117864000D01*
X161932952Y-117911619D01*
X161980571Y-118006857D01*
X161980571Y-118102095D01*
X161932952Y-118244952D01*
X161361523Y-118816380D01*
X161980571Y-118816380D01*
X162171047Y-118911619D02*
X162932952Y-118911619D01*
X163123428Y-117911619D02*
X163171047Y-117864000D01*
X163266285Y-117816380D01*
X163504380Y-117816380D01*
X163599619Y-117864000D01*
X163647238Y-117911619D01*
X163694857Y-118006857D01*
X163694857Y-118102095D01*
X163647238Y-118244952D01*
X163075809Y-118816380D01*
X163694857Y-118816380D01*
X161028190Y-127865142D02*
X160980571Y-127912761D01*
X160837714Y-127960380D01*
X160742476Y-127960380D01*
X160599619Y-127912761D01*
X160504380Y-127817523D01*
X160456761Y-127722285D01*
X160409142Y-127531809D01*
X160409142Y-127388952D01*
X160456761Y-127198476D01*
X160504380Y-127103238D01*
X160599619Y-127008000D01*
X160742476Y-126960380D01*
X160837714Y-126960380D01*
X160980571Y-127008000D01*
X161028190Y-127055619D01*
X161980571Y-127960380D02*
X161409142Y-127960380D01*
X161694857Y-127960380D02*
X161694857Y-126960380D01*
X161599619Y-127103238D01*
X161504380Y-127198476D01*
X161409142Y-127246095D01*
X162171047Y-128055619D02*
X162932952Y-128055619D01*
X163123428Y-127055619D02*
X163171047Y-127008000D01*
X163266285Y-126960380D01*
X163504380Y-126960380D01*
X163599619Y-127008000D01*
X163647238Y-127055619D01*
X163694857Y-127150857D01*
X163694857Y-127246095D01*
X163647238Y-127388952D01*
X163075809Y-127960380D01*
X163694857Y-127960380D01*
X140485428Y-126657142D02*
X140437809Y-126704761D01*
X140294952Y-126752380D01*
X140199714Y-126752380D01*
X140056857Y-126704761D01*
X139961619Y-126609523D01*
X139914000Y-126514285D01*
X139866380Y-126323809D01*
X139866380Y-126180952D01*
X139914000Y-125990476D01*
X139961619Y-125895238D01*
X140056857Y-125800000D01*
X140199714Y-125752380D01*
X140294952Y-125752380D01*
X140437809Y-125800000D01*
X140485428Y-125847619D01*
X140675904Y-126847619D02*
X141437809Y-126847619D01*
X141675904Y-125752380D02*
X141675904Y-126561904D01*
X141723523Y-126657142D01*
X141771142Y-126704761D01*
X141866380Y-126752380D01*
X142056857Y-126752380D01*
X142152095Y-126704761D01*
X142199714Y-126657142D01*
X142247333Y-126561904D01*
X142247333Y-125752380D01*
X142628285Y-125752380D02*
X143247333Y-125752380D01*
X142914000Y-126133333D01*
X143056857Y-126133333D01*
X143152095Y-126180952D01*
X143199714Y-126228571D01*
X143247333Y-126323809D01*
X143247333Y-126561904D01*
X143199714Y-126657142D01*
X143152095Y-126704761D01*
X143056857Y-126752380D01*
X142771142Y-126752380D01*
X142675904Y-126704761D01*
X142628285Y-126657142D01*
X143437809Y-126847619D02*
X144199714Y-126847619D01*
X144961619Y-126752380D02*
X144390190Y-126752380D01*
X144675904Y-126752380D02*
X144675904Y-125752380D01*
X144580666Y-125895238D01*
X144485428Y-125990476D01*
X144390190Y-126038095D01*
X155343142Y-103445809D02*
X155390761Y-103493428D01*
X155438380Y-103636285D01*
X155438380Y-103731523D01*
X155390761Y-103874380D01*
X155295523Y-103969619D01*
X155200285Y-104017238D01*
X155009809Y-104064857D01*
X154866952Y-104064857D01*
X154676476Y-104017238D01*
X154581238Y-103969619D01*
X154486000Y-103874380D01*
X154438380Y-103731523D01*
X154438380Y-103636285D01*
X154486000Y-103493428D01*
X154533619Y-103445809D01*
X154533619Y-103064857D02*
X154486000Y-103017238D01*
X154438380Y-102922000D01*
X154438380Y-102683904D01*
X154486000Y-102588666D01*
X154533619Y-102541047D01*
X154628857Y-102493428D01*
X154724095Y-102493428D01*
X154866952Y-102541047D01*
X155438380Y-103112476D01*
X155438380Y-102493428D01*
X155533619Y-102302952D02*
X155533619Y-101541047D01*
X155438380Y-100779142D02*
X155438380Y-101350571D01*
X155438380Y-101064857D02*
X154438380Y-101064857D01*
X154581238Y-101160095D01*
X154676476Y-101255333D01*
X154724095Y-101350571D01*
X161476190Y-135785142D02*
X161428571Y-135832761D01*
X161285714Y-135880380D01*
X161190476Y-135880380D01*
X161047619Y-135832761D01*
X160952380Y-135737523D01*
X160904761Y-135642285D01*
X160857142Y-135451809D01*
X160857142Y-135308952D01*
X160904761Y-135118476D01*
X160952380Y-135023238D01*
X161047619Y-134928000D01*
X161190476Y-134880380D01*
X161285714Y-134880380D01*
X161428571Y-134928000D01*
X161476190Y-134975619D01*
X162428571Y-135880380D02*
X161857142Y-135880380D01*
X162142857Y-135880380D02*
X162142857Y-134880380D01*
X162047619Y-135023238D01*
X161952380Y-135118476D01*
X161857142Y-135166095D01*
X162619047Y-135975619D02*
X163380952Y-135975619D01*
X164142857Y-135880380D02*
X163571428Y-135880380D01*
X163857142Y-135880380D02*
X163857142Y-134880380D01*
X163761904Y-135023238D01*
X163666666Y-135118476D01*
X163571428Y-135166095D01*
D18*
X89165800Y-97855314D02*
X89119838Y-97901276D01*
X88981952Y-97947238D01*
X88890028Y-97947238D01*
X88752142Y-97901276D01*
X88660219Y-97809352D01*
X88614257Y-97717428D01*
X88568295Y-97533580D01*
X88568295Y-97395695D01*
X88614257Y-97211847D01*
X88660219Y-97119923D01*
X88752142Y-97028000D01*
X88890028Y-96982038D01*
X88981952Y-96982038D01*
X89119838Y-97028000D01*
X89165800Y-97073961D01*
X89717342Y-97947238D02*
X89625419Y-97901276D01*
X89579457Y-97855314D01*
X89533495Y-97763390D01*
X89533495Y-97487619D01*
X89579457Y-97395695D01*
X89625419Y-97349733D01*
X89717342Y-97303771D01*
X89855228Y-97303771D01*
X89947152Y-97349733D01*
X89993114Y-97395695D01*
X90039076Y-97487619D01*
X90039076Y-97763390D01*
X89993114Y-97855314D01*
X89947152Y-97901276D01*
X89855228Y-97947238D01*
X89717342Y-97947238D01*
X90452733Y-97303771D02*
X90452733Y-97947238D01*
X90452733Y-97395695D02*
X90498695Y-97349733D01*
X90590619Y-97303771D01*
X90728504Y-97303771D01*
X90820428Y-97349733D01*
X90866390Y-97441657D01*
X90866390Y-97947238D01*
X91326009Y-97303771D02*
X91326009Y-97947238D01*
X91326009Y-97395695D02*
X91371971Y-97349733D01*
X91463895Y-97303771D01*
X91601781Y-97303771D01*
X91693704Y-97349733D01*
X91739666Y-97441657D01*
X91739666Y-97947238D01*
X92153323Y-97073961D02*
X92199285Y-97028000D01*
X92291209Y-96982038D01*
X92521019Y-96982038D01*
X92612942Y-97028000D01*
X92658904Y-97073961D01*
X92704866Y-97165885D01*
X92704866Y-97257809D01*
X92658904Y-97395695D01*
X92107362Y-97947238D01*
X92704866Y-97947238D01*
D19*
X97517660Y-103066547D02*
X96828232Y-103066547D01*
X97172946Y-103066547D02*
X97172946Y-101860047D01*
X97058041Y-102032404D01*
X96943136Y-102147309D01*
X96828232Y-102204761D01*
X98264541Y-101860047D02*
X98379446Y-101860047D01*
X98494351Y-101917500D01*
X98551803Y-101974952D01*
X98609255Y-102089857D01*
X98666708Y-102319666D01*
X98666708Y-102606928D01*
X98609255Y-102836738D01*
X98551803Y-102951642D01*
X98494351Y-103009095D01*
X98379446Y-103066547D01*
X98264541Y-103066547D01*
X98149636Y-103009095D01*
X98092184Y-102951642D01*
X98034732Y-102836738D01*
X97977279Y-102606928D01*
X97977279Y-102319666D01*
X98034732Y-102089857D01*
X98092184Y-101974952D01*
X98149636Y-101917500D01*
X98264541Y-101860047D01*
X99183779Y-102262214D02*
X99183779Y-103468714D01*
X99183779Y-102319666D02*
X99298684Y-102262214D01*
X99528493Y-102262214D01*
X99643398Y-102319666D01*
X99700851Y-102377119D01*
X99758303Y-102492023D01*
X99758303Y-102836738D01*
X99700851Y-102951642D01*
X99643398Y-103009095D01*
X99528493Y-103066547D01*
X99298684Y-103066547D01*
X99183779Y-103009095D01*
X100275374Y-103066547D02*
X100275374Y-102262214D01*
X100275374Y-101860047D02*
X100217922Y-101917500D01*
X100275374Y-101974952D01*
X100332827Y-101917500D01*
X100275374Y-101860047D01*
X100275374Y-101974952D01*
X100849898Y-102262214D02*
X100849898Y-103066547D01*
X100849898Y-102377119D02*
X100907351Y-102319666D01*
X101022255Y-102262214D01*
X101194612Y-102262214D01*
X101309517Y-102319666D01*
X101366970Y-102434571D01*
X101366970Y-103066547D01*
X102286208Y-101860047D02*
X102286208Y-102721833D01*
X102228755Y-102894190D01*
X102113851Y-103009095D01*
X101941493Y-103066547D01*
X101826589Y-103066547D01*
X102803279Y-101974952D02*
X102860732Y-101917500D01*
X102975636Y-101860047D01*
X103262898Y-101860047D01*
X103377803Y-101917500D01*
X103435255Y-101974952D01*
X103492708Y-102089857D01*
X103492708Y-102204761D01*
X103435255Y-102377119D01*
X102745827Y-103066547D01*
X103492708Y-103066547D01*
D18*
X89165800Y-100141314D02*
X89119838Y-100187276D01*
X88981952Y-100233238D01*
X88890028Y-100233238D01*
X88752142Y-100187276D01*
X88660219Y-100095352D01*
X88614257Y-100003428D01*
X88568295Y-99819580D01*
X88568295Y-99681695D01*
X88614257Y-99497847D01*
X88660219Y-99405923D01*
X88752142Y-99314000D01*
X88890028Y-99268038D01*
X88981952Y-99268038D01*
X89119838Y-99314000D01*
X89165800Y-99359961D01*
X89717342Y-100233238D02*
X89625419Y-100187276D01*
X89579457Y-100141314D01*
X89533495Y-100049390D01*
X89533495Y-99773619D01*
X89579457Y-99681695D01*
X89625419Y-99635733D01*
X89717342Y-99589771D01*
X89855228Y-99589771D01*
X89947152Y-99635733D01*
X89993114Y-99681695D01*
X90039076Y-99773619D01*
X90039076Y-100049390D01*
X89993114Y-100141314D01*
X89947152Y-100187276D01*
X89855228Y-100233238D01*
X89717342Y-100233238D01*
X90452733Y-99589771D02*
X90452733Y-100233238D01*
X90452733Y-99681695D02*
X90498695Y-99635733D01*
X90590619Y-99589771D01*
X90728504Y-99589771D01*
X90820428Y-99635733D01*
X90866390Y-99727657D01*
X90866390Y-100233238D01*
X91326009Y-99589771D02*
X91326009Y-100233238D01*
X91326009Y-99681695D02*
X91371971Y-99635733D01*
X91463895Y-99589771D01*
X91601781Y-99589771D01*
X91693704Y-99635733D01*
X91739666Y-99727657D01*
X91739666Y-100233238D01*
X92612942Y-99268038D02*
X92429095Y-99268038D01*
X92337171Y-99314000D01*
X92291209Y-99359961D01*
X92199285Y-99497847D01*
X92153323Y-99681695D01*
X92153323Y-100049390D01*
X92199285Y-100141314D01*
X92245247Y-100187276D01*
X92337171Y-100233238D01*
X92521019Y-100233238D01*
X92612942Y-100187276D01*
X92658904Y-100141314D01*
X92704866Y-100049390D01*
X92704866Y-99819580D01*
X92658904Y-99727657D01*
X92612942Y-99681695D01*
X92521019Y-99635733D01*
X92337171Y-99635733D01*
X92245247Y-99681695D01*
X92199285Y-99727657D01*
X92153323Y-99819580D01*
D19*
X97771660Y-105098547D02*
X97082232Y-105098547D01*
X97426946Y-105098547D02*
X97426946Y-103892047D01*
X97312041Y-104064404D01*
X97197136Y-104179309D01*
X97082232Y-104236761D01*
X98518541Y-103892047D02*
X98633446Y-103892047D01*
X98748351Y-103949500D01*
X98805803Y-104006952D01*
X98863255Y-104121857D01*
X98920708Y-104351666D01*
X98920708Y-104638928D01*
X98863255Y-104868738D01*
X98805803Y-104983642D01*
X98748351Y-105041095D01*
X98633446Y-105098547D01*
X98518541Y-105098547D01*
X98403636Y-105041095D01*
X98346184Y-104983642D01*
X98288732Y-104868738D01*
X98231279Y-104638928D01*
X98231279Y-104351666D01*
X98288732Y-104121857D01*
X98346184Y-104006952D01*
X98403636Y-103949500D01*
X98518541Y-103892047D01*
X99437779Y-104294214D02*
X99437779Y-105500714D01*
X99437779Y-104351666D02*
X99552684Y-104294214D01*
X99782493Y-104294214D01*
X99897398Y-104351666D01*
X99954851Y-104409119D01*
X100012303Y-104524023D01*
X100012303Y-104868738D01*
X99954851Y-104983642D01*
X99897398Y-105041095D01*
X99782493Y-105098547D01*
X99552684Y-105098547D01*
X99437779Y-105041095D01*
X100529374Y-105098547D02*
X100529374Y-104294214D01*
X100529374Y-103892047D02*
X100471922Y-103949500D01*
X100529374Y-104006952D01*
X100586827Y-103949500D01*
X100529374Y-103892047D01*
X100529374Y-104006952D01*
X101103898Y-104294214D02*
X101103898Y-105098547D01*
X101103898Y-104409119D02*
X101161351Y-104351666D01*
X101276255Y-104294214D01*
X101448612Y-104294214D01*
X101563517Y-104351666D01*
X101620970Y-104466571D01*
X101620970Y-105098547D01*
X102540208Y-103892047D02*
X102540208Y-104753833D01*
X102482755Y-104926190D01*
X102367851Y-105041095D01*
X102195493Y-105098547D01*
X102080589Y-105098547D01*
X103631803Y-103892047D02*
X103401993Y-103892047D01*
X103287089Y-103949500D01*
X103229636Y-104006952D01*
X103114732Y-104179309D01*
X103057279Y-104409119D01*
X103057279Y-104868738D01*
X103114732Y-104983642D01*
X103172184Y-105041095D01*
X103287089Y-105098547D01*
X103516898Y-105098547D01*
X103631803Y-105041095D01*
X103689255Y-104983642D01*
X103746708Y-104868738D01*
X103746708Y-104581476D01*
X103689255Y-104466571D01*
X103631803Y-104409119D01*
X103516898Y-104351666D01*
X103287089Y-104351666D01*
X103172184Y-104409119D01*
X103114732Y-104466571D01*
X103057279Y-104581476D01*
D18*
X92412766Y-138736638D02*
X92412766Y-139426066D01*
X92366804Y-139563952D01*
X92274881Y-139655876D01*
X92136995Y-139701838D01*
X92045071Y-139701838D01*
X93332004Y-138736638D02*
X92872385Y-138736638D01*
X92826423Y-139196257D01*
X92872385Y-139150295D01*
X92964309Y-139104333D01*
X93194119Y-139104333D01*
X93286042Y-139150295D01*
X93332004Y-139196257D01*
X93377966Y-139288180D01*
X93377966Y-139517990D01*
X93332004Y-139609914D01*
X93286042Y-139655876D01*
X93194119Y-139701838D01*
X92964309Y-139701838D01*
X92872385Y-139655876D01*
X92826423Y-139609914D01*
D19*
D18*
X92412766Y-141276638D02*
X92412766Y-141966066D01*
X92366804Y-142103952D01*
X92274881Y-142195876D01*
X92136995Y-142241838D01*
X92045071Y-142241838D01*
X93377966Y-142241838D02*
X92826423Y-142241838D01*
X93102195Y-142241838D02*
X93102195Y-141276638D01*
X93010271Y-141414523D01*
X92918347Y-141506447D01*
X92826423Y-141552409D01*
D19*
D20*
X123961440Y-95657851D02*
X123924670Y-95694620D01*
X123814362Y-95731390D01*
X123740823Y-95731390D01*
X123630514Y-95694620D01*
X123556975Y-95621081D01*
X123520205Y-95547542D01*
X123483436Y-95400464D01*
X123483436Y-95290156D01*
X123520205Y-95143078D01*
X123556975Y-95069539D01*
X123630514Y-94996000D01*
X123740823Y-94959230D01*
X123814362Y-94959230D01*
X123924670Y-94996000D01*
X123961440Y-95032769D01*
X124402674Y-95731390D02*
X124329135Y-95694620D01*
X124292365Y-95657851D01*
X124255596Y-95584312D01*
X124255596Y-95363695D01*
X124292365Y-95290156D01*
X124329135Y-95253386D01*
X124402674Y-95216617D01*
X124512983Y-95216617D01*
X124586522Y-95253386D01*
X124623291Y-95290156D01*
X124660061Y-95363695D01*
X124660061Y-95584312D01*
X124623291Y-95657851D01*
X124586522Y-95694620D01*
X124512983Y-95731390D01*
X124402674Y-95731390D01*
X124990986Y-95216617D02*
X124990986Y-95731390D01*
X124990986Y-95290156D02*
X125027756Y-95253386D01*
X125101295Y-95216617D01*
X125211604Y-95216617D01*
X125285143Y-95253386D01*
X125321912Y-95326925D01*
X125321912Y-95731390D01*
X125689607Y-95216617D02*
X125689607Y-95731390D01*
X125689607Y-95290156D02*
X125726377Y-95253386D01*
X125799916Y-95216617D01*
X125910224Y-95216617D01*
X125983764Y-95253386D01*
X126020533Y-95326925D01*
X126020533Y-95731390D01*
X126314689Y-94959230D02*
X126792693Y-94959230D01*
X126535306Y-95253386D01*
X126645615Y-95253386D01*
X126719154Y-95290156D01*
X126755924Y-95326925D01*
X126792693Y-95400464D01*
X126792693Y-95584312D01*
X126755924Y-95657851D01*
X126719154Y-95694620D01*
X126645615Y-95731390D01*
X126424998Y-95731390D01*
X126351459Y-95694620D01*
X126314689Y-95657851D01*
D19*
X122896887Y-102304547D02*
X123643767Y-102304547D01*
X123241601Y-102764166D01*
X123413958Y-102764166D01*
X123528863Y-102821619D01*
X123586315Y-102879071D01*
X123643767Y-102993976D01*
X123643767Y-103281238D01*
X123586315Y-103396142D01*
X123528863Y-103453595D01*
X123413958Y-103511047D01*
X123069244Y-103511047D01*
X122954339Y-103453595D01*
X122896887Y-103396142D01*
X124160839Y-102706714D02*
X124160839Y-103913214D01*
X124160839Y-102764166D02*
X124275744Y-102706714D01*
X124505553Y-102706714D01*
X124620458Y-102764166D01*
X124677910Y-102821619D01*
X124735363Y-102936523D01*
X124735363Y-103281238D01*
X124677910Y-103396142D01*
X124620458Y-103453595D01*
X124505553Y-103511047D01*
X124275744Y-103511047D01*
X124160839Y-103453595D01*
X125252434Y-103511047D02*
X125252434Y-102706714D01*
X125252434Y-102304547D02*
X125194982Y-102362000D01*
X125252434Y-102419452D01*
X125309887Y-102362000D01*
X125252434Y-102304547D01*
X125252434Y-102419452D01*
X125826958Y-102706714D02*
X125826958Y-103511047D01*
X125826958Y-102821619D02*
X125884410Y-102764166D01*
X125999315Y-102706714D01*
X126171672Y-102706714D01*
X126286577Y-102764166D01*
X126344029Y-102879071D01*
X126344029Y-103511047D01*
X127263267Y-102304547D02*
X127263267Y-103166333D01*
X127205815Y-103338690D01*
X127090910Y-103453595D01*
X126918553Y-103511047D01*
X126803648Y-103511047D01*
X127722887Y-102304547D02*
X128469767Y-102304547D01*
X128067601Y-102764166D01*
X128239958Y-102764166D01*
X128354863Y-102821619D01*
X128412315Y-102879071D01*
X128469767Y-102993976D01*
X128469767Y-103281238D01*
X128412315Y-103396142D01*
X128354863Y-103453595D01*
X128239958Y-103511047D01*
X127895244Y-103511047D01*
X127780339Y-103453595D01*
X127722887Y-103396142D01*
D13*
X194381523Y-142688380D02*
X194048190Y-142212190D01*
X193810095Y-142688380D02*
X193810095Y-141688380D01*
X194191047Y-141688380D01*
X194286285Y-141736000D01*
X194333904Y-141783619D01*
X194381523Y-141878857D01*
X194381523Y-142021714D01*
X194333904Y-142116952D01*
X194286285Y-142164571D01*
X194191047Y-142212190D01*
X193810095Y-142212190D01*
X194810095Y-142688380D02*
X194810095Y-141688380D01*
X194810095Y-142164571D02*
X195381523Y-142164571D01*
X195381523Y-142688380D02*
X195381523Y-141688380D01*
X196381523Y-142688380D02*
X195810095Y-142688380D01*
X196095809Y-142688380D02*
X196095809Y-141688380D01*
X196000571Y-141831238D01*
X195905333Y-141926476D01*
X195810095Y-141974095D01*
X194381523Y-115002380D02*
X194048190Y-114526190D01*
X193810095Y-115002380D02*
X193810095Y-114002380D01*
X194191047Y-114002380D01*
X194286285Y-114050000D01*
X194333904Y-114097619D01*
X194381523Y-114192857D01*
X194381523Y-114335714D01*
X194333904Y-114430952D01*
X194286285Y-114478571D01*
X194191047Y-114526190D01*
X193810095Y-114526190D01*
X194810095Y-115002380D02*
X194810095Y-114002380D01*
X194810095Y-114478571D02*
X195381523Y-114478571D01*
X195381523Y-115002380D02*
X195381523Y-114002380D01*
X195810095Y-114097619D02*
X195857714Y-114050000D01*
X195952952Y-114002380D01*
X196191047Y-114002380D01*
X196286285Y-114050000D01*
X196333904Y-114097619D01*
X196381523Y-114192857D01*
X196381523Y-114288095D01*
X196333904Y-114430952D01*
X195762476Y-115002380D01*
X196381523Y-115002380D01*
X194500571Y-133036380D02*
X194167238Y-132560190D01*
X193929142Y-133036380D02*
X193929142Y-132036380D01*
X194310095Y-132036380D01*
X194405333Y-132084000D01*
X194452952Y-132131619D01*
X194500571Y-132226857D01*
X194500571Y-132369714D01*
X194452952Y-132464952D01*
X194405333Y-132512571D01*
X194310095Y-132560190D01*
X193929142Y-132560190D01*
X195405333Y-133036380D02*
X194929142Y-133036380D01*
X194929142Y-132036380D01*
X196262476Y-133036380D02*
X195691047Y-133036380D01*
X195976761Y-133036380D02*
X195976761Y-132036380D01*
X195881523Y-132179238D01*
X195786285Y-132274476D01*
X195691047Y-132322095D01*
X194500571Y-124400380D02*
X194167238Y-123924190D01*
X193929142Y-124400380D02*
X193929142Y-123400380D01*
X194310095Y-123400380D01*
X194405333Y-123448000D01*
X194452952Y-123495619D01*
X194500571Y-123590857D01*
X194500571Y-123733714D01*
X194452952Y-123828952D01*
X194405333Y-123876571D01*
X194310095Y-123924190D01*
X193929142Y-123924190D01*
X195405333Y-124400380D02*
X194929142Y-124400380D01*
X194929142Y-123400380D01*
X195691047Y-123495619D02*
X195738666Y-123448000D01*
X195833904Y-123400380D01*
X196072000Y-123400380D01*
X196167238Y-123448000D01*
X196214857Y-123495619D01*
X196262476Y-123590857D01*
X196262476Y-123686095D01*
X196214857Y-123828952D01*
X195643428Y-124400380D01*
X196262476Y-124400380D01*
X142049428Y-96405142D02*
X142001809Y-96452761D01*
X141858952Y-96500380D01*
X141763714Y-96500380D01*
X141620857Y-96452761D01*
X141525619Y-96357523D01*
X141478000Y-96262285D01*
X141430380Y-96071809D01*
X141430380Y-95928952D01*
X141478000Y-95738476D01*
X141525619Y-95643238D01*
X141620857Y-95548000D01*
X141763714Y-95500380D01*
X141858952Y-95500380D01*
X142001809Y-95548000D01*
X142049428Y-95595619D01*
X142239904Y-96595619D02*
X143001809Y-96595619D01*
X143239904Y-95500380D02*
X143239904Y-96309904D01*
X143287523Y-96405142D01*
X143335142Y-96452761D01*
X143430380Y-96500380D01*
X143620857Y-96500380D01*
X143716095Y-96452761D01*
X143763714Y-96405142D01*
X143811333Y-96309904D01*
X143811333Y-95500380D01*
X144192285Y-95500380D02*
X144811333Y-95500380D01*
X144478000Y-95881333D01*
X144620857Y-95881333D01*
X144716095Y-95928952D01*
X144763714Y-95976571D01*
X144811333Y-96071809D01*
X144811333Y-96309904D01*
X144763714Y-96405142D01*
X144716095Y-96452761D01*
X144620857Y-96500380D01*
X144335142Y-96500380D01*
X144239904Y-96452761D01*
X144192285Y-96405142D01*
X145001809Y-96595619D02*
X145763714Y-96595619D01*
X145954190Y-95595619D02*
X146001809Y-95548000D01*
X146097047Y-95500380D01*
X146335142Y-95500380D01*
X146430380Y-95548000D01*
X146478000Y-95595619D01*
X146525619Y-95690857D01*
X146525619Y-95786095D01*
X146478000Y-95928952D01*
X145906571Y-96500380D01*
X146525619Y-96500380D01*
X131485047Y-97480380D02*
X131008857Y-97480380D01*
X131008857Y-96480380D01*
X131818380Y-96956571D02*
X132151714Y-96956571D01*
X132294571Y-97480380D02*
X131818380Y-97480380D01*
X131818380Y-96480380D01*
X132294571Y-96480380D01*
X132723142Y-97480380D02*
X132723142Y-96480380D01*
X132961238Y-96480380D01*
X133104095Y-96528000D01*
X133199333Y-96623238D01*
X133246952Y-96718476D01*
X133294571Y-96908952D01*
X133294571Y-97051809D01*
X133246952Y-97242285D01*
X133199333Y-97337523D01*
X133104095Y-97432761D01*
X132961238Y-97480380D01*
X132723142Y-97480380D01*
X133485047Y-97575619D02*
X134246952Y-97575619D01*
X134485047Y-96480380D02*
X134485047Y-97289904D01*
X134532666Y-97385142D01*
X134580285Y-97432761D01*
X134675523Y-97480380D01*
X134866000Y-97480380D01*
X134961238Y-97432761D01*
X135008857Y-97385142D01*
X135056476Y-97289904D01*
X135056476Y-96480380D01*
X135437428Y-96480380D02*
X136056476Y-96480380D01*
X135723142Y-96861333D01*
X135866000Y-96861333D01*
X135961238Y-96908952D01*
X136008857Y-96956571D01*
X136056476Y-97051809D01*
X136056476Y-97289904D01*
X136008857Y-97385142D01*
X135961238Y-97432761D01*
X135866000Y-97480380D01*
X135580285Y-97480380D01*
X135485047Y-97432761D01*
X135437428Y-97385142D01*
X136246952Y-97575619D02*
X137008857Y-97575619D01*
X137770761Y-97480380D02*
X137199333Y-97480380D01*
X137485047Y-97480380D02*
X137485047Y-96480380D01*
X137389809Y-96623238D01*
X137294571Y-96718476D01*
X137199333Y-96766095D01*
X136678380Y-110656666D02*
X136202190Y-110990000D01*
X136678380Y-111228095D02*
X135678380Y-111228095D01*
X135678380Y-110847142D01*
X135726000Y-110751904D01*
X135773619Y-110704285D01*
X135868857Y-110656666D01*
X136011714Y-110656666D01*
X136106952Y-110704285D01*
X136154571Y-110751904D01*
X136202190Y-110847142D01*
X136202190Y-111228095D01*
X136678380Y-109704285D02*
X136678380Y-110275714D01*
X136678380Y-109990000D02*
X135678380Y-109990000D01*
X135821238Y-110085238D01*
X135916476Y-110180476D01*
X135964095Y-110275714D01*
X235815142Y-120903809D02*
X235862761Y-120951428D01*
X235910380Y-121094285D01*
X235910380Y-121189523D01*
X235862761Y-121332380D01*
X235767523Y-121427619D01*
X235672285Y-121475238D01*
X235481809Y-121522857D01*
X235338952Y-121522857D01*
X235148476Y-121475238D01*
X235053238Y-121427619D01*
X234958000Y-121332380D01*
X234910380Y-121189523D01*
X234910380Y-121094285D01*
X234958000Y-120951428D01*
X235005619Y-120903809D01*
X235910380Y-120332380D02*
X235862761Y-120427619D01*
X235815142Y-120475238D01*
X235719904Y-120522857D01*
X235434190Y-120522857D01*
X235338952Y-120475238D01*
X235291333Y-120427619D01*
X235243714Y-120332380D01*
X235243714Y-120189523D01*
X235291333Y-120094285D01*
X235338952Y-120046666D01*
X235434190Y-119999047D01*
X235719904Y-119999047D01*
X235815142Y-120046666D01*
X235862761Y-120094285D01*
X235910380Y-120189523D01*
X235910380Y-120332380D01*
X235243714Y-119570476D02*
X235910380Y-119570476D01*
X235338952Y-119570476D02*
X235291333Y-119522857D01*
X235243714Y-119427619D01*
X235243714Y-119284761D01*
X235291333Y-119189523D01*
X235386571Y-119141904D01*
X235910380Y-119141904D01*
X235243714Y-118665714D02*
X235910380Y-118665714D01*
X235338952Y-118665714D02*
X235291333Y-118618095D01*
X235243714Y-118522857D01*
X235243714Y-118380000D01*
X235291333Y-118284761D01*
X235386571Y-118237142D01*
X235910380Y-118237142D01*
X235243714Y-117332380D02*
X235910380Y-117332380D01*
X234862761Y-117570476D02*
X235577047Y-117808571D01*
X235577047Y-117189523D01*
X235815142Y-138683809D02*
X235862761Y-138731428D01*
X235910380Y-138874285D01*
X235910380Y-138969523D01*
X235862761Y-139112380D01*
X235767523Y-139207619D01*
X235672285Y-139255238D01*
X235481809Y-139302857D01*
X235338952Y-139302857D01*
X235148476Y-139255238D01*
X235053238Y-139207619D01*
X234958000Y-139112380D01*
X234910380Y-138969523D01*
X234910380Y-138874285D01*
X234958000Y-138731428D01*
X235005619Y-138683809D01*
X235910380Y-138112380D02*
X235862761Y-138207619D01*
X235815142Y-138255238D01*
X235719904Y-138302857D01*
X235434190Y-138302857D01*
X235338952Y-138255238D01*
X235291333Y-138207619D01*
X235243714Y-138112380D01*
X235243714Y-137969523D01*
X235291333Y-137874285D01*
X235338952Y-137826666D01*
X235434190Y-137779047D01*
X235719904Y-137779047D01*
X235815142Y-137826666D01*
X235862761Y-137874285D01*
X235910380Y-137969523D01*
X235910380Y-138112380D01*
X235243714Y-137350476D02*
X235910380Y-137350476D01*
X235338952Y-137350476D02*
X235291333Y-137302857D01*
X235243714Y-137207619D01*
X235243714Y-137064761D01*
X235291333Y-136969523D01*
X235386571Y-136921904D01*
X235910380Y-136921904D01*
X235243714Y-136445714D02*
X235910380Y-136445714D01*
X235338952Y-136445714D02*
X235291333Y-136398095D01*
X235243714Y-136302857D01*
X235243714Y-136160000D01*
X235291333Y-136064761D01*
X235386571Y-136017142D01*
X235910380Y-136017142D01*
X235910380Y-135017142D02*
X235910380Y-135588571D01*
X235910380Y-135302857D02*
X234910380Y-135302857D01*
X235053238Y-135398095D01*
X235148476Y-135493333D01*
X235196095Y-135588571D01*
M02*
