G04 #@! TF.GenerationSoftware,KiCad,Pcbnew,(2017-03-23 revision 5aa1610)-master*
G04 #@! TF.CreationDate,2017-05-08T22:11:12+02:00*
G04 #@! TF.ProjectId,aPortableInductionHeater,61506F727461626C65496E6475637469,rev?*
G04 #@! TF.FileFunction,Legend,Top*
G04 #@! TF.FilePolarity,Positive*
%FSLAX46Y46*%
G04 Gerber Fmt 4.6, Leading zero omitted, Abs format (unit mm)*
G04 Created by KiCad (PCBNEW (2017-03-23 revision 5aa1610)-master) date 2017 May 08, Monday 22:11:12*
%MOMM*%
%LPD*%
G01*
G04 APERTURE LIST*
%ADD10C,0.100000*%
%ADD11C,0.121920*%
%ADD12C,0.150000*%
%ADD13C,0.203200*%
%ADD14C,0.120000*%
%ADD15C,0.152400*%
%ADD16C,0.101600*%
%ADD17C,0.115824*%
%ADD18C,0.120650*%
%ADD19C,0.092659*%
G04 APERTURE END LIST*
D10*
D11*
X226877057Y-87838038D02*
X226877057Y-86872838D01*
X226877057Y-87332457D02*
X227428600Y-87332457D01*
X227428600Y-87838038D02*
X227428600Y-86872838D01*
X227842257Y-87792076D02*
X227980143Y-87838038D01*
X228209952Y-87838038D01*
X228301876Y-87792076D01*
X228347838Y-87746114D01*
X228393800Y-87654190D01*
X228393800Y-87562266D01*
X228347838Y-87470342D01*
X228301876Y-87424380D01*
X228209952Y-87378419D01*
X228026105Y-87332457D01*
X227934181Y-87286495D01*
X227888219Y-87240533D01*
X227842257Y-87148609D01*
X227842257Y-87056685D01*
X227888219Y-86964761D01*
X227934181Y-86918800D01*
X228026105Y-86872838D01*
X228255914Y-86872838D01*
X228393800Y-86918800D01*
X228761495Y-86964761D02*
X228807457Y-86918800D01*
X228899381Y-86872838D01*
X229129190Y-86872838D01*
X229221114Y-86918800D01*
X229267076Y-86964761D01*
X229313038Y-87056685D01*
X229313038Y-87148609D01*
X229267076Y-87286495D01*
X228715533Y-87838038D01*
X229313038Y-87838038D01*
X226877057Y-100792038D02*
X226877057Y-99826838D01*
X226877057Y-100286457D02*
X227428600Y-100286457D01*
X227428600Y-100792038D02*
X227428600Y-99826838D01*
X227842257Y-100746076D02*
X227980143Y-100792038D01*
X228209952Y-100792038D01*
X228301876Y-100746076D01*
X228347838Y-100700114D01*
X228393800Y-100608190D01*
X228393800Y-100516266D01*
X228347838Y-100424342D01*
X228301876Y-100378380D01*
X228209952Y-100332419D01*
X228026105Y-100286457D01*
X227934181Y-100240495D01*
X227888219Y-100194533D01*
X227842257Y-100102609D01*
X227842257Y-100010685D01*
X227888219Y-99918761D01*
X227934181Y-99872800D01*
X228026105Y-99826838D01*
X228255914Y-99826838D01*
X228393800Y-99872800D01*
X229313038Y-100792038D02*
X228761495Y-100792038D01*
X229037267Y-100792038D02*
X229037267Y-99826838D01*
X228945343Y-99964723D01*
X228853419Y-100056647D01*
X228761495Y-100102609D01*
X150674638Y-78282800D02*
X150582714Y-78236838D01*
X150444828Y-78236838D01*
X150306943Y-78282800D01*
X150215019Y-78374723D01*
X150169057Y-78466647D01*
X150123095Y-78650495D01*
X150123095Y-78788380D01*
X150169057Y-78972228D01*
X150215019Y-79064152D01*
X150306943Y-79156076D01*
X150444828Y-79202038D01*
X150536752Y-79202038D01*
X150674638Y-79156076D01*
X150720600Y-79110114D01*
X150720600Y-78788380D01*
X150536752Y-78788380D01*
X151134257Y-79202038D02*
X151134257Y-78236838D01*
X151685800Y-79202038D01*
X151685800Y-78236838D01*
X152145419Y-79202038D02*
X152145419Y-78236838D01*
X152375228Y-78236838D01*
X152513114Y-78282800D01*
X152605038Y-78374723D01*
X152651000Y-78466647D01*
X152696962Y-78650495D01*
X152696962Y-78788380D01*
X152651000Y-78972228D01*
X152605038Y-79064152D01*
X152513114Y-79156076D01*
X152375228Y-79202038D01*
X152145419Y-79202038D01*
X161207171Y-79760838D02*
X161528905Y-80726038D01*
X161850638Y-79760838D01*
X162723914Y-80634114D02*
X162677952Y-80680076D01*
X162540067Y-80726038D01*
X162448143Y-80726038D01*
X162310257Y-80680076D01*
X162218333Y-80588152D01*
X162172371Y-80496228D01*
X162126409Y-80312380D01*
X162126409Y-80174495D01*
X162172371Y-79990647D01*
X162218333Y-79898723D01*
X162310257Y-79806800D01*
X162448143Y-79760838D01*
X162540067Y-79760838D01*
X162677952Y-79806800D01*
X162723914Y-79852761D01*
X163689114Y-80634114D02*
X163643152Y-80680076D01*
X163505267Y-80726038D01*
X163413343Y-80726038D01*
X163275457Y-80680076D01*
X163183533Y-80588152D01*
X163137571Y-80496228D01*
X163091609Y-80312380D01*
X163091609Y-80174495D01*
X163137571Y-79990647D01*
X163183533Y-79898723D01*
X163275457Y-79806800D01*
X163413343Y-79760838D01*
X163505267Y-79760838D01*
X163643152Y-79806800D01*
X163689114Y-79852761D01*
X152571171Y-103636838D02*
X152892905Y-104602038D01*
X153214638Y-103636838D01*
X154087914Y-104510114D02*
X154041952Y-104556076D01*
X153904067Y-104602038D01*
X153812143Y-104602038D01*
X153674257Y-104556076D01*
X153582333Y-104464152D01*
X153536371Y-104372228D01*
X153490409Y-104188380D01*
X153490409Y-104050495D01*
X153536371Y-103866647D01*
X153582333Y-103774723D01*
X153674257Y-103682800D01*
X153812143Y-103636838D01*
X153904067Y-103636838D01*
X154041952Y-103682800D01*
X154087914Y-103728761D01*
X155053114Y-104510114D02*
X155007152Y-104556076D01*
X154869267Y-104602038D01*
X154777343Y-104602038D01*
X154639457Y-104556076D01*
X154547533Y-104464152D01*
X154501571Y-104372228D01*
X154455609Y-104188380D01*
X154455609Y-104050495D01*
X154501571Y-103866647D01*
X154547533Y-103774723D01*
X154639457Y-103682800D01*
X154777343Y-103636838D01*
X154869267Y-103636838D01*
X155007152Y-103682800D01*
X155053114Y-103728761D01*
X137331171Y-92460838D02*
X137652905Y-93426038D01*
X137974638Y-92460838D01*
X138847914Y-93334114D02*
X138801952Y-93380076D01*
X138664067Y-93426038D01*
X138572143Y-93426038D01*
X138434257Y-93380076D01*
X138342333Y-93288152D01*
X138296371Y-93196228D01*
X138250409Y-93012380D01*
X138250409Y-92874495D01*
X138296371Y-92690647D01*
X138342333Y-92598723D01*
X138434257Y-92506800D01*
X138572143Y-92460838D01*
X138664067Y-92460838D01*
X138801952Y-92506800D01*
X138847914Y-92552761D01*
X139813114Y-93334114D02*
X139767152Y-93380076D01*
X139629267Y-93426038D01*
X139537343Y-93426038D01*
X139399457Y-93380076D01*
X139307533Y-93288152D01*
X139261571Y-93196228D01*
X139215609Y-93012380D01*
X139215609Y-92874495D01*
X139261571Y-92690647D01*
X139307533Y-92598723D01*
X139399457Y-92506800D01*
X139537343Y-92460838D01*
X139629267Y-92460838D01*
X139767152Y-92506800D01*
X139813114Y-92552761D01*
X227382638Y-104952800D02*
X227290714Y-104906838D01*
X227152828Y-104906838D01*
X227014943Y-104952800D01*
X226923019Y-105044723D01*
X226877057Y-105136647D01*
X226831095Y-105320495D01*
X226831095Y-105458380D01*
X226877057Y-105642228D01*
X226923019Y-105734152D01*
X227014943Y-105826076D01*
X227152828Y-105872038D01*
X227244752Y-105872038D01*
X227382638Y-105826076D01*
X227428600Y-105780114D01*
X227428600Y-105458380D01*
X227244752Y-105458380D01*
X227842257Y-105872038D02*
X227842257Y-104906838D01*
X228393800Y-105872038D01*
X228393800Y-104906838D01*
X228853419Y-105872038D02*
X228853419Y-104906838D01*
X229083228Y-104906838D01*
X229221114Y-104952800D01*
X229313038Y-105044723D01*
X229359000Y-105136647D01*
X229404962Y-105320495D01*
X229404962Y-105458380D01*
X229359000Y-105642228D01*
X229313038Y-105734152D01*
X229221114Y-105826076D01*
X229083228Y-105872038D01*
X228853419Y-105872038D01*
X226993171Y-117860838D02*
X227314905Y-118826038D01*
X227636638Y-117860838D01*
X228509914Y-118734114D02*
X228463952Y-118780076D01*
X228326067Y-118826038D01*
X228234143Y-118826038D01*
X228096257Y-118780076D01*
X228004333Y-118688152D01*
X227958371Y-118596228D01*
X227912409Y-118412380D01*
X227912409Y-118274495D01*
X227958371Y-118090647D01*
X228004333Y-117998723D01*
X228096257Y-117906800D01*
X228234143Y-117860838D01*
X228326067Y-117860838D01*
X228463952Y-117906800D01*
X228509914Y-117952761D01*
X229475114Y-118734114D02*
X229429152Y-118780076D01*
X229291267Y-118826038D01*
X229199343Y-118826038D01*
X229061457Y-118780076D01*
X228969533Y-118688152D01*
X228923571Y-118596228D01*
X228877609Y-118412380D01*
X228877609Y-118274495D01*
X228923571Y-118090647D01*
X228969533Y-117998723D01*
X229061457Y-117906800D01*
X229199343Y-117860838D01*
X229291267Y-117860838D01*
X229429152Y-117906800D01*
X229475114Y-117952761D01*
X124423133Y-97794838D02*
X125020638Y-97794838D01*
X124698905Y-98162533D01*
X124836790Y-98162533D01*
X124928714Y-98208495D01*
X124974676Y-98254457D01*
X125020638Y-98346380D01*
X125020638Y-98576190D01*
X124974676Y-98668114D01*
X124928714Y-98714076D01*
X124836790Y-98760038D01*
X124561019Y-98760038D01*
X124469095Y-98714076D01*
X124423133Y-98668114D01*
X125296409Y-97794838D02*
X125618143Y-98760038D01*
X125939876Y-97794838D01*
X126169686Y-97794838D02*
X126767190Y-97794838D01*
X126445457Y-98162533D01*
X126583343Y-98162533D01*
X126675267Y-98208495D01*
X126721228Y-98254457D01*
X126767190Y-98346380D01*
X126767190Y-98576190D01*
X126721228Y-98668114D01*
X126675267Y-98714076D01*
X126583343Y-98760038D01*
X126307571Y-98760038D01*
X126215648Y-98714076D01*
X126169686Y-98668114D01*
X138228638Y-97078800D02*
X138136714Y-97032838D01*
X137998828Y-97032838D01*
X137860943Y-97078800D01*
X137769019Y-97170723D01*
X137723057Y-97262647D01*
X137677095Y-97446495D01*
X137677095Y-97584380D01*
X137723057Y-97768228D01*
X137769019Y-97860152D01*
X137860943Y-97952076D01*
X137998828Y-97998038D01*
X138090752Y-97998038D01*
X138228638Y-97952076D01*
X138274600Y-97906114D01*
X138274600Y-97584380D01*
X138090752Y-97584380D01*
X138688257Y-97998038D02*
X138688257Y-97032838D01*
X139239800Y-97998038D01*
X139239800Y-97032838D01*
X139699419Y-97998038D02*
X139699419Y-97032838D01*
X139929228Y-97032838D01*
X140067114Y-97078800D01*
X140159038Y-97170723D01*
X140205000Y-97262647D01*
X140250962Y-97446495D01*
X140250962Y-97584380D01*
X140205000Y-97768228D01*
X140159038Y-97860152D01*
X140067114Y-97952076D01*
X139929228Y-97998038D01*
X139699419Y-97998038D01*
X84380638Y-112572800D02*
X84288714Y-112526838D01*
X84150828Y-112526838D01*
X84012943Y-112572800D01*
X83921019Y-112664723D01*
X83875057Y-112756647D01*
X83829095Y-112940495D01*
X83829095Y-113078380D01*
X83875057Y-113262228D01*
X83921019Y-113354152D01*
X84012943Y-113446076D01*
X84150828Y-113492038D01*
X84242752Y-113492038D01*
X84380638Y-113446076D01*
X84426600Y-113400114D01*
X84426600Y-113078380D01*
X84242752Y-113078380D01*
X84840257Y-113492038D02*
X84840257Y-112526838D01*
X85391800Y-113492038D01*
X85391800Y-112526838D01*
X85851419Y-113492038D02*
X85851419Y-112526838D01*
X86081228Y-112526838D01*
X86219114Y-112572800D01*
X86311038Y-112664723D01*
X86357000Y-112756647D01*
X86402962Y-112940495D01*
X86402962Y-113078380D01*
X86357000Y-113262228D01*
X86311038Y-113354152D01*
X86219114Y-113446076D01*
X86081228Y-113492038D01*
X85851419Y-113492038D01*
X105618038Y-76909361D02*
X105618038Y-77460904D01*
X105618038Y-77185132D02*
X104652838Y-77185132D01*
X104790723Y-77277056D01*
X104882647Y-77368980D01*
X104928609Y-77460904D01*
X104652838Y-76311856D02*
X104652838Y-76219932D01*
X104698800Y-76128009D01*
X104744761Y-76082047D01*
X104836685Y-76036085D01*
X105020533Y-75990123D01*
X105250342Y-75990123D01*
X105434190Y-76036085D01*
X105526114Y-76082047D01*
X105572076Y-76128009D01*
X105618038Y-76219932D01*
X105618038Y-76311856D01*
X105572076Y-76403780D01*
X105526114Y-76449742D01*
X105434190Y-76495704D01*
X105250342Y-76541666D01*
X105020533Y-76541666D01*
X104836685Y-76495704D01*
X104744761Y-76449742D01*
X104698800Y-76403780D01*
X104652838Y-76311856D01*
X76371776Y-114530438D02*
X75912157Y-114530438D01*
X75866195Y-114990057D01*
X75912157Y-114944095D01*
X76004081Y-114898133D01*
X76233890Y-114898133D01*
X76325814Y-114944095D01*
X76371776Y-114990057D01*
X76417738Y-115081980D01*
X76417738Y-115311790D01*
X76371776Y-115403714D01*
X76325814Y-115449676D01*
X76233890Y-115495638D01*
X76004081Y-115495638D01*
X75912157Y-115449676D01*
X75866195Y-115403714D01*
X76693509Y-114530438D02*
X77015243Y-115495638D01*
X77336976Y-114530438D01*
X75820233Y-117070438D02*
X76417738Y-117070438D01*
X76096005Y-117438133D01*
X76233890Y-117438133D01*
X76325814Y-117484095D01*
X76371776Y-117530057D01*
X76417738Y-117621980D01*
X76417738Y-117851790D01*
X76371776Y-117943714D01*
X76325814Y-117989676D01*
X76233890Y-118035638D01*
X75958119Y-118035638D01*
X75866195Y-117989676D01*
X75820233Y-117943714D01*
X76693509Y-117070438D02*
X77015243Y-118035638D01*
X77336976Y-117070438D01*
X77566786Y-117070438D02*
X78164290Y-117070438D01*
X77842557Y-117438133D01*
X77980443Y-117438133D01*
X78072367Y-117484095D01*
X78118328Y-117530057D01*
X78164290Y-117621980D01*
X78164290Y-117851790D01*
X78118328Y-117943714D01*
X78072367Y-117989676D01*
X77980443Y-118035638D01*
X77704671Y-118035638D01*
X77612748Y-117989676D01*
X77566786Y-117943714D01*
X79046638Y-70154800D02*
X78954714Y-70108838D01*
X78816828Y-70108838D01*
X78678943Y-70154800D01*
X78587019Y-70246723D01*
X78541057Y-70338647D01*
X78495095Y-70522495D01*
X78495095Y-70660380D01*
X78541057Y-70844228D01*
X78587019Y-70936152D01*
X78678943Y-71028076D01*
X78816828Y-71074038D01*
X78908752Y-71074038D01*
X79046638Y-71028076D01*
X79092600Y-70982114D01*
X79092600Y-70660380D01*
X78908752Y-70660380D01*
X79506257Y-71074038D02*
X79506257Y-70108838D01*
X80057800Y-71074038D01*
X80057800Y-70108838D01*
X80517419Y-71074038D02*
X80517419Y-70108838D01*
X80747228Y-70108838D01*
X80885114Y-70154800D01*
X80977038Y-70246723D01*
X81023000Y-70338647D01*
X81068962Y-70522495D01*
X81068962Y-70660380D01*
X81023000Y-70844228D01*
X80977038Y-70936152D01*
X80885114Y-71028076D01*
X80747228Y-71074038D01*
X80517419Y-71074038D01*
X109893100Y-75663019D02*
X109847138Y-75754943D01*
X109847138Y-75892828D01*
X109893100Y-76030714D01*
X109985023Y-76122638D01*
X110076947Y-76168600D01*
X110260795Y-76214562D01*
X110398680Y-76214562D01*
X110582528Y-76168600D01*
X110674452Y-76122638D01*
X110766376Y-76030714D01*
X110812338Y-75892828D01*
X110812338Y-75800905D01*
X110766376Y-75663019D01*
X110720414Y-75617057D01*
X110398680Y-75617057D01*
X110398680Y-75800905D01*
X110812338Y-75203400D02*
X109847138Y-75203400D01*
X110812338Y-74651857D01*
X109847138Y-74651857D01*
X110812338Y-74192238D02*
X109847138Y-74192238D01*
X109847138Y-73962428D01*
X109893100Y-73824543D01*
X109985023Y-73732619D01*
X110076947Y-73686657D01*
X110260795Y-73640695D01*
X110398680Y-73640695D01*
X110582528Y-73686657D01*
X110674452Y-73732619D01*
X110766376Y-73824543D01*
X110812338Y-73962428D01*
X110812338Y-74192238D01*
X112433100Y-75663019D02*
X112387138Y-75754943D01*
X112387138Y-75892828D01*
X112433100Y-76030714D01*
X112525023Y-76122638D01*
X112616947Y-76168600D01*
X112800795Y-76214562D01*
X112938680Y-76214562D01*
X113122528Y-76168600D01*
X113214452Y-76122638D01*
X113306376Y-76030714D01*
X113352338Y-75892828D01*
X113352338Y-75800905D01*
X113306376Y-75663019D01*
X113260414Y-75617057D01*
X112938680Y-75617057D01*
X112938680Y-75800905D01*
X113352338Y-75203400D02*
X112387138Y-75203400D01*
X113352338Y-74651857D01*
X112387138Y-74651857D01*
X113352338Y-74192238D02*
X112387138Y-74192238D01*
X112387138Y-73962428D01*
X112433100Y-73824543D01*
X112525023Y-73732619D01*
X112616947Y-73686657D01*
X112800795Y-73640695D01*
X112938680Y-73640695D01*
X113122528Y-73686657D01*
X113214452Y-73732619D01*
X113306376Y-73824543D01*
X113352338Y-73962428D01*
X113352338Y-74192238D01*
X114927138Y-75984752D02*
X114927138Y-75387248D01*
X115294833Y-75708981D01*
X115294833Y-75571095D01*
X115340795Y-75479171D01*
X115386757Y-75433209D01*
X115478680Y-75387248D01*
X115708490Y-75387248D01*
X115800414Y-75433209D01*
X115846376Y-75479171D01*
X115892338Y-75571095D01*
X115892338Y-75846867D01*
X115846376Y-75938790D01*
X115800414Y-75984752D01*
X114927138Y-75111476D02*
X115892338Y-74789743D01*
X114927138Y-74468009D01*
X114927138Y-74238200D02*
X114927138Y-73640695D01*
X115294833Y-73962428D01*
X115294833Y-73824543D01*
X115340795Y-73732619D01*
X115386757Y-73686657D01*
X115478680Y-73640695D01*
X115708490Y-73640695D01*
X115800414Y-73686657D01*
X115846376Y-73732619D01*
X115892338Y-73824543D01*
X115892338Y-74100314D01*
X115846376Y-74192238D01*
X115800414Y-74238200D01*
X82923138Y-112440961D02*
X82923138Y-112992504D01*
X82923138Y-112716732D02*
X81957938Y-112716732D01*
X82095823Y-112808656D01*
X82187747Y-112900580D01*
X82233709Y-112992504D01*
X105783138Y-112440961D02*
X105783138Y-112992504D01*
X105783138Y-112716732D02*
X104817938Y-112716732D01*
X104955823Y-112808656D01*
X105047747Y-112900580D01*
X105093709Y-112992504D01*
X104817938Y-111843456D02*
X104817938Y-111751532D01*
X104863900Y-111659609D01*
X104909861Y-111613647D01*
X105001785Y-111567685D01*
X105185633Y-111521723D01*
X105415442Y-111521723D01*
X105599290Y-111567685D01*
X105691214Y-111613647D01*
X105737176Y-111659609D01*
X105783138Y-111751532D01*
X105783138Y-111843456D01*
X105737176Y-111935380D01*
X105691214Y-111981342D01*
X105599290Y-112027304D01*
X105415442Y-112073266D01*
X105185633Y-112073266D01*
X105001785Y-112027304D01*
X104909861Y-111981342D01*
X104863900Y-111935380D01*
X104817938Y-111843456D01*
X82872338Y-76180695D02*
X82872338Y-76732238D01*
X82872338Y-76456467D02*
X81907138Y-76456467D01*
X82045023Y-76548390D01*
X82136947Y-76640314D01*
X82182909Y-76732238D01*
D12*
X221996000Y-107950000D02*
X221996000Y-113030000D01*
X221996000Y-107950000D02*
X199136000Y-107950000D01*
X199136000Y-113030000D02*
X199136000Y-107950000D01*
X205486000Y-113030000D02*
X199136000Y-113030000D01*
X221996000Y-113030000D02*
X215646000Y-113030000D01*
X215392000Y-113919000D02*
X215392000Y-117348000D01*
X205740000Y-113919000D02*
X205740000Y-117348000D01*
X215900000Y-112776000D02*
X205232000Y-112776000D01*
X212344000Y-113792000D02*
X212344000Y-112522000D01*
X208788000Y-113792000D02*
X208788000Y-112522000D01*
X205232000Y-113919000D02*
X215900000Y-113919000D01*
X215900000Y-117348000D02*
X205232000Y-117348000D01*
X205232000Y-112522000D02*
X205232000Y-117348000D01*
X215900000Y-112522000D02*
X215900000Y-117348000D01*
X215900000Y-112522000D02*
X205232000Y-112522000D01*
X215900000Y-100838000D02*
X205232000Y-100838000D01*
X215900000Y-100838000D02*
X215900000Y-105664000D01*
X205232000Y-100838000D02*
X205232000Y-105664000D01*
X215900000Y-105664000D02*
X205232000Y-105664000D01*
X205232000Y-102235000D02*
X215900000Y-102235000D01*
X208788000Y-102108000D02*
X208788000Y-100838000D01*
X212344000Y-102108000D02*
X212344000Y-100838000D01*
X215900000Y-101092000D02*
X205232000Y-101092000D01*
X205740000Y-102235000D02*
X205740000Y-105664000D01*
X215392000Y-102235000D02*
X215392000Y-105664000D01*
X221996000Y-101346000D02*
X215646000Y-101346000D01*
X205486000Y-101346000D02*
X199136000Y-101346000D01*
X199136000Y-101346000D02*
X199136000Y-96266000D01*
X221996000Y-96266000D02*
X199136000Y-96266000D01*
X221996000Y-96266000D02*
X221996000Y-101346000D01*
X215900000Y-88900000D02*
X205232000Y-88900000D01*
X215900000Y-88900000D02*
X215900000Y-93726000D01*
X205232000Y-88900000D02*
X205232000Y-93726000D01*
X215900000Y-93726000D02*
X205232000Y-93726000D01*
X205232000Y-90297000D02*
X215900000Y-90297000D01*
X208788000Y-90170000D02*
X208788000Y-88900000D01*
X212344000Y-90170000D02*
X212344000Y-88900000D01*
X215900000Y-89154000D02*
X205232000Y-89154000D01*
X205740000Y-90297000D02*
X205740000Y-93726000D01*
X215392000Y-90297000D02*
X215392000Y-93726000D01*
X221996000Y-89408000D02*
X215646000Y-89408000D01*
X205486000Y-89408000D02*
X199136000Y-89408000D01*
X199136000Y-89408000D02*
X199136000Y-84328000D01*
X221996000Y-84328000D02*
X199136000Y-84328000D01*
X221996000Y-84328000D02*
X221996000Y-89408000D01*
X221742000Y-72136000D02*
X221742000Y-77216000D01*
X221742000Y-72136000D02*
X198882000Y-72136000D01*
X198882000Y-77216000D02*
X198882000Y-72136000D01*
X205232000Y-77216000D02*
X198882000Y-77216000D01*
X221742000Y-77216000D02*
X215392000Y-77216000D01*
X215138000Y-78105000D02*
X215138000Y-81534000D01*
X205486000Y-78105000D02*
X205486000Y-81534000D01*
X215646000Y-76962000D02*
X204978000Y-76962000D01*
X212090000Y-77978000D02*
X212090000Y-76708000D01*
X208534000Y-77978000D02*
X208534000Y-76708000D01*
X204978000Y-78105000D02*
X215646000Y-78105000D01*
X215646000Y-81534000D02*
X204978000Y-81534000D01*
X204978000Y-76708000D02*
X204978000Y-81534000D01*
X215646000Y-76708000D02*
X215646000Y-81534000D01*
X215646000Y-76708000D02*
X204978000Y-76708000D01*
D13*
X127762000Y-91973400D02*
X131318000Y-91973400D01*
X131318000Y-91973400D02*
X131318000Y-98526600D01*
X131318000Y-98526600D02*
X127762000Y-98526600D01*
X127762000Y-98526600D02*
X127762000Y-91973400D01*
D12*
X156929000Y-103597000D02*
X156929000Y-103647000D01*
X161079000Y-103597000D02*
X161079000Y-103742000D01*
X161079000Y-108747000D02*
X161079000Y-108602000D01*
X156929000Y-108747000D02*
X156929000Y-108602000D01*
X156929000Y-103597000D02*
X161079000Y-103597000D01*
X156929000Y-108747000D02*
X161079000Y-108747000D01*
X156929000Y-103647000D02*
X155529000Y-103647000D01*
X159047000Y-80757000D02*
X160447000Y-80757000D01*
X159047000Y-75657000D02*
X154897000Y-75657000D01*
X159047000Y-80807000D02*
X154897000Y-80807000D01*
X159047000Y-75657000D02*
X159047000Y-75802000D01*
X154897000Y-75657000D02*
X154897000Y-75802000D01*
X154897000Y-80807000D02*
X154897000Y-80662000D01*
X159047000Y-80807000D02*
X159047000Y-80757000D01*
D14*
X126698000Y-85120000D02*
X135818000Y-85120000D01*
X126698000Y-90140000D02*
X135818000Y-90140000D01*
X126698000Y-85120000D02*
X126698000Y-86880000D01*
X126698000Y-88380000D02*
X126698000Y-90140000D01*
X135818000Y-85120000D02*
X135818000Y-86880000D01*
X135818000Y-88380000D02*
X135818000Y-90140000D01*
X160830000Y-91902000D02*
X149210000Y-91902000D01*
X160830000Y-84882000D02*
X149210000Y-84882000D01*
X160830000Y-91902000D02*
X160830000Y-89142000D01*
X160830000Y-87642000D02*
X160830000Y-84882000D01*
X149210000Y-91902000D02*
X149210000Y-89142000D01*
X149210000Y-87642000D02*
X149210000Y-84882000D01*
X160830000Y-101046000D02*
X149210000Y-101046000D01*
X160830000Y-94026000D02*
X149210000Y-94026000D01*
X160830000Y-101046000D02*
X160830000Y-98286000D01*
X160830000Y-96786000D02*
X160830000Y-94026000D01*
X149210000Y-101046000D02*
X149210000Y-98286000D01*
X149210000Y-96786000D02*
X149210000Y-94026000D01*
X124158000Y-101900000D02*
X135778000Y-101900000D01*
X124158000Y-108920000D02*
X135778000Y-108920000D01*
X124158000Y-101900000D02*
X124158000Y-104660000D01*
X124158000Y-106160000D02*
X124158000Y-108920000D01*
X135778000Y-101900000D02*
X135778000Y-104660000D01*
X135778000Y-106160000D02*
X135778000Y-108920000D01*
X143540000Y-81582000D02*
X143540000Y-72462000D01*
X148560000Y-81582000D02*
X148560000Y-72462000D01*
X143540000Y-81582000D02*
X145300000Y-81582000D01*
X146800000Y-81582000D02*
X148560000Y-81582000D01*
X143540000Y-72462000D02*
X145300000Y-72462000D01*
X146800000Y-72462000D02*
X148560000Y-72462000D01*
X145494000Y-111028000D02*
X154614000Y-111028000D01*
X145494000Y-116048000D02*
X154614000Y-116048000D01*
X145494000Y-111028000D02*
X145494000Y-112788000D01*
X145494000Y-114288000D02*
X145494000Y-116048000D01*
X154614000Y-111028000D02*
X154614000Y-112788000D01*
X154614000Y-114288000D02*
X154614000Y-116048000D01*
D15*
X93890000Y-71850000D02*
X93890000Y-71850000D01*
X93890000Y-71850000D02*
X93890000Y-71850000D01*
X93890000Y-71850000D02*
X93890000Y-71850000D01*
X93890000Y-71850000D02*
X93890000Y-71850000D01*
X93890000Y-71850000D02*
X93890000Y-71850000D01*
X93890000Y-71850000D02*
X93890000Y-71850000D01*
X93890000Y-71850000D02*
X93890000Y-71850000D01*
X93890000Y-71850000D02*
X93890000Y-71850000D01*
X93890000Y-71850000D02*
X93890000Y-71850000D01*
X93890000Y-71850000D02*
X93890000Y-71850000D01*
X93890000Y-71850000D02*
X93890000Y-71850000D01*
X93890000Y-71850000D02*
X93890000Y-71850000D01*
X93890000Y-71850000D02*
X93890000Y-71850000D01*
X93890000Y-71850000D02*
X93890000Y-71850000D01*
X93890000Y-71850000D02*
X93890000Y-71850000D01*
X93890000Y-71850000D02*
X93890000Y-71850000D01*
X93890000Y-71850000D02*
X93890000Y-71850000D01*
X93890000Y-71850000D02*
X93890000Y-71850000D01*
X93890000Y-71850000D02*
X93890000Y-71850000D01*
X93890000Y-71850000D02*
X93890000Y-71850000D01*
X93890000Y-71850000D02*
X93890000Y-71850000D01*
X93890000Y-71850000D02*
X93890000Y-71850000D01*
X93890000Y-71850000D02*
X93890000Y-71850000D01*
X93890000Y-71850000D02*
X93890000Y-71850000D01*
X93890000Y-71850000D02*
X93890000Y-71850000D01*
X93890000Y-71850000D02*
X93890000Y-71850000D01*
X93890000Y-71850000D02*
X93890000Y-71850000D01*
X93890000Y-71850000D02*
X93890000Y-71850000D01*
X93890000Y-71850000D02*
X93890000Y-71850000D01*
X93890000Y-71850000D02*
X93890000Y-71850000D01*
X93890000Y-71850000D02*
X93890000Y-71850000D01*
X93890000Y-71850000D02*
X93890000Y-71850000D01*
X93890000Y-71850000D02*
X93890000Y-71850000D01*
X93890000Y-71850000D02*
X93890000Y-71850000D01*
X93890000Y-71850000D02*
X93890000Y-71850000D01*
X93890000Y-71850000D02*
X93890000Y-71850000D01*
X93890000Y-71850000D02*
X93890000Y-71850000D01*
X93890000Y-71850000D02*
X93890000Y-71850000D01*
X93890000Y-71850000D02*
X93890000Y-71850000D01*
X93890000Y-71850000D02*
X93890000Y-71850000D01*
X93890000Y-71850000D02*
X93890000Y-71850000D01*
X93890000Y-71850000D02*
X93890000Y-71850000D01*
X93890000Y-71850000D02*
X93890000Y-71850000D01*
X93890000Y-71850000D02*
X93890000Y-71850000D01*
X93890000Y-71850000D02*
X93890000Y-71850000D01*
X93890000Y-71850000D02*
X93890000Y-71850000D01*
X93890000Y-71850000D02*
X93890000Y-71850000D01*
X93890000Y-71850000D02*
X93890000Y-71850000D01*
X93890000Y-71850000D02*
X93890000Y-71850000D01*
X93890000Y-71850000D02*
X93890000Y-71850000D01*
X93890000Y-71850000D02*
X93890000Y-71850000D01*
X93890000Y-71850000D02*
X93890000Y-71850000D01*
X93890000Y-71850000D02*
X93890000Y-71850000D01*
X93890000Y-71850000D02*
X93890000Y-71850000D01*
X93890000Y-71850000D02*
X93890000Y-71850000D01*
X93890000Y-71850000D02*
X93890000Y-71850000D01*
X93890000Y-71850000D02*
X93890000Y-71850000D01*
X93890000Y-71850000D02*
X93890000Y-71850000D01*
X93890000Y-71850000D02*
X93890000Y-71850000D01*
X93890000Y-71850000D02*
X93890000Y-71850000D01*
X93890000Y-71850000D02*
X93890000Y-71850000D01*
X93890000Y-71850000D02*
X93890000Y-71850000D01*
X93840000Y-74400000D02*
X93840000Y-74400000D01*
X93840000Y-74400000D02*
X93840000Y-74400000D01*
X93840000Y-74400000D02*
X93840000Y-74400000D01*
X93840000Y-74400000D02*
X93840000Y-74400000D01*
X93840000Y-74400000D02*
X93840000Y-74400000D01*
X93840000Y-74400000D02*
X93840000Y-74400000D01*
X93840000Y-74400000D02*
X93840000Y-74400000D01*
X93840000Y-74400000D02*
X93840000Y-74400000D01*
X93840000Y-74400000D02*
X93840000Y-74400000D01*
X93840000Y-74400000D02*
X93840000Y-74400000D01*
X93840000Y-74400000D02*
X93840000Y-74400000D01*
X93840000Y-74400000D02*
X93840000Y-74400000D01*
X93840000Y-74400000D02*
X93840000Y-74400000D01*
X93840000Y-74400000D02*
X93840000Y-74400000D01*
X93840000Y-74400000D02*
X93840000Y-74400000D01*
X93840000Y-74400000D02*
X93840000Y-74400000D01*
X93840000Y-74400000D02*
X93840000Y-74400000D01*
X93840000Y-74400000D02*
X93840000Y-74400000D01*
X93840000Y-74400000D02*
X93840000Y-74400000D01*
X93840000Y-74400000D02*
X93840000Y-74400000D01*
X93840000Y-74400000D02*
X93840000Y-74400000D01*
X93840000Y-74400000D02*
X93840000Y-74400000D01*
X93840000Y-74400000D02*
X93840000Y-74400000D01*
X93840000Y-74400000D02*
X93840000Y-74400000D01*
X93840000Y-74400000D02*
X93840000Y-74400000D01*
X93840000Y-74400000D02*
X93840000Y-74400000D01*
X93840000Y-74400000D02*
X93840000Y-74400000D01*
X93840000Y-74400000D02*
X93840000Y-74400000D01*
X93840000Y-74400000D02*
X93840000Y-74400000D01*
X93840000Y-74400000D02*
X93840000Y-74400000D01*
X93840000Y-74400000D02*
X93840000Y-74400000D01*
X93840000Y-74400000D02*
X93840000Y-74400000D01*
X93840000Y-74400000D02*
X93840000Y-74400000D01*
X93840000Y-74400000D02*
X93840000Y-74400000D01*
X93840000Y-74400000D02*
X93840000Y-74400000D01*
X93840000Y-74400000D02*
X93840000Y-74400000D01*
X93840000Y-74400000D02*
X93840000Y-74400000D01*
X93840000Y-74400000D02*
X93840000Y-74400000D01*
X93840000Y-74400000D02*
X93840000Y-74400000D01*
X93840000Y-74400000D02*
X93840000Y-74400000D01*
X93840000Y-74400000D02*
X93840000Y-74400000D01*
X93840000Y-74400000D02*
X93840000Y-74400000D01*
X93840000Y-74400000D02*
X93840000Y-74400000D01*
X93840000Y-74400000D02*
X93840000Y-74400000D01*
X93840000Y-74400000D02*
X93840000Y-74400000D01*
X93840000Y-74400000D02*
X93840000Y-74400000D01*
X93840000Y-74400000D02*
X93840000Y-74400000D01*
X93840000Y-74400000D02*
X93840000Y-74400000D01*
X93840000Y-74400000D02*
X93840000Y-74400000D01*
X93840000Y-74400000D02*
X93840000Y-74400000D01*
X93840000Y-74400000D02*
X93840000Y-74400000D01*
X93840000Y-74400000D02*
X93840000Y-74400000D01*
X93840000Y-74400000D02*
X93840000Y-74400000D01*
X93840000Y-74400000D02*
X93840000Y-74400000D01*
X93840000Y-74400000D02*
X93840000Y-74400000D01*
X93840000Y-74400000D02*
X93840000Y-74400000D01*
X93840000Y-74400000D02*
X93840000Y-74400000D01*
X93840000Y-74400000D02*
X93840000Y-74400000D01*
X93840000Y-74400000D02*
X93840000Y-74400000D01*
X93840000Y-74400000D02*
X93840000Y-74400000D01*
X93840000Y-74400000D02*
X93840000Y-74400000D01*
X93840000Y-74400000D02*
X93840000Y-74400000D01*
X93891100Y-115033600D02*
X93891100Y-115033600D01*
X93891100Y-115033600D02*
X93891100Y-115033600D01*
X93891100Y-115033600D02*
X93891100Y-115033600D01*
X93891100Y-115033600D02*
X93891100Y-115033600D01*
X93891100Y-115033600D02*
X93891100Y-115033600D01*
X93891100Y-115033600D02*
X93891100Y-115033600D01*
X93891100Y-115033600D02*
X93891100Y-115033600D01*
X93891100Y-115033600D02*
X93891100Y-115033600D01*
X93891100Y-115033600D02*
X93891100Y-115033600D01*
X93891100Y-115033600D02*
X93891100Y-115033600D01*
X93891100Y-115033600D02*
X93891100Y-115033600D01*
X93891100Y-115033600D02*
X93891100Y-115033600D01*
X93891100Y-115033600D02*
X93891100Y-115033600D01*
X93891100Y-115033600D02*
X93891100Y-115033600D01*
X93891100Y-115033600D02*
X93891100Y-115033600D01*
X93891100Y-115033600D02*
X93891100Y-115033600D01*
X93891100Y-115033600D02*
X93891100Y-115033600D01*
X93891100Y-115033600D02*
X93891100Y-115033600D01*
X93891100Y-115033600D02*
X93891100Y-115033600D01*
X93891100Y-115033600D02*
X93891100Y-115033600D01*
X93891100Y-115033600D02*
X93891100Y-115033600D01*
X93891100Y-115033600D02*
X93891100Y-115033600D01*
X93891100Y-115033600D02*
X93891100Y-115033600D01*
X93891100Y-115033600D02*
X93891100Y-115033600D01*
X93891100Y-115033600D02*
X93891100Y-115033600D01*
X93891100Y-115033600D02*
X93891100Y-115033600D01*
X93891100Y-115033600D02*
X93891100Y-115033600D01*
X93891100Y-115033600D02*
X93891100Y-115033600D01*
X93891100Y-115033600D02*
X93891100Y-115033600D01*
X93891100Y-115033600D02*
X93891100Y-115033600D01*
X93891100Y-115033600D02*
X93891100Y-115033600D01*
X93891100Y-115033600D02*
X93891100Y-115033600D01*
X93891100Y-115033600D02*
X93891100Y-115033600D01*
X93891100Y-115033600D02*
X93891100Y-115033600D01*
X93891100Y-115033600D02*
X93891100Y-115033600D01*
X93891100Y-115033600D02*
X93891100Y-115033600D01*
X93891100Y-115033600D02*
X93891100Y-115033600D01*
X93891100Y-115033600D02*
X93891100Y-115033600D01*
X93891100Y-115033600D02*
X93891100Y-115033600D01*
X93891100Y-115033600D02*
X93891100Y-115033600D01*
X93891100Y-115033600D02*
X93891100Y-115033600D01*
X93891100Y-115033600D02*
X93891100Y-115033600D01*
X93891100Y-115033600D02*
X93891100Y-115033600D01*
X93891100Y-115033600D02*
X93891100Y-115033600D01*
X93891100Y-115033600D02*
X93891100Y-115033600D01*
X93891100Y-115033600D02*
X93891100Y-115033600D01*
X93891100Y-115033600D02*
X93891100Y-115033600D01*
X93891100Y-115033600D02*
X93891100Y-115033600D01*
X93891100Y-115033600D02*
X93891100Y-115033600D01*
X93891100Y-115033600D02*
X93891100Y-115033600D01*
X93891100Y-115033600D02*
X93891100Y-115033600D01*
X93891100Y-115033600D02*
X93891100Y-115033600D01*
X93891100Y-115033600D02*
X93891100Y-115033600D01*
X93891100Y-115033600D02*
X93891100Y-115033600D01*
X93891100Y-115033600D02*
X93891100Y-115033600D01*
X93891100Y-115033600D02*
X93891100Y-115033600D01*
X93891100Y-115033600D02*
X93891100Y-115033600D01*
X93891100Y-115033600D02*
X93891100Y-115033600D01*
X93891100Y-115033600D02*
X93891100Y-115033600D01*
X93891100Y-115033600D02*
X93891100Y-115033600D01*
X93891100Y-115033600D02*
X93891100Y-115033600D01*
X93891100Y-115033600D02*
X93891100Y-115033600D01*
X93891100Y-117573600D02*
X93891100Y-117573600D01*
X93891100Y-117573600D02*
X93891100Y-117573600D01*
X93891100Y-117573600D02*
X93891100Y-117573600D01*
X93891100Y-117573600D02*
X93891100Y-117573600D01*
X93891100Y-117573600D02*
X93891100Y-117573600D01*
X93891100Y-117573600D02*
X93891100Y-117573600D01*
X93891100Y-117573600D02*
X93891100Y-117573600D01*
X93891100Y-117573600D02*
X93891100Y-117573600D01*
X93891100Y-117573600D02*
X93891100Y-117573600D01*
X93891100Y-117573600D02*
X93891100Y-117573600D01*
X93891100Y-117573600D02*
X93891100Y-117573600D01*
X93891100Y-117573600D02*
X93891100Y-117573600D01*
X93891100Y-117573600D02*
X93891100Y-117573600D01*
X93891100Y-117573600D02*
X93891100Y-117573600D01*
X93891100Y-117573600D02*
X93891100Y-117573600D01*
X93891100Y-117573600D02*
X93891100Y-117573600D01*
X93891100Y-117573600D02*
X93891100Y-117573600D01*
X93891100Y-117573600D02*
X93891100Y-117573600D01*
X93891100Y-117573600D02*
X93891100Y-117573600D01*
X93891100Y-117573600D02*
X93891100Y-117573600D01*
X93891100Y-117573600D02*
X93891100Y-117573600D01*
X93891100Y-117573600D02*
X93891100Y-117573600D01*
X93891100Y-117573600D02*
X93891100Y-117573600D01*
X93891100Y-117573600D02*
X93891100Y-117573600D01*
X93891100Y-117573600D02*
X93891100Y-117573600D01*
X93891100Y-117573600D02*
X93891100Y-117573600D01*
X93891100Y-117573600D02*
X93891100Y-117573600D01*
X93891100Y-117573600D02*
X93891100Y-117573600D01*
X93891100Y-117573600D02*
X93891100Y-117573600D01*
X93891100Y-117573600D02*
X93891100Y-117573600D01*
X93891100Y-117573600D02*
X93891100Y-117573600D01*
X93891100Y-117573600D02*
X93891100Y-117573600D01*
X93891100Y-117573600D02*
X93891100Y-117573600D01*
X93891100Y-117573600D02*
X93891100Y-117573600D01*
X93891100Y-117573600D02*
X93891100Y-117573600D01*
X93891100Y-117573600D02*
X93891100Y-117573600D01*
X93891100Y-117573600D02*
X93891100Y-117573600D01*
X93891100Y-117573600D02*
X93891100Y-117573600D01*
X93891100Y-117573600D02*
X93891100Y-117573600D01*
X93891100Y-117573600D02*
X93891100Y-117573600D01*
X93891100Y-117573600D02*
X93891100Y-117573600D01*
X93891100Y-117573600D02*
X93891100Y-117573600D01*
X93891100Y-117573600D02*
X93891100Y-117573600D01*
X93891100Y-117573600D02*
X93891100Y-117573600D01*
X93891100Y-117573600D02*
X93891100Y-117573600D01*
X93891100Y-117573600D02*
X93891100Y-117573600D01*
X93891100Y-117573600D02*
X93891100Y-117573600D01*
X93891100Y-117573600D02*
X93891100Y-117573600D01*
X93891100Y-117573600D02*
X93891100Y-117573600D01*
X93891100Y-117573600D02*
X93891100Y-117573600D01*
X93891100Y-117573600D02*
X93891100Y-117573600D01*
X93891100Y-117573600D02*
X93891100Y-117573600D01*
X93891100Y-117573600D02*
X93891100Y-117573600D01*
X93891100Y-117573600D02*
X93891100Y-117573600D01*
X93891100Y-117573600D02*
X93891100Y-117573600D01*
X93891100Y-117573600D02*
X93891100Y-117573600D01*
X93891100Y-117573600D02*
X93891100Y-117573600D01*
X93891100Y-117573600D02*
X93891100Y-117573600D01*
X93891100Y-117573600D02*
X93891100Y-117573600D01*
X93891100Y-117573600D02*
X93891100Y-117573600D01*
X93891100Y-117573600D02*
X93891100Y-117573600D01*
X93891100Y-117573600D02*
X93891100Y-117573600D01*
X112946601Y-71859043D02*
X112946601Y-71859043D01*
X112946601Y-71859043D02*
X112946601Y-71859043D01*
X112946601Y-71859043D02*
X112946601Y-71859043D01*
X112946601Y-71859043D02*
X112946601Y-71859043D01*
X112946601Y-71859043D02*
X112946601Y-71859043D01*
X112946601Y-71859043D02*
X112946601Y-71859043D01*
X112946601Y-71859043D02*
X112946601Y-71859043D01*
X112946601Y-71859043D02*
X112946601Y-71859043D01*
X112946601Y-71859043D02*
X112946601Y-71859043D01*
X112946601Y-71859043D02*
X112946601Y-71859043D01*
X112946601Y-71859043D02*
X112946601Y-71859043D01*
X112946601Y-71859043D02*
X112946601Y-71859043D01*
X112946601Y-71859043D02*
X112946601Y-71859043D01*
X112946601Y-71859043D02*
X112946601Y-71859043D01*
X112946601Y-71859043D02*
X112946601Y-71859043D01*
X112946601Y-71859043D02*
X112946601Y-71859043D01*
X112946601Y-71859043D02*
X112946601Y-71859043D01*
X112946601Y-71859043D02*
X112946601Y-71859043D01*
X112946601Y-71859043D02*
X112946601Y-71859043D01*
X112946601Y-71859043D02*
X112946601Y-71859043D01*
D14*
X191186000Y-115836000D02*
X191186000Y-109716000D01*
X191186000Y-109716000D02*
X174066000Y-109716000D01*
X174066000Y-109716000D02*
X174066000Y-115836000D01*
X174066000Y-115836000D02*
X191186000Y-115836000D01*
X191406000Y-112776000D02*
X191186000Y-112776000D01*
X173846000Y-112776000D02*
X174066000Y-112776000D01*
X191186000Y-88150000D02*
X191186000Y-82030000D01*
X191186000Y-82030000D02*
X174066000Y-82030000D01*
X174066000Y-82030000D02*
X174066000Y-88150000D01*
X174066000Y-88150000D02*
X191186000Y-88150000D01*
X191406000Y-85090000D02*
X191186000Y-85090000D01*
X173846000Y-85090000D02*
X174066000Y-85090000D01*
X173846000Y-103124000D02*
X174066000Y-103124000D01*
X191406000Y-103124000D02*
X191186000Y-103124000D01*
X174066000Y-106184000D02*
X191186000Y-106184000D01*
X174066000Y-100064000D02*
X174066000Y-106184000D01*
X191186000Y-100064000D02*
X174066000Y-100064000D01*
X191186000Y-106184000D02*
X191186000Y-100064000D01*
X173846000Y-94488000D02*
X174066000Y-94488000D01*
X191406000Y-94488000D02*
X191186000Y-94488000D01*
X174066000Y-97548000D02*
X191186000Y-97548000D01*
X174066000Y-91428000D02*
X174066000Y-97548000D01*
X191186000Y-91428000D02*
X174066000Y-91428000D01*
X191186000Y-97548000D02*
X191186000Y-91428000D01*
X127082000Y-75958000D02*
X127082000Y-77458000D01*
X126332000Y-76708000D02*
X127832000Y-76708000D01*
X136613000Y-76429000D02*
X136613000Y-76987000D01*
X136573000Y-76036000D02*
X136573000Y-77380000D01*
X136533000Y-75795000D02*
X136533000Y-77621000D01*
X136493000Y-75604000D02*
X136493000Y-77812000D01*
X136453000Y-75443000D02*
X136453000Y-77973000D01*
X136413000Y-75301000D02*
X136413000Y-78115000D01*
X136373000Y-75172000D02*
X136373000Y-78244000D01*
X136333000Y-75054000D02*
X136333000Y-78362000D01*
X136293000Y-74945000D02*
X136293000Y-78471000D01*
X136253000Y-74842000D02*
X136253000Y-78574000D01*
X136213000Y-74746000D02*
X136213000Y-78670000D01*
X136173000Y-74655000D02*
X136173000Y-78761000D01*
X136133000Y-74568000D02*
X136133000Y-78848000D01*
X136093000Y-74486000D02*
X136093000Y-78930000D01*
X136053000Y-74407000D02*
X136053000Y-79009000D01*
X136013000Y-74331000D02*
X136013000Y-79085000D01*
X135973000Y-74259000D02*
X135973000Y-79157000D01*
X135933000Y-74189000D02*
X135933000Y-79227000D01*
X135893000Y-74121000D02*
X135893000Y-79295000D01*
X135853000Y-74056000D02*
X135853000Y-79360000D01*
X135813000Y-73993000D02*
X135813000Y-79423000D01*
X135773000Y-73931000D02*
X135773000Y-79485000D01*
X135733000Y-73872000D02*
X135733000Y-79544000D01*
X135693000Y-73814000D02*
X135693000Y-79602000D01*
X135653000Y-73759000D02*
X135653000Y-79657000D01*
X135613000Y-73704000D02*
X135613000Y-79712000D01*
X135573000Y-73651000D02*
X135573000Y-79765000D01*
X135533000Y-73600000D02*
X135533000Y-79816000D01*
X135493000Y-73550000D02*
X135493000Y-79866000D01*
X135453000Y-73501000D02*
X135453000Y-79915000D01*
X135413000Y-73453000D02*
X135413000Y-79963000D01*
X135373000Y-73406000D02*
X135373000Y-80010000D01*
X135333000Y-73361000D02*
X135333000Y-80055000D01*
X135293000Y-73317000D02*
X135293000Y-80099000D01*
X135253000Y-73273000D02*
X135253000Y-80143000D01*
X135213000Y-73231000D02*
X135213000Y-80185000D01*
X135173000Y-77889000D02*
X135173000Y-80226000D01*
X135173000Y-73190000D02*
X135173000Y-75527000D01*
X135133000Y-77889000D02*
X135133000Y-80267000D01*
X135133000Y-73149000D02*
X135133000Y-75527000D01*
X135093000Y-77889000D02*
X135093000Y-80306000D01*
X135093000Y-73110000D02*
X135093000Y-75527000D01*
X135053000Y-77889000D02*
X135053000Y-80345000D01*
X135053000Y-73071000D02*
X135053000Y-75527000D01*
X135013000Y-77889000D02*
X135013000Y-80383000D01*
X135013000Y-73033000D02*
X135013000Y-75527000D01*
X134973000Y-77889000D02*
X134973000Y-80420000D01*
X134973000Y-72996000D02*
X134973000Y-75527000D01*
X134933000Y-77889000D02*
X134933000Y-80456000D01*
X134933000Y-72960000D02*
X134933000Y-75527000D01*
X134893000Y-77889000D02*
X134893000Y-80492000D01*
X134893000Y-72924000D02*
X134893000Y-75527000D01*
X134853000Y-77889000D02*
X134853000Y-80527000D01*
X134853000Y-72889000D02*
X134853000Y-75527000D01*
X134813000Y-77889000D02*
X134813000Y-80561000D01*
X134813000Y-72855000D02*
X134813000Y-75527000D01*
X134773000Y-77889000D02*
X134773000Y-80594000D01*
X134773000Y-72822000D02*
X134773000Y-75527000D01*
X134733000Y-77889000D02*
X134733000Y-80627000D01*
X134733000Y-72789000D02*
X134733000Y-75527000D01*
X134693000Y-77889000D02*
X134693000Y-80659000D01*
X134693000Y-72757000D02*
X134693000Y-75527000D01*
X134653000Y-77889000D02*
X134653000Y-80690000D01*
X134653000Y-72726000D02*
X134653000Y-75527000D01*
X134613000Y-77889000D02*
X134613000Y-80721000D01*
X134613000Y-72695000D02*
X134613000Y-75527000D01*
X134573000Y-77889000D02*
X134573000Y-80751000D01*
X134573000Y-72665000D02*
X134573000Y-75527000D01*
X134533000Y-77889000D02*
X134533000Y-80780000D01*
X134533000Y-72636000D02*
X134533000Y-75527000D01*
X134493000Y-77889000D02*
X134493000Y-80809000D01*
X134493000Y-72607000D02*
X134493000Y-75527000D01*
X134453000Y-77889000D02*
X134453000Y-80838000D01*
X134453000Y-72578000D02*
X134453000Y-75527000D01*
X134413000Y-77889000D02*
X134413000Y-80865000D01*
X134413000Y-72551000D02*
X134413000Y-75527000D01*
X134373000Y-77889000D02*
X134373000Y-80893000D01*
X134373000Y-72523000D02*
X134373000Y-75527000D01*
X134333000Y-77889000D02*
X134333000Y-80919000D01*
X134333000Y-72497000D02*
X134333000Y-75527000D01*
X134293000Y-77889000D02*
X134293000Y-80945000D01*
X134293000Y-72471000D02*
X134293000Y-75527000D01*
X134253000Y-77889000D02*
X134253000Y-80971000D01*
X134253000Y-72445000D02*
X134253000Y-75527000D01*
X134213000Y-77889000D02*
X134213000Y-80996000D01*
X134213000Y-72420000D02*
X134213000Y-75527000D01*
X134173000Y-77889000D02*
X134173000Y-81020000D01*
X134173000Y-72396000D02*
X134173000Y-75527000D01*
X134133000Y-77889000D02*
X134133000Y-81044000D01*
X134133000Y-72372000D02*
X134133000Y-75527000D01*
X134093000Y-77889000D02*
X134093000Y-81068000D01*
X134093000Y-72348000D02*
X134093000Y-75527000D01*
X134053000Y-77889000D02*
X134053000Y-81091000D01*
X134053000Y-72325000D02*
X134053000Y-75527000D01*
X134013000Y-77889000D02*
X134013000Y-81113000D01*
X134013000Y-72303000D02*
X134013000Y-75527000D01*
X133973000Y-77889000D02*
X133973000Y-81136000D01*
X133973000Y-72280000D02*
X133973000Y-75527000D01*
X133933000Y-77889000D02*
X133933000Y-81157000D01*
X133933000Y-72259000D02*
X133933000Y-75527000D01*
X133893000Y-77889000D02*
X133893000Y-81178000D01*
X133893000Y-72238000D02*
X133893000Y-75527000D01*
X133853000Y-77889000D02*
X133853000Y-81199000D01*
X133853000Y-72217000D02*
X133853000Y-75527000D01*
X133813000Y-77889000D02*
X133813000Y-81219000D01*
X133813000Y-72197000D02*
X133813000Y-75527000D01*
X133773000Y-77889000D02*
X133773000Y-81239000D01*
X133773000Y-72177000D02*
X133773000Y-75527000D01*
X133733000Y-77889000D02*
X133733000Y-81258000D01*
X133733000Y-72158000D02*
X133733000Y-75527000D01*
X133693000Y-77889000D02*
X133693000Y-81277000D01*
X133693000Y-72139000D02*
X133693000Y-75527000D01*
X133653000Y-77889000D02*
X133653000Y-81296000D01*
X133653000Y-72120000D02*
X133653000Y-75527000D01*
X133613000Y-77889000D02*
X133613000Y-81314000D01*
X133613000Y-72102000D02*
X133613000Y-75527000D01*
X133573000Y-77889000D02*
X133573000Y-81332000D01*
X133573000Y-72084000D02*
X133573000Y-75527000D01*
X133533000Y-77889000D02*
X133533000Y-81349000D01*
X133533000Y-72067000D02*
X133533000Y-75527000D01*
X133493000Y-77889000D02*
X133493000Y-81366000D01*
X133493000Y-72050000D02*
X133493000Y-75527000D01*
X133453000Y-77889000D02*
X133453000Y-81382000D01*
X133453000Y-72034000D02*
X133453000Y-75527000D01*
X133413000Y-77889000D02*
X133413000Y-81399000D01*
X133413000Y-72017000D02*
X133413000Y-75527000D01*
X133373000Y-77889000D02*
X133373000Y-81414000D01*
X133373000Y-72002000D02*
X133373000Y-75527000D01*
X133333000Y-77889000D02*
X133333000Y-81430000D01*
X133333000Y-71986000D02*
X133333000Y-75527000D01*
X133293000Y-77889000D02*
X133293000Y-81445000D01*
X133293000Y-71971000D02*
X133293000Y-75527000D01*
X133253000Y-77889000D02*
X133253000Y-81459000D01*
X133253000Y-71957000D02*
X133253000Y-75527000D01*
X133213000Y-77889000D02*
X133213000Y-81473000D01*
X133213000Y-71943000D02*
X133213000Y-75527000D01*
X133173000Y-77889000D02*
X133173000Y-81487000D01*
X133173000Y-71929000D02*
X133173000Y-75527000D01*
X133133000Y-77889000D02*
X133133000Y-81500000D01*
X133133000Y-71916000D02*
X133133000Y-75527000D01*
X133093000Y-77889000D02*
X133093000Y-81514000D01*
X133093000Y-71902000D02*
X133093000Y-75527000D01*
X133053000Y-77889000D02*
X133053000Y-81526000D01*
X133053000Y-71890000D02*
X133053000Y-75527000D01*
X133013000Y-77889000D02*
X133013000Y-81539000D01*
X133013000Y-71877000D02*
X133013000Y-75527000D01*
X132973000Y-77889000D02*
X132973000Y-81551000D01*
X132973000Y-71865000D02*
X132973000Y-75527000D01*
X132933000Y-77889000D02*
X132933000Y-81562000D01*
X132933000Y-71854000D02*
X132933000Y-75527000D01*
X132893000Y-77889000D02*
X132893000Y-81573000D01*
X132893000Y-71843000D02*
X132893000Y-75527000D01*
X132853000Y-77889000D02*
X132853000Y-81584000D01*
X132853000Y-71832000D02*
X132853000Y-75527000D01*
X132813000Y-71821000D02*
X132813000Y-81595000D01*
X132773000Y-71811000D02*
X132773000Y-81605000D01*
X132733000Y-71801000D02*
X132733000Y-81615000D01*
X132693000Y-71791000D02*
X132693000Y-81625000D01*
X132653000Y-71782000D02*
X132653000Y-81634000D01*
X132613000Y-71773000D02*
X132613000Y-81643000D01*
X132573000Y-71765000D02*
X132573000Y-81651000D01*
X132533000Y-71757000D02*
X132533000Y-81659000D01*
X132493000Y-71749000D02*
X132493000Y-81667000D01*
X132453000Y-71741000D02*
X132453000Y-81675000D01*
X132413000Y-71734000D02*
X132413000Y-81682000D01*
X132373000Y-71727000D02*
X132373000Y-81689000D01*
X132333000Y-71721000D02*
X132333000Y-81695000D01*
X132293000Y-71715000D02*
X132293000Y-81701000D01*
X132253000Y-71709000D02*
X132253000Y-81707000D01*
X132212000Y-71703000D02*
X132212000Y-81713000D01*
X132172000Y-71698000D02*
X132172000Y-81718000D01*
X132132000Y-71693000D02*
X132132000Y-81723000D01*
X132092000Y-71688000D02*
X132092000Y-81728000D01*
X132052000Y-71684000D02*
X132052000Y-81732000D01*
X132012000Y-71680000D02*
X132012000Y-81736000D01*
X131972000Y-71677000D02*
X131972000Y-81739000D01*
X131932000Y-71673000D02*
X131932000Y-81743000D01*
X131892000Y-71670000D02*
X131892000Y-81746000D01*
X131852000Y-71668000D02*
X131852000Y-81748000D01*
X131812000Y-71665000D02*
X131812000Y-81751000D01*
X131772000Y-71663000D02*
X131772000Y-81753000D01*
X131732000Y-71661000D02*
X131732000Y-81755000D01*
X131692000Y-71660000D02*
X131692000Y-81756000D01*
X131652000Y-71659000D02*
X131652000Y-81757000D01*
X131612000Y-71658000D02*
X131612000Y-81758000D01*
X131572000Y-71658000D02*
X131572000Y-81758000D01*
X131532000Y-71658000D02*
X131532000Y-81758000D01*
X136483525Y-77887194D02*
G75*
G03X136483333Y-75528000I-4951525J1179194D01*
G01*
X136483525Y-77887194D02*
G75*
G02X126580667Y-77888000I-4951525J1179194D01*
G01*
X136483525Y-75528806D02*
G75*
G03X126580667Y-75528000I-4951525J-1179194D01*
G01*
X123465000Y-73640000D02*
X120375000Y-73640000D01*
X124420000Y-76200000D02*
G75*
G03X124420000Y-76200000I-2500000J0D01*
G01*
X121920462Y-79190000D02*
G75*
G02X120375170Y-73640000I-462J2990000D01*
G01*
X121919538Y-79190000D02*
G75*
G03X123464830Y-73640000I462J2990000D01*
G01*
X121060000Y-83230000D02*
X121060000Y-86950000D01*
X122780000Y-83230000D02*
X122780000Y-86950000D01*
X231902000Y-99060000D02*
X231902000Y-88900000D01*
X224282000Y-99060000D02*
X231902000Y-99060000D01*
X224282000Y-88900000D02*
X224282000Y-99060000D01*
X231902000Y-88900000D02*
X224282000Y-88900000D01*
X230632000Y-88900000D02*
X230632000Y-99060000D01*
X231902000Y-116840000D02*
X231902000Y-106680000D01*
X224282000Y-116840000D02*
X231902000Y-116840000D01*
X224282000Y-106680000D02*
X224282000Y-116840000D01*
X231902000Y-106680000D02*
X224282000Y-106680000D01*
X230632000Y-106680000D02*
X230632000Y-116840000D01*
D12*
X210066000Y-111799619D02*
X209970761Y-111752000D01*
X209875523Y-111656761D01*
X209732666Y-111513904D01*
X209637428Y-111466285D01*
X209542190Y-111466285D01*
X209589809Y-111704380D02*
X209494571Y-111656761D01*
X209399333Y-111561523D01*
X209351714Y-111371047D01*
X209351714Y-111037714D01*
X209399333Y-110847238D01*
X209494571Y-110752000D01*
X209589809Y-110704380D01*
X209780285Y-110704380D01*
X209875523Y-110752000D01*
X209970761Y-110847238D01*
X210018380Y-111037714D01*
X210018380Y-111371047D01*
X209970761Y-111561523D01*
X209875523Y-111656761D01*
X209780285Y-111704380D01*
X209589809Y-111704380D01*
X210923142Y-111704380D02*
X210446952Y-111704380D01*
X210446952Y-110704380D01*
X211208857Y-110799619D02*
X211256476Y-110752000D01*
X211351714Y-110704380D01*
X211589809Y-110704380D01*
X211685047Y-110752000D01*
X211732666Y-110799619D01*
X211780285Y-110894857D01*
X211780285Y-110990095D01*
X211732666Y-111132952D01*
X211161238Y-111704380D01*
X211780285Y-111704380D01*
X209946952Y-100115619D02*
X209851714Y-100068000D01*
X209756476Y-99972761D01*
X209613619Y-99829904D01*
X209518380Y-99782285D01*
X209423142Y-99782285D01*
X209470761Y-100020380D02*
X209375523Y-99972761D01*
X209280285Y-99877523D01*
X209232666Y-99687047D01*
X209232666Y-99353714D01*
X209280285Y-99163238D01*
X209375523Y-99068000D01*
X209470761Y-99020380D01*
X209661238Y-99020380D01*
X209756476Y-99068000D01*
X209851714Y-99163238D01*
X209899333Y-99353714D01*
X209899333Y-99687047D01*
X209851714Y-99877523D01*
X209756476Y-99972761D01*
X209661238Y-100020380D01*
X209470761Y-100020380D01*
X210327904Y-100020380D02*
X210327904Y-99020380D01*
X210327904Y-99496571D02*
X210899333Y-99496571D01*
X210899333Y-100020380D02*
X210899333Y-99020380D01*
X211899333Y-100020380D02*
X211327904Y-100020380D01*
X211613619Y-100020380D02*
X211613619Y-99020380D01*
X211518380Y-99163238D01*
X211423142Y-99258476D01*
X211327904Y-99306095D01*
X210066000Y-88177619D02*
X209970761Y-88130000D01*
X209875523Y-88034761D01*
X209732666Y-87891904D01*
X209637428Y-87844285D01*
X209542190Y-87844285D01*
X209589809Y-88082380D02*
X209494571Y-88034761D01*
X209399333Y-87939523D01*
X209351714Y-87749047D01*
X209351714Y-87415714D01*
X209399333Y-87225238D01*
X209494571Y-87130000D01*
X209589809Y-87082380D01*
X209780285Y-87082380D01*
X209875523Y-87130000D01*
X209970761Y-87225238D01*
X210018380Y-87415714D01*
X210018380Y-87749047D01*
X209970761Y-87939523D01*
X209875523Y-88034761D01*
X209780285Y-88082380D01*
X209589809Y-88082380D01*
X210923142Y-88082380D02*
X210446952Y-88082380D01*
X210446952Y-87082380D01*
X211780285Y-88082380D02*
X211208857Y-88082380D01*
X211494571Y-88082380D02*
X211494571Y-87082380D01*
X211399333Y-87225238D01*
X211304095Y-87320476D01*
X211208857Y-87368095D01*
X209692952Y-75985619D02*
X209597714Y-75938000D01*
X209502476Y-75842761D01*
X209359619Y-75699904D01*
X209264380Y-75652285D01*
X209169142Y-75652285D01*
X209216761Y-75890380D02*
X209121523Y-75842761D01*
X209026285Y-75747523D01*
X208978666Y-75557047D01*
X208978666Y-75223714D01*
X209026285Y-75033238D01*
X209121523Y-74938000D01*
X209216761Y-74890380D01*
X209407238Y-74890380D01*
X209502476Y-74938000D01*
X209597714Y-75033238D01*
X209645333Y-75223714D01*
X209645333Y-75557047D01*
X209597714Y-75747523D01*
X209502476Y-75842761D01*
X209407238Y-75890380D01*
X209216761Y-75890380D01*
X210073904Y-75890380D02*
X210073904Y-74890380D01*
X210073904Y-75366571D02*
X210645333Y-75366571D01*
X210645333Y-75890380D02*
X210645333Y-74890380D01*
X211073904Y-74985619D02*
X211121523Y-74938000D01*
X211216761Y-74890380D01*
X211454857Y-74890380D01*
X211550095Y-74938000D01*
X211597714Y-74985619D01*
X211645333Y-75080857D01*
X211645333Y-75176095D01*
X211597714Y-75318952D01*
X211026285Y-75890380D01*
X211645333Y-75890380D01*
D16*
X122748523Y-95963619D02*
X123776619Y-95963619D01*
X123897571Y-95903142D01*
X123958047Y-95842666D01*
X124018523Y-95721714D01*
X124018523Y-95479809D01*
X123958047Y-95358857D01*
X123897571Y-95298380D01*
X123776619Y-95237904D01*
X122748523Y-95237904D01*
X122748523Y-94754095D02*
X122748523Y-93967904D01*
X123232333Y-94391238D01*
X123232333Y-94209809D01*
X123292809Y-94088857D01*
X123353285Y-94028380D01*
X123474238Y-93967904D01*
X123776619Y-93967904D01*
X123897571Y-94028380D01*
X123958047Y-94088857D01*
X124018523Y-94209809D01*
X124018523Y-94572666D01*
X123958047Y-94693619D01*
X123897571Y-94754095D01*
X135896047Y-102343857D02*
X135956523Y-102222904D01*
X135956523Y-101981000D01*
X135896047Y-101860047D01*
X135775095Y-101799571D01*
X135714619Y-101799571D01*
X135593666Y-101860047D01*
X135533190Y-101981000D01*
X135533190Y-102162428D01*
X135472714Y-102283380D01*
X135351761Y-102343857D01*
X135291285Y-102343857D01*
X135170333Y-102283380D01*
X135109857Y-102162428D01*
X135109857Y-101981000D01*
X135170333Y-101860047D01*
X135896047Y-100711000D02*
X135956523Y-100831952D01*
X135956523Y-101073857D01*
X135896047Y-101194809D01*
X135835571Y-101255285D01*
X135714619Y-101315761D01*
X135351761Y-101315761D01*
X135230809Y-101255285D01*
X135170333Y-101194809D01*
X135109857Y-101073857D01*
X135109857Y-100831952D01*
X135170333Y-100711000D01*
X135956523Y-100166714D02*
X134686523Y-100166714D01*
X135956523Y-99622428D02*
X135291285Y-99622428D01*
X135170333Y-99682904D01*
X135109857Y-99803857D01*
X135109857Y-99985285D01*
X135170333Y-100106238D01*
X135230809Y-100166714D01*
X134686523Y-99199095D02*
X134686523Y-98473380D01*
X135956523Y-98836238D02*
X134686523Y-98836238D01*
X135956523Y-97445285D02*
X135956523Y-98050047D01*
X134686523Y-98050047D01*
X134686523Y-97203380D02*
X135956523Y-96780047D01*
X134686523Y-96356714D01*
X135956523Y-95268142D02*
X135956523Y-95993857D01*
X135956523Y-95631000D02*
X134686523Y-95631000D01*
X134867952Y-95751952D01*
X134988904Y-95872904D01*
X135049380Y-95993857D01*
X135956523Y-94058619D02*
X135956523Y-94784333D01*
X135956523Y-94421476D02*
X134686523Y-94421476D01*
X134867952Y-94542428D01*
X134988904Y-94663380D01*
X135049380Y-94784333D01*
X135956523Y-92849095D02*
X135956523Y-93574809D01*
X135956523Y-93211952D02*
X134686523Y-93211952D01*
X134867952Y-93332904D01*
X134988904Y-93453857D01*
X135049380Y-93574809D01*
X134686523Y-92425761D02*
X134686523Y-91579095D01*
X135956523Y-92123380D01*
X135472714Y-91095285D02*
X135472714Y-90127666D01*
X134686523Y-89643857D02*
X134686523Y-88857666D01*
X135170333Y-89281000D01*
X135170333Y-89099571D01*
X135230809Y-88978619D01*
X135291285Y-88918142D01*
X135412238Y-88857666D01*
X135714619Y-88857666D01*
X135835571Y-88918142D01*
X135896047Y-88978619D01*
X135956523Y-89099571D01*
X135956523Y-89462428D01*
X135896047Y-89583380D01*
X135835571Y-89643857D01*
X134686523Y-88434333D02*
X134686523Y-87648142D01*
X135170333Y-88071476D01*
X135170333Y-87890047D01*
X135230809Y-87769095D01*
X135291285Y-87708619D01*
X135412238Y-87648142D01*
X135714619Y-87648142D01*
X135835571Y-87708619D01*
X135896047Y-87769095D01*
X135956523Y-87890047D01*
X135956523Y-88252904D01*
X135896047Y-88373857D01*
X135835571Y-88434333D01*
D12*
X133802380Y-98774285D02*
X133802380Y-99345714D01*
X133802380Y-99060000D02*
X132802380Y-99060000D01*
X132945238Y-99155238D01*
X133040476Y-99250476D01*
X133088095Y-99345714D01*
X158242095Y-102124380D02*
X158242095Y-102933904D01*
X158289714Y-103029142D01*
X158337333Y-103076761D01*
X158432571Y-103124380D01*
X158623047Y-103124380D01*
X158718285Y-103076761D01*
X158765904Y-103029142D01*
X158813523Y-102933904D01*
X158813523Y-102124380D01*
X159813523Y-103124380D02*
X159242095Y-103124380D01*
X159527809Y-103124380D02*
X159527809Y-102124380D01*
X159432571Y-102267238D01*
X159337333Y-102362476D01*
X159242095Y-102410095D01*
X155479714Y-102814380D02*
X154908285Y-102814380D01*
X155194000Y-102814380D02*
X155194000Y-101814380D01*
X155098761Y-101957238D01*
X155003523Y-102052476D01*
X154908285Y-102100095D01*
X156210095Y-81184380D02*
X156210095Y-81993904D01*
X156257714Y-82089142D01*
X156305333Y-82136761D01*
X156400571Y-82184380D01*
X156591047Y-82184380D01*
X156686285Y-82136761D01*
X156733904Y-82089142D01*
X156781523Y-81993904D01*
X156781523Y-81184380D01*
X157210095Y-81279619D02*
X157257714Y-81232000D01*
X157352952Y-81184380D01*
X157591047Y-81184380D01*
X157686285Y-81232000D01*
X157733904Y-81279619D01*
X157781523Y-81374857D01*
X157781523Y-81470095D01*
X157733904Y-81612952D01*
X157162476Y-82184380D01*
X157781523Y-82184380D01*
X161067714Y-82494380D02*
X160496285Y-82494380D01*
X160782000Y-82494380D02*
X160782000Y-81494380D01*
X160686761Y-81637238D01*
X160591523Y-81732476D01*
X160496285Y-81780095D01*
X129329428Y-84477142D02*
X129281809Y-84524761D01*
X129138952Y-84572380D01*
X129043714Y-84572380D01*
X128900857Y-84524761D01*
X128805619Y-84429523D01*
X128758000Y-84334285D01*
X128710380Y-84143809D01*
X128710380Y-84000952D01*
X128758000Y-83810476D01*
X128805619Y-83715238D01*
X128900857Y-83620000D01*
X129043714Y-83572380D01*
X129138952Y-83572380D01*
X129281809Y-83620000D01*
X129329428Y-83667619D01*
X129519904Y-84667619D02*
X130281809Y-84667619D01*
X130519904Y-83572380D02*
X130519904Y-84381904D01*
X130567523Y-84477142D01*
X130615142Y-84524761D01*
X130710380Y-84572380D01*
X130900857Y-84572380D01*
X130996095Y-84524761D01*
X131043714Y-84477142D01*
X131091333Y-84381904D01*
X131091333Y-83572380D01*
X131472285Y-83572380D02*
X132091333Y-83572380D01*
X131758000Y-83953333D01*
X131900857Y-83953333D01*
X131996095Y-84000952D01*
X132043714Y-84048571D01*
X132091333Y-84143809D01*
X132091333Y-84381904D01*
X132043714Y-84477142D01*
X131996095Y-84524761D01*
X131900857Y-84572380D01*
X131615142Y-84572380D01*
X131519904Y-84524761D01*
X131472285Y-84477142D01*
X132281809Y-84667619D02*
X133043714Y-84667619D01*
X133186571Y-83572380D02*
X133805619Y-83572380D01*
X133472285Y-83953333D01*
X133615142Y-83953333D01*
X133710380Y-84000952D01*
X133758000Y-84048571D01*
X133805619Y-84143809D01*
X133805619Y-84381904D01*
X133758000Y-84477142D01*
X133710380Y-84524761D01*
X133615142Y-84572380D01*
X133329428Y-84572380D01*
X133234190Y-84524761D01*
X133186571Y-84477142D01*
X148582190Y-93321142D02*
X148534571Y-93368761D01*
X148391714Y-93416380D01*
X148296476Y-93416380D01*
X148153619Y-93368761D01*
X148058380Y-93273523D01*
X148010761Y-93178285D01*
X147963142Y-92987809D01*
X147963142Y-92844952D01*
X148010761Y-92654476D01*
X148058380Y-92559238D01*
X148153619Y-92464000D01*
X148296476Y-92416380D01*
X148391714Y-92416380D01*
X148534571Y-92464000D01*
X148582190Y-92511619D01*
X148963142Y-92511619D02*
X149010761Y-92464000D01*
X149106000Y-92416380D01*
X149344095Y-92416380D01*
X149439333Y-92464000D01*
X149486952Y-92511619D01*
X149534571Y-92606857D01*
X149534571Y-92702095D01*
X149486952Y-92844952D01*
X148915523Y-93416380D01*
X149534571Y-93416380D01*
X149725047Y-93511619D02*
X150486952Y-93511619D01*
X150677428Y-92511619D02*
X150725047Y-92464000D01*
X150820285Y-92416380D01*
X151058380Y-92416380D01*
X151153619Y-92464000D01*
X151201238Y-92511619D01*
X151248857Y-92606857D01*
X151248857Y-92702095D01*
X151201238Y-92844952D01*
X150629809Y-93416380D01*
X151248857Y-93416380D01*
X148582190Y-102465142D02*
X148534571Y-102512761D01*
X148391714Y-102560380D01*
X148296476Y-102560380D01*
X148153619Y-102512761D01*
X148058380Y-102417523D01*
X148010761Y-102322285D01*
X147963142Y-102131809D01*
X147963142Y-101988952D01*
X148010761Y-101798476D01*
X148058380Y-101703238D01*
X148153619Y-101608000D01*
X148296476Y-101560380D01*
X148391714Y-101560380D01*
X148534571Y-101608000D01*
X148582190Y-101655619D01*
X149534571Y-102560380D02*
X148963142Y-102560380D01*
X149248857Y-102560380D02*
X149248857Y-101560380D01*
X149153619Y-101703238D01*
X149058380Y-101798476D01*
X148963142Y-101846095D01*
X149725047Y-102655619D02*
X150486952Y-102655619D01*
X150677428Y-101655619D02*
X150725047Y-101608000D01*
X150820285Y-101560380D01*
X151058380Y-101560380D01*
X151153619Y-101608000D01*
X151201238Y-101655619D01*
X151248857Y-101750857D01*
X151248857Y-101846095D01*
X151201238Y-101988952D01*
X150629809Y-102560380D01*
X151248857Y-102560380D01*
X128039428Y-101257142D02*
X127991809Y-101304761D01*
X127848952Y-101352380D01*
X127753714Y-101352380D01*
X127610857Y-101304761D01*
X127515619Y-101209523D01*
X127468000Y-101114285D01*
X127420380Y-100923809D01*
X127420380Y-100780952D01*
X127468000Y-100590476D01*
X127515619Y-100495238D01*
X127610857Y-100400000D01*
X127753714Y-100352380D01*
X127848952Y-100352380D01*
X127991809Y-100400000D01*
X128039428Y-100447619D01*
X128229904Y-101447619D02*
X128991809Y-101447619D01*
X129229904Y-100352380D02*
X129229904Y-101161904D01*
X129277523Y-101257142D01*
X129325142Y-101304761D01*
X129420380Y-101352380D01*
X129610857Y-101352380D01*
X129706095Y-101304761D01*
X129753714Y-101257142D01*
X129801333Y-101161904D01*
X129801333Y-100352380D01*
X130182285Y-100352380D02*
X130801333Y-100352380D01*
X130468000Y-100733333D01*
X130610857Y-100733333D01*
X130706095Y-100780952D01*
X130753714Y-100828571D01*
X130801333Y-100923809D01*
X130801333Y-101161904D01*
X130753714Y-101257142D01*
X130706095Y-101304761D01*
X130610857Y-101352380D01*
X130325142Y-101352380D01*
X130229904Y-101304761D01*
X130182285Y-101257142D01*
X130991809Y-101447619D02*
X131753714Y-101447619D01*
X132515619Y-101352380D02*
X131944190Y-101352380D01*
X132229904Y-101352380D02*
X132229904Y-100352380D01*
X132134666Y-100495238D01*
X132039428Y-100590476D01*
X131944190Y-100638095D01*
X142897142Y-78045809D02*
X142944761Y-78093428D01*
X142992380Y-78236285D01*
X142992380Y-78331523D01*
X142944761Y-78474380D01*
X142849523Y-78569619D01*
X142754285Y-78617238D01*
X142563809Y-78664857D01*
X142420952Y-78664857D01*
X142230476Y-78617238D01*
X142135238Y-78569619D01*
X142040000Y-78474380D01*
X141992380Y-78331523D01*
X141992380Y-78236285D01*
X142040000Y-78093428D01*
X142087619Y-78045809D01*
X142087619Y-77664857D02*
X142040000Y-77617238D01*
X141992380Y-77522000D01*
X141992380Y-77283904D01*
X142040000Y-77188666D01*
X142087619Y-77141047D01*
X142182857Y-77093428D01*
X142278095Y-77093428D01*
X142420952Y-77141047D01*
X142992380Y-77712476D01*
X142992380Y-77093428D01*
X143087619Y-76902952D02*
X143087619Y-76141047D01*
X142992380Y-75379142D02*
X142992380Y-75950571D01*
X142992380Y-75664857D02*
X141992380Y-75664857D01*
X142135238Y-75760095D01*
X142230476Y-75855333D01*
X142278095Y-75950571D01*
X149030190Y-110385142D02*
X148982571Y-110432761D01*
X148839714Y-110480380D01*
X148744476Y-110480380D01*
X148601619Y-110432761D01*
X148506380Y-110337523D01*
X148458761Y-110242285D01*
X148411142Y-110051809D01*
X148411142Y-109908952D01*
X148458761Y-109718476D01*
X148506380Y-109623238D01*
X148601619Y-109528000D01*
X148744476Y-109480380D01*
X148839714Y-109480380D01*
X148982571Y-109528000D01*
X149030190Y-109575619D01*
X149982571Y-110480380D02*
X149411142Y-110480380D01*
X149696857Y-110480380D02*
X149696857Y-109480380D01*
X149601619Y-109623238D01*
X149506380Y-109718476D01*
X149411142Y-109766095D01*
X150173047Y-110575619D02*
X150934952Y-110575619D01*
X151696857Y-110480380D02*
X151125428Y-110480380D01*
X151411142Y-110480380D02*
X151411142Y-109480380D01*
X151315904Y-109623238D01*
X151220666Y-109718476D01*
X151125428Y-109766095D01*
D17*
X76719800Y-72455314D02*
X76673838Y-72501276D01*
X76535952Y-72547238D01*
X76444028Y-72547238D01*
X76306142Y-72501276D01*
X76214219Y-72409352D01*
X76168257Y-72317428D01*
X76122295Y-72133580D01*
X76122295Y-71995695D01*
X76168257Y-71811847D01*
X76214219Y-71719923D01*
X76306142Y-71628000D01*
X76444028Y-71582038D01*
X76535952Y-71582038D01*
X76673838Y-71628000D01*
X76719800Y-71673961D01*
X77271342Y-72547238D02*
X77179419Y-72501276D01*
X77133457Y-72455314D01*
X77087495Y-72363390D01*
X77087495Y-72087619D01*
X77133457Y-71995695D01*
X77179419Y-71949733D01*
X77271342Y-71903771D01*
X77409228Y-71903771D01*
X77501152Y-71949733D01*
X77547114Y-71995695D01*
X77593076Y-72087619D01*
X77593076Y-72363390D01*
X77547114Y-72455314D01*
X77501152Y-72501276D01*
X77409228Y-72547238D01*
X77271342Y-72547238D01*
X78006733Y-71903771D02*
X78006733Y-72547238D01*
X78006733Y-71995695D02*
X78052695Y-71949733D01*
X78144619Y-71903771D01*
X78282504Y-71903771D01*
X78374428Y-71949733D01*
X78420390Y-72041657D01*
X78420390Y-72547238D01*
X78880009Y-71903771D02*
X78880009Y-72547238D01*
X78880009Y-71995695D02*
X78925971Y-71949733D01*
X79017895Y-71903771D01*
X79155781Y-71903771D01*
X79247704Y-71949733D01*
X79293666Y-72041657D01*
X79293666Y-72547238D01*
X79707323Y-71673961D02*
X79753285Y-71628000D01*
X79845209Y-71582038D01*
X80075019Y-71582038D01*
X80166942Y-71628000D01*
X80212904Y-71673961D01*
X80258866Y-71765885D01*
X80258866Y-71857809D01*
X80212904Y-71995695D01*
X79661362Y-72547238D01*
X80258866Y-72547238D01*
D18*
X85071660Y-77666547D02*
X84382232Y-77666547D01*
X84726946Y-77666547D02*
X84726946Y-76460047D01*
X84612041Y-76632404D01*
X84497136Y-76747309D01*
X84382232Y-76804761D01*
X85818541Y-76460047D02*
X85933446Y-76460047D01*
X86048351Y-76517500D01*
X86105803Y-76574952D01*
X86163255Y-76689857D01*
X86220708Y-76919666D01*
X86220708Y-77206928D01*
X86163255Y-77436738D01*
X86105803Y-77551642D01*
X86048351Y-77609095D01*
X85933446Y-77666547D01*
X85818541Y-77666547D01*
X85703636Y-77609095D01*
X85646184Y-77551642D01*
X85588732Y-77436738D01*
X85531279Y-77206928D01*
X85531279Y-76919666D01*
X85588732Y-76689857D01*
X85646184Y-76574952D01*
X85703636Y-76517500D01*
X85818541Y-76460047D01*
X86737779Y-76862214D02*
X86737779Y-78068714D01*
X86737779Y-76919666D02*
X86852684Y-76862214D01*
X87082493Y-76862214D01*
X87197398Y-76919666D01*
X87254851Y-76977119D01*
X87312303Y-77092023D01*
X87312303Y-77436738D01*
X87254851Y-77551642D01*
X87197398Y-77609095D01*
X87082493Y-77666547D01*
X86852684Y-77666547D01*
X86737779Y-77609095D01*
X87829374Y-77666547D02*
X87829374Y-76862214D01*
X87829374Y-76460047D02*
X87771922Y-76517500D01*
X87829374Y-76574952D01*
X87886827Y-76517500D01*
X87829374Y-76460047D01*
X87829374Y-76574952D01*
X88403898Y-76862214D02*
X88403898Y-77666547D01*
X88403898Y-76977119D02*
X88461351Y-76919666D01*
X88576255Y-76862214D01*
X88748612Y-76862214D01*
X88863517Y-76919666D01*
X88920970Y-77034571D01*
X88920970Y-77666547D01*
X89840208Y-76460047D02*
X89840208Y-77321833D01*
X89782755Y-77494190D01*
X89667851Y-77609095D01*
X89495493Y-77666547D01*
X89380589Y-77666547D01*
X90357279Y-76574952D02*
X90414732Y-76517500D01*
X90529636Y-76460047D01*
X90816898Y-76460047D01*
X90931803Y-76517500D01*
X90989255Y-76574952D01*
X91046708Y-76689857D01*
X91046708Y-76804761D01*
X90989255Y-76977119D01*
X90299827Y-77666547D01*
X91046708Y-77666547D01*
D17*
X76719800Y-74741314D02*
X76673838Y-74787276D01*
X76535952Y-74833238D01*
X76444028Y-74833238D01*
X76306142Y-74787276D01*
X76214219Y-74695352D01*
X76168257Y-74603428D01*
X76122295Y-74419580D01*
X76122295Y-74281695D01*
X76168257Y-74097847D01*
X76214219Y-74005923D01*
X76306142Y-73914000D01*
X76444028Y-73868038D01*
X76535952Y-73868038D01*
X76673838Y-73914000D01*
X76719800Y-73959961D01*
X77271342Y-74833238D02*
X77179419Y-74787276D01*
X77133457Y-74741314D01*
X77087495Y-74649390D01*
X77087495Y-74373619D01*
X77133457Y-74281695D01*
X77179419Y-74235733D01*
X77271342Y-74189771D01*
X77409228Y-74189771D01*
X77501152Y-74235733D01*
X77547114Y-74281695D01*
X77593076Y-74373619D01*
X77593076Y-74649390D01*
X77547114Y-74741314D01*
X77501152Y-74787276D01*
X77409228Y-74833238D01*
X77271342Y-74833238D01*
X78006733Y-74189771D02*
X78006733Y-74833238D01*
X78006733Y-74281695D02*
X78052695Y-74235733D01*
X78144619Y-74189771D01*
X78282504Y-74189771D01*
X78374428Y-74235733D01*
X78420390Y-74327657D01*
X78420390Y-74833238D01*
X78880009Y-74189771D02*
X78880009Y-74833238D01*
X78880009Y-74281695D02*
X78925971Y-74235733D01*
X79017895Y-74189771D01*
X79155781Y-74189771D01*
X79247704Y-74235733D01*
X79293666Y-74327657D01*
X79293666Y-74833238D01*
X80166942Y-73868038D02*
X79983095Y-73868038D01*
X79891171Y-73914000D01*
X79845209Y-73959961D01*
X79753285Y-74097847D01*
X79707323Y-74281695D01*
X79707323Y-74649390D01*
X79753285Y-74741314D01*
X79799247Y-74787276D01*
X79891171Y-74833238D01*
X80075019Y-74833238D01*
X80166942Y-74787276D01*
X80212904Y-74741314D01*
X80258866Y-74649390D01*
X80258866Y-74419580D01*
X80212904Y-74327657D01*
X80166942Y-74281695D01*
X80075019Y-74235733D01*
X79891171Y-74235733D01*
X79799247Y-74281695D01*
X79753285Y-74327657D01*
X79707323Y-74419580D01*
D18*
X85325660Y-79698547D02*
X84636232Y-79698547D01*
X84980946Y-79698547D02*
X84980946Y-78492047D01*
X84866041Y-78664404D01*
X84751136Y-78779309D01*
X84636232Y-78836761D01*
X86072541Y-78492047D02*
X86187446Y-78492047D01*
X86302351Y-78549500D01*
X86359803Y-78606952D01*
X86417255Y-78721857D01*
X86474708Y-78951666D01*
X86474708Y-79238928D01*
X86417255Y-79468738D01*
X86359803Y-79583642D01*
X86302351Y-79641095D01*
X86187446Y-79698547D01*
X86072541Y-79698547D01*
X85957636Y-79641095D01*
X85900184Y-79583642D01*
X85842732Y-79468738D01*
X85785279Y-79238928D01*
X85785279Y-78951666D01*
X85842732Y-78721857D01*
X85900184Y-78606952D01*
X85957636Y-78549500D01*
X86072541Y-78492047D01*
X86991779Y-78894214D02*
X86991779Y-80100714D01*
X86991779Y-78951666D02*
X87106684Y-78894214D01*
X87336493Y-78894214D01*
X87451398Y-78951666D01*
X87508851Y-79009119D01*
X87566303Y-79124023D01*
X87566303Y-79468738D01*
X87508851Y-79583642D01*
X87451398Y-79641095D01*
X87336493Y-79698547D01*
X87106684Y-79698547D01*
X86991779Y-79641095D01*
X88083374Y-79698547D02*
X88083374Y-78894214D01*
X88083374Y-78492047D02*
X88025922Y-78549500D01*
X88083374Y-78606952D01*
X88140827Y-78549500D01*
X88083374Y-78492047D01*
X88083374Y-78606952D01*
X88657898Y-78894214D02*
X88657898Y-79698547D01*
X88657898Y-79009119D02*
X88715351Y-78951666D01*
X88830255Y-78894214D01*
X89002612Y-78894214D01*
X89117517Y-78951666D01*
X89174970Y-79066571D01*
X89174970Y-79698547D01*
X90094208Y-78492047D02*
X90094208Y-79353833D01*
X90036755Y-79526190D01*
X89921851Y-79641095D01*
X89749493Y-79698547D01*
X89634589Y-79698547D01*
X91185803Y-78492047D02*
X90955993Y-78492047D01*
X90841089Y-78549500D01*
X90783636Y-78606952D01*
X90668732Y-78779309D01*
X90611279Y-79009119D01*
X90611279Y-79468738D01*
X90668732Y-79583642D01*
X90726184Y-79641095D01*
X90841089Y-79698547D01*
X91070898Y-79698547D01*
X91185803Y-79641095D01*
X91243255Y-79583642D01*
X91300708Y-79468738D01*
X91300708Y-79181476D01*
X91243255Y-79066571D01*
X91185803Y-79009119D01*
X91070898Y-78951666D01*
X90841089Y-78951666D01*
X90726184Y-79009119D01*
X90668732Y-79066571D01*
X90611279Y-79181476D01*
D17*
X79966766Y-113336638D02*
X79966766Y-114026066D01*
X79920804Y-114163952D01*
X79828881Y-114255876D01*
X79690995Y-114301838D01*
X79599071Y-114301838D01*
X80886004Y-113336638D02*
X80426385Y-113336638D01*
X80380423Y-113796257D01*
X80426385Y-113750295D01*
X80518309Y-113704333D01*
X80748119Y-113704333D01*
X80840042Y-113750295D01*
X80886004Y-113796257D01*
X80931966Y-113888180D01*
X80931966Y-114117990D01*
X80886004Y-114209914D01*
X80840042Y-114255876D01*
X80748119Y-114301838D01*
X80518309Y-114301838D01*
X80426385Y-114255876D01*
X80380423Y-114209914D01*
D18*
D17*
X79966766Y-115876638D02*
X79966766Y-116566066D01*
X79920804Y-116703952D01*
X79828881Y-116795876D01*
X79690995Y-116841838D01*
X79599071Y-116841838D01*
X80931966Y-116841838D02*
X80380423Y-116841838D01*
X80656195Y-116841838D02*
X80656195Y-115876638D01*
X80564271Y-116014523D01*
X80472347Y-116106447D01*
X80380423Y-116152409D01*
D18*
D19*
X111515440Y-70257851D02*
X111478670Y-70294620D01*
X111368362Y-70331390D01*
X111294823Y-70331390D01*
X111184514Y-70294620D01*
X111110975Y-70221081D01*
X111074205Y-70147542D01*
X111037436Y-70000464D01*
X111037436Y-69890156D01*
X111074205Y-69743078D01*
X111110975Y-69669539D01*
X111184514Y-69596000D01*
X111294823Y-69559230D01*
X111368362Y-69559230D01*
X111478670Y-69596000D01*
X111515440Y-69632769D01*
X111956674Y-70331390D02*
X111883135Y-70294620D01*
X111846365Y-70257851D01*
X111809596Y-70184312D01*
X111809596Y-69963695D01*
X111846365Y-69890156D01*
X111883135Y-69853386D01*
X111956674Y-69816617D01*
X112066983Y-69816617D01*
X112140522Y-69853386D01*
X112177291Y-69890156D01*
X112214061Y-69963695D01*
X112214061Y-70184312D01*
X112177291Y-70257851D01*
X112140522Y-70294620D01*
X112066983Y-70331390D01*
X111956674Y-70331390D01*
X112544986Y-69816617D02*
X112544986Y-70331390D01*
X112544986Y-69890156D02*
X112581756Y-69853386D01*
X112655295Y-69816617D01*
X112765604Y-69816617D01*
X112839143Y-69853386D01*
X112875912Y-69926925D01*
X112875912Y-70331390D01*
X113243607Y-69816617D02*
X113243607Y-70331390D01*
X113243607Y-69890156D02*
X113280377Y-69853386D01*
X113353916Y-69816617D01*
X113464224Y-69816617D01*
X113537764Y-69853386D01*
X113574533Y-69926925D01*
X113574533Y-70331390D01*
X113868689Y-69559230D02*
X114346693Y-69559230D01*
X114089306Y-69853386D01*
X114199615Y-69853386D01*
X114273154Y-69890156D01*
X114309924Y-69926925D01*
X114346693Y-70000464D01*
X114346693Y-70184312D01*
X114309924Y-70257851D01*
X114273154Y-70294620D01*
X114199615Y-70331390D01*
X113978998Y-70331390D01*
X113905459Y-70294620D01*
X113868689Y-70257851D01*
D18*
X110450887Y-76904547D02*
X111197767Y-76904547D01*
X110795601Y-77364166D01*
X110967958Y-77364166D01*
X111082863Y-77421619D01*
X111140315Y-77479071D01*
X111197767Y-77593976D01*
X111197767Y-77881238D01*
X111140315Y-77996142D01*
X111082863Y-78053595D01*
X110967958Y-78111047D01*
X110623244Y-78111047D01*
X110508339Y-78053595D01*
X110450887Y-77996142D01*
X111714839Y-77306714D02*
X111714839Y-78513214D01*
X111714839Y-77364166D02*
X111829744Y-77306714D01*
X112059553Y-77306714D01*
X112174458Y-77364166D01*
X112231910Y-77421619D01*
X112289363Y-77536523D01*
X112289363Y-77881238D01*
X112231910Y-77996142D01*
X112174458Y-78053595D01*
X112059553Y-78111047D01*
X111829744Y-78111047D01*
X111714839Y-78053595D01*
X112806434Y-78111047D02*
X112806434Y-77306714D01*
X112806434Y-76904547D02*
X112748982Y-76962000D01*
X112806434Y-77019452D01*
X112863887Y-76962000D01*
X112806434Y-76904547D01*
X112806434Y-77019452D01*
X113380958Y-77306714D02*
X113380958Y-78111047D01*
X113380958Y-77421619D02*
X113438410Y-77364166D01*
X113553315Y-77306714D01*
X113725672Y-77306714D01*
X113840577Y-77364166D01*
X113898029Y-77479071D01*
X113898029Y-78111047D01*
X114817267Y-76904547D02*
X114817267Y-77766333D01*
X114759815Y-77938690D01*
X114644910Y-78053595D01*
X114472553Y-78111047D01*
X114357648Y-78111047D01*
X115276887Y-76904547D02*
X116023767Y-76904547D01*
X115621601Y-77364166D01*
X115793958Y-77364166D01*
X115908863Y-77421619D01*
X115966315Y-77479071D01*
X116023767Y-77593976D01*
X116023767Y-77881238D01*
X115966315Y-77996142D01*
X115908863Y-78053595D01*
X115793958Y-78111047D01*
X115449244Y-78111047D01*
X115334339Y-78053595D01*
X115276887Y-77996142D01*
D12*
X181935523Y-117288380D02*
X181602190Y-116812190D01*
X181364095Y-117288380D02*
X181364095Y-116288380D01*
X181745047Y-116288380D01*
X181840285Y-116336000D01*
X181887904Y-116383619D01*
X181935523Y-116478857D01*
X181935523Y-116621714D01*
X181887904Y-116716952D01*
X181840285Y-116764571D01*
X181745047Y-116812190D01*
X181364095Y-116812190D01*
X182364095Y-117288380D02*
X182364095Y-116288380D01*
X182364095Y-116764571D02*
X182935523Y-116764571D01*
X182935523Y-117288380D02*
X182935523Y-116288380D01*
X183935523Y-117288380D02*
X183364095Y-117288380D01*
X183649809Y-117288380D02*
X183649809Y-116288380D01*
X183554571Y-116431238D01*
X183459333Y-116526476D01*
X183364095Y-116574095D01*
X181935523Y-89602380D02*
X181602190Y-89126190D01*
X181364095Y-89602380D02*
X181364095Y-88602380D01*
X181745047Y-88602380D01*
X181840285Y-88650000D01*
X181887904Y-88697619D01*
X181935523Y-88792857D01*
X181935523Y-88935714D01*
X181887904Y-89030952D01*
X181840285Y-89078571D01*
X181745047Y-89126190D01*
X181364095Y-89126190D01*
X182364095Y-89602380D02*
X182364095Y-88602380D01*
X182364095Y-89078571D02*
X182935523Y-89078571D01*
X182935523Y-89602380D02*
X182935523Y-88602380D01*
X183364095Y-88697619D02*
X183411714Y-88650000D01*
X183506952Y-88602380D01*
X183745047Y-88602380D01*
X183840285Y-88650000D01*
X183887904Y-88697619D01*
X183935523Y-88792857D01*
X183935523Y-88888095D01*
X183887904Y-89030952D01*
X183316476Y-89602380D01*
X183935523Y-89602380D01*
X182054571Y-107636380D02*
X181721238Y-107160190D01*
X181483142Y-107636380D02*
X181483142Y-106636380D01*
X181864095Y-106636380D01*
X181959333Y-106684000D01*
X182006952Y-106731619D01*
X182054571Y-106826857D01*
X182054571Y-106969714D01*
X182006952Y-107064952D01*
X181959333Y-107112571D01*
X181864095Y-107160190D01*
X181483142Y-107160190D01*
X182959333Y-107636380D02*
X182483142Y-107636380D01*
X182483142Y-106636380D01*
X183816476Y-107636380D02*
X183245047Y-107636380D01*
X183530761Y-107636380D02*
X183530761Y-106636380D01*
X183435523Y-106779238D01*
X183340285Y-106874476D01*
X183245047Y-106922095D01*
X182054571Y-99000380D02*
X181721238Y-98524190D01*
X181483142Y-99000380D02*
X181483142Y-98000380D01*
X181864095Y-98000380D01*
X181959333Y-98048000D01*
X182006952Y-98095619D01*
X182054571Y-98190857D01*
X182054571Y-98333714D01*
X182006952Y-98428952D01*
X181959333Y-98476571D01*
X181864095Y-98524190D01*
X181483142Y-98524190D01*
X182959333Y-99000380D02*
X182483142Y-99000380D01*
X182483142Y-98000380D01*
X183245047Y-98095619D02*
X183292666Y-98048000D01*
X183387904Y-98000380D01*
X183626000Y-98000380D01*
X183721238Y-98048000D01*
X183768857Y-98095619D01*
X183816476Y-98190857D01*
X183816476Y-98286095D01*
X183768857Y-98428952D01*
X183197428Y-99000380D01*
X183816476Y-99000380D01*
X129603428Y-71005142D02*
X129555809Y-71052761D01*
X129412952Y-71100380D01*
X129317714Y-71100380D01*
X129174857Y-71052761D01*
X129079619Y-70957523D01*
X129032000Y-70862285D01*
X128984380Y-70671809D01*
X128984380Y-70528952D01*
X129032000Y-70338476D01*
X129079619Y-70243238D01*
X129174857Y-70148000D01*
X129317714Y-70100380D01*
X129412952Y-70100380D01*
X129555809Y-70148000D01*
X129603428Y-70195619D01*
X129793904Y-71195619D02*
X130555809Y-71195619D01*
X130793904Y-70100380D02*
X130793904Y-70909904D01*
X130841523Y-71005142D01*
X130889142Y-71052761D01*
X130984380Y-71100380D01*
X131174857Y-71100380D01*
X131270095Y-71052761D01*
X131317714Y-71005142D01*
X131365333Y-70909904D01*
X131365333Y-70100380D01*
X131746285Y-70100380D02*
X132365333Y-70100380D01*
X132032000Y-70481333D01*
X132174857Y-70481333D01*
X132270095Y-70528952D01*
X132317714Y-70576571D01*
X132365333Y-70671809D01*
X132365333Y-70909904D01*
X132317714Y-71005142D01*
X132270095Y-71052761D01*
X132174857Y-71100380D01*
X131889142Y-71100380D01*
X131793904Y-71052761D01*
X131746285Y-71005142D01*
X132555809Y-71195619D02*
X133317714Y-71195619D01*
X133508190Y-70195619D02*
X133555809Y-70148000D01*
X133651047Y-70100380D01*
X133889142Y-70100380D01*
X133984380Y-70148000D01*
X134032000Y-70195619D01*
X134079619Y-70290857D01*
X134079619Y-70386095D01*
X134032000Y-70528952D01*
X133460571Y-71100380D01*
X134079619Y-71100380D01*
X119039047Y-72080380D02*
X118562857Y-72080380D01*
X118562857Y-71080380D01*
X119372380Y-71556571D02*
X119705714Y-71556571D01*
X119848571Y-72080380D02*
X119372380Y-72080380D01*
X119372380Y-71080380D01*
X119848571Y-71080380D01*
X120277142Y-72080380D02*
X120277142Y-71080380D01*
X120515238Y-71080380D01*
X120658095Y-71128000D01*
X120753333Y-71223238D01*
X120800952Y-71318476D01*
X120848571Y-71508952D01*
X120848571Y-71651809D01*
X120800952Y-71842285D01*
X120753333Y-71937523D01*
X120658095Y-72032761D01*
X120515238Y-72080380D01*
X120277142Y-72080380D01*
X121039047Y-72175619D02*
X121800952Y-72175619D01*
X122039047Y-71080380D02*
X122039047Y-71889904D01*
X122086666Y-71985142D01*
X122134285Y-72032761D01*
X122229523Y-72080380D01*
X122420000Y-72080380D01*
X122515238Y-72032761D01*
X122562857Y-71985142D01*
X122610476Y-71889904D01*
X122610476Y-71080380D01*
X122991428Y-71080380D02*
X123610476Y-71080380D01*
X123277142Y-71461333D01*
X123420000Y-71461333D01*
X123515238Y-71508952D01*
X123562857Y-71556571D01*
X123610476Y-71651809D01*
X123610476Y-71889904D01*
X123562857Y-71985142D01*
X123515238Y-72032761D01*
X123420000Y-72080380D01*
X123134285Y-72080380D01*
X123039047Y-72032761D01*
X122991428Y-71985142D01*
X123800952Y-72175619D02*
X124562857Y-72175619D01*
X125324761Y-72080380D02*
X124753333Y-72080380D01*
X125039047Y-72080380D02*
X125039047Y-71080380D01*
X124943809Y-71223238D01*
X124848571Y-71318476D01*
X124753333Y-71366095D01*
X124232380Y-85256666D02*
X123756190Y-85590000D01*
X124232380Y-85828095D02*
X123232380Y-85828095D01*
X123232380Y-85447142D01*
X123280000Y-85351904D01*
X123327619Y-85304285D01*
X123422857Y-85256666D01*
X123565714Y-85256666D01*
X123660952Y-85304285D01*
X123708571Y-85351904D01*
X123756190Y-85447142D01*
X123756190Y-85828095D01*
X124232380Y-84304285D02*
X124232380Y-84875714D01*
X124232380Y-84590000D02*
X123232380Y-84590000D01*
X123375238Y-84685238D01*
X123470476Y-84780476D01*
X123518095Y-84875714D01*
X223369142Y-95503809D02*
X223416761Y-95551428D01*
X223464380Y-95694285D01*
X223464380Y-95789523D01*
X223416761Y-95932380D01*
X223321523Y-96027619D01*
X223226285Y-96075238D01*
X223035809Y-96122857D01*
X222892952Y-96122857D01*
X222702476Y-96075238D01*
X222607238Y-96027619D01*
X222512000Y-95932380D01*
X222464380Y-95789523D01*
X222464380Y-95694285D01*
X222512000Y-95551428D01*
X222559619Y-95503809D01*
X223464380Y-94932380D02*
X223416761Y-95027619D01*
X223369142Y-95075238D01*
X223273904Y-95122857D01*
X222988190Y-95122857D01*
X222892952Y-95075238D01*
X222845333Y-95027619D01*
X222797714Y-94932380D01*
X222797714Y-94789523D01*
X222845333Y-94694285D01*
X222892952Y-94646666D01*
X222988190Y-94599047D01*
X223273904Y-94599047D01*
X223369142Y-94646666D01*
X223416761Y-94694285D01*
X223464380Y-94789523D01*
X223464380Y-94932380D01*
X222797714Y-94170476D02*
X223464380Y-94170476D01*
X222892952Y-94170476D02*
X222845333Y-94122857D01*
X222797714Y-94027619D01*
X222797714Y-93884761D01*
X222845333Y-93789523D01*
X222940571Y-93741904D01*
X223464380Y-93741904D01*
X222797714Y-93265714D02*
X223464380Y-93265714D01*
X222892952Y-93265714D02*
X222845333Y-93218095D01*
X222797714Y-93122857D01*
X222797714Y-92980000D01*
X222845333Y-92884761D01*
X222940571Y-92837142D01*
X223464380Y-92837142D01*
X222797714Y-91932380D02*
X223464380Y-91932380D01*
X222416761Y-92170476D02*
X223131047Y-92408571D01*
X223131047Y-91789523D01*
X223369142Y-113283809D02*
X223416761Y-113331428D01*
X223464380Y-113474285D01*
X223464380Y-113569523D01*
X223416761Y-113712380D01*
X223321523Y-113807619D01*
X223226285Y-113855238D01*
X223035809Y-113902857D01*
X222892952Y-113902857D01*
X222702476Y-113855238D01*
X222607238Y-113807619D01*
X222512000Y-113712380D01*
X222464380Y-113569523D01*
X222464380Y-113474285D01*
X222512000Y-113331428D01*
X222559619Y-113283809D01*
X223464380Y-112712380D02*
X223416761Y-112807619D01*
X223369142Y-112855238D01*
X223273904Y-112902857D01*
X222988190Y-112902857D01*
X222892952Y-112855238D01*
X222845333Y-112807619D01*
X222797714Y-112712380D01*
X222797714Y-112569523D01*
X222845333Y-112474285D01*
X222892952Y-112426666D01*
X222988190Y-112379047D01*
X223273904Y-112379047D01*
X223369142Y-112426666D01*
X223416761Y-112474285D01*
X223464380Y-112569523D01*
X223464380Y-112712380D01*
X222797714Y-111950476D02*
X223464380Y-111950476D01*
X222892952Y-111950476D02*
X222845333Y-111902857D01*
X222797714Y-111807619D01*
X222797714Y-111664761D01*
X222845333Y-111569523D01*
X222940571Y-111521904D01*
X223464380Y-111521904D01*
X222797714Y-111045714D02*
X223464380Y-111045714D01*
X222892952Y-111045714D02*
X222845333Y-110998095D01*
X222797714Y-110902857D01*
X222797714Y-110760000D01*
X222845333Y-110664761D01*
X222940571Y-110617142D01*
X223464380Y-110617142D01*
X223464380Y-109617142D02*
X223464380Y-110188571D01*
X223464380Y-109902857D02*
X222464380Y-109902857D01*
X222607238Y-109998095D01*
X222702476Y-110093333D01*
X222750095Y-110188571D01*
M02*
