%TF.GenerationSoftware,KiCad,Pcbnew,(2017-03-23 revision 5aa1610)-master*%
%TF.CreationDate,2017-05-13T11:46:19+02:00*%
%TF.ProjectId,aPortableInductionHeater,61506F727461626C65496E6475637469,rev?*%
%TF.FileFunction,Copper,L1,Top,Signal*%
%TF.FilePolarity,Positive*%
%FSLAX45Y45*%
G04 Gerber Fmt 4.5, Leading zero omitted, Abs format (unit mm)*
G04 Created by KiCad (PCBNEW (2017-03-23 revision 5aa1610)-master) date 2017 May 13, Saturday 11:46:19*
%MOMM*%
%LPD*%
G01*
G04 APERTURE LIST*
%ADD10C,0.100000*%
%ADD11C,0.250000*%
%ADD12C,3.000000*%
%ADD13O,2.032000X2.540000*%
%ADD14R,2.235200X1.219200*%
%ADD15R,2.199640X3.599180*%
%ADD16R,1.550000X0.600000*%
%ADD17C,1.600000*%
%ADD18R,1.778000X1.778000*%
%ADD19C,1.778000*%
%ADD20C,1.930400*%
%ADD21R,1.676400X1.676400*%
%ADD22C,2.400000*%
%ADD23O,2.400000X2.400000*%
%ADD24C,2.000000*%
%ADD25R,2.000000X2.000000*%
%ADD26C,1.800000*%
%ADD27R,1.800000X1.800000*%
%ADD28O,1.400000X1.400000*%
%ADD29C,1.400000*%
%ADD30R,3.000000X3.000000*%
%ADD31C,1.016000*%
%ADD32C,0.762000*%
%ADD33C,1.016000*%
%ADD34C,2.286000*%
%ADD35C,0.508000*%
%ADD36C,1.000000*%
%ADD37C,0.254000*%
G04 APERTURE END LIST*
D10*
D11*
X9407714Y-12857962D02*
X9412476Y-12853200D01*
X9422000Y-12848438D01*
X9445810Y-12848438D01*
X9455333Y-12853200D01*
X9460095Y-12857962D01*
X9464857Y-12867486D01*
X9464857Y-12877009D01*
X9460095Y-12891295D01*
X9402952Y-12948438D01*
X9464857Y-12948438D01*
X9526762Y-12848438D02*
X9536286Y-12848438D01*
X9545810Y-12853200D01*
X9550571Y-12857962D01*
X9555333Y-12867486D01*
X9560095Y-12886533D01*
X9560095Y-12910343D01*
X9555333Y-12929390D01*
X9550571Y-12938914D01*
X9545810Y-12943676D01*
X9536286Y-12948438D01*
X9526762Y-12948438D01*
X9517238Y-12943676D01*
X9512476Y-12938914D01*
X9507714Y-12929390D01*
X9502952Y-12910343D01*
X9502952Y-12886533D01*
X9507714Y-12867486D01*
X9512476Y-12857962D01*
X9517238Y-12853200D01*
X9526762Y-12848438D01*
X9655333Y-12948438D02*
X9598190Y-12948438D01*
X9626762Y-12948438D02*
X9626762Y-12848438D01*
X9617238Y-12862724D01*
X9607714Y-12872248D01*
X9598190Y-12877009D01*
X9688667Y-12848438D02*
X9755333Y-12848438D01*
X9712476Y-12948438D01*
X9926762Y-12938914D02*
X9922000Y-12943676D01*
X9907714Y-12948438D01*
X9898190Y-12948438D01*
X9883905Y-12943676D01*
X9874381Y-12934152D01*
X9869619Y-12924628D01*
X9864857Y-12905581D01*
X9864857Y-12891295D01*
X9869619Y-12872248D01*
X9874381Y-12862724D01*
X9883905Y-12853200D01*
X9898190Y-12848438D01*
X9907714Y-12848438D01*
X9922000Y-12853200D01*
X9926762Y-12857962D01*
X9983905Y-12948438D02*
X9974381Y-12943676D01*
X9969619Y-12938914D01*
X9964857Y-12929390D01*
X9964857Y-12900819D01*
X9969619Y-12891295D01*
X9974381Y-12886533D01*
X9983905Y-12881771D01*
X9998190Y-12881771D01*
X10007714Y-12886533D01*
X10012476Y-12891295D01*
X10017238Y-12900819D01*
X10017238Y-12929390D01*
X10012476Y-12938914D01*
X10007714Y-12943676D01*
X9998190Y-12948438D01*
X9983905Y-12948438D01*
X10060095Y-12881771D02*
X10060095Y-12981771D01*
X10060095Y-12886533D02*
X10069619Y-12881771D01*
X10088667Y-12881771D01*
X10098190Y-12886533D01*
X10102952Y-12891295D01*
X10107714Y-12900819D01*
X10107714Y-12929390D01*
X10102952Y-12938914D01*
X10098190Y-12943676D01*
X10088667Y-12948438D01*
X10069619Y-12948438D01*
X10060095Y-12943676D01*
X10141048Y-12881771D02*
X10164857Y-12948438D01*
X10188667Y-12881771D02*
X10164857Y-12948438D01*
X10155333Y-12972248D01*
X10150571Y-12977009D01*
X10141048Y-12981771D01*
X10226762Y-12948438D02*
X10226762Y-12881771D01*
X10226762Y-12900819D02*
X10231524Y-12891295D01*
X10236286Y-12886533D01*
X10245810Y-12881771D01*
X10255333Y-12881771D01*
X10288667Y-12948438D02*
X10288667Y-12881771D01*
X10288667Y-12848438D02*
X10283905Y-12853200D01*
X10288667Y-12857962D01*
X10293429Y-12853200D01*
X10288667Y-12848438D01*
X10288667Y-12857962D01*
X10379143Y-12881771D02*
X10379143Y-12962724D01*
X10374381Y-12972248D01*
X10369619Y-12977009D01*
X10360095Y-12981771D01*
X10345810Y-12981771D01*
X10336286Y-12977009D01*
X10379143Y-12943676D02*
X10369619Y-12948438D01*
X10350571Y-12948438D01*
X10341048Y-12943676D01*
X10336286Y-12938914D01*
X10331524Y-12929390D01*
X10331524Y-12900819D01*
X10336286Y-12891295D01*
X10341048Y-12886533D01*
X10350571Y-12881771D01*
X10369619Y-12881771D01*
X10379143Y-12886533D01*
X10426762Y-12948438D02*
X10426762Y-12848438D01*
X10469619Y-12948438D02*
X10469619Y-12896057D01*
X10464857Y-12886533D01*
X10455333Y-12881771D01*
X10441048Y-12881771D01*
X10431524Y-12886533D01*
X10426762Y-12891295D01*
X10502952Y-12881771D02*
X10541048Y-12881771D01*
X10517238Y-12848438D02*
X10517238Y-12934152D01*
X10522000Y-12943676D01*
X10531524Y-12948438D01*
X10541048Y-12948438D01*
X10679143Y-12986533D02*
X10674381Y-12981771D01*
X10664857Y-12967486D01*
X10660095Y-12957962D01*
X10655333Y-12943676D01*
X10650571Y-12919867D01*
X10650571Y-12900819D01*
X10655333Y-12877009D01*
X10660095Y-12862724D01*
X10664857Y-12853200D01*
X10674381Y-12838914D01*
X10679143Y-12834152D01*
X10774381Y-12938914D02*
X10769619Y-12943676D01*
X10755333Y-12948438D01*
X10745810Y-12948438D01*
X10731524Y-12943676D01*
X10722000Y-12934152D01*
X10717238Y-12924628D01*
X10712476Y-12905581D01*
X10712476Y-12891295D01*
X10717238Y-12872248D01*
X10722000Y-12862724D01*
X10731524Y-12853200D01*
X10745810Y-12848438D01*
X10755333Y-12848438D01*
X10769619Y-12853200D01*
X10774381Y-12857962D01*
X10807714Y-12986533D02*
X10812476Y-12981771D01*
X10822000Y-12967486D01*
X10826762Y-12957962D01*
X10831524Y-12943676D01*
X10836286Y-12919867D01*
X10836286Y-12900819D01*
X10831524Y-12877009D01*
X10826762Y-12862724D01*
X10822000Y-12853200D01*
X10812476Y-12838914D01*
X10807714Y-12834152D01*
X10960095Y-12948438D02*
X10960095Y-12848438D01*
X10983905Y-12848438D01*
X10998190Y-12853200D01*
X11007714Y-12862724D01*
X11012476Y-12872248D01*
X11017238Y-12891295D01*
X11017238Y-12905581D01*
X11012476Y-12924628D01*
X11007714Y-12934152D01*
X10998190Y-12943676D01*
X10983905Y-12948438D01*
X10960095Y-12948438D01*
X11060095Y-12896057D02*
X11093429Y-12896057D01*
X11107714Y-12948438D02*
X11060095Y-12948438D01*
X11060095Y-12848438D01*
X11107714Y-12848438D01*
X11198190Y-12948438D02*
X11150571Y-12948438D01*
X11150571Y-12848438D01*
X11250571Y-12848438D02*
X11269619Y-12848438D01*
X11279143Y-12853200D01*
X11288667Y-12862724D01*
X11293428Y-12881771D01*
X11293428Y-12915105D01*
X11288667Y-12934152D01*
X11279143Y-12943676D01*
X11269619Y-12948438D01*
X11250571Y-12948438D01*
X11241048Y-12943676D01*
X11231524Y-12934152D01*
X11226762Y-12915105D01*
X11226762Y-12881771D01*
X11231524Y-12862724D01*
X11241048Y-12853200D01*
X11250571Y-12848438D01*
X11336286Y-12848438D02*
X11336286Y-12929390D01*
X11341048Y-12938914D01*
X11345809Y-12943676D01*
X11355333Y-12948438D01*
X11374381Y-12948438D01*
X11383905Y-12943676D01*
X11388667Y-12938914D01*
X11393428Y-12929390D01*
X11393428Y-12848438D01*
X11498190Y-12938914D02*
X11493428Y-12943676D01*
X11479143Y-12948438D01*
X11469619Y-12948438D01*
X11455333Y-12943676D01*
X11445809Y-12934152D01*
X11441048Y-12924628D01*
X11436286Y-12905581D01*
X11436286Y-12891295D01*
X11441048Y-12872248D01*
X11445809Y-12862724D01*
X11455333Y-12853200D01*
X11469619Y-12848438D01*
X11479143Y-12848438D01*
X11493428Y-12853200D01*
X11498190Y-12857962D01*
X11541048Y-12948438D02*
X11541048Y-12848438D01*
X11541048Y-12896057D02*
X11598190Y-12896057D01*
X11598190Y-12948438D02*
X11598190Y-12848438D01*
X11645809Y-12896057D02*
X11679143Y-12896057D01*
X11693428Y-12948438D02*
X11645809Y-12948438D01*
X11645809Y-12848438D01*
X11693428Y-12848438D01*
X11736286Y-12910343D02*
X11812476Y-12910343D01*
X11845809Y-12848438D02*
X11879143Y-12948438D01*
X11912476Y-12848438D01*
X11945809Y-12948438D02*
X11945809Y-12848438D01*
X12041048Y-12948438D02*
X11993428Y-12948438D01*
X11993428Y-12848438D01*
X12074381Y-12948438D02*
X12074381Y-12848438D01*
X12112476Y-12848438D01*
X12122000Y-12853200D01*
X12126762Y-12857962D01*
X12131524Y-12867486D01*
X12131524Y-12881771D01*
X12126762Y-12891295D01*
X12122000Y-12896057D01*
X12112476Y-12900819D01*
X12074381Y-12900819D01*
X12193428Y-12848438D02*
X12212476Y-12848438D01*
X12222000Y-12853200D01*
X12231524Y-12862724D01*
X12236286Y-12881771D01*
X12236286Y-12915105D01*
X12231524Y-12934152D01*
X12222000Y-12943676D01*
X12212476Y-12948438D01*
X12193428Y-12948438D01*
X12183905Y-12943676D01*
X12174381Y-12934152D01*
X12169619Y-12915105D01*
X12169619Y-12881771D01*
X12174381Y-12862724D01*
X12183905Y-12853200D01*
X12193428Y-12848438D01*
X12279143Y-12848438D02*
X12279143Y-12929390D01*
X12283905Y-12938914D01*
X12288667Y-12943676D01*
X12298190Y-12948438D01*
X12317238Y-12948438D01*
X12326762Y-12943676D01*
X12331524Y-12938914D01*
X12336286Y-12929390D01*
X12336286Y-12848438D01*
X12374381Y-12848438D02*
X12441048Y-12948438D01*
X12441048Y-12848438D02*
X12374381Y-12948438D01*
X9791848Y-12770638D02*
X9791848Y-12718257D01*
X9787086Y-12708733D01*
X9777562Y-12703971D01*
X9758514Y-12703971D01*
X9748990Y-12708733D01*
X9791848Y-12765876D02*
X9782324Y-12770638D01*
X9758514Y-12770638D01*
X9748990Y-12765876D01*
X9744229Y-12756352D01*
X9744229Y-12746828D01*
X9748990Y-12737305D01*
X9758514Y-12732543D01*
X9782324Y-12732543D01*
X9791848Y-12727781D01*
X9839467Y-12770638D02*
X9839467Y-12670638D01*
X9877562Y-12670638D01*
X9887086Y-12675400D01*
X9891848Y-12680162D01*
X9896610Y-12689686D01*
X9896610Y-12703971D01*
X9891848Y-12713495D01*
X9887086Y-12718257D01*
X9877562Y-12723019D01*
X9839467Y-12723019D01*
X9953752Y-12770638D02*
X9944229Y-12765876D01*
X9939467Y-12761114D01*
X9934705Y-12751590D01*
X9934705Y-12723019D01*
X9939467Y-12713495D01*
X9944229Y-12708733D01*
X9953752Y-12703971D01*
X9968038Y-12703971D01*
X9977562Y-12708733D01*
X9982324Y-12713495D01*
X9987086Y-12723019D01*
X9987086Y-12751590D01*
X9982324Y-12761114D01*
X9977562Y-12765876D01*
X9968038Y-12770638D01*
X9953752Y-12770638D01*
X10029943Y-12770638D02*
X10029943Y-12703971D01*
X10029943Y-12723019D02*
X10034705Y-12713495D01*
X10039467Y-12708733D01*
X10048990Y-12703971D01*
X10058514Y-12703971D01*
X10077562Y-12703971D02*
X10115657Y-12703971D01*
X10091848Y-12670638D02*
X10091848Y-12756352D01*
X10096610Y-12765876D01*
X10106133Y-12770638D01*
X10115657Y-12770638D01*
X10191848Y-12770638D02*
X10191848Y-12718257D01*
X10187086Y-12708733D01*
X10177562Y-12703971D01*
X10158514Y-12703971D01*
X10148990Y-12708733D01*
X10191848Y-12765876D02*
X10182324Y-12770638D01*
X10158514Y-12770638D01*
X10148990Y-12765876D01*
X10144229Y-12756352D01*
X10144229Y-12746828D01*
X10148990Y-12737305D01*
X10158514Y-12732543D01*
X10182324Y-12732543D01*
X10191848Y-12727781D01*
X10239467Y-12770638D02*
X10239467Y-12670638D01*
X10239467Y-12708733D02*
X10248990Y-12703971D01*
X10268038Y-12703971D01*
X10277562Y-12708733D01*
X10282324Y-12713495D01*
X10287086Y-12723019D01*
X10287086Y-12751590D01*
X10282324Y-12761114D01*
X10277562Y-12765876D01*
X10268038Y-12770638D01*
X10248990Y-12770638D01*
X10239467Y-12765876D01*
X10344229Y-12770638D02*
X10334705Y-12765876D01*
X10329943Y-12756352D01*
X10329943Y-12670638D01*
X10420419Y-12765876D02*
X10410895Y-12770638D01*
X10391848Y-12770638D01*
X10382324Y-12765876D01*
X10377562Y-12756352D01*
X10377562Y-12718257D01*
X10382324Y-12708733D01*
X10391848Y-12703971D01*
X10410895Y-12703971D01*
X10420419Y-12708733D01*
X10425181Y-12718257D01*
X10425181Y-12727781D01*
X10377562Y-12737305D01*
X10468038Y-12770638D02*
X10468038Y-12670638D01*
X10515657Y-12703971D02*
X10515657Y-12770638D01*
X10515657Y-12713495D02*
X10520419Y-12708733D01*
X10529943Y-12703971D01*
X10544229Y-12703971D01*
X10553752Y-12708733D01*
X10558514Y-12718257D01*
X10558514Y-12770638D01*
X10648990Y-12770638D02*
X10648990Y-12670638D01*
X10648990Y-12765876D02*
X10639467Y-12770638D01*
X10620419Y-12770638D01*
X10610895Y-12765876D01*
X10606133Y-12761114D01*
X10601371Y-12751590D01*
X10601371Y-12723019D01*
X10606133Y-12713495D01*
X10610895Y-12708733D01*
X10620419Y-12703971D01*
X10639467Y-12703971D01*
X10648990Y-12708733D01*
X10739467Y-12703971D02*
X10739467Y-12770638D01*
X10696610Y-12703971D02*
X10696610Y-12756352D01*
X10701371Y-12765876D01*
X10710895Y-12770638D01*
X10725181Y-12770638D01*
X10734705Y-12765876D01*
X10739467Y-12761114D01*
X10829943Y-12765876D02*
X10820419Y-12770638D01*
X10801371Y-12770638D01*
X10791848Y-12765876D01*
X10787086Y-12761114D01*
X10782324Y-12751590D01*
X10782324Y-12723019D01*
X10787086Y-12713495D01*
X10791848Y-12708733D01*
X10801371Y-12703971D01*
X10820419Y-12703971D01*
X10829943Y-12708733D01*
X10858514Y-12703971D02*
X10896610Y-12703971D01*
X10872800Y-12670638D02*
X10872800Y-12756352D01*
X10877562Y-12765876D01*
X10887086Y-12770638D01*
X10896610Y-12770638D01*
X10929943Y-12770638D02*
X10929943Y-12703971D01*
X10929943Y-12670638D02*
X10925181Y-12675400D01*
X10929943Y-12680162D01*
X10934705Y-12675400D01*
X10929943Y-12670638D01*
X10929943Y-12680162D01*
X10991848Y-12770638D02*
X10982324Y-12765876D01*
X10977562Y-12761114D01*
X10972800Y-12751590D01*
X10972800Y-12723019D01*
X10977562Y-12713495D01*
X10982324Y-12708733D01*
X10991848Y-12703971D01*
X11006133Y-12703971D01*
X11015657Y-12708733D01*
X11020419Y-12713495D01*
X11025181Y-12723019D01*
X11025181Y-12751590D01*
X11020419Y-12761114D01*
X11015657Y-12765876D01*
X11006133Y-12770638D01*
X10991848Y-12770638D01*
X11068038Y-12703971D02*
X11068038Y-12770638D01*
X11068038Y-12713495D02*
X11072800Y-12708733D01*
X11082324Y-12703971D01*
X11096610Y-12703971D01*
X11106133Y-12708733D01*
X11110895Y-12718257D01*
X11110895Y-12770638D01*
X11158514Y-12770638D02*
X11158514Y-12670638D01*
X11158514Y-12718257D02*
X11215657Y-12718257D01*
X11215657Y-12770638D02*
X11215657Y-12670638D01*
X11301371Y-12765876D02*
X11291848Y-12770638D01*
X11272800Y-12770638D01*
X11263276Y-12765876D01*
X11258514Y-12756352D01*
X11258514Y-12718257D01*
X11263276Y-12708733D01*
X11272800Y-12703971D01*
X11291848Y-12703971D01*
X11301371Y-12708733D01*
X11306133Y-12718257D01*
X11306133Y-12727781D01*
X11258514Y-12737305D01*
X11391848Y-12770638D02*
X11391848Y-12718257D01*
X11387086Y-12708733D01*
X11377562Y-12703971D01*
X11358514Y-12703971D01*
X11348990Y-12708733D01*
X11391848Y-12765876D02*
X11382324Y-12770638D01*
X11358514Y-12770638D01*
X11348990Y-12765876D01*
X11344228Y-12756352D01*
X11344228Y-12746828D01*
X11348990Y-12737305D01*
X11358514Y-12732543D01*
X11382324Y-12732543D01*
X11391848Y-12727781D01*
X11425181Y-12703971D02*
X11463276Y-12703971D01*
X11439467Y-12670638D02*
X11439467Y-12756352D01*
X11444228Y-12765876D01*
X11453752Y-12770638D01*
X11463276Y-12770638D01*
X11534705Y-12765876D02*
X11525181Y-12770638D01*
X11506133Y-12770638D01*
X11496609Y-12765876D01*
X11491848Y-12756352D01*
X11491848Y-12718257D01*
X11496609Y-12708733D01*
X11506133Y-12703971D01*
X11525181Y-12703971D01*
X11534705Y-12708733D01*
X11539467Y-12718257D01*
X11539467Y-12727781D01*
X11491848Y-12737305D01*
X11582324Y-12770638D02*
X11582324Y-12703971D01*
X11582324Y-12723019D02*
X11587086Y-12713495D01*
X11591848Y-12708733D01*
X11601371Y-12703971D01*
X11610895Y-12703971D01*
X11720419Y-12732543D02*
X11796609Y-12732543D01*
X11906133Y-12670638D02*
X11939467Y-12770638D01*
X11972800Y-12670638D01*
X12058514Y-12770638D02*
X12001371Y-12770638D01*
X12029943Y-12770638D02*
X12029943Y-12670638D01*
X12020419Y-12684924D01*
X12010895Y-12694448D01*
X12001371Y-12699209D01*
X12101371Y-12761114D02*
X12106133Y-12765876D01*
X12101371Y-12770638D01*
X12096609Y-12765876D01*
X12101371Y-12761114D01*
X12101371Y-12770638D01*
X12168038Y-12670638D02*
X12177562Y-12670638D01*
X12187086Y-12675400D01*
X12191848Y-12680162D01*
X12196609Y-12689686D01*
X12201371Y-12708733D01*
X12201371Y-12732543D01*
X12196609Y-12751590D01*
X12191848Y-12761114D01*
X12187086Y-12765876D01*
X12177562Y-12770638D01*
X12168038Y-12770638D01*
X12158514Y-12765876D01*
X12153752Y-12761114D01*
X12148990Y-12751590D01*
X12144228Y-12732543D01*
X12144228Y-12708733D01*
X12148990Y-12689686D01*
X12153752Y-12680162D01*
X12158514Y-12675400D01*
X12168038Y-12670638D01*
D12*
X23190200Y-13843000D03*
D13*
X22047200Y-14097000D03*
X22555200Y-14097000D03*
X22301200Y-14097000D03*
D12*
X21412200Y-13843000D03*
X23190200Y-12674600D03*
D13*
X22047200Y-12928600D03*
X22555200Y-12928600D03*
X22301200Y-12928600D03*
D12*
X21412200Y-12674600D03*
X23190200Y-11480800D03*
D13*
X22047200Y-11734800D03*
X22555200Y-11734800D03*
X22301200Y-11734800D03*
D12*
X21412200Y-11480800D03*
X23164800Y-10261600D03*
D13*
X22021800Y-10515600D03*
X22529800Y-10515600D03*
X22275800Y-10515600D03*
D12*
X21386800Y-10261600D03*
D14*
X14508480Y-12296140D03*
X14508480Y-12065000D03*
X14508480Y-11834114D03*
D15*
X13888720Y-12065000D03*
D16*
X16875000Y-12966700D03*
X16875000Y-13093700D03*
X16875000Y-13220700D03*
X16875000Y-13347700D03*
X17415000Y-13347700D03*
X17415000Y-13220700D03*
X17415000Y-13093700D03*
X17415000Y-12966700D03*
X16671800Y-10553700D03*
X16671800Y-10426700D03*
X16671800Y-10299700D03*
X16671800Y-10172700D03*
X17211800Y-10172700D03*
X17211800Y-10299700D03*
X17211800Y-10426700D03*
X17211800Y-10553700D03*
D17*
X13995400Y-11303000D03*
X14745400Y-11303000D03*
X17246600Y-11379200D03*
X16246600Y-11379200D03*
X17246600Y-12293600D03*
X16246600Y-12293600D03*
X13741400Y-13081000D03*
X14741400Y-13081000D03*
X15849600Y-10617200D03*
X15849600Y-9867200D03*
X15875000Y-13893800D03*
X16625000Y-13893800D03*
D18*
X9490600Y-9725000D03*
D19*
X9744600Y-9725000D03*
X9998600Y-9725000D03*
X10252600Y-9725000D03*
X10506600Y-9725000D03*
X10760600Y-9725000D03*
X11014600Y-9725000D03*
X11268600Y-9725000D03*
X11522600Y-9725000D03*
X11776600Y-9725000D03*
D18*
X9485600Y-9980000D03*
D19*
X9739600Y-9980000D03*
X9993600Y-9980000D03*
X10247600Y-9980000D03*
X10501600Y-9980000D03*
X10755600Y-9980000D03*
X11009600Y-9980000D03*
X11263600Y-9980000D03*
X11517600Y-9980000D03*
X11771600Y-9980000D03*
D18*
X9490710Y-14043360D03*
D19*
X9744710Y-14043360D03*
X9998710Y-14043360D03*
X10252710Y-14043360D03*
X10506710Y-14043360D03*
X10760710Y-14043360D03*
X11014710Y-14043360D03*
X11268710Y-14043360D03*
X11522710Y-14043360D03*
X11776710Y-14043360D03*
D18*
X9490710Y-14297360D03*
D19*
X9744710Y-14297360D03*
X9998710Y-14297360D03*
X10252710Y-14297360D03*
X10506710Y-14297360D03*
X10760710Y-14297360D03*
X11014710Y-14297360D03*
X11268710Y-14297360D03*
X11522710Y-14297360D03*
X11776710Y-14297360D03*
D20*
X12285260Y-9725904D03*
X12539260Y-9725904D03*
D21*
X12793260Y-9725904D03*
D22*
X20523200Y-13817600D03*
D23*
X18491200Y-13817600D03*
D22*
X20523200Y-11049000D03*
D23*
X18491200Y-11049000D03*
X18491200Y-12852400D03*
D22*
X20523200Y-12852400D03*
D23*
X18491200Y-11988800D03*
D22*
X20523200Y-11988800D03*
D24*
X14647800Y-10210800D03*
D25*
X14147800Y-10210800D03*
D26*
X13436600Y-10287000D03*
D27*
X13436600Y-10033000D03*
D28*
X13436600Y-11303000D03*
D29*
X13436600Y-10795000D03*
D12*
X24053800Y-11684000D03*
D30*
X24053800Y-12192000D03*
D12*
X24053800Y-13462000D03*
D30*
X24053800Y-13970000D03*
D31*
X14859000Y-12293600D03*
X17703800Y-13106400D03*
X16433800Y-10414000D03*
X15417800Y-13589000D03*
X17221200Y-13589000D03*
X15417800Y-13716000D03*
X17424400Y-13716000D03*
X17551400Y-9677400D03*
X18491200Y-10287000D03*
X17602200Y-10947400D03*
X16433800Y-10058400D03*
X14986000Y-10033000D03*
D32*
X14909800Y-11049000D03*
D31*
X12065000Y-10261600D03*
X15113000Y-10896600D03*
X15113000Y-10160000D03*
X16433800Y-10185400D03*
D33*
X14856460Y-12296140D02*
X14508480Y-12296140D01*
X14859000Y-12293600D02*
X14856460Y-12296140D01*
X17691100Y-13093700D02*
X17415000Y-13093700D01*
X17703800Y-13106400D02*
X17691100Y-13093700D01*
X16446500Y-10426700D02*
X16671800Y-10426700D01*
X16433800Y-10414000D02*
X16446500Y-10426700D01*
D34*
X22301200Y-11734800D02*
X22301200Y-11404600D01*
X22301200Y-11404600D02*
X22453600Y-11252200D01*
X22453600Y-11252200D02*
X21767800Y-11252200D01*
X21767800Y-11252200D02*
X21666200Y-11150600D01*
X21666200Y-11150600D02*
X21158200Y-11150600D01*
X21158200Y-11150600D02*
X20675600Y-11633200D01*
X20675600Y-11633200D02*
X19964400Y-11633200D01*
X19405600Y-13335000D02*
X19405600Y-12192000D01*
X17830800Y-13919200D02*
X18415000Y-13335000D01*
X18415000Y-13335000D02*
X19405600Y-13335000D01*
X17830800Y-13919200D02*
X16650400Y-13919200D01*
X19405600Y-12192000D02*
X19964400Y-11633200D01*
X24053800Y-12192000D02*
X23088600Y-12192000D01*
X22555200Y-12725400D02*
X22555200Y-12928600D01*
X23088600Y-12192000D02*
X22555200Y-12725400D01*
X22555200Y-12928600D02*
X22555200Y-12420600D01*
X22555200Y-12420600D02*
X22301200Y-12166600D01*
X22301200Y-12166600D02*
X22301200Y-11734800D01*
D33*
X16875000Y-13347700D02*
X16875000Y-13643800D01*
D34*
X16875000Y-13643800D02*
X16625000Y-13893800D01*
X16650400Y-13919200D02*
X16625000Y-13893800D01*
D33*
X16875000Y-13093700D02*
X16192500Y-13093700D01*
X15875000Y-13411200D02*
X15875000Y-13893800D01*
X16192500Y-13093700D02*
X15875000Y-13411200D01*
D34*
X22301200Y-12928600D02*
X22301200Y-13233400D01*
X23317200Y-13360400D02*
X23926800Y-13970000D01*
X22428200Y-13360400D02*
X23317200Y-13360400D01*
X22301200Y-13233400D02*
X22428200Y-13360400D01*
X23926800Y-13970000D02*
X24053800Y-13970000D01*
X22288500Y-10706100D02*
X22237700Y-10706100D01*
X20789900Y-10655300D02*
X17881600Y-10655300D01*
X21005800Y-10871200D02*
X20789900Y-10655300D01*
X22072600Y-10871200D02*
X21005800Y-10871200D01*
X22237700Y-10706100D02*
X22072600Y-10871200D01*
X24409400Y-11125200D02*
X23825200Y-11125200D01*
X24231600Y-13970000D02*
X24409400Y-13792200D01*
X24409400Y-13792200D02*
X24409400Y-11125200D01*
X24053800Y-13970000D02*
X24231600Y-13970000D01*
X22453600Y-10871200D02*
X22288500Y-10706100D01*
X22288500Y-10706100D02*
X22275800Y-10693400D01*
X23571200Y-10871200D02*
X22453600Y-10871200D01*
X23825200Y-11125200D02*
X23571200Y-10871200D01*
X22275800Y-10515600D02*
X22275800Y-10693400D01*
X22275800Y-10693400D02*
X22275800Y-10744200D01*
X22275800Y-10744200D02*
X22301200Y-10718800D01*
X22301200Y-10718800D02*
X22301200Y-10744200D01*
X16840200Y-12700000D02*
X14122400Y-12700000D01*
X14122400Y-12700000D02*
X13741400Y-13081000D01*
D33*
X17211800Y-10553700D02*
X17881600Y-10655300D01*
D34*
X17881600Y-10655300D02*
X17881600Y-10642600D01*
X17881600Y-10744200D02*
X17881600Y-11455400D01*
X17881600Y-10642600D02*
X17881600Y-10744200D01*
D33*
X16840200Y-12931900D02*
X16840200Y-12700000D01*
D34*
X16840200Y-12700000D02*
X16840200Y-12674600D01*
X16840200Y-12674600D02*
X16865600Y-12649200D01*
D33*
X16840200Y-12931900D02*
X16875000Y-12966700D01*
X16840200Y-12931900D02*
X16875000Y-12966700D01*
X14508480Y-11834114D02*
X17706086Y-11834114D01*
D34*
X17706086Y-11834114D02*
X17729200Y-11811000D01*
X17246600Y-12293600D02*
X17221200Y-12293600D01*
X17221200Y-12293600D02*
X16865600Y-12649200D01*
X17246600Y-11379200D02*
X17805400Y-11379200D01*
X17805400Y-11379200D02*
X17881600Y-11455400D01*
X17881600Y-11455400D02*
X17881600Y-11658600D01*
X17881600Y-11658600D02*
X17729200Y-11811000D01*
X17729200Y-11811000D02*
X17246600Y-12293600D01*
D33*
X16875000Y-13220700D02*
X16700500Y-13220700D01*
X18135600Y-14173200D02*
X18491200Y-13817600D01*
X16383000Y-14173200D02*
X18135600Y-14173200D01*
X16408400Y-14198600D02*
X16383000Y-14173200D01*
X16408400Y-13512800D02*
X16408400Y-14198600D01*
X16700500Y-13220700D02*
X16408400Y-13512800D01*
X17415000Y-12966700D02*
X17462500Y-12966700D01*
X17462500Y-12966700D02*
X17576800Y-12852400D01*
X17576800Y-12852400D02*
X18491200Y-12852400D01*
D35*
X17415000Y-13220700D02*
X17310100Y-13220700D01*
X10755600Y-10552400D02*
X10755600Y-9980000D01*
X13792200Y-13589000D02*
X10755600Y-10552400D01*
X15417800Y-13589000D02*
X13792200Y-13589000D01*
X17221200Y-13309600D02*
X17221200Y-13589000D01*
X17310100Y-13220700D02*
X17221200Y-13309600D01*
X17415000Y-13347700D02*
X17415000Y-13706600D01*
X10501600Y-10476200D02*
X10501600Y-9980000D01*
X13741400Y-13716000D02*
X10501600Y-10476200D01*
X15417800Y-13716000D02*
X13741400Y-13716000D01*
X17415000Y-13706600D02*
X17424400Y-13716000D01*
D33*
X20523200Y-13817600D02*
X20523200Y-13665200D01*
X21259800Y-12928600D02*
X22047200Y-12928600D01*
X20523200Y-13665200D02*
X21259800Y-12928600D01*
X22047200Y-11709400D02*
X22047200Y-11938000D01*
X21285200Y-12090400D02*
X20523200Y-12852400D01*
X21894800Y-12090400D02*
X21285200Y-12090400D01*
X22047200Y-11938000D02*
X21894800Y-12090400D01*
X20523200Y-12852400D02*
X20624800Y-12852400D01*
X16129000Y-9931400D02*
X16129000Y-10337800D01*
X16979900Y-10426700D02*
X16891000Y-10337800D01*
X16891000Y-10337800D02*
X16891000Y-9982200D01*
X16891000Y-9982200D02*
X16840200Y-9931400D01*
X16840200Y-9931400D02*
X16129000Y-9931400D01*
X17211800Y-10426700D02*
X16979900Y-10426700D01*
X16129000Y-10337800D02*
X15849600Y-10617200D01*
D36*
X17211800Y-10172700D02*
X17310100Y-10172700D01*
X17310100Y-10172700D02*
X17551400Y-9931400D01*
D34*
X17551400Y-10033000D02*
X17551400Y-9931400D01*
X17551400Y-9931400D02*
X17551400Y-9677400D01*
D33*
X17211800Y-10299700D02*
X18478500Y-10299700D01*
X18478500Y-10299700D02*
X18491200Y-10287000D01*
X16865600Y-10947400D02*
X17602200Y-10947400D01*
X16671800Y-10753600D02*
X16865600Y-10947400D01*
X16671800Y-10553700D02*
X16671800Y-10753600D01*
D35*
X16671800Y-10118600D02*
X16611600Y-10058400D01*
X16611600Y-10058400D02*
X16433800Y-10058400D01*
X14986000Y-10033000D02*
X14909800Y-10109200D01*
X14909800Y-10109200D02*
X14909800Y-11049000D01*
X16671800Y-10172700D02*
X16671800Y-10118600D01*
X16671800Y-10299700D02*
X16548100Y-10299700D01*
X11697200Y-9550400D02*
X11522600Y-9725000D01*
X11861800Y-9550400D02*
X11697200Y-9550400D01*
X11988800Y-9677400D02*
X11861800Y-9550400D01*
X11988800Y-10185400D02*
X11988800Y-9677400D01*
X12065000Y-10261600D02*
X11988800Y-10185400D01*
X15113000Y-10160000D02*
X15113000Y-10896600D01*
X16548100Y-10299700D02*
X16433800Y-10185400D01*
D34*
X14508480Y-12065000D02*
X13888720Y-12065000D01*
X14147800Y-10210800D02*
X14147800Y-10058400D01*
X13741400Y-9652000D02*
X12867164Y-9652000D01*
X14147800Y-10058400D02*
X13741400Y-9652000D01*
X12867164Y-9652000D02*
X12793260Y-9725904D01*
X13995400Y-11303000D02*
X13436600Y-11303000D01*
X13995400Y-11303000D02*
X14147800Y-11150600D01*
X14147800Y-11150600D02*
X14147800Y-10210800D01*
X13888720Y-12065000D02*
X13888720Y-11409680D01*
X13782040Y-11303000D02*
X13995400Y-11303000D01*
X13888720Y-11409680D02*
X13782040Y-11303000D01*
D33*
X13436600Y-10795000D02*
X13436600Y-10287000D01*
D37*
G36*
X22991774Y-11401934D02*
X22976737Y-11438146D01*
X22976663Y-11523081D01*
X23009098Y-11601580D01*
X23069104Y-11661691D01*
X23147546Y-11694263D01*
X23232481Y-11694337D01*
X23269062Y-11679222D01*
X23638420Y-12048580D01*
X23642540Y-12051333D01*
X23647400Y-12052300D01*
X23840300Y-12052300D01*
X23840300Y-12163425D01*
X23856175Y-12179300D01*
X24041100Y-12179300D01*
X24041100Y-12177300D01*
X24066500Y-12177300D01*
X24066500Y-12179300D01*
X24068500Y-12179300D01*
X24068500Y-12204700D01*
X24066500Y-12204700D01*
X24066500Y-12389625D01*
X24082375Y-12405500D01*
X24216431Y-12405500D01*
X24218900Y-12404477D01*
X24218900Y-12966700D01*
X22720300Y-12966700D01*
X22720300Y-12941300D01*
X22567900Y-12941300D01*
X22567900Y-12943300D01*
X22542500Y-12943300D01*
X22542500Y-12754516D01*
X22567900Y-12754516D01*
X22567900Y-12915900D01*
X22720300Y-12915900D01*
X22720300Y-12890500D01*
X22702872Y-12828286D01*
X22662963Y-12777476D01*
X22606648Y-12745807D01*
X22593494Y-12742602D01*
X22567900Y-12754516D01*
X22542500Y-12754516D01*
X22542500Y-12716881D01*
X22976663Y-12716881D01*
X23009098Y-12795380D01*
X23069104Y-12855491D01*
X23147546Y-12888063D01*
X23232481Y-12888137D01*
X23310980Y-12855702D01*
X23371091Y-12795696D01*
X23403663Y-12717254D01*
X23403737Y-12632318D01*
X23371302Y-12553820D01*
X23311296Y-12493709D01*
X23232854Y-12461137D01*
X23147918Y-12461063D01*
X23069420Y-12493498D01*
X23009309Y-12553504D01*
X22976737Y-12631946D01*
X22976663Y-12716881D01*
X22542500Y-12716881D01*
X22542500Y-12649200D01*
X22541533Y-12644340D01*
X22538780Y-12640220D01*
X22263100Y-12364539D01*
X22263100Y-12220575D01*
X23840300Y-12220575D01*
X23840300Y-12354631D01*
X23849967Y-12377970D01*
X23867830Y-12395833D01*
X23891169Y-12405500D01*
X24025225Y-12405500D01*
X24041100Y-12389625D01*
X24041100Y-12204700D01*
X23856175Y-12204700D01*
X23840300Y-12220575D01*
X22263100Y-12220575D01*
X22263100Y-11920707D01*
X22288500Y-11908884D01*
X22288500Y-11747500D01*
X22286500Y-11747500D01*
X22286500Y-11722100D01*
X22288500Y-11722100D01*
X22288500Y-11560716D01*
X22313900Y-11560716D01*
X22313900Y-11722100D01*
X22315900Y-11722100D01*
X22315900Y-11747500D01*
X22313900Y-11747500D01*
X22313900Y-11908884D01*
X22339494Y-11920797D01*
X22352648Y-11917593D01*
X22408963Y-11885924D01*
X22426795Y-11863222D01*
X22438457Y-11880675D01*
X22492019Y-11916465D01*
X22555200Y-11929032D01*
X22618381Y-11916465D01*
X22671943Y-11880675D01*
X22707732Y-11827113D01*
X22720300Y-11763932D01*
X22720300Y-11705668D01*
X22707732Y-11642487D01*
X22671943Y-11588925D01*
X22618381Y-11553135D01*
X22555200Y-11540568D01*
X22492019Y-11553135D01*
X22438457Y-11588925D01*
X22426795Y-11606378D01*
X22408963Y-11583676D01*
X22352648Y-11552007D01*
X22339494Y-11548802D01*
X22313900Y-11560716D01*
X22288500Y-11560716D01*
X22263100Y-11548893D01*
X22263100Y-11112500D01*
X22702339Y-11112500D01*
X22991774Y-11401934D01*
X22991774Y-11401934D01*
G37*
X22991774Y-11401934D02*
X22976737Y-11438146D01*
X22976663Y-11523081D01*
X23009098Y-11601580D01*
X23069104Y-11661691D01*
X23147546Y-11694263D01*
X23232481Y-11694337D01*
X23269062Y-11679222D01*
X23638420Y-12048580D01*
X23642540Y-12051333D01*
X23647400Y-12052300D01*
X23840300Y-12052300D01*
X23840300Y-12163425D01*
X23856175Y-12179300D01*
X24041100Y-12179300D01*
X24041100Y-12177300D01*
X24066500Y-12177300D01*
X24066500Y-12179300D01*
X24068500Y-12179300D01*
X24068500Y-12204700D01*
X24066500Y-12204700D01*
X24066500Y-12389625D01*
X24082375Y-12405500D01*
X24216431Y-12405500D01*
X24218900Y-12404477D01*
X24218900Y-12966700D01*
X22720300Y-12966700D01*
X22720300Y-12941300D01*
X22567900Y-12941300D01*
X22567900Y-12943300D01*
X22542500Y-12943300D01*
X22542500Y-12754516D01*
X22567900Y-12754516D01*
X22567900Y-12915900D01*
X22720300Y-12915900D01*
X22720300Y-12890500D01*
X22702872Y-12828286D01*
X22662963Y-12777476D01*
X22606648Y-12745807D01*
X22593494Y-12742602D01*
X22567900Y-12754516D01*
X22542500Y-12754516D01*
X22542500Y-12716881D01*
X22976663Y-12716881D01*
X23009098Y-12795380D01*
X23069104Y-12855491D01*
X23147546Y-12888063D01*
X23232481Y-12888137D01*
X23310980Y-12855702D01*
X23371091Y-12795696D01*
X23403663Y-12717254D01*
X23403737Y-12632318D01*
X23371302Y-12553820D01*
X23311296Y-12493709D01*
X23232854Y-12461137D01*
X23147918Y-12461063D01*
X23069420Y-12493498D01*
X23009309Y-12553504D01*
X22976737Y-12631946D01*
X22976663Y-12716881D01*
X22542500Y-12716881D01*
X22542500Y-12649200D01*
X22541533Y-12644340D01*
X22538780Y-12640220D01*
X22263100Y-12364539D01*
X22263100Y-12220575D01*
X23840300Y-12220575D01*
X23840300Y-12354631D01*
X23849967Y-12377970D01*
X23867830Y-12395833D01*
X23891169Y-12405500D01*
X24025225Y-12405500D01*
X24041100Y-12389625D01*
X24041100Y-12204700D01*
X23856175Y-12204700D01*
X23840300Y-12220575D01*
X22263100Y-12220575D01*
X22263100Y-11920707D01*
X22288500Y-11908884D01*
X22288500Y-11747500D01*
X22286500Y-11747500D01*
X22286500Y-11722100D01*
X22288500Y-11722100D01*
X22288500Y-11560716D01*
X22313900Y-11560716D01*
X22313900Y-11722100D01*
X22315900Y-11722100D01*
X22315900Y-11747500D01*
X22313900Y-11747500D01*
X22313900Y-11908884D01*
X22339494Y-11920797D01*
X22352648Y-11917593D01*
X22408963Y-11885924D01*
X22426795Y-11863222D01*
X22438457Y-11880675D01*
X22492019Y-11916465D01*
X22555200Y-11929032D01*
X22618381Y-11916465D01*
X22671943Y-11880675D01*
X22707732Y-11827113D01*
X22720300Y-11763932D01*
X22720300Y-11705668D01*
X22707732Y-11642487D01*
X22671943Y-11588925D01*
X22618381Y-11553135D01*
X22555200Y-11540568D01*
X22492019Y-11553135D01*
X22438457Y-11588925D01*
X22426795Y-11606378D01*
X22408963Y-11583676D01*
X22352648Y-11552007D01*
X22339494Y-11548802D01*
X22313900Y-11560716D01*
X22288500Y-11560716D01*
X22263100Y-11548893D01*
X22263100Y-11112500D01*
X22702339Y-11112500D01*
X22991774Y-11401934D01*
G36*
X24422100Y-9651933D02*
X24396839Y-11950700D01*
X23728861Y-11950700D01*
X23504442Y-11726281D01*
X23840263Y-11726281D01*
X23872698Y-11804780D01*
X23932704Y-11864891D01*
X24011146Y-11897463D01*
X24096081Y-11897537D01*
X24174580Y-11865102D01*
X24234691Y-11805096D01*
X24267263Y-11726654D01*
X24267337Y-11641718D01*
X24234902Y-11563220D01*
X24174896Y-11503109D01*
X24096454Y-11470537D01*
X24011518Y-11470463D01*
X23933020Y-11502898D01*
X23872909Y-11562904D01*
X23840337Y-11641346D01*
X23840263Y-11726281D01*
X23504442Y-11726281D01*
X23373721Y-11595561D01*
X23403663Y-11523454D01*
X23403737Y-11438518D01*
X23371302Y-11360020D01*
X23311296Y-11299909D01*
X23232854Y-11267337D01*
X23147918Y-11267263D01*
X23075391Y-11297231D01*
X22665780Y-10887620D01*
X22661660Y-10884867D01*
X22656800Y-10883900D01*
X20604096Y-10883900D01*
X20559861Y-10865532D01*
X20486860Y-10865468D01*
X20442251Y-10883900D01*
X18571650Y-10883900D01*
X18565017Y-10879468D01*
X18494795Y-10865500D01*
X18487605Y-10865500D01*
X18417383Y-10879468D01*
X18410750Y-10883900D01*
X18211800Y-10883900D01*
X18206940Y-10884867D01*
X18202820Y-10887620D01*
X18200067Y-10891740D01*
X18199100Y-10896600D01*
X18199100Y-11983539D01*
X17291723Y-12890917D01*
X17291719Y-12890919D01*
X17291717Y-12890923D01*
X17190539Y-12992100D01*
X17012825Y-12992100D01*
X17000125Y-12979400D01*
X16887700Y-12979400D01*
X16887700Y-12981400D01*
X16885055Y-12981400D01*
X16875000Y-12979400D01*
X16192500Y-12979400D01*
X16148759Y-12988101D01*
X16142774Y-12992100D01*
X14855418Y-12992100D01*
X14822792Y-12959418D01*
X14770069Y-12937525D01*
X14712981Y-12937475D01*
X14660220Y-12959276D01*
X14627338Y-12992100D01*
X14249400Y-12992100D01*
X14244540Y-12993067D01*
X14240420Y-12995820D01*
X13843000Y-13393239D01*
X13631535Y-13181774D01*
X13658586Y-13181774D01*
X13665999Y-13206386D01*
X13719722Y-13225696D01*
X13776745Y-13222978D01*
X13816800Y-13206386D01*
X13824214Y-13181774D01*
X13741400Y-13098960D01*
X13658586Y-13181774D01*
X13631535Y-13181774D01*
X13509083Y-13059322D01*
X13596703Y-13059322D01*
X13599422Y-13116345D01*
X13616014Y-13156400D01*
X13640625Y-13163814D01*
X13723439Y-13081000D01*
X13759360Y-13081000D01*
X13842174Y-13163814D01*
X13866786Y-13156400D01*
X13886096Y-13102678D01*
X13883378Y-13045655D01*
X13866786Y-13005599D01*
X13842174Y-12998186D01*
X13759360Y-13081000D01*
X13723439Y-13081000D01*
X13640625Y-12998186D01*
X13616014Y-13005599D01*
X13596703Y-13059322D01*
X13509083Y-13059322D01*
X13429986Y-12980225D01*
X13658586Y-12980225D01*
X13741400Y-13063039D01*
X13824214Y-12980225D01*
X13816800Y-12955614D01*
X13763078Y-12936303D01*
X13706055Y-12939022D01*
X13665999Y-12955614D01*
X13658586Y-12980225D01*
X13429986Y-12980225D01*
X13373830Y-12924069D01*
X16734000Y-12924069D01*
X16734000Y-12938125D01*
X16749875Y-12954000D01*
X16862300Y-12954000D01*
X16862300Y-12889075D01*
X16887700Y-12889075D01*
X16887700Y-12954000D01*
X17000125Y-12954000D01*
X17016000Y-12938125D01*
X17016000Y-12924069D01*
X17006333Y-12900730D01*
X16988470Y-12882867D01*
X16965131Y-12873200D01*
X16903575Y-12873200D01*
X16887700Y-12889075D01*
X16862300Y-12889075D01*
X16846425Y-12873200D01*
X16784869Y-12873200D01*
X16761530Y-12882867D01*
X16743667Y-12900730D01*
X16734000Y-12924069D01*
X13373830Y-12924069D01*
X13327561Y-12877800D01*
X13895658Y-12309703D01*
X13998702Y-12309703D01*
X14023478Y-12304775D01*
X14044483Y-12290740D01*
X14058518Y-12269735D01*
X14063446Y-12244959D01*
X14063446Y-12242800D01*
X14331976Y-12242800D01*
X14331976Y-12357100D01*
X14336904Y-12381876D01*
X14350939Y-12402881D01*
X14371943Y-12416916D01*
X14396720Y-12421844D01*
X14620240Y-12421844D01*
X14645016Y-12416916D01*
X14654708Y-12410440D01*
X14856460Y-12410440D01*
X14869184Y-12407909D01*
X14881636Y-12407920D01*
X14893245Y-12403123D01*
X14900201Y-12401739D01*
X14906046Y-12397834D01*
X14923661Y-12390555D01*
X14937269Y-12376971D01*
X14937282Y-12376962D01*
X14939752Y-12374493D01*
X14955842Y-12358430D01*
X14970962Y-12322019D01*
X16103075Y-12322019D01*
X16124876Y-12374780D01*
X16165208Y-12415182D01*
X16217931Y-12437075D01*
X16275019Y-12437125D01*
X16327780Y-12415324D01*
X16348766Y-12394374D01*
X17163786Y-12394374D01*
X17171200Y-12418986D01*
X17224922Y-12438296D01*
X17281945Y-12435578D01*
X17322001Y-12418986D01*
X17329414Y-12394374D01*
X17246600Y-12311560D01*
X17163786Y-12394374D01*
X16348766Y-12394374D01*
X16368182Y-12374992D01*
X16390075Y-12322269D01*
X16390119Y-12271922D01*
X17101904Y-12271922D01*
X17104622Y-12328945D01*
X17121214Y-12369000D01*
X17145826Y-12376414D01*
X17228640Y-12293600D01*
X17264561Y-12293600D01*
X17347375Y-12376414D01*
X17371986Y-12369000D01*
X17391297Y-12315278D01*
X17388578Y-12258255D01*
X17371986Y-12218199D01*
X17347375Y-12210786D01*
X17264561Y-12293600D01*
X17228640Y-12293600D01*
X17145826Y-12210786D01*
X17121214Y-12218199D01*
X17101904Y-12271922D01*
X16390119Y-12271922D01*
X16390125Y-12265181D01*
X16368324Y-12212420D01*
X16348764Y-12192825D01*
X17163786Y-12192825D01*
X17246600Y-12275639D01*
X17329414Y-12192825D01*
X17322001Y-12168214D01*
X17268278Y-12148903D01*
X17211255Y-12151622D01*
X17171200Y-12168214D01*
X17163786Y-12192825D01*
X16348764Y-12192825D01*
X16327992Y-12172018D01*
X16275269Y-12150125D01*
X16218181Y-12150075D01*
X16165420Y-12171876D01*
X16125018Y-12212208D01*
X16103125Y-12264931D01*
X16103075Y-12322019D01*
X14970962Y-12322019D01*
X14973280Y-12316435D01*
X14973320Y-12270964D01*
X14955955Y-12228939D01*
X14923830Y-12196758D01*
X14881835Y-12179320D01*
X14836364Y-12179280D01*
X14830169Y-12181840D01*
X14654708Y-12181840D01*
X14652807Y-12180570D01*
X14666021Y-12171741D01*
X14680056Y-12150736D01*
X14684984Y-12125960D01*
X14684984Y-12071515D01*
X14686280Y-12065000D01*
X14684984Y-12058485D01*
X14684984Y-12004040D01*
X14680056Y-11979263D01*
X14666021Y-11958259D01*
X14653626Y-11949977D01*
X14656210Y-11948907D01*
X14674073Y-11931044D01*
X14683740Y-11907705D01*
X14683740Y-11862689D01*
X14667865Y-11846814D01*
X14521180Y-11846814D01*
X14521180Y-11848814D01*
X14495780Y-11848814D01*
X14495780Y-11846814D01*
X14493780Y-11846814D01*
X14493780Y-11821414D01*
X14495780Y-11821414D01*
X14495780Y-11725529D01*
X14521180Y-11725529D01*
X14521180Y-11821414D01*
X14667865Y-11821414D01*
X14683740Y-11805539D01*
X14683740Y-11760523D01*
X14674073Y-11737184D01*
X14656210Y-11719321D01*
X14632871Y-11709654D01*
X14537055Y-11709654D01*
X14521180Y-11725529D01*
X14495780Y-11725529D01*
X14487806Y-11717555D01*
X14758849Y-11446512D01*
X14773819Y-11446525D01*
X14826580Y-11424724D01*
X14843715Y-11407619D01*
X16103075Y-11407619D01*
X16124876Y-11460380D01*
X16165208Y-11500782D01*
X16217931Y-11522675D01*
X16275019Y-11522725D01*
X16327780Y-11500924D01*
X16348766Y-11479974D01*
X17163786Y-11479974D01*
X17171200Y-11504586D01*
X17224922Y-11523896D01*
X17281945Y-11521178D01*
X17322001Y-11504586D01*
X17329414Y-11479974D01*
X17246600Y-11397160D01*
X17163786Y-11479974D01*
X16348766Y-11479974D01*
X16368182Y-11460592D01*
X16390075Y-11407869D01*
X16390119Y-11357522D01*
X17101904Y-11357522D01*
X17104622Y-11414545D01*
X17121214Y-11454600D01*
X17145826Y-11462014D01*
X17228640Y-11379200D01*
X17264561Y-11379200D01*
X17347375Y-11462014D01*
X17371986Y-11454600D01*
X17391297Y-11400878D01*
X17388578Y-11343855D01*
X17371986Y-11303799D01*
X17347375Y-11296386D01*
X17264561Y-11379200D01*
X17228640Y-11379200D01*
X17145826Y-11296386D01*
X17121214Y-11303799D01*
X17101904Y-11357522D01*
X16390119Y-11357522D01*
X16390125Y-11350781D01*
X16368324Y-11298020D01*
X16348764Y-11278425D01*
X17163786Y-11278425D01*
X17246600Y-11361239D01*
X17329414Y-11278425D01*
X17322001Y-11253814D01*
X17268278Y-11234503D01*
X17211255Y-11237222D01*
X17171200Y-11253814D01*
X17163786Y-11278425D01*
X16348764Y-11278425D01*
X16327992Y-11257618D01*
X16275269Y-11235725D01*
X16218181Y-11235675D01*
X16165420Y-11257476D01*
X16125018Y-11297808D01*
X16103125Y-11350531D01*
X16103075Y-11407619D01*
X14843715Y-11407619D01*
X14866982Y-11384392D01*
X14888875Y-11331669D01*
X14888888Y-11316472D01*
X14991261Y-11214100D01*
X17221200Y-11214100D01*
X17226060Y-11213133D01*
X17230180Y-11210380D01*
X17232933Y-11206260D01*
X17233900Y-11201400D01*
X17233900Y-11061700D01*
X17602158Y-11061700D01*
X17624836Y-11061720D01*
X17666861Y-11044355D01*
X17699042Y-11012230D01*
X17716480Y-10970235D01*
X17716520Y-10924764D01*
X17699155Y-10882739D01*
X17667030Y-10850558D01*
X17625035Y-10833120D01*
X17579564Y-10833080D01*
X17579516Y-10833100D01*
X17233900Y-10833100D01*
X17233900Y-10640725D01*
X17240375Y-10647200D01*
X17301931Y-10647200D01*
X17325270Y-10637533D01*
X17343133Y-10619670D01*
X17352800Y-10596331D01*
X17352800Y-10582275D01*
X17336925Y-10566400D01*
X17233900Y-10566400D01*
X17233900Y-10553700D01*
X18821400Y-10553700D01*
X18826260Y-10552733D01*
X18830380Y-10549980D01*
X18833133Y-10545860D01*
X18834100Y-10541000D01*
X18834100Y-10486468D01*
X21856700Y-10486468D01*
X21856700Y-10544732D01*
X21869268Y-10607913D01*
X21905057Y-10661475D01*
X21958619Y-10697265D01*
X22021800Y-10709832D01*
X22084981Y-10697265D01*
X22138543Y-10661475D01*
X22150205Y-10644022D01*
X22168037Y-10666724D01*
X22224352Y-10698393D01*
X22237506Y-10701598D01*
X22263100Y-10689684D01*
X22263100Y-10528300D01*
X22261100Y-10528300D01*
X22261100Y-10502900D01*
X22263100Y-10502900D01*
X22263100Y-10341516D01*
X22288500Y-10341516D01*
X22288500Y-10502900D01*
X22290500Y-10502900D01*
X22290500Y-10528300D01*
X22288500Y-10528300D01*
X22288500Y-10689684D01*
X22314094Y-10701598D01*
X22327248Y-10698393D01*
X22383563Y-10666724D01*
X22401395Y-10644022D01*
X22413057Y-10661475D01*
X22466619Y-10697265D01*
X22529800Y-10709832D01*
X22592981Y-10697265D01*
X22646543Y-10661475D01*
X22682332Y-10607913D01*
X22694900Y-10544732D01*
X22694900Y-10486468D01*
X22682332Y-10423287D01*
X22646543Y-10369725D01*
X22592981Y-10333935D01*
X22529800Y-10321368D01*
X22466619Y-10333935D01*
X22413057Y-10369725D01*
X22401395Y-10387178D01*
X22383563Y-10364476D01*
X22327248Y-10332807D01*
X22314094Y-10329603D01*
X22288500Y-10341516D01*
X22263100Y-10341516D01*
X22237506Y-10329603D01*
X22224352Y-10332807D01*
X22168037Y-10364476D01*
X22150205Y-10387178D01*
X22138543Y-10369725D01*
X22084981Y-10333935D01*
X22021800Y-10321368D01*
X21958619Y-10333935D01*
X21905057Y-10369725D01*
X21869268Y-10423287D01*
X21856700Y-10486468D01*
X18834100Y-10486468D01*
X18834100Y-10303882D01*
X21173263Y-10303882D01*
X21205698Y-10382380D01*
X21265704Y-10442491D01*
X21344146Y-10475063D01*
X21429082Y-10475137D01*
X21507580Y-10442702D01*
X21567691Y-10382696D01*
X21600263Y-10304254D01*
X21600263Y-10303882D01*
X22951263Y-10303882D01*
X22983698Y-10382380D01*
X23043704Y-10442491D01*
X23122146Y-10475063D01*
X23207081Y-10475137D01*
X23285580Y-10442702D01*
X23345691Y-10382696D01*
X23378263Y-10304254D01*
X23378337Y-10219319D01*
X23345902Y-10140820D01*
X23285896Y-10080709D01*
X23207454Y-10048137D01*
X23122518Y-10048063D01*
X23044020Y-10080498D01*
X22983909Y-10140504D01*
X22951337Y-10218946D01*
X22951263Y-10303882D01*
X21600263Y-10303882D01*
X21600337Y-10219319D01*
X21567902Y-10140820D01*
X21507896Y-10080709D01*
X21429454Y-10048137D01*
X21344519Y-10048063D01*
X21266020Y-10080498D01*
X21205909Y-10140504D01*
X21173337Y-10218946D01*
X21173263Y-10303882D01*
X18834100Y-10303882D01*
X18834100Y-9588500D01*
X24422100Y-9588500D01*
X24422100Y-9651933D01*
X24422100Y-9651933D01*
G37*
X24422100Y-9651933D02*
X24396839Y-11950700D01*
X23728861Y-11950700D01*
X23504442Y-11726281D01*
X23840263Y-11726281D01*
X23872698Y-11804780D01*
X23932704Y-11864891D01*
X24011146Y-11897463D01*
X24096081Y-11897537D01*
X24174580Y-11865102D01*
X24234691Y-11805096D01*
X24267263Y-11726654D01*
X24267337Y-11641718D01*
X24234902Y-11563220D01*
X24174896Y-11503109D01*
X24096454Y-11470537D01*
X24011518Y-11470463D01*
X23933020Y-11502898D01*
X23872909Y-11562904D01*
X23840337Y-11641346D01*
X23840263Y-11726281D01*
X23504442Y-11726281D01*
X23373721Y-11595561D01*
X23403663Y-11523454D01*
X23403737Y-11438518D01*
X23371302Y-11360020D01*
X23311296Y-11299909D01*
X23232854Y-11267337D01*
X23147918Y-11267263D01*
X23075391Y-11297231D01*
X22665780Y-10887620D01*
X22661660Y-10884867D01*
X22656800Y-10883900D01*
X20604096Y-10883900D01*
X20559861Y-10865532D01*
X20486860Y-10865468D01*
X20442251Y-10883900D01*
X18571650Y-10883900D01*
X18565017Y-10879468D01*
X18494795Y-10865500D01*
X18487605Y-10865500D01*
X18417383Y-10879468D01*
X18410750Y-10883900D01*
X18211800Y-10883900D01*
X18206940Y-10884867D01*
X18202820Y-10887620D01*
X18200067Y-10891740D01*
X18199100Y-10896600D01*
X18199100Y-11983539D01*
X17291723Y-12890917D01*
X17291719Y-12890919D01*
X17291717Y-12890923D01*
X17190539Y-12992100D01*
X17012825Y-12992100D01*
X17000125Y-12979400D01*
X16887700Y-12979400D01*
X16887700Y-12981400D01*
X16885055Y-12981400D01*
X16875000Y-12979400D01*
X16192500Y-12979400D01*
X16148759Y-12988101D01*
X16142774Y-12992100D01*
X14855418Y-12992100D01*
X14822792Y-12959418D01*
X14770069Y-12937525D01*
X14712981Y-12937475D01*
X14660220Y-12959276D01*
X14627338Y-12992100D01*
X14249400Y-12992100D01*
X14244540Y-12993067D01*
X14240420Y-12995820D01*
X13843000Y-13393239D01*
X13631535Y-13181774D01*
X13658586Y-13181774D01*
X13665999Y-13206386D01*
X13719722Y-13225696D01*
X13776745Y-13222978D01*
X13816800Y-13206386D01*
X13824214Y-13181774D01*
X13741400Y-13098960D01*
X13658586Y-13181774D01*
X13631535Y-13181774D01*
X13509083Y-13059322D01*
X13596703Y-13059322D01*
X13599422Y-13116345D01*
X13616014Y-13156400D01*
X13640625Y-13163814D01*
X13723439Y-13081000D01*
X13759360Y-13081000D01*
X13842174Y-13163814D01*
X13866786Y-13156400D01*
X13886096Y-13102678D01*
X13883378Y-13045655D01*
X13866786Y-13005599D01*
X13842174Y-12998186D01*
X13759360Y-13081000D01*
X13723439Y-13081000D01*
X13640625Y-12998186D01*
X13616014Y-13005599D01*
X13596703Y-13059322D01*
X13509083Y-13059322D01*
X13429986Y-12980225D01*
X13658586Y-12980225D01*
X13741400Y-13063039D01*
X13824214Y-12980225D01*
X13816800Y-12955614D01*
X13763078Y-12936303D01*
X13706055Y-12939022D01*
X13665999Y-12955614D01*
X13658586Y-12980225D01*
X13429986Y-12980225D01*
X13373830Y-12924069D01*
X16734000Y-12924069D01*
X16734000Y-12938125D01*
X16749875Y-12954000D01*
X16862300Y-12954000D01*
X16862300Y-12889075D01*
X16887700Y-12889075D01*
X16887700Y-12954000D01*
X17000125Y-12954000D01*
X17016000Y-12938125D01*
X17016000Y-12924069D01*
X17006333Y-12900730D01*
X16988470Y-12882867D01*
X16965131Y-12873200D01*
X16903575Y-12873200D01*
X16887700Y-12889075D01*
X16862300Y-12889075D01*
X16846425Y-12873200D01*
X16784869Y-12873200D01*
X16761530Y-12882867D01*
X16743667Y-12900730D01*
X16734000Y-12924069D01*
X13373830Y-12924069D01*
X13327561Y-12877800D01*
X13895658Y-12309703D01*
X13998702Y-12309703D01*
X14023478Y-12304775D01*
X14044483Y-12290740D01*
X14058518Y-12269735D01*
X14063446Y-12244959D01*
X14063446Y-12242800D01*
X14331976Y-12242800D01*
X14331976Y-12357100D01*
X14336904Y-12381876D01*
X14350939Y-12402881D01*
X14371943Y-12416916D01*
X14396720Y-12421844D01*
X14620240Y-12421844D01*
X14645016Y-12416916D01*
X14654708Y-12410440D01*
X14856460Y-12410440D01*
X14869184Y-12407909D01*
X14881636Y-12407920D01*
X14893245Y-12403123D01*
X14900201Y-12401739D01*
X14906046Y-12397834D01*
X14923661Y-12390555D01*
X14937269Y-12376971D01*
X14937282Y-12376962D01*
X14939752Y-12374493D01*
X14955842Y-12358430D01*
X14970962Y-12322019D01*
X16103075Y-12322019D01*
X16124876Y-12374780D01*
X16165208Y-12415182D01*
X16217931Y-12437075D01*
X16275019Y-12437125D01*
X16327780Y-12415324D01*
X16348766Y-12394374D01*
X17163786Y-12394374D01*
X17171200Y-12418986D01*
X17224922Y-12438296D01*
X17281945Y-12435578D01*
X17322001Y-12418986D01*
X17329414Y-12394374D01*
X17246600Y-12311560D01*
X17163786Y-12394374D01*
X16348766Y-12394374D01*
X16368182Y-12374992D01*
X16390075Y-12322269D01*
X16390119Y-12271922D01*
X17101904Y-12271922D01*
X17104622Y-12328945D01*
X17121214Y-12369000D01*
X17145826Y-12376414D01*
X17228640Y-12293600D01*
X17264561Y-12293600D01*
X17347375Y-12376414D01*
X17371986Y-12369000D01*
X17391297Y-12315278D01*
X17388578Y-12258255D01*
X17371986Y-12218199D01*
X17347375Y-12210786D01*
X17264561Y-12293600D01*
X17228640Y-12293600D01*
X17145826Y-12210786D01*
X17121214Y-12218199D01*
X17101904Y-12271922D01*
X16390119Y-12271922D01*
X16390125Y-12265181D01*
X16368324Y-12212420D01*
X16348764Y-12192825D01*
X17163786Y-12192825D01*
X17246600Y-12275639D01*
X17329414Y-12192825D01*
X17322001Y-12168214D01*
X17268278Y-12148903D01*
X17211255Y-12151622D01*
X17171200Y-12168214D01*
X17163786Y-12192825D01*
X16348764Y-12192825D01*
X16327992Y-12172018D01*
X16275269Y-12150125D01*
X16218181Y-12150075D01*
X16165420Y-12171876D01*
X16125018Y-12212208D01*
X16103125Y-12264931D01*
X16103075Y-12322019D01*
X14970962Y-12322019D01*
X14973280Y-12316435D01*
X14973320Y-12270964D01*
X14955955Y-12228939D01*
X14923830Y-12196758D01*
X14881835Y-12179320D01*
X14836364Y-12179280D01*
X14830169Y-12181840D01*
X14654708Y-12181840D01*
X14652807Y-12180570D01*
X14666021Y-12171741D01*
X14680056Y-12150736D01*
X14684984Y-12125960D01*
X14684984Y-12071515D01*
X14686280Y-12065000D01*
X14684984Y-12058485D01*
X14684984Y-12004040D01*
X14680056Y-11979263D01*
X14666021Y-11958259D01*
X14653626Y-11949977D01*
X14656210Y-11948907D01*
X14674073Y-11931044D01*
X14683740Y-11907705D01*
X14683740Y-11862689D01*
X14667865Y-11846814D01*
X14521180Y-11846814D01*
X14521180Y-11848814D01*
X14495780Y-11848814D01*
X14495780Y-11846814D01*
X14493780Y-11846814D01*
X14493780Y-11821414D01*
X14495780Y-11821414D01*
X14495780Y-11725529D01*
X14521180Y-11725529D01*
X14521180Y-11821414D01*
X14667865Y-11821414D01*
X14683740Y-11805539D01*
X14683740Y-11760523D01*
X14674073Y-11737184D01*
X14656210Y-11719321D01*
X14632871Y-11709654D01*
X14537055Y-11709654D01*
X14521180Y-11725529D01*
X14495780Y-11725529D01*
X14487806Y-11717555D01*
X14758849Y-11446512D01*
X14773819Y-11446525D01*
X14826580Y-11424724D01*
X14843715Y-11407619D01*
X16103075Y-11407619D01*
X16124876Y-11460380D01*
X16165208Y-11500782D01*
X16217931Y-11522675D01*
X16275019Y-11522725D01*
X16327780Y-11500924D01*
X16348766Y-11479974D01*
X17163786Y-11479974D01*
X17171200Y-11504586D01*
X17224922Y-11523896D01*
X17281945Y-11521178D01*
X17322001Y-11504586D01*
X17329414Y-11479974D01*
X17246600Y-11397160D01*
X17163786Y-11479974D01*
X16348766Y-11479974D01*
X16368182Y-11460592D01*
X16390075Y-11407869D01*
X16390119Y-11357522D01*
X17101904Y-11357522D01*
X17104622Y-11414545D01*
X17121214Y-11454600D01*
X17145826Y-11462014D01*
X17228640Y-11379200D01*
X17264561Y-11379200D01*
X17347375Y-11462014D01*
X17371986Y-11454600D01*
X17391297Y-11400878D01*
X17388578Y-11343855D01*
X17371986Y-11303799D01*
X17347375Y-11296386D01*
X17264561Y-11379200D01*
X17228640Y-11379200D01*
X17145826Y-11296386D01*
X17121214Y-11303799D01*
X17101904Y-11357522D01*
X16390119Y-11357522D01*
X16390125Y-11350781D01*
X16368324Y-11298020D01*
X16348764Y-11278425D01*
X17163786Y-11278425D01*
X17246600Y-11361239D01*
X17329414Y-11278425D01*
X17322001Y-11253814D01*
X17268278Y-11234503D01*
X17211255Y-11237222D01*
X17171200Y-11253814D01*
X17163786Y-11278425D01*
X16348764Y-11278425D01*
X16327992Y-11257618D01*
X16275269Y-11235725D01*
X16218181Y-11235675D01*
X16165420Y-11257476D01*
X16125018Y-11297808D01*
X16103125Y-11350531D01*
X16103075Y-11407619D01*
X14843715Y-11407619D01*
X14866982Y-11384392D01*
X14888875Y-11331669D01*
X14888888Y-11316472D01*
X14991261Y-11214100D01*
X17221200Y-11214100D01*
X17226060Y-11213133D01*
X17230180Y-11210380D01*
X17232933Y-11206260D01*
X17233900Y-11201400D01*
X17233900Y-11061700D01*
X17602158Y-11061700D01*
X17624836Y-11061720D01*
X17666861Y-11044355D01*
X17699042Y-11012230D01*
X17716480Y-10970235D01*
X17716520Y-10924764D01*
X17699155Y-10882739D01*
X17667030Y-10850558D01*
X17625035Y-10833120D01*
X17579564Y-10833080D01*
X17579516Y-10833100D01*
X17233900Y-10833100D01*
X17233900Y-10640725D01*
X17240375Y-10647200D01*
X17301931Y-10647200D01*
X17325270Y-10637533D01*
X17343133Y-10619670D01*
X17352800Y-10596331D01*
X17352800Y-10582275D01*
X17336925Y-10566400D01*
X17233900Y-10566400D01*
X17233900Y-10553700D01*
X18821400Y-10553700D01*
X18826260Y-10552733D01*
X18830380Y-10549980D01*
X18833133Y-10545860D01*
X18834100Y-10541000D01*
X18834100Y-10486468D01*
X21856700Y-10486468D01*
X21856700Y-10544732D01*
X21869268Y-10607913D01*
X21905057Y-10661475D01*
X21958619Y-10697265D01*
X22021800Y-10709832D01*
X22084981Y-10697265D01*
X22138543Y-10661475D01*
X22150205Y-10644022D01*
X22168037Y-10666724D01*
X22224352Y-10698393D01*
X22237506Y-10701598D01*
X22263100Y-10689684D01*
X22263100Y-10528300D01*
X22261100Y-10528300D01*
X22261100Y-10502900D01*
X22263100Y-10502900D01*
X22263100Y-10341516D01*
X22288500Y-10341516D01*
X22288500Y-10502900D01*
X22290500Y-10502900D01*
X22290500Y-10528300D01*
X22288500Y-10528300D01*
X22288500Y-10689684D01*
X22314094Y-10701598D01*
X22327248Y-10698393D01*
X22383563Y-10666724D01*
X22401395Y-10644022D01*
X22413057Y-10661475D01*
X22466619Y-10697265D01*
X22529800Y-10709832D01*
X22592981Y-10697265D01*
X22646543Y-10661475D01*
X22682332Y-10607913D01*
X22694900Y-10544732D01*
X22694900Y-10486468D01*
X22682332Y-10423287D01*
X22646543Y-10369725D01*
X22592981Y-10333935D01*
X22529800Y-10321368D01*
X22466619Y-10333935D01*
X22413057Y-10369725D01*
X22401395Y-10387178D01*
X22383563Y-10364476D01*
X22327248Y-10332807D01*
X22314094Y-10329603D01*
X22288500Y-10341516D01*
X22263100Y-10341516D01*
X22237506Y-10329603D01*
X22224352Y-10332807D01*
X22168037Y-10364476D01*
X22150205Y-10387178D01*
X22138543Y-10369725D01*
X22084981Y-10333935D01*
X22021800Y-10321368D01*
X21958619Y-10333935D01*
X21905057Y-10369725D01*
X21869268Y-10423287D01*
X21856700Y-10486468D01*
X18834100Y-10486468D01*
X18834100Y-10303882D01*
X21173263Y-10303882D01*
X21205698Y-10382380D01*
X21265704Y-10442491D01*
X21344146Y-10475063D01*
X21429082Y-10475137D01*
X21507580Y-10442702D01*
X21567691Y-10382696D01*
X21600263Y-10304254D01*
X21600263Y-10303882D01*
X22951263Y-10303882D01*
X22983698Y-10382380D01*
X23043704Y-10442491D01*
X23122146Y-10475063D01*
X23207081Y-10475137D01*
X23285580Y-10442702D01*
X23345691Y-10382696D01*
X23378263Y-10304254D01*
X23378337Y-10219319D01*
X23345902Y-10140820D01*
X23285896Y-10080709D01*
X23207454Y-10048137D01*
X23122518Y-10048063D01*
X23044020Y-10080498D01*
X22983909Y-10140504D01*
X22951337Y-10218946D01*
X22951263Y-10303882D01*
X21600263Y-10303882D01*
X21600337Y-10219319D01*
X21567902Y-10140820D01*
X21507896Y-10080709D01*
X21429454Y-10048137D01*
X21344519Y-10048063D01*
X21266020Y-10080498D01*
X21205909Y-10140504D01*
X21173337Y-10218946D01*
X21173263Y-10303882D01*
X18834100Y-10303882D01*
X18834100Y-9588500D01*
X24422100Y-9588500D01*
X24422100Y-9651933D01*
G36*
X22492019Y-13110265D02*
X22555200Y-13122832D01*
X22618381Y-13110265D01*
X22643172Y-13093700D01*
X24371521Y-13093700D01*
X24393883Y-14368322D01*
X24209061Y-14183500D01*
X24216431Y-14183500D01*
X24239770Y-14173833D01*
X24257633Y-14155970D01*
X24267300Y-14132631D01*
X24267300Y-13998575D01*
X24251425Y-13982700D01*
X24066500Y-13982700D01*
X24066500Y-13984700D01*
X24041100Y-13984700D01*
X24041100Y-13982700D01*
X24039100Y-13982700D01*
X24039100Y-13957300D01*
X24041100Y-13957300D01*
X24041100Y-13772375D01*
X24066500Y-13772375D01*
X24066500Y-13957300D01*
X24251425Y-13957300D01*
X24267300Y-13941425D01*
X24267300Y-13807369D01*
X24257633Y-13784030D01*
X24239770Y-13766167D01*
X24216431Y-13756500D01*
X24082375Y-13756500D01*
X24066500Y-13772375D01*
X24041100Y-13772375D01*
X24025225Y-13756500D01*
X23891169Y-13756500D01*
X23867830Y-13766167D01*
X23849967Y-13784030D01*
X23840300Y-13807369D01*
X23840300Y-13814739D01*
X23554780Y-13529220D01*
X23550660Y-13526467D01*
X23545800Y-13525500D01*
X22738261Y-13525500D01*
X22717042Y-13504281D01*
X23840263Y-13504281D01*
X23872698Y-13582780D01*
X23932704Y-13642891D01*
X24011146Y-13675463D01*
X24096081Y-13675537D01*
X24174580Y-13643102D01*
X24234691Y-13583096D01*
X24267263Y-13504654D01*
X24267337Y-13419718D01*
X24234902Y-13341220D01*
X24174896Y-13281109D01*
X24096454Y-13248537D01*
X24011518Y-13248463D01*
X23933020Y-13280898D01*
X23872909Y-13340904D01*
X23840337Y-13419346D01*
X23840263Y-13504281D01*
X22717042Y-13504281D01*
X22316789Y-13104028D01*
X22339494Y-13114597D01*
X22352648Y-13111393D01*
X22384109Y-13093700D01*
X22467228Y-13093700D01*
X22492019Y-13110265D01*
X22492019Y-13110265D01*
G37*
X22492019Y-13110265D02*
X22555200Y-13122832D01*
X22618381Y-13110265D01*
X22643172Y-13093700D01*
X24371521Y-13093700D01*
X24393883Y-14368322D01*
X24209061Y-14183500D01*
X24216431Y-14183500D01*
X24239770Y-14173833D01*
X24257633Y-14155970D01*
X24267300Y-14132631D01*
X24267300Y-13998575D01*
X24251425Y-13982700D01*
X24066500Y-13982700D01*
X24066500Y-13984700D01*
X24041100Y-13984700D01*
X24041100Y-13982700D01*
X24039100Y-13982700D01*
X24039100Y-13957300D01*
X24041100Y-13957300D01*
X24041100Y-13772375D01*
X24066500Y-13772375D01*
X24066500Y-13957300D01*
X24251425Y-13957300D01*
X24267300Y-13941425D01*
X24267300Y-13807369D01*
X24257633Y-13784030D01*
X24239770Y-13766167D01*
X24216431Y-13756500D01*
X24082375Y-13756500D01*
X24066500Y-13772375D01*
X24041100Y-13772375D01*
X24025225Y-13756500D01*
X23891169Y-13756500D01*
X23867830Y-13766167D01*
X23849967Y-13784030D01*
X23840300Y-13807369D01*
X23840300Y-13814739D01*
X23554780Y-13529220D01*
X23550660Y-13526467D01*
X23545800Y-13525500D01*
X22738261Y-13525500D01*
X22717042Y-13504281D01*
X23840263Y-13504281D01*
X23872698Y-13582780D01*
X23932704Y-13642891D01*
X24011146Y-13675463D01*
X24096081Y-13675537D01*
X24174580Y-13643102D01*
X24234691Y-13583096D01*
X24267263Y-13504654D01*
X24267337Y-13419718D01*
X24234902Y-13341220D01*
X24174896Y-13281109D01*
X24096454Y-13248537D01*
X24011518Y-13248463D01*
X23933020Y-13280898D01*
X23872909Y-13340904D01*
X23840337Y-13419346D01*
X23840263Y-13504281D01*
X22717042Y-13504281D01*
X22316789Y-13104028D01*
X22339494Y-13114597D01*
X22352648Y-13111393D01*
X22384109Y-13093700D01*
X22467228Y-13093700D01*
X22492019Y-13110265D01*
G36*
X14211300Y-10047300D02*
X14176375Y-10047300D01*
X14160500Y-10063175D01*
X14160500Y-10198100D01*
X14162500Y-10198100D01*
X14162500Y-10223500D01*
X14160500Y-10223500D01*
X14160500Y-10358425D01*
X14176375Y-10374300D01*
X14211300Y-10374300D01*
X14211300Y-11653339D01*
X14033794Y-11830845D01*
X14011333Y-11821541D01*
X13917295Y-11821541D01*
X13901420Y-11837416D01*
X13901420Y-11963219D01*
X13888539Y-11976100D01*
X13876020Y-11976100D01*
X13876020Y-11837416D01*
X13860145Y-11821541D01*
X13766107Y-11821541D01*
X13742768Y-11831208D01*
X13724905Y-11849071D01*
X13715238Y-11872410D01*
X13715238Y-11976100D01*
X12763500Y-11976100D01*
X12763500Y-11336333D01*
X13307327Y-11336333D01*
X13329924Y-11383266D01*
X13368760Y-11417980D01*
X13403267Y-11432272D01*
X13423900Y-11419937D01*
X13423900Y-11315700D01*
X13449300Y-11315700D01*
X13449300Y-11419937D01*
X13469933Y-11432272D01*
X13504440Y-11417980D01*
X13520332Y-11403774D01*
X13912586Y-11403774D01*
X13919999Y-11428386D01*
X13973722Y-11447696D01*
X14030745Y-11444978D01*
X14070800Y-11428386D01*
X14078214Y-11403774D01*
X13995400Y-11320960D01*
X13912586Y-11403774D01*
X13520332Y-11403774D01*
X13543276Y-11383266D01*
X13565873Y-11336333D01*
X13553621Y-11315700D01*
X13449300Y-11315700D01*
X13423900Y-11315700D01*
X13319579Y-11315700D01*
X13307327Y-11336333D01*
X12763500Y-11336333D01*
X12763500Y-11269667D01*
X13307327Y-11269667D01*
X13319579Y-11290300D01*
X13423900Y-11290300D01*
X13423900Y-11186063D01*
X13449300Y-11186063D01*
X13449300Y-11290300D01*
X13553621Y-11290300D01*
X13558952Y-11281322D01*
X13850703Y-11281322D01*
X13853422Y-11338345D01*
X13870014Y-11378400D01*
X13894625Y-11385814D01*
X13977439Y-11303000D01*
X14013360Y-11303000D01*
X14096174Y-11385814D01*
X14120786Y-11378400D01*
X14140096Y-11324678D01*
X14137378Y-11267655D01*
X14120786Y-11227599D01*
X14096174Y-11220186D01*
X14013360Y-11303000D01*
X13977439Y-11303000D01*
X13894625Y-11220186D01*
X13870014Y-11227599D01*
X13850703Y-11281322D01*
X13558952Y-11281322D01*
X13565873Y-11269667D01*
X13543276Y-11222734D01*
X13520332Y-11202225D01*
X13912586Y-11202225D01*
X13995400Y-11285039D01*
X14078214Y-11202225D01*
X14070800Y-11177614D01*
X14017078Y-11158304D01*
X13960055Y-11161022D01*
X13919999Y-11177614D01*
X13912586Y-11202225D01*
X13520332Y-11202225D01*
X13504440Y-11188020D01*
X13469933Y-11173728D01*
X13449300Y-11186063D01*
X13423900Y-11186063D01*
X13403267Y-11173728D01*
X13368760Y-11188020D01*
X13329924Y-11222734D01*
X13307327Y-11269667D01*
X12763500Y-11269667D01*
X12763500Y-9943000D01*
X13281856Y-9943000D01*
X13281856Y-10123000D01*
X13286784Y-10147777D01*
X13300819Y-10168781D01*
X13321823Y-10182816D01*
X13323384Y-10183126D01*
X13306545Y-10199936D01*
X13283127Y-10256333D01*
X13283073Y-10317399D01*
X13306393Y-10373837D01*
X13322300Y-10389772D01*
X13322300Y-10722146D01*
X13303123Y-10768329D01*
X13303077Y-10821438D01*
X13323358Y-10870523D01*
X13360880Y-10908110D01*
X13409929Y-10928477D01*
X13463038Y-10928523D01*
X13512123Y-10908242D01*
X13549710Y-10870720D01*
X13570077Y-10821671D01*
X13570123Y-10768562D01*
X13550900Y-10722038D01*
X13550900Y-10389792D01*
X13566655Y-10374064D01*
X13590073Y-10317667D01*
X13590126Y-10256601D01*
X13583009Y-10239375D01*
X13984300Y-10239375D01*
X13984300Y-10323431D01*
X13993967Y-10346770D01*
X14011830Y-10364633D01*
X14035169Y-10374300D01*
X14119225Y-10374300D01*
X14135100Y-10358425D01*
X14135100Y-10223500D01*
X14000175Y-10223500D01*
X13984300Y-10239375D01*
X13583009Y-10239375D01*
X13566807Y-10200163D01*
X13549802Y-10183129D01*
X13551376Y-10182816D01*
X13572381Y-10168781D01*
X13586416Y-10147777D01*
X13591344Y-10123000D01*
X13591344Y-10098169D01*
X13984300Y-10098169D01*
X13984300Y-10182225D01*
X14000175Y-10198100D01*
X14135100Y-10198100D01*
X14135100Y-10063175D01*
X14119225Y-10047300D01*
X14035169Y-10047300D01*
X14011830Y-10056967D01*
X13993967Y-10074830D01*
X13984300Y-10098169D01*
X13591344Y-10098169D01*
X13591344Y-9943000D01*
X13586416Y-9918224D01*
X13572381Y-9897219D01*
X13551376Y-9883184D01*
X13526600Y-9878256D01*
X13346600Y-9878256D01*
X13321823Y-9883184D01*
X13300819Y-9897219D01*
X13286784Y-9918224D01*
X13281856Y-9943000D01*
X12763500Y-9943000D01*
X12763500Y-9873224D01*
X12764685Y-9873224D01*
X12780560Y-9857349D01*
X12780560Y-9738604D01*
X12805960Y-9738604D01*
X12805960Y-9857349D01*
X12821835Y-9873224D01*
X12889711Y-9873224D01*
X12913050Y-9863557D01*
X12930913Y-9845694D01*
X12940580Y-9822355D01*
X12940580Y-9754479D01*
X12924705Y-9738604D01*
X12805960Y-9738604D01*
X12780560Y-9738604D01*
X12778560Y-9738604D01*
X12778560Y-9713204D01*
X12780560Y-9713204D01*
X12780560Y-9594459D01*
X12805960Y-9594459D01*
X12805960Y-9713204D01*
X12924705Y-9713204D01*
X12940580Y-9697329D01*
X12940580Y-9629453D01*
X12930913Y-9606115D01*
X12913050Y-9588252D01*
X12889711Y-9578584D01*
X12821835Y-9578584D01*
X12805960Y-9594459D01*
X12780560Y-9594459D01*
X12764685Y-9578584D01*
X12763500Y-9578584D01*
X12763500Y-9563100D01*
X14211300Y-9563100D01*
X14211300Y-10047300D01*
X14211300Y-10047300D01*
G37*
X14211300Y-10047300D02*
X14176375Y-10047300D01*
X14160500Y-10063175D01*
X14160500Y-10198100D01*
X14162500Y-10198100D01*
X14162500Y-10223500D01*
X14160500Y-10223500D01*
X14160500Y-10358425D01*
X14176375Y-10374300D01*
X14211300Y-10374300D01*
X14211300Y-11653339D01*
X14033794Y-11830845D01*
X14011333Y-11821541D01*
X13917295Y-11821541D01*
X13901420Y-11837416D01*
X13901420Y-11963219D01*
X13888539Y-11976100D01*
X13876020Y-11976100D01*
X13876020Y-11837416D01*
X13860145Y-11821541D01*
X13766107Y-11821541D01*
X13742768Y-11831208D01*
X13724905Y-11849071D01*
X13715238Y-11872410D01*
X13715238Y-11976100D01*
X12763500Y-11976100D01*
X12763500Y-11336333D01*
X13307327Y-11336333D01*
X13329924Y-11383266D01*
X13368760Y-11417980D01*
X13403267Y-11432272D01*
X13423900Y-11419937D01*
X13423900Y-11315700D01*
X13449300Y-11315700D01*
X13449300Y-11419937D01*
X13469933Y-11432272D01*
X13504440Y-11417980D01*
X13520332Y-11403774D01*
X13912586Y-11403774D01*
X13919999Y-11428386D01*
X13973722Y-11447696D01*
X14030745Y-11444978D01*
X14070800Y-11428386D01*
X14078214Y-11403774D01*
X13995400Y-11320960D01*
X13912586Y-11403774D01*
X13520332Y-11403774D01*
X13543276Y-11383266D01*
X13565873Y-11336333D01*
X13553621Y-11315700D01*
X13449300Y-11315700D01*
X13423900Y-11315700D01*
X13319579Y-11315700D01*
X13307327Y-11336333D01*
X12763500Y-11336333D01*
X12763500Y-11269667D01*
X13307327Y-11269667D01*
X13319579Y-11290300D01*
X13423900Y-11290300D01*
X13423900Y-11186063D01*
X13449300Y-11186063D01*
X13449300Y-11290300D01*
X13553621Y-11290300D01*
X13558952Y-11281322D01*
X13850703Y-11281322D01*
X13853422Y-11338345D01*
X13870014Y-11378400D01*
X13894625Y-11385814D01*
X13977439Y-11303000D01*
X14013360Y-11303000D01*
X14096174Y-11385814D01*
X14120786Y-11378400D01*
X14140096Y-11324678D01*
X14137378Y-11267655D01*
X14120786Y-11227599D01*
X14096174Y-11220186D01*
X14013360Y-11303000D01*
X13977439Y-11303000D01*
X13894625Y-11220186D01*
X13870014Y-11227599D01*
X13850703Y-11281322D01*
X13558952Y-11281322D01*
X13565873Y-11269667D01*
X13543276Y-11222734D01*
X13520332Y-11202225D01*
X13912586Y-11202225D01*
X13995400Y-11285039D01*
X14078214Y-11202225D01*
X14070800Y-11177614D01*
X14017078Y-11158304D01*
X13960055Y-11161022D01*
X13919999Y-11177614D01*
X13912586Y-11202225D01*
X13520332Y-11202225D01*
X13504440Y-11188020D01*
X13469933Y-11173728D01*
X13449300Y-11186063D01*
X13423900Y-11186063D01*
X13403267Y-11173728D01*
X13368760Y-11188020D01*
X13329924Y-11222734D01*
X13307327Y-11269667D01*
X12763500Y-11269667D01*
X12763500Y-9943000D01*
X13281856Y-9943000D01*
X13281856Y-10123000D01*
X13286784Y-10147777D01*
X13300819Y-10168781D01*
X13321823Y-10182816D01*
X13323384Y-10183126D01*
X13306545Y-10199936D01*
X13283127Y-10256333D01*
X13283073Y-10317399D01*
X13306393Y-10373837D01*
X13322300Y-10389772D01*
X13322300Y-10722146D01*
X13303123Y-10768329D01*
X13303077Y-10821438D01*
X13323358Y-10870523D01*
X13360880Y-10908110D01*
X13409929Y-10928477D01*
X13463038Y-10928523D01*
X13512123Y-10908242D01*
X13549710Y-10870720D01*
X13570077Y-10821671D01*
X13570123Y-10768562D01*
X13550900Y-10722038D01*
X13550900Y-10389792D01*
X13566655Y-10374064D01*
X13590073Y-10317667D01*
X13590126Y-10256601D01*
X13583009Y-10239375D01*
X13984300Y-10239375D01*
X13984300Y-10323431D01*
X13993967Y-10346770D01*
X14011830Y-10364633D01*
X14035169Y-10374300D01*
X14119225Y-10374300D01*
X14135100Y-10358425D01*
X14135100Y-10223500D01*
X14000175Y-10223500D01*
X13984300Y-10239375D01*
X13583009Y-10239375D01*
X13566807Y-10200163D01*
X13549802Y-10183129D01*
X13551376Y-10182816D01*
X13572381Y-10168781D01*
X13586416Y-10147777D01*
X13591344Y-10123000D01*
X13591344Y-10098169D01*
X13984300Y-10098169D01*
X13984300Y-10182225D01*
X14000175Y-10198100D01*
X14135100Y-10198100D01*
X14135100Y-10063175D01*
X14119225Y-10047300D01*
X14035169Y-10047300D01*
X14011830Y-10056967D01*
X13993967Y-10074830D01*
X13984300Y-10098169D01*
X13591344Y-10098169D01*
X13591344Y-9943000D01*
X13586416Y-9918224D01*
X13572381Y-9897219D01*
X13551376Y-9883184D01*
X13526600Y-9878256D01*
X13346600Y-9878256D01*
X13321823Y-9883184D01*
X13300819Y-9897219D01*
X13286784Y-9918224D01*
X13281856Y-9943000D01*
X12763500Y-9943000D01*
X12763500Y-9873224D01*
X12764685Y-9873224D01*
X12780560Y-9857349D01*
X12780560Y-9738604D01*
X12805960Y-9738604D01*
X12805960Y-9857349D01*
X12821835Y-9873224D01*
X12889711Y-9873224D01*
X12913050Y-9863557D01*
X12930913Y-9845694D01*
X12940580Y-9822355D01*
X12940580Y-9754479D01*
X12924705Y-9738604D01*
X12805960Y-9738604D01*
X12780560Y-9738604D01*
X12778560Y-9738604D01*
X12778560Y-9713204D01*
X12780560Y-9713204D01*
X12780560Y-9594459D01*
X12805960Y-9594459D01*
X12805960Y-9713204D01*
X12924705Y-9713204D01*
X12940580Y-9697329D01*
X12940580Y-9629453D01*
X12930913Y-9606115D01*
X12913050Y-9588252D01*
X12889711Y-9578584D01*
X12821835Y-9578584D01*
X12805960Y-9594459D01*
X12780560Y-9594459D01*
X12764685Y-9578584D01*
X12763500Y-9578584D01*
X12763500Y-9563100D01*
X14211300Y-9563100D01*
X14211300Y-10047300D01*
M02*
