G04 #@! TF.GenerationSoftware,KiCad,Pcbnew,(2017-03-23 revision 5aa1610)-master*
G04 #@! TF.CreationDate,2017-05-12T08:57:20+02:00*
G04 #@! TF.ProjectId,aPortableInductionHeater,61506F727461626C65496E6475637469,rev?*
G04 #@! TF.FileFunction,Copper,L2,Bot,Plane*
G04 #@! TF.FilePolarity,Positive*
%FSLAX46Y46*%
G04 Gerber Fmt 4.6, Leading zero omitted, Abs format (unit mm)*
G04 Created by KiCad (PCBNEW (2017-03-23 revision 5aa1610)-master) date 2017 May 12, Friday 08:57:20*
%MOMM*%
%LPD*%
G01*
G04 APERTURE LIST*
%ADD10C,0.100000*%
%ADD11C,3.000000*%
%ADD12O,2.032000X2.540000*%
%ADD13C,1.600000*%
%ADD14R,1.778000X1.778000*%
%ADD15C,1.778000*%
%ADD16C,1.930400*%
%ADD17R,1.676400X1.676400*%
%ADD18C,2.400000*%
%ADD19O,2.400000X2.400000*%
%ADD20C,2.000000*%
%ADD21R,2.000000X2.000000*%
%ADD22C,1.800000*%
%ADD23R,1.800000X1.800000*%
%ADD24O,1.400000X1.400000*%
%ADD25C,1.400000*%
%ADD26R,3.000000X3.000000*%
%ADD27C,1.016000*%
%ADD28C,0.762000*%
%ADD29C,1.016000*%
%ADD30C,0.508000*%
%ADD31C,2.286000*%
%ADD32C,0.254000*%
G04 APERTURE END LIST*
D10*
D11*
X231902000Y-138430000D03*
D12*
X220472000Y-140970000D03*
X225552000Y-140970000D03*
X223012000Y-140970000D03*
D11*
X214122000Y-138430000D03*
X231902000Y-126746000D03*
D12*
X220472000Y-129286000D03*
X225552000Y-129286000D03*
X223012000Y-129286000D03*
D11*
X214122000Y-126746000D03*
X231902000Y-114808000D03*
D12*
X220472000Y-117348000D03*
X225552000Y-117348000D03*
X223012000Y-117348000D03*
D11*
X214122000Y-114808000D03*
X231648000Y-102616000D03*
D12*
X220218000Y-105156000D03*
X225298000Y-105156000D03*
X222758000Y-105156000D03*
D11*
X213868000Y-102616000D03*
D13*
X139954000Y-113030000D03*
X147454000Y-113030000D03*
X172466000Y-113792000D03*
X162466000Y-113792000D03*
X172466000Y-122936000D03*
X162466000Y-122936000D03*
X137414000Y-130810000D03*
X147414000Y-130810000D03*
X158496000Y-106172000D03*
X158496000Y-98672000D03*
X158750000Y-138938000D03*
X166250000Y-138938000D03*
D14*
X94906000Y-97250000D03*
D15*
X97446000Y-97250000D03*
X99986000Y-97250000D03*
X102526000Y-97250000D03*
X105066000Y-97250000D03*
X107606000Y-97250000D03*
X110146000Y-97250000D03*
X112686000Y-97250000D03*
X115226000Y-97250000D03*
X117766000Y-97250000D03*
D14*
X94856000Y-99800000D03*
D15*
X97396000Y-99800000D03*
X99936000Y-99800000D03*
X102476000Y-99800000D03*
X105016000Y-99800000D03*
X107556000Y-99800000D03*
X110096000Y-99800000D03*
X112636000Y-99800000D03*
X115176000Y-99800000D03*
X117716000Y-99800000D03*
D14*
X94907100Y-140433600D03*
D15*
X97447100Y-140433600D03*
X99987100Y-140433600D03*
X102527100Y-140433600D03*
X105067100Y-140433600D03*
X107607100Y-140433600D03*
X110147100Y-140433600D03*
X112687100Y-140433600D03*
X115227100Y-140433600D03*
X117767100Y-140433600D03*
D14*
X94907100Y-142973600D03*
D15*
X97447100Y-142973600D03*
X99987100Y-142973600D03*
X102527100Y-142973600D03*
X105067100Y-142973600D03*
X107607100Y-142973600D03*
X110147100Y-142973600D03*
X112687100Y-142973600D03*
X115227100Y-142973600D03*
X117767100Y-142973600D03*
D16*
X122852601Y-97259043D03*
X125392601Y-97259043D03*
D17*
X127932601Y-97259043D03*
D18*
X205232000Y-138176000D03*
D19*
X184912000Y-138176000D03*
D18*
X205232000Y-110490000D03*
D19*
X184912000Y-110490000D03*
X184912000Y-128524000D03*
D18*
X205232000Y-128524000D03*
D19*
X184912000Y-119888000D03*
D18*
X205232000Y-119888000D03*
D20*
X146478000Y-102108000D03*
D21*
X141478000Y-102108000D03*
D22*
X134366000Y-102870000D03*
D23*
X134366000Y-100330000D03*
D24*
X134366000Y-113030000D03*
D25*
X134366000Y-107950000D03*
D11*
X240538000Y-116840000D03*
D26*
X240538000Y-121920000D03*
D11*
X240538000Y-134620000D03*
D26*
X240538000Y-139700000D03*
D27*
X148590000Y-122936000D03*
X177038000Y-131064000D03*
X164338000Y-104140000D03*
X154178000Y-135890000D03*
X172212000Y-135890000D03*
X154178000Y-137160000D03*
X174244000Y-137160000D03*
X175514000Y-96774000D03*
X184912000Y-102870000D03*
X176022000Y-109474000D03*
X164338000Y-100584000D03*
X149860000Y-100330000D03*
D28*
X149098000Y-110490000D03*
D27*
X120650000Y-102616000D03*
X151130000Y-108966000D03*
X151130000Y-101600000D03*
X164338000Y-101854000D03*
D29*
X240538000Y-134620000D02*
X240284000Y-134620000D01*
X233934000Y-140970000D02*
X225552000Y-140970000D01*
X240284000Y-134620000D02*
X233934000Y-140970000D01*
X147454000Y-113030000D02*
X150876000Y-113030000D01*
X150876000Y-113030000D02*
X153790000Y-110116000D01*
X157226000Y-113792000D02*
X162466000Y-113792000D01*
X157466000Y-122936000D02*
X162466000Y-122936000D01*
X147414000Y-130810000D02*
X150876000Y-130810000D01*
X150876000Y-130810000D02*
X150876000Y-131064000D01*
X240538000Y-129286000D02*
X230666644Y-129286000D01*
X240538000Y-134620000D02*
X240538000Y-129286000D01*
X225552000Y-124785114D02*
X225552000Y-117348000D01*
X230666644Y-129286000D02*
X225552000Y-124785114D01*
X97447100Y-136906000D02*
X150876000Y-136906000D01*
X150876000Y-136906000D02*
X150368000Y-136906000D01*
X150368000Y-136906000D02*
X150876000Y-136906000D01*
X157466000Y-122936000D02*
X148590000Y-122936000D01*
X178308000Y-132334000D02*
X177038000Y-131064000D01*
X178308000Y-143510000D02*
X178308000Y-132334000D01*
X153670000Y-104140000D02*
X164338000Y-104140000D01*
X94906000Y-97250000D02*
X92234000Y-97250000D01*
X97447100Y-136563100D02*
X97447100Y-136906000D01*
X97447100Y-136906000D02*
X97447100Y-140433600D01*
X92202000Y-131318000D02*
X97447100Y-136563100D01*
X92202000Y-97282000D02*
X92202000Y-131318000D01*
X92234000Y-97250000D02*
X92202000Y-97282000D01*
X94996000Y-97160000D02*
X94906000Y-97250000D01*
X134366000Y-100330000D02*
X125222000Y-100330000D01*
X125392601Y-100159399D02*
X125392601Y-97259043D01*
X125222000Y-100330000D02*
X125392601Y-100159399D01*
X125392601Y-97259043D02*
X122852601Y-97259043D01*
X134366000Y-100330000D02*
X137160000Y-100330000D01*
X142668000Y-98298000D02*
X146478000Y-102108000D01*
X139192000Y-98298000D02*
X142668000Y-98298000D01*
X137160000Y-100330000D02*
X139192000Y-98298000D01*
X157466000Y-113792000D02*
X157226000Y-113792000D01*
X153670000Y-104140000D02*
X148510000Y-104140000D01*
X157466000Y-113792000D02*
X153790000Y-110116000D01*
X153790000Y-110116000D02*
X153670000Y-109996000D01*
X153670000Y-109996000D02*
X153670000Y-104140000D01*
X148510000Y-104140000D02*
X146478000Y-102108000D01*
X157466000Y-122936000D02*
X157466000Y-113792000D01*
X225552000Y-141224000D02*
X225552000Y-143256000D01*
X225552000Y-143256000D02*
X225298000Y-143510000D01*
X150876000Y-129526000D02*
X157466000Y-122936000D01*
X150876000Y-141732000D02*
X150876000Y-136906000D01*
X178308000Y-143510000D02*
X152654000Y-143510000D01*
X152654000Y-143510000D02*
X150876000Y-141732000D01*
X150876000Y-136906000D02*
X150876000Y-131064000D01*
X150876000Y-131064000D02*
X150876000Y-129526000D01*
X225298000Y-143510000D02*
X178308000Y-143510000D01*
D30*
X172212000Y-135890000D02*
X154178000Y-135890000D01*
X174244000Y-137160000D02*
X154178000Y-137160000D01*
D31*
X225298000Y-105156000D02*
X225298000Y-108204000D01*
X223012000Y-133858000D02*
X223012000Y-140970000D01*
X223012000Y-133858000D02*
X221742000Y-132588000D01*
X221742000Y-132588000D02*
X212090000Y-132588000D01*
X212090000Y-132588000D02*
X209296000Y-129794000D01*
X209296000Y-129794000D02*
X209296000Y-111506000D01*
X209296000Y-111506000D02*
X212598000Y-108204000D01*
X212598000Y-108204000D02*
X225298000Y-108204000D01*
X240538000Y-116840000D02*
X240538000Y-116840000D01*
X228854000Y-105156000D02*
X225298000Y-105156000D01*
X240538000Y-116840000D02*
X228854000Y-105156000D01*
X160688000Y-96774000D02*
X160394000Y-96774000D01*
X175514000Y-96774000D02*
X160688000Y-96774000D01*
X160394000Y-96774000D02*
X158496000Y-98672000D01*
X223012000Y-141224000D02*
X223012000Y-140716000D01*
X224282000Y-96774000D02*
X175514000Y-96774000D01*
X225298000Y-105156000D02*
X225298000Y-97790000D01*
X225298000Y-97790000D02*
X224282000Y-96774000D01*
X240538000Y-116840000D02*
X240030000Y-116840000D01*
D29*
X205232000Y-110490000D02*
X210312000Y-105410000D01*
X210312000Y-105410000D02*
X219964000Y-105410000D01*
X219964000Y-105410000D02*
X220218000Y-105156000D01*
X205232000Y-110490000D02*
X205232000Y-110236000D01*
X220472000Y-140970000D02*
X212598000Y-140970000D01*
X199390000Y-125730000D02*
X205232000Y-119888000D01*
X199390000Y-129540000D02*
X199390000Y-125730000D01*
X202438000Y-132588000D02*
X199390000Y-129540000D01*
X204216000Y-132588000D02*
X202438000Y-132588000D01*
X212598000Y-140970000D02*
X204216000Y-132588000D01*
X220472000Y-141224000D02*
X220472000Y-140970000D01*
X220472000Y-140970000D02*
X220472000Y-140970000D01*
X184912000Y-102870000D02*
X184912000Y-110490000D01*
X184912000Y-118364000D02*
X184912000Y-119888000D01*
X176022000Y-109474000D02*
X184912000Y-118364000D01*
D30*
X126238000Y-110490000D02*
X119380000Y-103632000D01*
X164338000Y-100584000D02*
X164084000Y-100330000D01*
X164084000Y-100330000D02*
X149860000Y-100330000D01*
X149098000Y-110490000D02*
X126238000Y-110490000D01*
X114808000Y-95504000D02*
X113062000Y-97250000D01*
X118872000Y-95504000D02*
X114808000Y-95504000D01*
X119380000Y-96012000D02*
X118872000Y-95504000D01*
X119380000Y-103632000D02*
X119380000Y-96012000D01*
X113062000Y-97250000D02*
X112686000Y-97250000D01*
X127762000Y-109728000D02*
X120650000Y-102616000D01*
D32*
X150368000Y-109728000D02*
X127762000Y-109728000D01*
D30*
X151130000Y-108966000D02*
X150368000Y-109728000D01*
X164084000Y-101600000D02*
X151130000Y-101600000D01*
X164338000Y-101854000D02*
X164084000Y-101600000D01*
D32*
G36*
X245237000Y-123317000D02*
X242685440Y-123317000D01*
X242685440Y-120420000D01*
X242636157Y-120172235D01*
X242495809Y-119962191D01*
X242285765Y-119821843D01*
X242038000Y-119772560D01*
X239038000Y-119772560D01*
X238790235Y-119821843D01*
X238580191Y-119962191D01*
X238439843Y-120172235D01*
X238390560Y-120420000D01*
X238390560Y-123317000D01*
X231521000Y-123317000D01*
X231521000Y-118353970D01*
X239203635Y-118353970D01*
X239363418Y-118672739D01*
X240154187Y-118982723D01*
X241003387Y-118966497D01*
X241712582Y-118672739D01*
X241872365Y-118353970D01*
X240538000Y-117019605D01*
X239203635Y-118353970D01*
X231521000Y-118353970D01*
X231521000Y-116942668D01*
X232324815Y-116943370D01*
X233109800Y-116619020D01*
X233272917Y-116456187D01*
X238395277Y-116456187D01*
X238411503Y-117305387D01*
X238705261Y-118014582D01*
X239024030Y-118174365D01*
X240358395Y-116840000D01*
X240717605Y-116840000D01*
X242051970Y-118174365D01*
X242370739Y-118014582D01*
X242680723Y-117223813D01*
X242664497Y-116374613D01*
X242370739Y-115665418D01*
X242051970Y-115505635D01*
X240717605Y-116840000D01*
X240358395Y-116840000D01*
X239024030Y-115505635D01*
X238705261Y-115665418D01*
X238395277Y-116456187D01*
X233272917Y-116456187D01*
X233710909Y-116018959D01*
X233998638Y-115326030D01*
X239203635Y-115326030D01*
X240538000Y-116660395D01*
X241872365Y-115326030D01*
X241712582Y-115007261D01*
X240921813Y-114697277D01*
X240072613Y-114713503D01*
X239363418Y-115007261D01*
X239203635Y-115326030D01*
X233998638Y-115326030D01*
X234036628Y-115234541D01*
X234037370Y-114385185D01*
X233713020Y-113600200D01*
X233112959Y-112999091D01*
X232328541Y-112673372D01*
X231479185Y-112672630D01*
X230694200Y-112996980D01*
X230093091Y-113597041D01*
X229767372Y-114381459D01*
X229766667Y-115189000D01*
X223266000Y-115189000D01*
X223217399Y-115198667D01*
X223176197Y-115226197D01*
X223148667Y-115267399D01*
X223139000Y-115316000D01*
X223139000Y-115430941D01*
X223012000Y-115405679D01*
X222380190Y-115531354D01*
X221844567Y-115889246D01*
X221742000Y-116042748D01*
X221639433Y-115889246D01*
X221103810Y-115531354D01*
X220472000Y-115405679D01*
X219840190Y-115531354D01*
X219304567Y-115889246D01*
X218946675Y-116424869D01*
X218821000Y-117056679D01*
X218821000Y-117639321D01*
X218946675Y-118271131D01*
X219304567Y-118806754D01*
X219840190Y-119164646D01*
X220472000Y-119290321D01*
X221103810Y-119164646D01*
X221639433Y-118806754D01*
X221742000Y-118653252D01*
X221844567Y-118806754D01*
X222380190Y-119164646D01*
X223012000Y-119290321D01*
X223139000Y-119265059D01*
X223139000Y-127368941D01*
X223012000Y-127343679D01*
X222380190Y-127469354D01*
X221844567Y-127827246D01*
X221742000Y-127980748D01*
X221639433Y-127827246D01*
X221103810Y-127469354D01*
X220472000Y-127343679D01*
X219840190Y-127469354D01*
X219304567Y-127827246D01*
X218946675Y-128362869D01*
X218821000Y-128994679D01*
X218821000Y-129577321D01*
X218946675Y-130209131D01*
X219304567Y-130744754D01*
X219840190Y-131102646D01*
X220472000Y-131228321D01*
X221103810Y-131102646D01*
X221639433Y-130744754D01*
X221742000Y-130591252D01*
X221844567Y-130744754D01*
X222380190Y-131102646D01*
X223012000Y-131228321D01*
X223139000Y-131203059D01*
X223139000Y-138811000D01*
X216256668Y-138811000D01*
X216257370Y-138007185D01*
X215933020Y-137222200D01*
X215332959Y-136621091D01*
X214548541Y-136295372D01*
X213699185Y-136294630D01*
X212914200Y-136618980D01*
X212313091Y-137219041D01*
X212243130Y-137387524D01*
X209423000Y-134567394D01*
X209423000Y-127168815D01*
X211986630Y-127168815D01*
X212310980Y-127953800D01*
X212911041Y-128554909D01*
X213695459Y-128880628D01*
X214544815Y-128881370D01*
X215329800Y-128557020D01*
X215930909Y-127956959D01*
X216256628Y-127172541D01*
X216257370Y-126323185D01*
X215933020Y-125538200D01*
X215332959Y-124937091D01*
X214548541Y-124611372D01*
X213699185Y-124610630D01*
X212914200Y-124934980D01*
X212313091Y-125535041D01*
X211987372Y-126319459D01*
X211986630Y-127168815D01*
X209423000Y-127168815D01*
X209423000Y-115230815D01*
X211986630Y-115230815D01*
X212310980Y-116015800D01*
X212911041Y-116616909D01*
X213695459Y-116942628D01*
X214544815Y-116943370D01*
X215329800Y-116619020D01*
X215930909Y-116018959D01*
X216256628Y-115234541D01*
X216257370Y-114385185D01*
X215933020Y-113600200D01*
X215332959Y-112999091D01*
X214548541Y-112673372D01*
X213699185Y-112672630D01*
X212914200Y-112996980D01*
X212313091Y-113597041D01*
X211987372Y-114381459D01*
X211986630Y-115230815D01*
X209423000Y-115230815D01*
X209423000Y-107915446D01*
X210785446Y-106553000D01*
X219009304Y-106553000D01*
X219050567Y-106614754D01*
X219586190Y-106972646D01*
X220218000Y-107098321D01*
X220849810Y-106972646D01*
X221385433Y-106614754D01*
X221488000Y-106461252D01*
X221590567Y-106614754D01*
X222126190Y-106972646D01*
X222758000Y-107098321D01*
X223389810Y-106972646D01*
X223925433Y-106614754D01*
X224042054Y-106440219D01*
X224220370Y-106667236D01*
X224783523Y-106983926D01*
X224915056Y-107015975D01*
X225171000Y-106896836D01*
X225171000Y-105283000D01*
X225425000Y-105283000D01*
X225425000Y-106896836D01*
X225680944Y-107015975D01*
X225812477Y-106983926D01*
X226375630Y-106667236D01*
X226774724Y-106159143D01*
X226949000Y-105537000D01*
X226949000Y-105283000D01*
X225425000Y-105283000D01*
X225171000Y-105283000D01*
X225151000Y-105283000D01*
X225151000Y-105029000D01*
X225171000Y-105029000D01*
X225171000Y-103415164D01*
X225425000Y-103415164D01*
X225425000Y-105029000D01*
X226949000Y-105029000D01*
X226949000Y-104775000D01*
X226774724Y-104152857D01*
X226375630Y-103644764D01*
X225812477Y-103328074D01*
X225680944Y-103296025D01*
X225425000Y-103415164D01*
X225171000Y-103415164D01*
X224915056Y-103296025D01*
X224783523Y-103328074D01*
X224220370Y-103644764D01*
X224042054Y-103871781D01*
X223925433Y-103697246D01*
X223389810Y-103339354D01*
X222758000Y-103213679D01*
X222126190Y-103339354D01*
X221590567Y-103697246D01*
X221488000Y-103850748D01*
X221385433Y-103697246D01*
X220849810Y-103339354D01*
X220218000Y-103213679D01*
X219586190Y-103339354D01*
X219050567Y-103697246D01*
X218692675Y-104232869D01*
X218685886Y-104267000D01*
X215236099Y-104267000D01*
X215676909Y-103826959D01*
X216002628Y-103042541D01*
X216002631Y-103038815D01*
X229512630Y-103038815D01*
X229836980Y-103823800D01*
X230437041Y-104424909D01*
X231221459Y-104750628D01*
X232070815Y-104751370D01*
X232855800Y-104427020D01*
X233456909Y-103826959D01*
X233782628Y-103042541D01*
X233783370Y-102193185D01*
X233459020Y-101408200D01*
X232858959Y-100807091D01*
X232074541Y-100481372D01*
X231225185Y-100480630D01*
X230440200Y-100804980D01*
X229839091Y-101405041D01*
X229513372Y-102189459D01*
X229512630Y-103038815D01*
X216002631Y-103038815D01*
X216003370Y-102193185D01*
X215679020Y-101408200D01*
X215078959Y-100807091D01*
X214294541Y-100481372D01*
X213445185Y-100480630D01*
X212660200Y-100804980D01*
X212059091Y-101405041D01*
X211733372Y-102189459D01*
X211732630Y-103038815D01*
X212056980Y-103823800D01*
X212499407Y-104267000D01*
X210312000Y-104267000D01*
X209874593Y-104354006D01*
X209503777Y-104601777D01*
X209423000Y-104682554D01*
X209423000Y-96900096D01*
X244856487Y-96647000D01*
X245237000Y-96647000D01*
X245237000Y-123317000D01*
X245237000Y-123317000D01*
G37*
X245237000Y-123317000D02*
X242685440Y-123317000D01*
X242685440Y-120420000D01*
X242636157Y-120172235D01*
X242495809Y-119962191D01*
X242285765Y-119821843D01*
X242038000Y-119772560D01*
X239038000Y-119772560D01*
X238790235Y-119821843D01*
X238580191Y-119962191D01*
X238439843Y-120172235D01*
X238390560Y-120420000D01*
X238390560Y-123317000D01*
X231521000Y-123317000D01*
X231521000Y-118353970D01*
X239203635Y-118353970D01*
X239363418Y-118672739D01*
X240154187Y-118982723D01*
X241003387Y-118966497D01*
X241712582Y-118672739D01*
X241872365Y-118353970D01*
X240538000Y-117019605D01*
X239203635Y-118353970D01*
X231521000Y-118353970D01*
X231521000Y-116942668D01*
X232324815Y-116943370D01*
X233109800Y-116619020D01*
X233272917Y-116456187D01*
X238395277Y-116456187D01*
X238411503Y-117305387D01*
X238705261Y-118014582D01*
X239024030Y-118174365D01*
X240358395Y-116840000D01*
X240717605Y-116840000D01*
X242051970Y-118174365D01*
X242370739Y-118014582D01*
X242680723Y-117223813D01*
X242664497Y-116374613D01*
X242370739Y-115665418D01*
X242051970Y-115505635D01*
X240717605Y-116840000D01*
X240358395Y-116840000D01*
X239024030Y-115505635D01*
X238705261Y-115665418D01*
X238395277Y-116456187D01*
X233272917Y-116456187D01*
X233710909Y-116018959D01*
X233998638Y-115326030D01*
X239203635Y-115326030D01*
X240538000Y-116660395D01*
X241872365Y-115326030D01*
X241712582Y-115007261D01*
X240921813Y-114697277D01*
X240072613Y-114713503D01*
X239363418Y-115007261D01*
X239203635Y-115326030D01*
X233998638Y-115326030D01*
X234036628Y-115234541D01*
X234037370Y-114385185D01*
X233713020Y-113600200D01*
X233112959Y-112999091D01*
X232328541Y-112673372D01*
X231479185Y-112672630D01*
X230694200Y-112996980D01*
X230093091Y-113597041D01*
X229767372Y-114381459D01*
X229766667Y-115189000D01*
X223266000Y-115189000D01*
X223217399Y-115198667D01*
X223176197Y-115226197D01*
X223148667Y-115267399D01*
X223139000Y-115316000D01*
X223139000Y-115430941D01*
X223012000Y-115405679D01*
X222380190Y-115531354D01*
X221844567Y-115889246D01*
X221742000Y-116042748D01*
X221639433Y-115889246D01*
X221103810Y-115531354D01*
X220472000Y-115405679D01*
X219840190Y-115531354D01*
X219304567Y-115889246D01*
X218946675Y-116424869D01*
X218821000Y-117056679D01*
X218821000Y-117639321D01*
X218946675Y-118271131D01*
X219304567Y-118806754D01*
X219840190Y-119164646D01*
X220472000Y-119290321D01*
X221103810Y-119164646D01*
X221639433Y-118806754D01*
X221742000Y-118653252D01*
X221844567Y-118806754D01*
X222380190Y-119164646D01*
X223012000Y-119290321D01*
X223139000Y-119265059D01*
X223139000Y-127368941D01*
X223012000Y-127343679D01*
X222380190Y-127469354D01*
X221844567Y-127827246D01*
X221742000Y-127980748D01*
X221639433Y-127827246D01*
X221103810Y-127469354D01*
X220472000Y-127343679D01*
X219840190Y-127469354D01*
X219304567Y-127827246D01*
X218946675Y-128362869D01*
X218821000Y-128994679D01*
X218821000Y-129577321D01*
X218946675Y-130209131D01*
X219304567Y-130744754D01*
X219840190Y-131102646D01*
X220472000Y-131228321D01*
X221103810Y-131102646D01*
X221639433Y-130744754D01*
X221742000Y-130591252D01*
X221844567Y-130744754D01*
X222380190Y-131102646D01*
X223012000Y-131228321D01*
X223139000Y-131203059D01*
X223139000Y-138811000D01*
X216256668Y-138811000D01*
X216257370Y-138007185D01*
X215933020Y-137222200D01*
X215332959Y-136621091D01*
X214548541Y-136295372D01*
X213699185Y-136294630D01*
X212914200Y-136618980D01*
X212313091Y-137219041D01*
X212243130Y-137387524D01*
X209423000Y-134567394D01*
X209423000Y-127168815D01*
X211986630Y-127168815D01*
X212310980Y-127953800D01*
X212911041Y-128554909D01*
X213695459Y-128880628D01*
X214544815Y-128881370D01*
X215329800Y-128557020D01*
X215930909Y-127956959D01*
X216256628Y-127172541D01*
X216257370Y-126323185D01*
X215933020Y-125538200D01*
X215332959Y-124937091D01*
X214548541Y-124611372D01*
X213699185Y-124610630D01*
X212914200Y-124934980D01*
X212313091Y-125535041D01*
X211987372Y-126319459D01*
X211986630Y-127168815D01*
X209423000Y-127168815D01*
X209423000Y-115230815D01*
X211986630Y-115230815D01*
X212310980Y-116015800D01*
X212911041Y-116616909D01*
X213695459Y-116942628D01*
X214544815Y-116943370D01*
X215329800Y-116619020D01*
X215930909Y-116018959D01*
X216256628Y-115234541D01*
X216257370Y-114385185D01*
X215933020Y-113600200D01*
X215332959Y-112999091D01*
X214548541Y-112673372D01*
X213699185Y-112672630D01*
X212914200Y-112996980D01*
X212313091Y-113597041D01*
X211987372Y-114381459D01*
X211986630Y-115230815D01*
X209423000Y-115230815D01*
X209423000Y-107915446D01*
X210785446Y-106553000D01*
X219009304Y-106553000D01*
X219050567Y-106614754D01*
X219586190Y-106972646D01*
X220218000Y-107098321D01*
X220849810Y-106972646D01*
X221385433Y-106614754D01*
X221488000Y-106461252D01*
X221590567Y-106614754D01*
X222126190Y-106972646D01*
X222758000Y-107098321D01*
X223389810Y-106972646D01*
X223925433Y-106614754D01*
X224042054Y-106440219D01*
X224220370Y-106667236D01*
X224783523Y-106983926D01*
X224915056Y-107015975D01*
X225171000Y-106896836D01*
X225171000Y-105283000D01*
X225425000Y-105283000D01*
X225425000Y-106896836D01*
X225680944Y-107015975D01*
X225812477Y-106983926D01*
X226375630Y-106667236D01*
X226774724Y-106159143D01*
X226949000Y-105537000D01*
X226949000Y-105283000D01*
X225425000Y-105283000D01*
X225171000Y-105283000D01*
X225151000Y-105283000D01*
X225151000Y-105029000D01*
X225171000Y-105029000D01*
X225171000Y-103415164D01*
X225425000Y-103415164D01*
X225425000Y-105029000D01*
X226949000Y-105029000D01*
X226949000Y-104775000D01*
X226774724Y-104152857D01*
X226375630Y-103644764D01*
X225812477Y-103328074D01*
X225680944Y-103296025D01*
X225425000Y-103415164D01*
X225171000Y-103415164D01*
X224915056Y-103296025D01*
X224783523Y-103328074D01*
X224220370Y-103644764D01*
X224042054Y-103871781D01*
X223925433Y-103697246D01*
X223389810Y-103339354D01*
X222758000Y-103213679D01*
X222126190Y-103339354D01*
X221590567Y-103697246D01*
X221488000Y-103850748D01*
X221385433Y-103697246D01*
X220849810Y-103339354D01*
X220218000Y-103213679D01*
X219586190Y-103339354D01*
X219050567Y-103697246D01*
X218692675Y-104232869D01*
X218685886Y-104267000D01*
X215236099Y-104267000D01*
X215676909Y-103826959D01*
X216002628Y-103042541D01*
X216002631Y-103038815D01*
X229512630Y-103038815D01*
X229836980Y-103823800D01*
X230437041Y-104424909D01*
X231221459Y-104750628D01*
X232070815Y-104751370D01*
X232855800Y-104427020D01*
X233456909Y-103826959D01*
X233782628Y-103042541D01*
X233783370Y-102193185D01*
X233459020Y-101408200D01*
X232858959Y-100807091D01*
X232074541Y-100481372D01*
X231225185Y-100480630D01*
X230440200Y-100804980D01*
X229839091Y-101405041D01*
X229513372Y-102189459D01*
X229512630Y-103038815D01*
X216002631Y-103038815D01*
X216003370Y-102193185D01*
X215679020Y-101408200D01*
X215078959Y-100807091D01*
X214294541Y-100481372D01*
X213445185Y-100480630D01*
X212660200Y-100804980D01*
X212059091Y-101405041D01*
X211733372Y-102189459D01*
X211732630Y-103038815D01*
X212056980Y-103823800D01*
X212499407Y-104267000D01*
X210312000Y-104267000D01*
X209874593Y-104354006D01*
X209503777Y-104601777D01*
X209423000Y-104682554D01*
X209423000Y-96900096D01*
X244856487Y-96647000D01*
X245237000Y-96647000D01*
X245237000Y-123317000D01*
G36*
X113229320Y-95825444D02*
X112990472Y-95726265D01*
X112384188Y-95725736D01*
X111823851Y-95957262D01*
X111415664Y-96364737D01*
X111010404Y-95958769D01*
X110450472Y-95726265D01*
X109844188Y-95725736D01*
X109283851Y-95957262D01*
X108875664Y-96364737D01*
X108470404Y-95958769D01*
X107910472Y-95726265D01*
X107304188Y-95725736D01*
X106743851Y-95957262D01*
X106335664Y-96364737D01*
X105930404Y-95958769D01*
X105370472Y-95726265D01*
X104764188Y-95725736D01*
X104203851Y-95957262D01*
X103795664Y-96364737D01*
X103390404Y-95958769D01*
X102830472Y-95726265D01*
X102224188Y-95725736D01*
X101663851Y-95957262D01*
X101255664Y-96364737D01*
X100850404Y-95958769D01*
X100290472Y-95726265D01*
X99684188Y-95725736D01*
X99123851Y-95957262D01*
X98715664Y-96364737D01*
X98310404Y-95958769D01*
X97750472Y-95726265D01*
X97144188Y-95725736D01*
X96583851Y-95957262D01*
X96393708Y-96147074D01*
X96333327Y-96001302D01*
X96154699Y-95822673D01*
X95921310Y-95726000D01*
X95191750Y-95726000D01*
X95033000Y-95884750D01*
X95033000Y-97123000D01*
X95053000Y-97123000D01*
X95053000Y-97377000D01*
X95033000Y-97377000D01*
X95033000Y-97397000D01*
X94779000Y-97397000D01*
X94779000Y-97377000D01*
X93540750Y-97377000D01*
X93382000Y-97535750D01*
X93382000Y-98265309D01*
X93478673Y-98498698D01*
X93478740Y-98498765D01*
X93368843Y-98663235D01*
X93319560Y-98911000D01*
X93319560Y-100689000D01*
X93368843Y-100936765D01*
X93509191Y-101146809D01*
X93719235Y-101287157D01*
X93967000Y-101336440D01*
X95745000Y-101336440D01*
X95992765Y-101287157D01*
X96202809Y-101146809D01*
X96343157Y-100936765D01*
X96348846Y-100908162D01*
X96531596Y-101091231D01*
X97091528Y-101323735D01*
X97697812Y-101324264D01*
X98258149Y-101092738D01*
X98666336Y-100685263D01*
X99071596Y-101091231D01*
X99631528Y-101323735D01*
X100237812Y-101324264D01*
X100798149Y-101092738D01*
X101206336Y-100685263D01*
X101611596Y-101091231D01*
X102171528Y-101323735D01*
X102777812Y-101324264D01*
X103338149Y-101092738D01*
X103746336Y-100685263D01*
X104151596Y-101091231D01*
X104711528Y-101323735D01*
X105317812Y-101324264D01*
X105878149Y-101092738D01*
X106286336Y-100685263D01*
X106691596Y-101091231D01*
X107251528Y-101323735D01*
X107857812Y-101324264D01*
X108418149Y-101092738D01*
X108826336Y-100685263D01*
X109231596Y-101091231D01*
X109791528Y-101323735D01*
X110397812Y-101324264D01*
X110958149Y-101092738D01*
X111366336Y-100685263D01*
X111771596Y-101091231D01*
X112331528Y-101323735D01*
X112937812Y-101324264D01*
X113498149Y-101092738D01*
X113906336Y-100685263D01*
X114311596Y-101091231D01*
X114871528Y-101323735D01*
X115477812Y-101324264D01*
X116038149Y-101092738D01*
X116446336Y-100685263D01*
X116851596Y-101091231D01*
X117411528Y-101323735D01*
X118017812Y-101324264D01*
X118491000Y-101128747D01*
X118491000Y-103632000D01*
X118558671Y-103972206D01*
X118691201Y-104170551D01*
X118751382Y-104260618D01*
X125609382Y-111118618D01*
X125897795Y-111311330D01*
X126238000Y-111379000D01*
X148589593Y-111379000D01*
X148895018Y-111505824D01*
X149299208Y-111506176D01*
X149672766Y-111351825D01*
X149958821Y-111066269D01*
X150113824Y-110692982D01*
X150113934Y-110566463D01*
X150368000Y-110617000D01*
X150708205Y-110549329D01*
X150996618Y-110356618D01*
X151244136Y-110109100D01*
X151356359Y-110109198D01*
X151776612Y-109935554D01*
X152012216Y-109700359D01*
X174878802Y-109700359D01*
X175052446Y-110120612D01*
X175373697Y-110442423D01*
X175374176Y-110442622D01*
X183555880Y-118624326D01*
X183180731Y-119185776D01*
X183041050Y-119888000D01*
X183180731Y-120590224D01*
X183578509Y-121185541D01*
X184173826Y-121583319D01*
X184876050Y-121723000D01*
X184947950Y-121723000D01*
X185650174Y-121583319D01*
X186245491Y-121185541D01*
X186643269Y-120590224D01*
X186782950Y-119888000D01*
X186643269Y-119185776D01*
X186245491Y-118590459D01*
X186055000Y-118463177D01*
X186055000Y-118364000D01*
X185967994Y-117926593D01*
X185720223Y-117555777D01*
X178654446Y-110490000D01*
X183041050Y-110490000D01*
X183180731Y-111192224D01*
X183578509Y-111787541D01*
X184173826Y-112185319D01*
X184876050Y-112325000D01*
X184947950Y-112325000D01*
X185650174Y-112185319D01*
X186245491Y-111787541D01*
X186643269Y-111192224D01*
X186782950Y-110490000D01*
X186643269Y-109787776D01*
X186245491Y-109192459D01*
X186055000Y-109065177D01*
X186055000Y-102870000D01*
X186055198Y-102643641D01*
X185881554Y-102223388D01*
X185560303Y-101901577D01*
X185140354Y-101727199D01*
X184685641Y-101726802D01*
X184265388Y-101900446D01*
X183943577Y-102221697D01*
X183769199Y-102641646D01*
X183768802Y-103096359D01*
X183769000Y-103096838D01*
X183769000Y-109065177D01*
X183578509Y-109192459D01*
X183180731Y-109787776D01*
X183041050Y-110490000D01*
X178654446Y-110490000D01*
X176830929Y-108666483D01*
X176670303Y-108505577D01*
X176250354Y-108331199D01*
X175795641Y-108330802D01*
X175375388Y-108504446D01*
X175053577Y-108825697D01*
X174879199Y-109245646D01*
X174878802Y-109700359D01*
X152012216Y-109700359D01*
X152098423Y-109614303D01*
X152272801Y-109194354D01*
X152273198Y-108739641D01*
X152099554Y-108319388D01*
X151778303Y-107997577D01*
X151358354Y-107823199D01*
X150903641Y-107822802D01*
X150483388Y-107996446D01*
X150161577Y-108317697D01*
X149987199Y-108737646D01*
X149987099Y-108851665D01*
X149872764Y-108966000D01*
X135237850Y-108966000D01*
X135497098Y-108707204D01*
X135700768Y-108216713D01*
X135701231Y-107685617D01*
X135498418Y-107194771D01*
X135123204Y-106818902D01*
X134632713Y-106615232D01*
X134101617Y-106614769D01*
X133610771Y-106817582D01*
X133234902Y-107192796D01*
X133031232Y-107683287D01*
X133030769Y-108214383D01*
X133233582Y-108705229D01*
X133493899Y-108966000D01*
X128257236Y-108966000D01*
X125747423Y-106456187D01*
X157060752Y-106456187D01*
X157278757Y-106983800D01*
X157682077Y-107387824D01*
X158209309Y-107606750D01*
X158780187Y-107607248D01*
X159307800Y-107389243D01*
X159711824Y-106985923D01*
X159930750Y-106458691D01*
X159931248Y-105887813D01*
X159713243Y-105360200D01*
X159309923Y-104956176D01*
X158782691Y-104737250D01*
X158211813Y-104736752D01*
X157684200Y-104954757D01*
X157280176Y-105358077D01*
X157061250Y-105885309D01*
X157060752Y-106456187D01*
X125747423Y-106456187D01*
X122465227Y-103173991D01*
X132830735Y-103173991D01*
X133063932Y-103738371D01*
X133495357Y-104170551D01*
X134059330Y-104404733D01*
X134669991Y-104405265D01*
X135234371Y-104172068D01*
X135666551Y-103740643D01*
X135900733Y-103176670D01*
X135901265Y-102566009D01*
X135668068Y-102001629D01*
X135490908Y-101824159D01*
X135625699Y-101768327D01*
X135804327Y-101589698D01*
X135901000Y-101356309D01*
X135901000Y-101108000D01*
X139830560Y-101108000D01*
X139830560Y-103108000D01*
X139879843Y-103355765D01*
X140020191Y-103565809D01*
X140230235Y-103706157D01*
X140478000Y-103755440D01*
X142478000Y-103755440D01*
X142725765Y-103706157D01*
X142935809Y-103565809D01*
X143076157Y-103355765D01*
X143095099Y-103260532D01*
X145505073Y-103260532D01*
X145603736Y-103527387D01*
X146213461Y-103753908D01*
X146863460Y-103729856D01*
X147352264Y-103527387D01*
X147450927Y-103260532D01*
X146478000Y-102287605D01*
X145505073Y-103260532D01*
X143095099Y-103260532D01*
X143125440Y-103108000D01*
X143125440Y-101843461D01*
X144832092Y-101843461D01*
X144856144Y-102493460D01*
X145058613Y-102982264D01*
X145325468Y-103080927D01*
X146298395Y-102108000D01*
X146657605Y-102108000D01*
X147630532Y-103080927D01*
X147897387Y-102982264D01*
X148123908Y-102372539D01*
X148099856Y-101722540D01*
X147897387Y-101233736D01*
X147630532Y-101135073D01*
X146657605Y-102108000D01*
X146298395Y-102108000D01*
X145325468Y-101135073D01*
X145058613Y-101233736D01*
X144832092Y-101843461D01*
X143125440Y-101843461D01*
X143125440Y-101108000D01*
X143095100Y-100955468D01*
X145505073Y-100955468D01*
X146478000Y-101928395D01*
X147450927Y-100955468D01*
X147352264Y-100688613D01*
X146742539Y-100462092D01*
X146092540Y-100486144D01*
X145603736Y-100688613D01*
X145505073Y-100955468D01*
X143095100Y-100955468D01*
X143076157Y-100860235D01*
X142935809Y-100650191D01*
X142725765Y-100509843D01*
X142478000Y-100460560D01*
X140478000Y-100460560D01*
X140230235Y-100509843D01*
X140020191Y-100650191D01*
X139879843Y-100860235D01*
X139830560Y-101108000D01*
X135901000Y-101108000D01*
X135901000Y-100615750D01*
X135742250Y-100457000D01*
X134493000Y-100457000D01*
X134493000Y-100477000D01*
X134239000Y-100477000D01*
X134239000Y-100457000D01*
X132989750Y-100457000D01*
X132831000Y-100615750D01*
X132831000Y-101356309D01*
X132927673Y-101589698D01*
X133106301Y-101768327D01*
X133240994Y-101824119D01*
X133065449Y-101999357D01*
X132831267Y-102563330D01*
X132830735Y-103173991D01*
X122465227Y-103173991D01*
X121793100Y-102501864D01*
X121793198Y-102389641D01*
X121619554Y-101969388D01*
X121298303Y-101647577D01*
X120878354Y-101473199D01*
X120423641Y-101472802D01*
X120269000Y-101536698D01*
X120269000Y-99303691D01*
X132831000Y-99303691D01*
X132831000Y-100044250D01*
X132989750Y-100203000D01*
X134239000Y-100203000D01*
X134239000Y-98953750D01*
X134493000Y-98953750D01*
X134493000Y-100203000D01*
X135742250Y-100203000D01*
X135901000Y-100044250D01*
X135901000Y-99303691D01*
X135804327Y-99070302D01*
X135625699Y-98891673D01*
X135392310Y-98795000D01*
X134651750Y-98795000D01*
X134493000Y-98953750D01*
X134239000Y-98953750D01*
X134080250Y-98795000D01*
X133339690Y-98795000D01*
X133106301Y-98891673D01*
X132927673Y-99070302D01*
X132831000Y-99303691D01*
X120269000Y-99303691D01*
X120269000Y-98386393D01*
X121904856Y-98386393D01*
X121999255Y-98649639D01*
X122596370Y-98870348D01*
X123232494Y-98845750D01*
X123705947Y-98649639D01*
X123800346Y-98386393D01*
X122852601Y-97438648D01*
X121904856Y-98386393D01*
X120269000Y-98386393D01*
X120269000Y-97002812D01*
X121241296Y-97002812D01*
X121265894Y-97638936D01*
X121462005Y-98112389D01*
X121725251Y-98206788D01*
X122672996Y-97259043D01*
X123032206Y-97259043D01*
X123979951Y-98206788D01*
X124122601Y-98155634D01*
X124265251Y-98206788D01*
X125212996Y-97259043D01*
X124265251Y-96311298D01*
X124122601Y-96362452D01*
X123979951Y-96311298D01*
X123032206Y-97259043D01*
X122672996Y-97259043D01*
X121725251Y-96311298D01*
X121462005Y-96405697D01*
X121241296Y-97002812D01*
X120269000Y-97002812D01*
X120269000Y-96131693D01*
X121904856Y-96131693D01*
X122852601Y-97079438D01*
X123800346Y-96131693D01*
X124444856Y-96131693D01*
X125392601Y-97079438D01*
X125406744Y-97065296D01*
X125586349Y-97244901D01*
X125572206Y-97259043D01*
X125586349Y-97273186D01*
X125406744Y-97452791D01*
X125392601Y-97438648D01*
X124444856Y-98386393D01*
X124539255Y-98649639D01*
X125136370Y-98870348D01*
X125772494Y-98845750D01*
X126245947Y-98649639D01*
X126340345Y-98386395D01*
X126454718Y-98500768D01*
X126542000Y-98413486D01*
X126636592Y-98555052D01*
X126846636Y-98695400D01*
X127094401Y-98744683D01*
X128770801Y-98744683D01*
X129018566Y-98695400D01*
X129228610Y-98555052D01*
X129368958Y-98345008D01*
X129418241Y-98097243D01*
X129418241Y-96420843D01*
X129368958Y-96173078D01*
X129228610Y-95963034D01*
X129018566Y-95822686D01*
X128770801Y-95773403D01*
X127094401Y-95773403D01*
X126846636Y-95822686D01*
X126636592Y-95963034D01*
X126542000Y-96104600D01*
X126454718Y-96017318D01*
X126340345Y-96131691D01*
X126245947Y-95868447D01*
X125648832Y-95647738D01*
X125012708Y-95672336D01*
X124539255Y-95868447D01*
X124444856Y-96131693D01*
X123800346Y-96131693D01*
X123705947Y-95868447D01*
X123108832Y-95647738D01*
X122472708Y-95672336D01*
X121999255Y-95868447D01*
X121904856Y-96131693D01*
X120269000Y-96131693D01*
X120269000Y-96012000D01*
X120201329Y-95671794D01*
X120008618Y-95383382D01*
X120002236Y-95377000D01*
X159345936Y-95377000D01*
X159136764Y-95516764D01*
X157238764Y-97414764D01*
X156853342Y-97991589D01*
X156718000Y-98672000D01*
X156853342Y-99352411D01*
X156912535Y-99441000D01*
X150587588Y-99441000D01*
X150508303Y-99361577D01*
X150088354Y-99187199D01*
X149633641Y-99186802D01*
X149213388Y-99360446D01*
X148891577Y-99681697D01*
X148717199Y-100101646D01*
X148716802Y-100556359D01*
X148890446Y-100976612D01*
X149211697Y-101298423D01*
X149631646Y-101472801D01*
X149987110Y-101473111D01*
X149986802Y-101826359D01*
X150160446Y-102246612D01*
X150481697Y-102568423D01*
X150901646Y-102742801D01*
X151356359Y-102743198D01*
X151776612Y-102569554D01*
X151857306Y-102489000D01*
X163363648Y-102489000D01*
X163368446Y-102500612D01*
X163689697Y-102822423D01*
X164109646Y-102996801D01*
X164564359Y-102997198D01*
X164984612Y-102823554D01*
X165306423Y-102502303D01*
X165480801Y-102082354D01*
X165481198Y-101627641D01*
X165312150Y-101218511D01*
X165480801Y-100812354D01*
X165481198Y-100357641D01*
X165307554Y-99937388D01*
X164986303Y-99615577D01*
X164566354Y-99441199D01*
X164111641Y-99440802D01*
X164102335Y-99444647D01*
X164084000Y-99441000D01*
X160241472Y-99441000D01*
X161130472Y-98552000D01*
X208407000Y-98552000D01*
X208407000Y-105698554D01*
X205450364Y-108655190D01*
X204868597Y-108654682D01*
X204193914Y-108933455D01*
X203677270Y-109449199D01*
X203397319Y-110123395D01*
X203396682Y-110853403D01*
X203675455Y-111528086D01*
X204191199Y-112044730D01*
X204865395Y-112324681D01*
X205595403Y-112325318D01*
X206270086Y-112046545D01*
X206786730Y-111530801D01*
X207066681Y-110856605D01*
X207067192Y-110271254D01*
X208407000Y-108931446D01*
X208407000Y-109880528D01*
X208038764Y-110248764D01*
X207653342Y-110825589D01*
X207518000Y-111506000D01*
X207518000Y-129794000D01*
X207653342Y-130474411D01*
X208038764Y-131051236D01*
X208407000Y-131419472D01*
X208407000Y-135162554D01*
X205024223Y-131779777D01*
X204653407Y-131532006D01*
X204216000Y-131445000D01*
X202911446Y-131445000D01*
X200533000Y-129066554D01*
X200533000Y-128887403D01*
X203396682Y-128887403D01*
X203675455Y-129562086D01*
X204191199Y-130078730D01*
X204865395Y-130358681D01*
X205595403Y-130359318D01*
X206270086Y-130080545D01*
X206786730Y-129564801D01*
X207066681Y-128890605D01*
X207067318Y-128160597D01*
X206788545Y-127485914D01*
X206272801Y-126969270D01*
X205598605Y-126689319D01*
X204868597Y-126688682D01*
X204193914Y-126967455D01*
X203677270Y-127483199D01*
X203397319Y-128157395D01*
X203396682Y-128887403D01*
X200533000Y-128887403D01*
X200533000Y-126203446D01*
X205013636Y-121722810D01*
X205595403Y-121723318D01*
X206270086Y-121444545D01*
X206786730Y-120928801D01*
X207066681Y-120254605D01*
X207067318Y-119524597D01*
X206788545Y-118849914D01*
X206272801Y-118333270D01*
X205598605Y-118053319D01*
X204868597Y-118052682D01*
X204193914Y-118331455D01*
X203677270Y-118847199D01*
X203397319Y-119521395D01*
X203396808Y-120106746D01*
X198581777Y-124921777D01*
X198334006Y-125292593D01*
X198247000Y-125730000D01*
X198247000Y-129540000D01*
X198334006Y-129977407D01*
X198581777Y-130348223D01*
X201629777Y-133396223D01*
X202000593Y-133643994D01*
X202438000Y-133731000D01*
X203742554Y-133731000D01*
X208407000Y-138395446D01*
X208407000Y-140462000D01*
X208416667Y-140510601D01*
X208444197Y-140551803D01*
X208485399Y-140579333D01*
X208534000Y-140589000D01*
X210600554Y-140589000D01*
X211789777Y-141778223D01*
X212160593Y-142025994D01*
X212598000Y-142113000D01*
X219093587Y-142113000D01*
X219304567Y-142428754D01*
X219840190Y-142786646D01*
X220472000Y-142912321D01*
X221103810Y-142786646D01*
X221639433Y-142428754D01*
X221679565Y-142368692D01*
X221754764Y-142481236D01*
X222331589Y-142866658D01*
X223012000Y-143002000D01*
X223692411Y-142866658D01*
X224269236Y-142481236D01*
X224363527Y-142340120D01*
X224474370Y-142481236D01*
X225037523Y-142797926D01*
X225169056Y-142829975D01*
X225425000Y-142710836D01*
X225425000Y-141097000D01*
X225679000Y-141097000D01*
X225679000Y-142710836D01*
X225934944Y-142829975D01*
X226066477Y-142797926D01*
X226629630Y-142481236D01*
X227028724Y-141973143D01*
X227203000Y-141351000D01*
X227203000Y-141097000D01*
X225679000Y-141097000D01*
X225425000Y-141097000D01*
X225405000Y-141097000D01*
X225405000Y-140843000D01*
X225425000Y-140843000D01*
X225425000Y-140823000D01*
X225679000Y-140823000D01*
X225679000Y-140843000D01*
X227203000Y-140843000D01*
X227203000Y-140589000D01*
X227028724Y-139966857D01*
X226629630Y-139458764D01*
X226066477Y-139142074D01*
X225934944Y-139110025D01*
X225679002Y-139229163D01*
X225679002Y-139065000D01*
X225679000Y-139065000D01*
X225679000Y-138852815D01*
X229766630Y-138852815D01*
X230090980Y-139637800D01*
X230691041Y-140238909D01*
X231475459Y-140564628D01*
X232324815Y-140565370D01*
X233109800Y-140241020D01*
X233710909Y-139640959D01*
X234036628Y-138856541D01*
X234037201Y-138200000D01*
X238390560Y-138200000D01*
X238390560Y-141200000D01*
X238439843Y-141447765D01*
X238580191Y-141657809D01*
X238790235Y-141798157D01*
X239038000Y-141847440D01*
X242038000Y-141847440D01*
X242285765Y-141798157D01*
X242495809Y-141657809D01*
X242636157Y-141447765D01*
X242685440Y-141200000D01*
X242685440Y-138200000D01*
X242636157Y-137952235D01*
X242495809Y-137742191D01*
X242285765Y-137601843D01*
X242038000Y-137552560D01*
X239038000Y-137552560D01*
X238790235Y-137601843D01*
X238580191Y-137742191D01*
X238439843Y-137952235D01*
X238390560Y-138200000D01*
X234037201Y-138200000D01*
X234037370Y-138007185D01*
X233713020Y-137222200D01*
X233112959Y-136621091D01*
X232328541Y-136295372D01*
X231479185Y-136294630D01*
X230694200Y-136618980D01*
X230093091Y-137219041D01*
X229767372Y-138003459D01*
X229766630Y-138852815D01*
X225679000Y-138852815D01*
X225679000Y-136133970D01*
X239203635Y-136133970D01*
X239363418Y-136452739D01*
X240154187Y-136762723D01*
X241003387Y-136746497D01*
X241712582Y-136452739D01*
X241872365Y-136133970D01*
X240538000Y-134799605D01*
X239203635Y-136133970D01*
X225679000Y-136133970D01*
X225679000Y-134236187D01*
X238395277Y-134236187D01*
X238411503Y-135085387D01*
X238705261Y-135794582D01*
X239024030Y-135954365D01*
X240358395Y-134620000D01*
X240717605Y-134620000D01*
X242051970Y-135954365D01*
X242370739Y-135794582D01*
X242680723Y-135003813D01*
X242664497Y-134154613D01*
X242370739Y-133445418D01*
X242051970Y-133285635D01*
X240717605Y-134620000D01*
X240358395Y-134620000D01*
X239024030Y-133285635D01*
X238705261Y-133445418D01*
X238395277Y-134236187D01*
X225679000Y-134236187D01*
X225679000Y-133106030D01*
X239203635Y-133106030D01*
X240538000Y-134440395D01*
X241872365Y-133106030D01*
X241712582Y-132787261D01*
X240921813Y-132477277D01*
X240072613Y-132493503D01*
X239363418Y-132787261D01*
X239203635Y-133106030D01*
X225679000Y-133106030D01*
X225679000Y-131203059D01*
X226183810Y-131102646D01*
X226719433Y-130744754D01*
X227077325Y-130209131D01*
X227203000Y-129577321D01*
X227203000Y-128994679D01*
X227077325Y-128362869D01*
X226719433Y-127827246D01*
X226183810Y-127469354D01*
X225679000Y-127368941D01*
X225679000Y-127168815D01*
X229766630Y-127168815D01*
X230090980Y-127953800D01*
X230691041Y-128554909D01*
X231475459Y-128880628D01*
X232324815Y-128881370D01*
X233109800Y-128557020D01*
X233710909Y-127956959D01*
X234036628Y-127172541D01*
X234037370Y-126323185D01*
X233713020Y-125538200D01*
X233112959Y-124937091D01*
X232328541Y-124611372D01*
X231479185Y-124610630D01*
X230694200Y-124934980D01*
X230093091Y-125535041D01*
X229767372Y-126319459D01*
X229766630Y-127168815D01*
X225679000Y-127168815D01*
X225679000Y-119253000D01*
X225679002Y-119253000D01*
X225679002Y-119088837D01*
X225934944Y-119207975D01*
X226066477Y-119175926D01*
X226629630Y-118859236D01*
X227028724Y-118351143D01*
X227203000Y-117729000D01*
X227203000Y-117475000D01*
X230251000Y-117475000D01*
X230251000Y-124460000D01*
X230260667Y-124508601D01*
X230288197Y-124549803D01*
X230329399Y-124577333D01*
X230378000Y-124587000D01*
X245237000Y-124587000D01*
X245237000Y-144653000D01*
X86816000Y-144653000D01*
X86816000Y-139544600D01*
X93370660Y-139544600D01*
X93370660Y-141322600D01*
X93419943Y-141570365D01*
X93508968Y-141703600D01*
X93419943Y-141836835D01*
X93370660Y-142084600D01*
X93370660Y-143862600D01*
X93419943Y-144110365D01*
X93560291Y-144320409D01*
X93770335Y-144460757D01*
X94018100Y-144510040D01*
X95796100Y-144510040D01*
X96043865Y-144460757D01*
X96253909Y-144320409D01*
X96394257Y-144110365D01*
X96399946Y-144081762D01*
X96582696Y-144264831D01*
X97142628Y-144497335D01*
X97748912Y-144497864D01*
X98309249Y-144266338D01*
X98717436Y-143858863D01*
X99122696Y-144264831D01*
X99682628Y-144497335D01*
X100288912Y-144497864D01*
X100849249Y-144266338D01*
X101257436Y-143858863D01*
X101662696Y-144264831D01*
X102222628Y-144497335D01*
X102828912Y-144497864D01*
X103389249Y-144266338D01*
X103797436Y-143858863D01*
X104202696Y-144264831D01*
X104762628Y-144497335D01*
X105368912Y-144497864D01*
X105929249Y-144266338D01*
X106337436Y-143858863D01*
X106742696Y-144264831D01*
X107302628Y-144497335D01*
X107908912Y-144497864D01*
X108469249Y-144266338D01*
X108877436Y-143858863D01*
X109282696Y-144264831D01*
X109842628Y-144497335D01*
X110448912Y-144497864D01*
X111009249Y-144266338D01*
X111417436Y-143858863D01*
X111822696Y-144264831D01*
X112382628Y-144497335D01*
X112988912Y-144497864D01*
X113549249Y-144266338D01*
X113957436Y-143858863D01*
X114362696Y-144264831D01*
X114922628Y-144497335D01*
X115528912Y-144497864D01*
X116089249Y-144266338D01*
X116497436Y-143858863D01*
X116902696Y-144264831D01*
X117462628Y-144497335D01*
X118068912Y-144497864D01*
X118629249Y-144266338D01*
X119058331Y-143838004D01*
X119290835Y-143278072D01*
X119291364Y-142671788D01*
X119059838Y-142111451D01*
X118652363Y-141703264D01*
X119058331Y-141298004D01*
X119290835Y-140738072D01*
X119291364Y-140131788D01*
X119059838Y-139571451D01*
X118631504Y-139142369D01*
X118071572Y-138909865D01*
X117465288Y-138909336D01*
X116904951Y-139140862D01*
X116496764Y-139548337D01*
X116091504Y-139142369D01*
X115531572Y-138909865D01*
X114925288Y-138909336D01*
X114364951Y-139140862D01*
X113956764Y-139548337D01*
X113551504Y-139142369D01*
X112991572Y-138909865D01*
X112385288Y-138909336D01*
X111824951Y-139140862D01*
X111416764Y-139548337D01*
X111011504Y-139142369D01*
X110451572Y-138909865D01*
X109845288Y-138909336D01*
X109284951Y-139140862D01*
X108876764Y-139548337D01*
X108471504Y-139142369D01*
X107911572Y-138909865D01*
X107305288Y-138909336D01*
X106744951Y-139140862D01*
X106336764Y-139548337D01*
X105931504Y-139142369D01*
X105371572Y-138909865D01*
X104765288Y-138909336D01*
X104204951Y-139140862D01*
X103796764Y-139548337D01*
X103391504Y-139142369D01*
X102831572Y-138909865D01*
X102225288Y-138909336D01*
X101664951Y-139140862D01*
X101256764Y-139548337D01*
X100851504Y-139142369D01*
X100291572Y-138909865D01*
X99685288Y-138909336D01*
X99124951Y-139140862D01*
X98695869Y-139569196D01*
X98684695Y-139596106D01*
X98519296Y-139541009D01*
X97626705Y-140433600D01*
X98519296Y-141326191D01*
X98684238Y-141271247D01*
X98694362Y-141295749D01*
X99101837Y-141703936D01*
X98716764Y-142088337D01*
X98311504Y-141682369D01*
X98284594Y-141671195D01*
X98339691Y-141505796D01*
X97447100Y-140613205D01*
X97432958Y-140627348D01*
X97253353Y-140447743D01*
X97267495Y-140433600D01*
X97253353Y-140419458D01*
X97432958Y-140239853D01*
X97447100Y-140253995D01*
X98339691Y-139361404D01*
X98254633Y-139106061D01*
X97685135Y-138898084D01*
X97079400Y-138923877D01*
X96639567Y-139106061D01*
X96554510Y-139361402D01*
X96439920Y-139246812D01*
X96392511Y-139294221D01*
X96253909Y-139086791D01*
X96043865Y-138946443D01*
X95796100Y-138897160D01*
X94018100Y-138897160D01*
X93770335Y-138946443D01*
X93560291Y-139086791D01*
X93419943Y-139296835D01*
X93370660Y-139544600D01*
X86816000Y-139544600D01*
X86816000Y-136116359D01*
X153034802Y-136116359D01*
X153203850Y-136525489D01*
X153035199Y-136931646D01*
X153034802Y-137386359D01*
X153208446Y-137806612D01*
X153529697Y-138128423D01*
X153949646Y-138302801D01*
X154404359Y-138303198D01*
X154824612Y-138129554D01*
X154905306Y-138049000D01*
X157609384Y-138049000D01*
X157534176Y-138124077D01*
X157315250Y-138651309D01*
X157314752Y-139222187D01*
X157532757Y-139749800D01*
X157936077Y-140153824D01*
X158463309Y-140372750D01*
X159034187Y-140373248D01*
X159561800Y-140155243D01*
X159965824Y-139751923D01*
X160184750Y-139224691D01*
X160185248Y-138653813D01*
X159967243Y-138126200D01*
X159890178Y-138049000D01*
X165109384Y-138049000D01*
X165034176Y-138124077D01*
X164815250Y-138651309D01*
X164814752Y-139222187D01*
X165032757Y-139749800D01*
X165436077Y-140153824D01*
X165963309Y-140372750D01*
X166534187Y-140373248D01*
X167061800Y-140155243D01*
X167465824Y-139751923D01*
X167684750Y-139224691D01*
X167685248Y-138653813D01*
X167467243Y-138126200D01*
X167390178Y-138049000D01*
X173516412Y-138049000D01*
X173595697Y-138128423D01*
X174015646Y-138302801D01*
X174470359Y-138303198D01*
X174778203Y-138176000D01*
X183041050Y-138176000D01*
X183180731Y-138878224D01*
X183578509Y-139473541D01*
X184173826Y-139871319D01*
X184876050Y-140011000D01*
X184947950Y-140011000D01*
X185650174Y-139871319D01*
X186245491Y-139473541D01*
X186643269Y-138878224D01*
X186710664Y-138539403D01*
X203396682Y-138539403D01*
X203675455Y-139214086D01*
X204191199Y-139730730D01*
X204865395Y-140010681D01*
X205595403Y-140011318D01*
X206270086Y-139732545D01*
X206786730Y-139216801D01*
X207066681Y-138542605D01*
X207067318Y-137812597D01*
X206788545Y-137137914D01*
X206272801Y-136621270D01*
X205598605Y-136341319D01*
X204868597Y-136340682D01*
X204193914Y-136619455D01*
X203677270Y-137135199D01*
X203397319Y-137809395D01*
X203396682Y-138539403D01*
X186710664Y-138539403D01*
X186782950Y-138176000D01*
X186643269Y-137473776D01*
X186245491Y-136878459D01*
X185650174Y-136480681D01*
X184947950Y-136341000D01*
X184876050Y-136341000D01*
X184173826Y-136480681D01*
X183578509Y-136878459D01*
X183180731Y-137473776D01*
X183041050Y-138176000D01*
X174778203Y-138176000D01*
X174890612Y-138129554D01*
X175212423Y-137808303D01*
X175386801Y-137388354D01*
X175387198Y-136933641D01*
X175213554Y-136513388D01*
X174892303Y-136191577D01*
X174472354Y-136017199D01*
X174017641Y-136016802D01*
X173597388Y-136190446D01*
X173516694Y-136271000D01*
X173291417Y-136271000D01*
X173354801Y-136118354D01*
X173355198Y-135663641D01*
X173181554Y-135243388D01*
X172860303Y-134921577D01*
X172440354Y-134747199D01*
X171985641Y-134746802D01*
X171565388Y-134920446D01*
X171484694Y-135001000D01*
X154905588Y-135001000D01*
X154826303Y-134921577D01*
X154406354Y-134747199D01*
X153951641Y-134746802D01*
X153531388Y-134920446D01*
X153209577Y-135241697D01*
X153035199Y-135661646D01*
X153034802Y-136116359D01*
X86816000Y-136116359D01*
X86816000Y-131094187D01*
X135978752Y-131094187D01*
X136196757Y-131621800D01*
X136600077Y-132025824D01*
X137127309Y-132244750D01*
X137698187Y-132245248D01*
X138225800Y-132027243D01*
X138435663Y-131817745D01*
X146585861Y-131817745D01*
X146659995Y-132063864D01*
X147197223Y-132256965D01*
X147767454Y-132229778D01*
X148168005Y-132063864D01*
X148242139Y-131817745D01*
X147414000Y-130989605D01*
X146585861Y-131817745D01*
X138435663Y-131817745D01*
X138629824Y-131623923D01*
X138848750Y-131096691D01*
X138849189Y-130593223D01*
X145967035Y-130593223D01*
X145994222Y-131163454D01*
X146160136Y-131564005D01*
X146406255Y-131638139D01*
X147234395Y-130810000D01*
X147593605Y-130810000D01*
X148421745Y-131638139D01*
X148667864Y-131564005D01*
X148860965Y-131026777D01*
X148833778Y-130456546D01*
X148667864Y-130055995D01*
X148421745Y-129981861D01*
X147593605Y-130810000D01*
X147234395Y-130810000D01*
X146406255Y-129981861D01*
X146160136Y-130055995D01*
X145967035Y-130593223D01*
X138849189Y-130593223D01*
X138849248Y-130525813D01*
X138631243Y-129998200D01*
X138435640Y-129802255D01*
X146585861Y-129802255D01*
X147414000Y-130630395D01*
X148242139Y-129802255D01*
X148168005Y-129556136D01*
X147630777Y-129363035D01*
X147060546Y-129390222D01*
X146659995Y-129556136D01*
X146585861Y-129802255D01*
X138435640Y-129802255D01*
X138227923Y-129594176D01*
X137700691Y-129375250D01*
X137129813Y-129374752D01*
X136602200Y-129592757D01*
X136198176Y-129996077D01*
X135979250Y-130523309D01*
X135978752Y-131094187D01*
X86816000Y-131094187D01*
X86816000Y-128524000D01*
X183041050Y-128524000D01*
X183180731Y-129226224D01*
X183578509Y-129821541D01*
X184173826Y-130219319D01*
X184876050Y-130359000D01*
X184947950Y-130359000D01*
X185650174Y-130219319D01*
X186245491Y-129821541D01*
X186643269Y-129226224D01*
X186782950Y-128524000D01*
X186643269Y-127821776D01*
X186245491Y-127226459D01*
X185650174Y-126828681D01*
X184947950Y-126689000D01*
X184876050Y-126689000D01*
X184173826Y-126828681D01*
X183578509Y-127226459D01*
X183180731Y-127821776D01*
X183041050Y-128524000D01*
X86816000Y-128524000D01*
X86816000Y-123943745D01*
X161637861Y-123943745D01*
X161711995Y-124189864D01*
X162249223Y-124382965D01*
X162819454Y-124355778D01*
X163220005Y-124189864D01*
X163294139Y-123943745D01*
X162466000Y-123115605D01*
X161637861Y-123943745D01*
X86816000Y-123943745D01*
X86816000Y-122719223D01*
X161019035Y-122719223D01*
X161046222Y-123289454D01*
X161212136Y-123690005D01*
X161458255Y-123764139D01*
X162286395Y-122936000D01*
X162645605Y-122936000D01*
X163473745Y-123764139D01*
X163719864Y-123690005D01*
X163888735Y-123220187D01*
X171030752Y-123220187D01*
X171248757Y-123747800D01*
X171652077Y-124151824D01*
X172179309Y-124370750D01*
X172750187Y-124371248D01*
X173277800Y-124153243D01*
X173681824Y-123749923D01*
X173900750Y-123222691D01*
X173901248Y-122651813D01*
X173683243Y-122124200D01*
X173279923Y-121720176D01*
X172752691Y-121501250D01*
X172181813Y-121500752D01*
X171654200Y-121718757D01*
X171250176Y-122122077D01*
X171031250Y-122649309D01*
X171030752Y-123220187D01*
X163888735Y-123220187D01*
X163912965Y-123152777D01*
X163885778Y-122582546D01*
X163719864Y-122181995D01*
X163473745Y-122107861D01*
X162645605Y-122936000D01*
X162286395Y-122936000D01*
X161458255Y-122107861D01*
X161212136Y-122181995D01*
X161019035Y-122719223D01*
X86816000Y-122719223D01*
X86816000Y-121928255D01*
X161637861Y-121928255D01*
X162466000Y-122756395D01*
X163294139Y-121928255D01*
X163220005Y-121682136D01*
X162682777Y-121489035D01*
X162112546Y-121516222D01*
X161711995Y-121682136D01*
X161637861Y-121928255D01*
X86816000Y-121928255D01*
X86816000Y-114799745D01*
X161637861Y-114799745D01*
X161711995Y-115045864D01*
X162249223Y-115238965D01*
X162819454Y-115211778D01*
X163220005Y-115045864D01*
X163294139Y-114799745D01*
X162466000Y-113971605D01*
X161637861Y-114799745D01*
X86816000Y-114799745D01*
X86816000Y-113003846D01*
X133031000Y-113003846D01*
X133031000Y-113056154D01*
X133132621Y-113567036D01*
X133422012Y-114000142D01*
X133855118Y-114289533D01*
X134366000Y-114391154D01*
X134876882Y-114289533D01*
X135309988Y-114000142D01*
X135599379Y-113567036D01*
X135649673Y-113314187D01*
X138518752Y-113314187D01*
X138736757Y-113841800D01*
X139140077Y-114245824D01*
X139667309Y-114464750D01*
X140238187Y-114465248D01*
X140765800Y-114247243D01*
X140975663Y-114037745D01*
X146625861Y-114037745D01*
X146699995Y-114283864D01*
X147237223Y-114476965D01*
X147807454Y-114449778D01*
X148208005Y-114283864D01*
X148282139Y-114037745D01*
X147454000Y-113209605D01*
X146625861Y-114037745D01*
X140975663Y-114037745D01*
X141169824Y-113843923D01*
X141388750Y-113316691D01*
X141389189Y-112813223D01*
X146007035Y-112813223D01*
X146034222Y-113383454D01*
X146200136Y-113784005D01*
X146446255Y-113858139D01*
X147274395Y-113030000D01*
X147633605Y-113030000D01*
X148461745Y-113858139D01*
X148707864Y-113784005D01*
X148782908Y-113575223D01*
X161019035Y-113575223D01*
X161046222Y-114145454D01*
X161212136Y-114546005D01*
X161458255Y-114620139D01*
X162286395Y-113792000D01*
X162645605Y-113792000D01*
X163473745Y-114620139D01*
X163719864Y-114546005D01*
X163888735Y-114076187D01*
X171030752Y-114076187D01*
X171248757Y-114603800D01*
X171652077Y-115007824D01*
X172179309Y-115226750D01*
X172750187Y-115227248D01*
X173277800Y-115009243D01*
X173681824Y-114605923D01*
X173900750Y-114078691D01*
X173901248Y-113507813D01*
X173683243Y-112980200D01*
X173279923Y-112576176D01*
X172752691Y-112357250D01*
X172181813Y-112356752D01*
X171654200Y-112574757D01*
X171250176Y-112978077D01*
X171031250Y-113505309D01*
X171030752Y-114076187D01*
X163888735Y-114076187D01*
X163912965Y-114008777D01*
X163885778Y-113438546D01*
X163719864Y-113037995D01*
X163473745Y-112963861D01*
X162645605Y-113792000D01*
X162286395Y-113792000D01*
X161458255Y-112963861D01*
X161212136Y-113037995D01*
X161019035Y-113575223D01*
X148782908Y-113575223D01*
X148900965Y-113246777D01*
X148878914Y-112784255D01*
X161637861Y-112784255D01*
X162466000Y-113612395D01*
X163294139Y-112784255D01*
X163220005Y-112538136D01*
X162682777Y-112345035D01*
X162112546Y-112372222D01*
X161711995Y-112538136D01*
X161637861Y-112784255D01*
X148878914Y-112784255D01*
X148873778Y-112676546D01*
X148707864Y-112275995D01*
X148461745Y-112201861D01*
X147633605Y-113030000D01*
X147274395Y-113030000D01*
X146446255Y-112201861D01*
X146200136Y-112275995D01*
X146007035Y-112813223D01*
X141389189Y-112813223D01*
X141389248Y-112745813D01*
X141171243Y-112218200D01*
X140975640Y-112022255D01*
X146625861Y-112022255D01*
X147454000Y-112850395D01*
X148282139Y-112022255D01*
X148208005Y-111776136D01*
X147670777Y-111583035D01*
X147100546Y-111610222D01*
X146699995Y-111776136D01*
X146625861Y-112022255D01*
X140975640Y-112022255D01*
X140767923Y-111814176D01*
X140240691Y-111595250D01*
X139669813Y-111594752D01*
X139142200Y-111812757D01*
X138738176Y-112216077D01*
X138519250Y-112743309D01*
X138518752Y-113314187D01*
X135649673Y-113314187D01*
X135701000Y-113056154D01*
X135701000Y-113003846D01*
X135599379Y-112492964D01*
X135309988Y-112059858D01*
X134876882Y-111770467D01*
X134366000Y-111668846D01*
X133855118Y-111770467D01*
X133422012Y-112059858D01*
X133132621Y-112492964D01*
X133031000Y-113003846D01*
X86816000Y-113003846D01*
X86816000Y-96234691D01*
X93382000Y-96234691D01*
X93382000Y-96964250D01*
X93540750Y-97123000D01*
X94779000Y-97123000D01*
X94779000Y-95884750D01*
X94620250Y-95726000D01*
X93890690Y-95726000D01*
X93657301Y-95822673D01*
X93478673Y-96001302D01*
X93382000Y-96234691D01*
X86816000Y-96234691D01*
X86816000Y-95377000D01*
X113677764Y-95377000D01*
X113229320Y-95825444D01*
X113229320Y-95825444D01*
G37*
X113229320Y-95825444D02*
X112990472Y-95726265D01*
X112384188Y-95725736D01*
X111823851Y-95957262D01*
X111415664Y-96364737D01*
X111010404Y-95958769D01*
X110450472Y-95726265D01*
X109844188Y-95725736D01*
X109283851Y-95957262D01*
X108875664Y-96364737D01*
X108470404Y-95958769D01*
X107910472Y-95726265D01*
X107304188Y-95725736D01*
X106743851Y-95957262D01*
X106335664Y-96364737D01*
X105930404Y-95958769D01*
X105370472Y-95726265D01*
X104764188Y-95725736D01*
X104203851Y-95957262D01*
X103795664Y-96364737D01*
X103390404Y-95958769D01*
X102830472Y-95726265D01*
X102224188Y-95725736D01*
X101663851Y-95957262D01*
X101255664Y-96364737D01*
X100850404Y-95958769D01*
X100290472Y-95726265D01*
X99684188Y-95725736D01*
X99123851Y-95957262D01*
X98715664Y-96364737D01*
X98310404Y-95958769D01*
X97750472Y-95726265D01*
X97144188Y-95725736D01*
X96583851Y-95957262D01*
X96393708Y-96147074D01*
X96333327Y-96001302D01*
X96154699Y-95822673D01*
X95921310Y-95726000D01*
X95191750Y-95726000D01*
X95033000Y-95884750D01*
X95033000Y-97123000D01*
X95053000Y-97123000D01*
X95053000Y-97377000D01*
X95033000Y-97377000D01*
X95033000Y-97397000D01*
X94779000Y-97397000D01*
X94779000Y-97377000D01*
X93540750Y-97377000D01*
X93382000Y-97535750D01*
X93382000Y-98265309D01*
X93478673Y-98498698D01*
X93478740Y-98498765D01*
X93368843Y-98663235D01*
X93319560Y-98911000D01*
X93319560Y-100689000D01*
X93368843Y-100936765D01*
X93509191Y-101146809D01*
X93719235Y-101287157D01*
X93967000Y-101336440D01*
X95745000Y-101336440D01*
X95992765Y-101287157D01*
X96202809Y-101146809D01*
X96343157Y-100936765D01*
X96348846Y-100908162D01*
X96531596Y-101091231D01*
X97091528Y-101323735D01*
X97697812Y-101324264D01*
X98258149Y-101092738D01*
X98666336Y-100685263D01*
X99071596Y-101091231D01*
X99631528Y-101323735D01*
X100237812Y-101324264D01*
X100798149Y-101092738D01*
X101206336Y-100685263D01*
X101611596Y-101091231D01*
X102171528Y-101323735D01*
X102777812Y-101324264D01*
X103338149Y-101092738D01*
X103746336Y-100685263D01*
X104151596Y-101091231D01*
X104711528Y-101323735D01*
X105317812Y-101324264D01*
X105878149Y-101092738D01*
X106286336Y-100685263D01*
X106691596Y-101091231D01*
X107251528Y-101323735D01*
X107857812Y-101324264D01*
X108418149Y-101092738D01*
X108826336Y-100685263D01*
X109231596Y-101091231D01*
X109791528Y-101323735D01*
X110397812Y-101324264D01*
X110958149Y-101092738D01*
X111366336Y-100685263D01*
X111771596Y-101091231D01*
X112331528Y-101323735D01*
X112937812Y-101324264D01*
X113498149Y-101092738D01*
X113906336Y-100685263D01*
X114311596Y-101091231D01*
X114871528Y-101323735D01*
X115477812Y-101324264D01*
X116038149Y-101092738D01*
X116446336Y-100685263D01*
X116851596Y-101091231D01*
X117411528Y-101323735D01*
X118017812Y-101324264D01*
X118491000Y-101128747D01*
X118491000Y-103632000D01*
X118558671Y-103972206D01*
X118691201Y-104170551D01*
X118751382Y-104260618D01*
X125609382Y-111118618D01*
X125897795Y-111311330D01*
X126238000Y-111379000D01*
X148589593Y-111379000D01*
X148895018Y-111505824D01*
X149299208Y-111506176D01*
X149672766Y-111351825D01*
X149958821Y-111066269D01*
X150113824Y-110692982D01*
X150113934Y-110566463D01*
X150368000Y-110617000D01*
X150708205Y-110549329D01*
X150996618Y-110356618D01*
X151244136Y-110109100D01*
X151356359Y-110109198D01*
X151776612Y-109935554D01*
X152012216Y-109700359D01*
X174878802Y-109700359D01*
X175052446Y-110120612D01*
X175373697Y-110442423D01*
X175374176Y-110442622D01*
X183555880Y-118624326D01*
X183180731Y-119185776D01*
X183041050Y-119888000D01*
X183180731Y-120590224D01*
X183578509Y-121185541D01*
X184173826Y-121583319D01*
X184876050Y-121723000D01*
X184947950Y-121723000D01*
X185650174Y-121583319D01*
X186245491Y-121185541D01*
X186643269Y-120590224D01*
X186782950Y-119888000D01*
X186643269Y-119185776D01*
X186245491Y-118590459D01*
X186055000Y-118463177D01*
X186055000Y-118364000D01*
X185967994Y-117926593D01*
X185720223Y-117555777D01*
X178654446Y-110490000D01*
X183041050Y-110490000D01*
X183180731Y-111192224D01*
X183578509Y-111787541D01*
X184173826Y-112185319D01*
X184876050Y-112325000D01*
X184947950Y-112325000D01*
X185650174Y-112185319D01*
X186245491Y-111787541D01*
X186643269Y-111192224D01*
X186782950Y-110490000D01*
X186643269Y-109787776D01*
X186245491Y-109192459D01*
X186055000Y-109065177D01*
X186055000Y-102870000D01*
X186055198Y-102643641D01*
X185881554Y-102223388D01*
X185560303Y-101901577D01*
X185140354Y-101727199D01*
X184685641Y-101726802D01*
X184265388Y-101900446D01*
X183943577Y-102221697D01*
X183769199Y-102641646D01*
X183768802Y-103096359D01*
X183769000Y-103096838D01*
X183769000Y-109065177D01*
X183578509Y-109192459D01*
X183180731Y-109787776D01*
X183041050Y-110490000D01*
X178654446Y-110490000D01*
X176830929Y-108666483D01*
X176670303Y-108505577D01*
X176250354Y-108331199D01*
X175795641Y-108330802D01*
X175375388Y-108504446D01*
X175053577Y-108825697D01*
X174879199Y-109245646D01*
X174878802Y-109700359D01*
X152012216Y-109700359D01*
X152098423Y-109614303D01*
X152272801Y-109194354D01*
X152273198Y-108739641D01*
X152099554Y-108319388D01*
X151778303Y-107997577D01*
X151358354Y-107823199D01*
X150903641Y-107822802D01*
X150483388Y-107996446D01*
X150161577Y-108317697D01*
X149987199Y-108737646D01*
X149987099Y-108851665D01*
X149872764Y-108966000D01*
X135237850Y-108966000D01*
X135497098Y-108707204D01*
X135700768Y-108216713D01*
X135701231Y-107685617D01*
X135498418Y-107194771D01*
X135123204Y-106818902D01*
X134632713Y-106615232D01*
X134101617Y-106614769D01*
X133610771Y-106817582D01*
X133234902Y-107192796D01*
X133031232Y-107683287D01*
X133030769Y-108214383D01*
X133233582Y-108705229D01*
X133493899Y-108966000D01*
X128257236Y-108966000D01*
X125747423Y-106456187D01*
X157060752Y-106456187D01*
X157278757Y-106983800D01*
X157682077Y-107387824D01*
X158209309Y-107606750D01*
X158780187Y-107607248D01*
X159307800Y-107389243D01*
X159711824Y-106985923D01*
X159930750Y-106458691D01*
X159931248Y-105887813D01*
X159713243Y-105360200D01*
X159309923Y-104956176D01*
X158782691Y-104737250D01*
X158211813Y-104736752D01*
X157684200Y-104954757D01*
X157280176Y-105358077D01*
X157061250Y-105885309D01*
X157060752Y-106456187D01*
X125747423Y-106456187D01*
X122465227Y-103173991D01*
X132830735Y-103173991D01*
X133063932Y-103738371D01*
X133495357Y-104170551D01*
X134059330Y-104404733D01*
X134669991Y-104405265D01*
X135234371Y-104172068D01*
X135666551Y-103740643D01*
X135900733Y-103176670D01*
X135901265Y-102566009D01*
X135668068Y-102001629D01*
X135490908Y-101824159D01*
X135625699Y-101768327D01*
X135804327Y-101589698D01*
X135901000Y-101356309D01*
X135901000Y-101108000D01*
X139830560Y-101108000D01*
X139830560Y-103108000D01*
X139879843Y-103355765D01*
X140020191Y-103565809D01*
X140230235Y-103706157D01*
X140478000Y-103755440D01*
X142478000Y-103755440D01*
X142725765Y-103706157D01*
X142935809Y-103565809D01*
X143076157Y-103355765D01*
X143095099Y-103260532D01*
X145505073Y-103260532D01*
X145603736Y-103527387D01*
X146213461Y-103753908D01*
X146863460Y-103729856D01*
X147352264Y-103527387D01*
X147450927Y-103260532D01*
X146478000Y-102287605D01*
X145505073Y-103260532D01*
X143095099Y-103260532D01*
X143125440Y-103108000D01*
X143125440Y-101843461D01*
X144832092Y-101843461D01*
X144856144Y-102493460D01*
X145058613Y-102982264D01*
X145325468Y-103080927D01*
X146298395Y-102108000D01*
X146657605Y-102108000D01*
X147630532Y-103080927D01*
X147897387Y-102982264D01*
X148123908Y-102372539D01*
X148099856Y-101722540D01*
X147897387Y-101233736D01*
X147630532Y-101135073D01*
X146657605Y-102108000D01*
X146298395Y-102108000D01*
X145325468Y-101135073D01*
X145058613Y-101233736D01*
X144832092Y-101843461D01*
X143125440Y-101843461D01*
X143125440Y-101108000D01*
X143095100Y-100955468D01*
X145505073Y-100955468D01*
X146478000Y-101928395D01*
X147450927Y-100955468D01*
X147352264Y-100688613D01*
X146742539Y-100462092D01*
X146092540Y-100486144D01*
X145603736Y-100688613D01*
X145505073Y-100955468D01*
X143095100Y-100955468D01*
X143076157Y-100860235D01*
X142935809Y-100650191D01*
X142725765Y-100509843D01*
X142478000Y-100460560D01*
X140478000Y-100460560D01*
X140230235Y-100509843D01*
X140020191Y-100650191D01*
X139879843Y-100860235D01*
X139830560Y-101108000D01*
X135901000Y-101108000D01*
X135901000Y-100615750D01*
X135742250Y-100457000D01*
X134493000Y-100457000D01*
X134493000Y-100477000D01*
X134239000Y-100477000D01*
X134239000Y-100457000D01*
X132989750Y-100457000D01*
X132831000Y-100615750D01*
X132831000Y-101356309D01*
X132927673Y-101589698D01*
X133106301Y-101768327D01*
X133240994Y-101824119D01*
X133065449Y-101999357D01*
X132831267Y-102563330D01*
X132830735Y-103173991D01*
X122465227Y-103173991D01*
X121793100Y-102501864D01*
X121793198Y-102389641D01*
X121619554Y-101969388D01*
X121298303Y-101647577D01*
X120878354Y-101473199D01*
X120423641Y-101472802D01*
X120269000Y-101536698D01*
X120269000Y-99303691D01*
X132831000Y-99303691D01*
X132831000Y-100044250D01*
X132989750Y-100203000D01*
X134239000Y-100203000D01*
X134239000Y-98953750D01*
X134493000Y-98953750D01*
X134493000Y-100203000D01*
X135742250Y-100203000D01*
X135901000Y-100044250D01*
X135901000Y-99303691D01*
X135804327Y-99070302D01*
X135625699Y-98891673D01*
X135392310Y-98795000D01*
X134651750Y-98795000D01*
X134493000Y-98953750D01*
X134239000Y-98953750D01*
X134080250Y-98795000D01*
X133339690Y-98795000D01*
X133106301Y-98891673D01*
X132927673Y-99070302D01*
X132831000Y-99303691D01*
X120269000Y-99303691D01*
X120269000Y-98386393D01*
X121904856Y-98386393D01*
X121999255Y-98649639D01*
X122596370Y-98870348D01*
X123232494Y-98845750D01*
X123705947Y-98649639D01*
X123800346Y-98386393D01*
X122852601Y-97438648D01*
X121904856Y-98386393D01*
X120269000Y-98386393D01*
X120269000Y-97002812D01*
X121241296Y-97002812D01*
X121265894Y-97638936D01*
X121462005Y-98112389D01*
X121725251Y-98206788D01*
X122672996Y-97259043D01*
X123032206Y-97259043D01*
X123979951Y-98206788D01*
X124122601Y-98155634D01*
X124265251Y-98206788D01*
X125212996Y-97259043D01*
X124265251Y-96311298D01*
X124122601Y-96362452D01*
X123979951Y-96311298D01*
X123032206Y-97259043D01*
X122672996Y-97259043D01*
X121725251Y-96311298D01*
X121462005Y-96405697D01*
X121241296Y-97002812D01*
X120269000Y-97002812D01*
X120269000Y-96131693D01*
X121904856Y-96131693D01*
X122852601Y-97079438D01*
X123800346Y-96131693D01*
X124444856Y-96131693D01*
X125392601Y-97079438D01*
X125406744Y-97065296D01*
X125586349Y-97244901D01*
X125572206Y-97259043D01*
X125586349Y-97273186D01*
X125406744Y-97452791D01*
X125392601Y-97438648D01*
X124444856Y-98386393D01*
X124539255Y-98649639D01*
X125136370Y-98870348D01*
X125772494Y-98845750D01*
X126245947Y-98649639D01*
X126340345Y-98386395D01*
X126454718Y-98500768D01*
X126542000Y-98413486D01*
X126636592Y-98555052D01*
X126846636Y-98695400D01*
X127094401Y-98744683D01*
X128770801Y-98744683D01*
X129018566Y-98695400D01*
X129228610Y-98555052D01*
X129368958Y-98345008D01*
X129418241Y-98097243D01*
X129418241Y-96420843D01*
X129368958Y-96173078D01*
X129228610Y-95963034D01*
X129018566Y-95822686D01*
X128770801Y-95773403D01*
X127094401Y-95773403D01*
X126846636Y-95822686D01*
X126636592Y-95963034D01*
X126542000Y-96104600D01*
X126454718Y-96017318D01*
X126340345Y-96131691D01*
X126245947Y-95868447D01*
X125648832Y-95647738D01*
X125012708Y-95672336D01*
X124539255Y-95868447D01*
X124444856Y-96131693D01*
X123800346Y-96131693D01*
X123705947Y-95868447D01*
X123108832Y-95647738D01*
X122472708Y-95672336D01*
X121999255Y-95868447D01*
X121904856Y-96131693D01*
X120269000Y-96131693D01*
X120269000Y-96012000D01*
X120201329Y-95671794D01*
X120008618Y-95383382D01*
X120002236Y-95377000D01*
X159345936Y-95377000D01*
X159136764Y-95516764D01*
X157238764Y-97414764D01*
X156853342Y-97991589D01*
X156718000Y-98672000D01*
X156853342Y-99352411D01*
X156912535Y-99441000D01*
X150587588Y-99441000D01*
X150508303Y-99361577D01*
X150088354Y-99187199D01*
X149633641Y-99186802D01*
X149213388Y-99360446D01*
X148891577Y-99681697D01*
X148717199Y-100101646D01*
X148716802Y-100556359D01*
X148890446Y-100976612D01*
X149211697Y-101298423D01*
X149631646Y-101472801D01*
X149987110Y-101473111D01*
X149986802Y-101826359D01*
X150160446Y-102246612D01*
X150481697Y-102568423D01*
X150901646Y-102742801D01*
X151356359Y-102743198D01*
X151776612Y-102569554D01*
X151857306Y-102489000D01*
X163363648Y-102489000D01*
X163368446Y-102500612D01*
X163689697Y-102822423D01*
X164109646Y-102996801D01*
X164564359Y-102997198D01*
X164984612Y-102823554D01*
X165306423Y-102502303D01*
X165480801Y-102082354D01*
X165481198Y-101627641D01*
X165312150Y-101218511D01*
X165480801Y-100812354D01*
X165481198Y-100357641D01*
X165307554Y-99937388D01*
X164986303Y-99615577D01*
X164566354Y-99441199D01*
X164111641Y-99440802D01*
X164102335Y-99444647D01*
X164084000Y-99441000D01*
X160241472Y-99441000D01*
X161130472Y-98552000D01*
X208407000Y-98552000D01*
X208407000Y-105698554D01*
X205450364Y-108655190D01*
X204868597Y-108654682D01*
X204193914Y-108933455D01*
X203677270Y-109449199D01*
X203397319Y-110123395D01*
X203396682Y-110853403D01*
X203675455Y-111528086D01*
X204191199Y-112044730D01*
X204865395Y-112324681D01*
X205595403Y-112325318D01*
X206270086Y-112046545D01*
X206786730Y-111530801D01*
X207066681Y-110856605D01*
X207067192Y-110271254D01*
X208407000Y-108931446D01*
X208407000Y-109880528D01*
X208038764Y-110248764D01*
X207653342Y-110825589D01*
X207518000Y-111506000D01*
X207518000Y-129794000D01*
X207653342Y-130474411D01*
X208038764Y-131051236D01*
X208407000Y-131419472D01*
X208407000Y-135162554D01*
X205024223Y-131779777D01*
X204653407Y-131532006D01*
X204216000Y-131445000D01*
X202911446Y-131445000D01*
X200533000Y-129066554D01*
X200533000Y-128887403D01*
X203396682Y-128887403D01*
X203675455Y-129562086D01*
X204191199Y-130078730D01*
X204865395Y-130358681D01*
X205595403Y-130359318D01*
X206270086Y-130080545D01*
X206786730Y-129564801D01*
X207066681Y-128890605D01*
X207067318Y-128160597D01*
X206788545Y-127485914D01*
X206272801Y-126969270D01*
X205598605Y-126689319D01*
X204868597Y-126688682D01*
X204193914Y-126967455D01*
X203677270Y-127483199D01*
X203397319Y-128157395D01*
X203396682Y-128887403D01*
X200533000Y-128887403D01*
X200533000Y-126203446D01*
X205013636Y-121722810D01*
X205595403Y-121723318D01*
X206270086Y-121444545D01*
X206786730Y-120928801D01*
X207066681Y-120254605D01*
X207067318Y-119524597D01*
X206788545Y-118849914D01*
X206272801Y-118333270D01*
X205598605Y-118053319D01*
X204868597Y-118052682D01*
X204193914Y-118331455D01*
X203677270Y-118847199D01*
X203397319Y-119521395D01*
X203396808Y-120106746D01*
X198581777Y-124921777D01*
X198334006Y-125292593D01*
X198247000Y-125730000D01*
X198247000Y-129540000D01*
X198334006Y-129977407D01*
X198581777Y-130348223D01*
X201629777Y-133396223D01*
X202000593Y-133643994D01*
X202438000Y-133731000D01*
X203742554Y-133731000D01*
X208407000Y-138395446D01*
X208407000Y-140462000D01*
X208416667Y-140510601D01*
X208444197Y-140551803D01*
X208485399Y-140579333D01*
X208534000Y-140589000D01*
X210600554Y-140589000D01*
X211789777Y-141778223D01*
X212160593Y-142025994D01*
X212598000Y-142113000D01*
X219093587Y-142113000D01*
X219304567Y-142428754D01*
X219840190Y-142786646D01*
X220472000Y-142912321D01*
X221103810Y-142786646D01*
X221639433Y-142428754D01*
X221679565Y-142368692D01*
X221754764Y-142481236D01*
X222331589Y-142866658D01*
X223012000Y-143002000D01*
X223692411Y-142866658D01*
X224269236Y-142481236D01*
X224363527Y-142340120D01*
X224474370Y-142481236D01*
X225037523Y-142797926D01*
X225169056Y-142829975D01*
X225425000Y-142710836D01*
X225425000Y-141097000D01*
X225679000Y-141097000D01*
X225679000Y-142710836D01*
X225934944Y-142829975D01*
X226066477Y-142797926D01*
X226629630Y-142481236D01*
X227028724Y-141973143D01*
X227203000Y-141351000D01*
X227203000Y-141097000D01*
X225679000Y-141097000D01*
X225425000Y-141097000D01*
X225405000Y-141097000D01*
X225405000Y-140843000D01*
X225425000Y-140843000D01*
X225425000Y-140823000D01*
X225679000Y-140823000D01*
X225679000Y-140843000D01*
X227203000Y-140843000D01*
X227203000Y-140589000D01*
X227028724Y-139966857D01*
X226629630Y-139458764D01*
X226066477Y-139142074D01*
X225934944Y-139110025D01*
X225679002Y-139229163D01*
X225679002Y-139065000D01*
X225679000Y-139065000D01*
X225679000Y-138852815D01*
X229766630Y-138852815D01*
X230090980Y-139637800D01*
X230691041Y-140238909D01*
X231475459Y-140564628D01*
X232324815Y-140565370D01*
X233109800Y-140241020D01*
X233710909Y-139640959D01*
X234036628Y-138856541D01*
X234037201Y-138200000D01*
X238390560Y-138200000D01*
X238390560Y-141200000D01*
X238439843Y-141447765D01*
X238580191Y-141657809D01*
X238790235Y-141798157D01*
X239038000Y-141847440D01*
X242038000Y-141847440D01*
X242285765Y-141798157D01*
X242495809Y-141657809D01*
X242636157Y-141447765D01*
X242685440Y-141200000D01*
X242685440Y-138200000D01*
X242636157Y-137952235D01*
X242495809Y-137742191D01*
X242285765Y-137601843D01*
X242038000Y-137552560D01*
X239038000Y-137552560D01*
X238790235Y-137601843D01*
X238580191Y-137742191D01*
X238439843Y-137952235D01*
X238390560Y-138200000D01*
X234037201Y-138200000D01*
X234037370Y-138007185D01*
X233713020Y-137222200D01*
X233112959Y-136621091D01*
X232328541Y-136295372D01*
X231479185Y-136294630D01*
X230694200Y-136618980D01*
X230093091Y-137219041D01*
X229767372Y-138003459D01*
X229766630Y-138852815D01*
X225679000Y-138852815D01*
X225679000Y-136133970D01*
X239203635Y-136133970D01*
X239363418Y-136452739D01*
X240154187Y-136762723D01*
X241003387Y-136746497D01*
X241712582Y-136452739D01*
X241872365Y-136133970D01*
X240538000Y-134799605D01*
X239203635Y-136133970D01*
X225679000Y-136133970D01*
X225679000Y-134236187D01*
X238395277Y-134236187D01*
X238411503Y-135085387D01*
X238705261Y-135794582D01*
X239024030Y-135954365D01*
X240358395Y-134620000D01*
X240717605Y-134620000D01*
X242051970Y-135954365D01*
X242370739Y-135794582D01*
X242680723Y-135003813D01*
X242664497Y-134154613D01*
X242370739Y-133445418D01*
X242051970Y-133285635D01*
X240717605Y-134620000D01*
X240358395Y-134620000D01*
X239024030Y-133285635D01*
X238705261Y-133445418D01*
X238395277Y-134236187D01*
X225679000Y-134236187D01*
X225679000Y-133106030D01*
X239203635Y-133106030D01*
X240538000Y-134440395D01*
X241872365Y-133106030D01*
X241712582Y-132787261D01*
X240921813Y-132477277D01*
X240072613Y-132493503D01*
X239363418Y-132787261D01*
X239203635Y-133106030D01*
X225679000Y-133106030D01*
X225679000Y-131203059D01*
X226183810Y-131102646D01*
X226719433Y-130744754D01*
X227077325Y-130209131D01*
X227203000Y-129577321D01*
X227203000Y-128994679D01*
X227077325Y-128362869D01*
X226719433Y-127827246D01*
X226183810Y-127469354D01*
X225679000Y-127368941D01*
X225679000Y-127168815D01*
X229766630Y-127168815D01*
X230090980Y-127953800D01*
X230691041Y-128554909D01*
X231475459Y-128880628D01*
X232324815Y-128881370D01*
X233109800Y-128557020D01*
X233710909Y-127956959D01*
X234036628Y-127172541D01*
X234037370Y-126323185D01*
X233713020Y-125538200D01*
X233112959Y-124937091D01*
X232328541Y-124611372D01*
X231479185Y-124610630D01*
X230694200Y-124934980D01*
X230093091Y-125535041D01*
X229767372Y-126319459D01*
X229766630Y-127168815D01*
X225679000Y-127168815D01*
X225679000Y-119253000D01*
X225679002Y-119253000D01*
X225679002Y-119088837D01*
X225934944Y-119207975D01*
X226066477Y-119175926D01*
X226629630Y-118859236D01*
X227028724Y-118351143D01*
X227203000Y-117729000D01*
X227203000Y-117475000D01*
X230251000Y-117475000D01*
X230251000Y-124460000D01*
X230260667Y-124508601D01*
X230288197Y-124549803D01*
X230329399Y-124577333D01*
X230378000Y-124587000D01*
X245237000Y-124587000D01*
X245237000Y-144653000D01*
X86816000Y-144653000D01*
X86816000Y-139544600D01*
X93370660Y-139544600D01*
X93370660Y-141322600D01*
X93419943Y-141570365D01*
X93508968Y-141703600D01*
X93419943Y-141836835D01*
X93370660Y-142084600D01*
X93370660Y-143862600D01*
X93419943Y-144110365D01*
X93560291Y-144320409D01*
X93770335Y-144460757D01*
X94018100Y-144510040D01*
X95796100Y-144510040D01*
X96043865Y-144460757D01*
X96253909Y-144320409D01*
X96394257Y-144110365D01*
X96399946Y-144081762D01*
X96582696Y-144264831D01*
X97142628Y-144497335D01*
X97748912Y-144497864D01*
X98309249Y-144266338D01*
X98717436Y-143858863D01*
X99122696Y-144264831D01*
X99682628Y-144497335D01*
X100288912Y-144497864D01*
X100849249Y-144266338D01*
X101257436Y-143858863D01*
X101662696Y-144264831D01*
X102222628Y-144497335D01*
X102828912Y-144497864D01*
X103389249Y-144266338D01*
X103797436Y-143858863D01*
X104202696Y-144264831D01*
X104762628Y-144497335D01*
X105368912Y-144497864D01*
X105929249Y-144266338D01*
X106337436Y-143858863D01*
X106742696Y-144264831D01*
X107302628Y-144497335D01*
X107908912Y-144497864D01*
X108469249Y-144266338D01*
X108877436Y-143858863D01*
X109282696Y-144264831D01*
X109842628Y-144497335D01*
X110448912Y-144497864D01*
X111009249Y-144266338D01*
X111417436Y-143858863D01*
X111822696Y-144264831D01*
X112382628Y-144497335D01*
X112988912Y-144497864D01*
X113549249Y-144266338D01*
X113957436Y-143858863D01*
X114362696Y-144264831D01*
X114922628Y-144497335D01*
X115528912Y-144497864D01*
X116089249Y-144266338D01*
X116497436Y-143858863D01*
X116902696Y-144264831D01*
X117462628Y-144497335D01*
X118068912Y-144497864D01*
X118629249Y-144266338D01*
X119058331Y-143838004D01*
X119290835Y-143278072D01*
X119291364Y-142671788D01*
X119059838Y-142111451D01*
X118652363Y-141703264D01*
X119058331Y-141298004D01*
X119290835Y-140738072D01*
X119291364Y-140131788D01*
X119059838Y-139571451D01*
X118631504Y-139142369D01*
X118071572Y-138909865D01*
X117465288Y-138909336D01*
X116904951Y-139140862D01*
X116496764Y-139548337D01*
X116091504Y-139142369D01*
X115531572Y-138909865D01*
X114925288Y-138909336D01*
X114364951Y-139140862D01*
X113956764Y-139548337D01*
X113551504Y-139142369D01*
X112991572Y-138909865D01*
X112385288Y-138909336D01*
X111824951Y-139140862D01*
X111416764Y-139548337D01*
X111011504Y-139142369D01*
X110451572Y-138909865D01*
X109845288Y-138909336D01*
X109284951Y-139140862D01*
X108876764Y-139548337D01*
X108471504Y-139142369D01*
X107911572Y-138909865D01*
X107305288Y-138909336D01*
X106744951Y-139140862D01*
X106336764Y-139548337D01*
X105931504Y-139142369D01*
X105371572Y-138909865D01*
X104765288Y-138909336D01*
X104204951Y-139140862D01*
X103796764Y-139548337D01*
X103391504Y-139142369D01*
X102831572Y-138909865D01*
X102225288Y-138909336D01*
X101664951Y-139140862D01*
X101256764Y-139548337D01*
X100851504Y-139142369D01*
X100291572Y-138909865D01*
X99685288Y-138909336D01*
X99124951Y-139140862D01*
X98695869Y-139569196D01*
X98684695Y-139596106D01*
X98519296Y-139541009D01*
X97626705Y-140433600D01*
X98519296Y-141326191D01*
X98684238Y-141271247D01*
X98694362Y-141295749D01*
X99101837Y-141703936D01*
X98716764Y-142088337D01*
X98311504Y-141682369D01*
X98284594Y-141671195D01*
X98339691Y-141505796D01*
X97447100Y-140613205D01*
X97432958Y-140627348D01*
X97253353Y-140447743D01*
X97267495Y-140433600D01*
X97253353Y-140419458D01*
X97432958Y-140239853D01*
X97447100Y-140253995D01*
X98339691Y-139361404D01*
X98254633Y-139106061D01*
X97685135Y-138898084D01*
X97079400Y-138923877D01*
X96639567Y-139106061D01*
X96554510Y-139361402D01*
X96439920Y-139246812D01*
X96392511Y-139294221D01*
X96253909Y-139086791D01*
X96043865Y-138946443D01*
X95796100Y-138897160D01*
X94018100Y-138897160D01*
X93770335Y-138946443D01*
X93560291Y-139086791D01*
X93419943Y-139296835D01*
X93370660Y-139544600D01*
X86816000Y-139544600D01*
X86816000Y-136116359D01*
X153034802Y-136116359D01*
X153203850Y-136525489D01*
X153035199Y-136931646D01*
X153034802Y-137386359D01*
X153208446Y-137806612D01*
X153529697Y-138128423D01*
X153949646Y-138302801D01*
X154404359Y-138303198D01*
X154824612Y-138129554D01*
X154905306Y-138049000D01*
X157609384Y-138049000D01*
X157534176Y-138124077D01*
X157315250Y-138651309D01*
X157314752Y-139222187D01*
X157532757Y-139749800D01*
X157936077Y-140153824D01*
X158463309Y-140372750D01*
X159034187Y-140373248D01*
X159561800Y-140155243D01*
X159965824Y-139751923D01*
X160184750Y-139224691D01*
X160185248Y-138653813D01*
X159967243Y-138126200D01*
X159890178Y-138049000D01*
X165109384Y-138049000D01*
X165034176Y-138124077D01*
X164815250Y-138651309D01*
X164814752Y-139222187D01*
X165032757Y-139749800D01*
X165436077Y-140153824D01*
X165963309Y-140372750D01*
X166534187Y-140373248D01*
X167061800Y-140155243D01*
X167465824Y-139751923D01*
X167684750Y-139224691D01*
X167685248Y-138653813D01*
X167467243Y-138126200D01*
X167390178Y-138049000D01*
X173516412Y-138049000D01*
X173595697Y-138128423D01*
X174015646Y-138302801D01*
X174470359Y-138303198D01*
X174778203Y-138176000D01*
X183041050Y-138176000D01*
X183180731Y-138878224D01*
X183578509Y-139473541D01*
X184173826Y-139871319D01*
X184876050Y-140011000D01*
X184947950Y-140011000D01*
X185650174Y-139871319D01*
X186245491Y-139473541D01*
X186643269Y-138878224D01*
X186710664Y-138539403D01*
X203396682Y-138539403D01*
X203675455Y-139214086D01*
X204191199Y-139730730D01*
X204865395Y-140010681D01*
X205595403Y-140011318D01*
X206270086Y-139732545D01*
X206786730Y-139216801D01*
X207066681Y-138542605D01*
X207067318Y-137812597D01*
X206788545Y-137137914D01*
X206272801Y-136621270D01*
X205598605Y-136341319D01*
X204868597Y-136340682D01*
X204193914Y-136619455D01*
X203677270Y-137135199D01*
X203397319Y-137809395D01*
X203396682Y-138539403D01*
X186710664Y-138539403D01*
X186782950Y-138176000D01*
X186643269Y-137473776D01*
X186245491Y-136878459D01*
X185650174Y-136480681D01*
X184947950Y-136341000D01*
X184876050Y-136341000D01*
X184173826Y-136480681D01*
X183578509Y-136878459D01*
X183180731Y-137473776D01*
X183041050Y-138176000D01*
X174778203Y-138176000D01*
X174890612Y-138129554D01*
X175212423Y-137808303D01*
X175386801Y-137388354D01*
X175387198Y-136933641D01*
X175213554Y-136513388D01*
X174892303Y-136191577D01*
X174472354Y-136017199D01*
X174017641Y-136016802D01*
X173597388Y-136190446D01*
X173516694Y-136271000D01*
X173291417Y-136271000D01*
X173354801Y-136118354D01*
X173355198Y-135663641D01*
X173181554Y-135243388D01*
X172860303Y-134921577D01*
X172440354Y-134747199D01*
X171985641Y-134746802D01*
X171565388Y-134920446D01*
X171484694Y-135001000D01*
X154905588Y-135001000D01*
X154826303Y-134921577D01*
X154406354Y-134747199D01*
X153951641Y-134746802D01*
X153531388Y-134920446D01*
X153209577Y-135241697D01*
X153035199Y-135661646D01*
X153034802Y-136116359D01*
X86816000Y-136116359D01*
X86816000Y-131094187D01*
X135978752Y-131094187D01*
X136196757Y-131621800D01*
X136600077Y-132025824D01*
X137127309Y-132244750D01*
X137698187Y-132245248D01*
X138225800Y-132027243D01*
X138435663Y-131817745D01*
X146585861Y-131817745D01*
X146659995Y-132063864D01*
X147197223Y-132256965D01*
X147767454Y-132229778D01*
X148168005Y-132063864D01*
X148242139Y-131817745D01*
X147414000Y-130989605D01*
X146585861Y-131817745D01*
X138435663Y-131817745D01*
X138629824Y-131623923D01*
X138848750Y-131096691D01*
X138849189Y-130593223D01*
X145967035Y-130593223D01*
X145994222Y-131163454D01*
X146160136Y-131564005D01*
X146406255Y-131638139D01*
X147234395Y-130810000D01*
X147593605Y-130810000D01*
X148421745Y-131638139D01*
X148667864Y-131564005D01*
X148860965Y-131026777D01*
X148833778Y-130456546D01*
X148667864Y-130055995D01*
X148421745Y-129981861D01*
X147593605Y-130810000D01*
X147234395Y-130810000D01*
X146406255Y-129981861D01*
X146160136Y-130055995D01*
X145967035Y-130593223D01*
X138849189Y-130593223D01*
X138849248Y-130525813D01*
X138631243Y-129998200D01*
X138435640Y-129802255D01*
X146585861Y-129802255D01*
X147414000Y-130630395D01*
X148242139Y-129802255D01*
X148168005Y-129556136D01*
X147630777Y-129363035D01*
X147060546Y-129390222D01*
X146659995Y-129556136D01*
X146585861Y-129802255D01*
X138435640Y-129802255D01*
X138227923Y-129594176D01*
X137700691Y-129375250D01*
X137129813Y-129374752D01*
X136602200Y-129592757D01*
X136198176Y-129996077D01*
X135979250Y-130523309D01*
X135978752Y-131094187D01*
X86816000Y-131094187D01*
X86816000Y-128524000D01*
X183041050Y-128524000D01*
X183180731Y-129226224D01*
X183578509Y-129821541D01*
X184173826Y-130219319D01*
X184876050Y-130359000D01*
X184947950Y-130359000D01*
X185650174Y-130219319D01*
X186245491Y-129821541D01*
X186643269Y-129226224D01*
X186782950Y-128524000D01*
X186643269Y-127821776D01*
X186245491Y-127226459D01*
X185650174Y-126828681D01*
X184947950Y-126689000D01*
X184876050Y-126689000D01*
X184173826Y-126828681D01*
X183578509Y-127226459D01*
X183180731Y-127821776D01*
X183041050Y-128524000D01*
X86816000Y-128524000D01*
X86816000Y-123943745D01*
X161637861Y-123943745D01*
X161711995Y-124189864D01*
X162249223Y-124382965D01*
X162819454Y-124355778D01*
X163220005Y-124189864D01*
X163294139Y-123943745D01*
X162466000Y-123115605D01*
X161637861Y-123943745D01*
X86816000Y-123943745D01*
X86816000Y-122719223D01*
X161019035Y-122719223D01*
X161046222Y-123289454D01*
X161212136Y-123690005D01*
X161458255Y-123764139D01*
X162286395Y-122936000D01*
X162645605Y-122936000D01*
X163473745Y-123764139D01*
X163719864Y-123690005D01*
X163888735Y-123220187D01*
X171030752Y-123220187D01*
X171248757Y-123747800D01*
X171652077Y-124151824D01*
X172179309Y-124370750D01*
X172750187Y-124371248D01*
X173277800Y-124153243D01*
X173681824Y-123749923D01*
X173900750Y-123222691D01*
X173901248Y-122651813D01*
X173683243Y-122124200D01*
X173279923Y-121720176D01*
X172752691Y-121501250D01*
X172181813Y-121500752D01*
X171654200Y-121718757D01*
X171250176Y-122122077D01*
X171031250Y-122649309D01*
X171030752Y-123220187D01*
X163888735Y-123220187D01*
X163912965Y-123152777D01*
X163885778Y-122582546D01*
X163719864Y-122181995D01*
X163473745Y-122107861D01*
X162645605Y-122936000D01*
X162286395Y-122936000D01*
X161458255Y-122107861D01*
X161212136Y-122181995D01*
X161019035Y-122719223D01*
X86816000Y-122719223D01*
X86816000Y-121928255D01*
X161637861Y-121928255D01*
X162466000Y-122756395D01*
X163294139Y-121928255D01*
X163220005Y-121682136D01*
X162682777Y-121489035D01*
X162112546Y-121516222D01*
X161711995Y-121682136D01*
X161637861Y-121928255D01*
X86816000Y-121928255D01*
X86816000Y-114799745D01*
X161637861Y-114799745D01*
X161711995Y-115045864D01*
X162249223Y-115238965D01*
X162819454Y-115211778D01*
X163220005Y-115045864D01*
X163294139Y-114799745D01*
X162466000Y-113971605D01*
X161637861Y-114799745D01*
X86816000Y-114799745D01*
X86816000Y-113003846D01*
X133031000Y-113003846D01*
X133031000Y-113056154D01*
X133132621Y-113567036D01*
X133422012Y-114000142D01*
X133855118Y-114289533D01*
X134366000Y-114391154D01*
X134876882Y-114289533D01*
X135309988Y-114000142D01*
X135599379Y-113567036D01*
X135649673Y-113314187D01*
X138518752Y-113314187D01*
X138736757Y-113841800D01*
X139140077Y-114245824D01*
X139667309Y-114464750D01*
X140238187Y-114465248D01*
X140765800Y-114247243D01*
X140975663Y-114037745D01*
X146625861Y-114037745D01*
X146699995Y-114283864D01*
X147237223Y-114476965D01*
X147807454Y-114449778D01*
X148208005Y-114283864D01*
X148282139Y-114037745D01*
X147454000Y-113209605D01*
X146625861Y-114037745D01*
X140975663Y-114037745D01*
X141169824Y-113843923D01*
X141388750Y-113316691D01*
X141389189Y-112813223D01*
X146007035Y-112813223D01*
X146034222Y-113383454D01*
X146200136Y-113784005D01*
X146446255Y-113858139D01*
X147274395Y-113030000D01*
X147633605Y-113030000D01*
X148461745Y-113858139D01*
X148707864Y-113784005D01*
X148782908Y-113575223D01*
X161019035Y-113575223D01*
X161046222Y-114145454D01*
X161212136Y-114546005D01*
X161458255Y-114620139D01*
X162286395Y-113792000D01*
X162645605Y-113792000D01*
X163473745Y-114620139D01*
X163719864Y-114546005D01*
X163888735Y-114076187D01*
X171030752Y-114076187D01*
X171248757Y-114603800D01*
X171652077Y-115007824D01*
X172179309Y-115226750D01*
X172750187Y-115227248D01*
X173277800Y-115009243D01*
X173681824Y-114605923D01*
X173900750Y-114078691D01*
X173901248Y-113507813D01*
X173683243Y-112980200D01*
X173279923Y-112576176D01*
X172752691Y-112357250D01*
X172181813Y-112356752D01*
X171654200Y-112574757D01*
X171250176Y-112978077D01*
X171031250Y-113505309D01*
X171030752Y-114076187D01*
X163888735Y-114076187D01*
X163912965Y-114008777D01*
X163885778Y-113438546D01*
X163719864Y-113037995D01*
X163473745Y-112963861D01*
X162645605Y-113792000D01*
X162286395Y-113792000D01*
X161458255Y-112963861D01*
X161212136Y-113037995D01*
X161019035Y-113575223D01*
X148782908Y-113575223D01*
X148900965Y-113246777D01*
X148878914Y-112784255D01*
X161637861Y-112784255D01*
X162466000Y-113612395D01*
X163294139Y-112784255D01*
X163220005Y-112538136D01*
X162682777Y-112345035D01*
X162112546Y-112372222D01*
X161711995Y-112538136D01*
X161637861Y-112784255D01*
X148878914Y-112784255D01*
X148873778Y-112676546D01*
X148707864Y-112275995D01*
X148461745Y-112201861D01*
X147633605Y-113030000D01*
X147274395Y-113030000D01*
X146446255Y-112201861D01*
X146200136Y-112275995D01*
X146007035Y-112813223D01*
X141389189Y-112813223D01*
X141389248Y-112745813D01*
X141171243Y-112218200D01*
X140975640Y-112022255D01*
X146625861Y-112022255D01*
X147454000Y-112850395D01*
X148282139Y-112022255D01*
X148208005Y-111776136D01*
X147670777Y-111583035D01*
X147100546Y-111610222D01*
X146699995Y-111776136D01*
X146625861Y-112022255D01*
X140975640Y-112022255D01*
X140767923Y-111814176D01*
X140240691Y-111595250D01*
X139669813Y-111594752D01*
X139142200Y-111812757D01*
X138738176Y-112216077D01*
X138519250Y-112743309D01*
X138518752Y-113314187D01*
X135649673Y-113314187D01*
X135701000Y-113056154D01*
X135701000Y-113003846D01*
X135599379Y-112492964D01*
X135309988Y-112059858D01*
X134876882Y-111770467D01*
X134366000Y-111668846D01*
X133855118Y-111770467D01*
X133422012Y-112059858D01*
X133132621Y-112492964D01*
X133031000Y-113003846D01*
X86816000Y-113003846D01*
X86816000Y-96234691D01*
X93382000Y-96234691D01*
X93382000Y-96964250D01*
X93540750Y-97123000D01*
X94779000Y-97123000D01*
X94779000Y-95884750D01*
X94620250Y-95726000D01*
X93890690Y-95726000D01*
X93657301Y-95822673D01*
X93478673Y-96001302D01*
X93382000Y-96234691D01*
X86816000Y-96234691D01*
X86816000Y-95377000D01*
X113677764Y-95377000D01*
X113229320Y-95825444D01*
M02*
